<svg width="202" height="53" viewBox="0 0 202 53" xmlns="http://www.w3.org/2000/svg" xmlns:xlink="http://www.w3.org/1999/xlink"><title>Page 1</title><defs><path id="a" d="M17.31 26.683V.456H.146v26.227H17.31z"/></defs><g fill="none" fill-rule="evenodd"><path d="M32.67 21.92V.46h-2.287c-5.051 0-9.146 4.123-9.146 9.207V21.92H0v2.602c0 3.813 3.07 6.905 6.86 6.905h14.377v21.46h2.286c5.051 0 9.146-4.122 9.146-9.207V31.427h19.954v-3.983c0-3.05-2.457-5.524-5.487-5.524H32.669zM81.123 17.368v-4.576h-11.37c-.896 0-1.623.731-1.623 1.634v.96h7.803l-1.629 5.67-1.187-3.62h-3.33c-.896 0-1.622.731-1.622 1.634v.176L71.76 29.97l-3.663 12.875h5.461l1.187-4.03 1.357 4.03h5.462l-4.24-12.704 3.799-12.772zM90.858 10.435h-5.54c-.81 0-1.497.602-1.608 1.41L82.378 21.5h5.54c.81 0 1.496-.601 1.608-1.41l.62-4.498h2.781l-.712 5.908h5.372c.824 0 1.518-.621 1.613-1.446l.817-7.091h-9.532l.373-2.528zM94.691 22.012H89.09c-.896 0-1.623.732-1.623 1.634v5.947l-5.088 13.285h6.784l1.934-5.362 1.967 5.362h6.785L94.69 29.593v-7.58zM120.573 35.234v-.962h-1.832v-19.91h1.832v-2.595h-6.654c-.897 0-1.623.732-1.623 1.634v23.466h6.654c.896 0 1.623-.731 1.623-1.633" fill="#FFF"/><path d="M111.414 28.637h-2.307l2.24-10.757h-7.876c-.896 0-1.623.731-1.623 1.634v1.269h2.171l-2.001 11.645h2.137l-2.001 10.279h30.229c.896 0 1.623-.732 1.623-1.634v-.961h-24.492l1.9-11.475z" fill="#FFF"/><path d="M127.256 37.692v-23.33h1.73v19.09a.342.342 0 0 1-.34.342h-.543v2.595h2.443c1.798 0 3.222-1.468 3.222-3.244V11.768h-10.69c-.897 0-1.623.73-1.623 1.633v25.925h4.177c.897 0 1.624-.732 1.624-1.634M108.758 16.582a1.63 1.63 0 0 0 1.614-1.809l-.45-4.201h-4.944a1.63 1.63 0 0 0-1.613 1.81l.45 4.2h4.943zM152.323 10.572h-5.848c-1.183 0-1.968 1.233-1.475 2.316l2.947 6.46-11.431 23.564h7.335c.618 0 1.182-.354 1.455-.911l6.745-13.773 6.75 14.684h5.84c1.186 0 1.971-1.237 1.474-2.32l-13.792-30.02z" fill="#FFF"/><g transform="translate(184.572 16.058)"><mask id="b" fill="#fff"><use xlink:href="#a"/></mask><path d="M12.086 24.087v-9.254h2.956c.897 0 1.624-.732 1.624-1.634v-.962h-4.58V3.051h3.295c.897 0 1.623-.732 1.623-1.634V.456H2.074C1.178.456.45 1.187.45 2.09v.961H5.37v9.186H2.413c-.896 0-1.623.732-1.623 1.635v.96h4.58v9.255H1.768c-.897 0-1.623.732-1.623 1.634v.962h15.54c.897 0 1.624-.732 1.624-1.634v-.962h-5.224z" fill="#FFF" mask="url(#b)"/></g><path d="M190.247 15.387h4.675c1.055 0 1.83-.997 1.575-2.027l-.721-2.925h-4.655c-1.05 0-1.824.99-1.578 2.018l.704 2.934zM177.322 34.038v-.996h-6.009c-.897 0-1.623.732-1.623 1.635v.995h6.01c.896 0 1.622-.732 1.622-1.634" fill="#FFF"/><path d="M183.157 11.118h-11.844c-.896 0-1.623.732-1.623 1.634v.962h7.768V26.28h-2.103V16.275h-3.737c-.896 0-1.622.732-1.622 1.634v10.967h8.581V39.19a.952.952 0 0 1-.95.956h-3.697v2.63h7.022c1.799 0 3.256-1.469 3.256-3.28V26.282h-1.05V11.118z" fill="#FFF"/></g></svg>