<svg width="285" height="160" viewBox="0 0 285 160" xmlns="http://www.w3.org/2000/svg" xmlns:xlink="http://www.w3.org/1999/xlink"><title>Page 1</title><defs><path id="a" d="M0 0h285v160H0z"/><linearGradient x1="50%" y1="0%" x2="50%" y2="100%" id="c"><stop stop-color="#FFF" stop-opacity="0" offset="0%"/><stop stop-color="#FFF" offset="100%"/></linearGradient></defs><g fill="none" fill-rule="evenodd"><mask id="b" fill="#fff"><use xlink:href="#a"/></mask><use fill="#EA606B" xlink:href="#a"/><g mask="url(#b)" opacity=".401"><g fill="url(#c)" transform="translate(133 44)"><path d="M17.092 47.653C7.652 47.653 0 55.303 0 64.74v79.01h10.561c9.44 0 17.09-7.65 17.09-17.087v-79.01h-10.56zM0 17.087V29.4h10.56c9.44 0 17.092-7.65 17.092-17.086V0h-10.56C7.652 0 0 7.65 0 17.087M131.543 0a17.095 17.095 0 0 0-16.21 11.666l-22.12 80.71-22.122-80.71A17.092 17.092 0 0 0 54.882 0H38.03l43.237 143.82.11-.037v.037h13.232a14.65 14.65 0 0 0 13.894-10L148.395 0h-16.852z"/></g></g></g></svg>