<svg width="285" height="160" viewBox="0 0 285 160" xmlns="http://www.w3.org/2000/svg" xmlns:xlink="http://www.w3.org/1999/xlink"><title>Group</title><defs><path id="a" d="M0 0h285v160H0z"/><linearGradient x1="50%" y1="1.457%" x2="50%" y2="100%" id="c"><stop stop-color="#FFF" stop-opacity="0" offset="0%"/><stop stop-color="#FFF" offset="100%"/></linearGradient></defs><g fill="none" fill-rule="evenodd"><mask id="b" fill="#fff"><use xlink:href="#a"/></mask><use fill="#F07D3F" xlink:href="#a"/><g opacity=".445" mask="url(#b)" fill="url(#c)"><path d="M191 147.981h-5c-11.046 0-20-8.955-20-20v-19.042c0-11.045 8.954-20 20-20h5v59.042h36.554c13.255 0 24 10.745 24 24v5.939H215c-13.254 0-24-10.745-24-24v-5.939zm41.037-88.98h19.516v5.938c0 13.255-10.745 24-24 24H191V83c0-13.255 10.745-24 24-24h17.037z"/></g></g></svg>