<svg width="221" height="52" viewBox="0 0 221 52" xmlns="http://www.w3.org/2000/svg" xmlns:xlink="http://www.w3.org/1999/xlink"><title>Group 12</title><defs><linearGradient x1="50%" y1="0%" x2="50%" y2="100%" id="a"><stop stop-color="#FFF" offset="0%"/><stop offset="100%"/></linearGradient><path d="M6.08 16.946A6.078 6.078 0 0 0 0 23.022v28.096h3.757c3.357 0 6.079-2.72 6.079-6.076V16.946H6.08z" id="b"/><path d="M46.79 0a6.08 6.08 0 0 0-5.766 4.149l-7.868 28.7-7.869-28.7A6.08 6.08 0 0 0 19.522 0h-5.995l15.38 51.144.04-.014v.014h4.706a5.21 5.21 0 0 0 4.942-3.557L52.785 0H46.79z" id="c"/><path id="d" d="M36.56 34.307V.288H.33v34.02h36.23z"/></defs><g fill="none" fill-rule="evenodd"><g><use fill="url(#a)" xlink:href="#b"/><use fill="#FFF" xlink:href="#b"/></g><path d="M0 6.076v4.38h3.756c3.358 0 6.08-2.721 6.08-6.077V0H6.08A6.078 6.078 0 0 0 0 6.076" fill="#FFF"/><g><use fill="url(#a)" xlink:href="#c"/><use fill="#FFF" xlink:href="#c"/></g><g><path d="M94.803 16.82h-3.214v6.37h2.104c.613 0 1.11-.479 1.11-1.068V16.82zm-3.214-2.798h3.214V7.689h-3.214v6.333zM79.424 23.19h3.213v-6.37h-3.213v6.37zm0-9.168h3.213V7.69h-1.984a1.23 1.23 0 0 0-1.23 1.23v5.102zm-7.494-9.13h10.707V1.298c0-.68.55-1.231 1.23-1.231h7.722v4.823h11.974V22.49c0 1.915-1.644 3.498-3.633 3.498h-8.34v6h13.619v1.568c0 .68-.55 1.231-1.23 1.231H82.638v-8.8H70.701V6.123c0-.68.55-1.23 1.229-1.23zM109.342 15.79h12.085v-3.388l7.727-8.8h-19.28V2.036c0-.68.55-1.23 1.228-1.23h31.48l-12.05 13.66v1.324h13.772v1.568c0 .68-.55 1.23-1.229 1.23h-12.543v12.886c0 1.915-1.645 3.498-3.596 3.498h-11.019v-2.798h4.4c.574 0 1.11-.515 1.11-1.067V18.588h-13.314V17.02c0-.68.55-1.23 1.23-1.23M173.71 1.099h6.208l1.314 4.971a1.23 1.23 0 0 1-1.188 1.546h-6.208l-1.314-4.97a1.23 1.23 0 0 1 1.189-1.547zm-7.755 16.126l4.055 4.271 3.978-4.27h-8.033zm-1.072-5.191l-.956 2.393h18.249v5.08l-6.963 7.512 7.46 7.879h-10.406l-2.219-2.32-2.142 2.32h-10.368l7.27-7.842-4.094-4.345-4.44 11.403a1.229 1.229 0 0 1-1.144.784h-8.457l8.914-22.864h-9.296l4.05-10.019a1.23 1.23 0 0 1 1.14-.769h6.976l-3.1 7.99h1.301l3.29-8.387a1.229 1.229 0 0 1 1.144-.78h8.459l-3.596 9.167h16.489v1.567c0 .68-.55 1.23-1.23 1.23h-16.33z" fill="#FFF"/><g transform="translate(184.252 .37)"><mask id="e" fill="#fff"><use xlink:href="#d"/></mask><path d="M34.915 25.508l.922 6.89a1.23 1.23 0 0 1-1.218 1.394h-6.59l-.924-6.889a1.23 1.23 0 0 1 1.219-1.395h6.59zM28.296 8.057H26.23v3.682h1.34c.42 0 .726-.332.726-.7V8.057zm-10.941 3.682h2.18V8.057h-2.18v3.682zm0-6.48h2.18V3.085h-2.18v2.172zm-8.761 6.48h2.066V8.057h-.837a1.23 1.23 0 0 0-1.23 1.23v2.452zm-5.39 5.007h31.71v1.566c0 .68-.55 1.232-1.228 1.232H1.976v-1.567c0-.68.55-1.231 1.228-1.231zm6.767 8.762l-.967 7.217a1.23 1.23 0 0 1-1.218 1.067H.904l.933-7.21a1.23 1.23 0 0 1 1.218-1.074h6.916zm-8.412-4.16h35v1.567c0 .68-.55 1.23-1.229 1.23H22.978v5.965c0 2.283-1.95 4.197-4.323 4.197h-8.034V31.51h2.22c.573 0 1.07-.478 1.07-1.067v-6.296H.332v-1.567c0-.68.55-1.231 1.228-1.231zm0-21.06h35v1.567c0 .68-.55 1.231-1.229 1.231h-9.1v2.172h9.526v6.48c0 1.547-1.3 2.799-2.907 2.799H1.134V6.489c0-.68.55-1.23 1.229-1.23h8.297V3.085H.33V1.52C.33.84.88.29 1.56.29z" fill="#FFF" mask="url(#e)"/></g><path d="M77.266 41.862h-4.742v3.044h4.572v.665h-4.572v3.3h4.742v.656h-4.742v.008h-2.159v-7.108c0-.68.55-1.23 1.229-1.23h5.672v.665zM80.024 41.26v7.026c0 .68-.55 1.231-1.23 1.231h-.93v-7.026c0-.68.552-1.231 1.23-1.231h.93zM83.148 46.838h2.007c.474 0 .862-.374.862-.83v-1.212h-1.64a1.23 1.23 0 0 0-1.229 1.231v.81zm0 .656v1.376h5.027v.666H80.99V45.37c0-.68.55-1.231 1.229-1.231h5.956v2.114c0 .684-.577 1.24-1.297 1.24h-3.73zM91.226 48.87h3.824v.666h-5.983V45.37c0-.68.551-1.23 1.23-1.23h4.753v.656h-3.824v4.073zM98.981 42.18v1.905h1.61v.657h-1.61v4.11h1.61v.665h-3.768v-4.775h-1.43v-.657h1.43v-.673c0-.68.55-1.231 1.23-1.231h.928zM101.283 49.517v-4.146c0-.68.55-1.23 1.23-1.23h.93v1.184l2.29-1.267v1.002l-2.29 1.267v1.96c0 .68-.551 1.23-1.23 1.23h-.93zM108.499 45.963v2.853h1.78c.473 0 .861-.374.861-.83v-3.254h-1.412a1.23 1.23 0 0 0-1.23 1.231m-.929-1.887h5.73v3.737c0 .92-.777 1.668-1.724 1.668h-5.235v-4.174c0-.68.55-1.231 1.23-1.231M124.2 44.15v4.155c0 .68-.55 1.23-1.23 1.23h-.929V45.38c0-.68.55-1.23 1.229-1.23h.93zm-.01-2.443v.582c0 .68-.55 1.231-1.23 1.231h-.928v-.582c0-.68.55-1.231 1.229-1.231h.929zM127.315 48.87h3.824v.666h-5.982V45.37c0-.68.55-1.23 1.229-1.23h4.753v.656h-3.824v4.073zM136.103 44.15v4.155c0 .68-.55 1.23-1.229 1.23h-.93V45.38c0-.68.551-1.23 1.23-1.23h.93zm-.01-2.443v.582c0 .68-.55 1.231-1.229 1.231h-.929v-.582c0-.68.55-1.231 1.23-1.231h.928zM151.821 44.15l-2.423 5.367h-2.348l-2.424-5.368h1.372c.485 0 .924.285 1.122.728l1.104 2.471 1.113-2.474a1.23 1.23 0 0 1 1.12-.725h1.364zM154.664 44.732v4.084h1.78c.473 0 .861-.374.861-.83v-3.254h-2.641zm-.93-.656h5.73v3.737c0 .92-.777 1.668-1.724 1.668h-5.235v-4.174c0-.68.55-1.231 1.23-1.231zM162.552 44.15v4.155c0 .68-.55 1.23-1.229 1.23h-.93V45.38c0-.68.551-1.23 1.23-1.23h.93zm-.01-2.443v.582c0 .68-.55 1.231-1.229 1.231h-.929v-.582c0-.68.55-1.231 1.23-1.231h.928zM165.668 48.87h3.824v.666h-5.983V45.37c0-.68.55-1.23 1.23-1.23h4.753v.656h-3.824v4.073zM172.325 46.838h2.007c.473 0 .861-.374.861-.83v-1.212h-2.868v2.042zm0 .656v1.376h5.027v.666h-7.186V45.37c0-.68.55-1.231 1.23-1.231h5.956v2.114c0 .684-.578 1.24-1.297 1.24h-3.73zM114.229 49.517v-4.584c0-.473.383-.857.855-.857h1.247v.277c.213-.166.49-.277.886-.277h3.791v4.695a.746.746 0 0 1-.745.746h-1.358v-4.766h-1.32c-.561 0-.949.194-1.254.61v3.31a.846.846 0 0 1-.845.846h-1.257zM137.098 49.517v-4.584c0-.473.383-.857.855-.857h1.247v.277c.213-.166.49-.277.886-.277h3.79v4.695a.746.746 0 0 1-.744.746h-1.358v-4.766h-1.32c-.562 0-.949.194-1.254.61v3.31a.846.846 0 0 1-.845.846h-1.257z" fill="#FFF"/></g></g></svg>