<svg width="285" height="160" viewBox="0 0 285 160" xmlns="http://www.w3.org/2000/svg" xmlns:xlink="http://www.w3.org/1999/xlink"><title>Group 14</title><defs><path id="a" d="M0 0h285v160H0z"/><linearGradient x1="50%" y1="0%" x2="50%" y2="100%" id="c"><stop stop-color="#FFF" stop-opacity="0" offset="0%"/><stop stop-color="#FFF" offset="100%"/></linearGradient></defs><g fill="none" fill-rule="evenodd"><mask id="b" fill="#fff"><use xlink:href="#a"/></mask><use fill="#925CE7" xlink:href="#a"/><g opacity=".307" mask="url(#b)"><g fill="url(#c)" transform="translate(136 40.325)"><path d="M54.38 132.768c7.505 0 13.59-6.03 13.59-13.467v-18.662H55.908c-7.506 0-13.59 6.03-13.59 13.467v18.662H54.38zM.787 26.089h91.728c9.38 0 16.986-7.538 16.986-16.835V.67H17.774C8.393.67.787 8.205.787 17.503v8.586z"/><path d="M59.306 4.962c-9.382 0-16.987 7.536-16.987 16.834v62.511H54.38c7.504 0 13.588-6.03 13.588-13.468V4.962h-8.663z"/></g></g></g></svg>