<svg width="171" height="56" viewBox="0 0 171 56" xmlns="http://www.w3.org/2000/svg" xmlns:xlink="http://www.w3.org/1999/xlink"><title>Group 75</title><defs><linearGradient x1="50%" y1="0%" x2="50%" y2="100%" id="a"><stop stop-color="#FFF" offset="0%"/><stop offset="100%"/></linearGradient><path d="M10.802 47.364V10.66H8.585C3.844 10.659 0 14.45 0 19.129v36.706h2.218c4.741 0 8.584-3.793 8.584-8.47" id="b"/><path d="M36.052 47.364V10.66h-2.218c-4.741 0-8.585 3.792-8.585 8.47v36.706h2.218c4.742 0 8.585-3.793 8.585-8.47" id="c"/><path d="M61.661 16.826V10.66h-2.217c-4.742 0-8.585 3.792-8.585 8.47v6.168h2.218c4.741 0 8.584-3.793 8.584-8.47" id="d"/><path id="e" d="M0 .129v30.737h29.488V.129H0z"/><path id="g" d="M30 .03H.28v30.706H30V.03z"/><path id="i" d="M31.267 19.29V.335H.349v18.953h30.918z"/></defs><g fill="none" fill-rule="evenodd"><g><use fill="url(#a)" xlink:href="#b"/><use fill="#FFF" xlink:href="#b"/></g><g><use fill="url(#a)" xlink:href="#c"/><use fill="#FFF" xlink:href="#c"/></g><path d="M42.274 10.659h-6.222V8.47C36.052 3.792 39.895 0 44.637 0h6.222v2.188c0 4.678-3.844 8.47-8.585 8.47" fill="#FFF"/><g><use fill="#CC411B" xlink:href="#d"/><use fill="#FFF" xlink:href="#d"/></g><path d="M0 25.27h50.86v2.187c0 4.679-3.844 8.47-8.586 8.47H0V25.27zM50.858 45.173h2.22c4.741 0 8.585 3.792 8.585 8.47v2.192h-2.22c-4.742 0-8.585-3.793-8.585-8.47v-2.192z" fill="#FFF"/><g><path d="M79.648 47.959v5.9c0 .609-.495 1.102-1.106 1.102h-.652v-3.313h-2.861v2.21c0 .61-.495 1.103-1.107 1.103h-.652v-5.9c0-.609.496-1.102 1.107-1.102h.652v3.128h2.861v-2.026c0-.609.496-1.102 1.106-1.102h.652zM82.18 51.04h2.012a.699.699 0 0 0 .702-.699v-1.814h-1.608c-.612 0-1.107.494-1.107 1.103v1.41zm-1.107 3.929h-.653v-5.907c0-.61.496-1.103 1.107-1.103h5.117v2.244c0 .692-.501 1.269-1.156 1.384l.7 1.898a1.103 1.103 0 0 1-1.038 1.484h-.31l-1.242-3.36H82.18v2.257c0 .61-.495 1.103-1.106 1.103zM92.472 54.405h3.09v.557h-4.835v-3.883c0-.35.284-.632.635-.632h4.2v.548h-3.09v3.41zM97.852 48.036v6.221c0 .38-.31.69-.691.69h-1.054v-6.329c0-.321.262-.582.584-.582h1.16zM100.362 50.942v3.417h1.438a.698.698 0 0 0 .697-.694v-2.723h-2.135zm-1.02-.55h4.899v3.128c0 .77-.628 1.395-1.393 1.395h-4.23v-3.8c0-.399.324-.722.723-.722zM110.608 50.454v3.785c0 .39-.317.707-.71.707h-1.034v-.228c-.176.137-.406.228-.735.228h-3.144V51.07c0-.34.277-.616.618-.616h1.126v3.935h1.094c.467 0 .788-.16 1.04-.503v-2.733a.7.7 0 0 1 .702-.699h1.043zM114.443 54.405a.698.698 0 0 0 .697-.694v-2.754h-2.273v3.448h1.576zm1.334-6.4h1.107v5.56c0 .768-.63 1.397-1.4 1.397h-4.354v-3.82c0-.405.33-.734.737-.734h3.273v-1.766c0-.351.285-.636.637-.636z" fill="#FFF"/><g transform="translate(72 10.41)"><mask id="f" fill="#fff"><use xlink:href="#e"/></mask><path d="M21.744.129l-4.12 9.094L29.334 29.2a1.107 1.107 0 0 1-.958 1.666h-5.814l-8.404-14.081-6.083 13.433a1.104 1.104 0 0 1-1.006.648h-7.07L13.7.778a1.11 1.11 0 0 1 1.011-.65h7.034z" fill="#FFF" mask="url(#f)"/></g><g transform="translate(105.193 10.41)"><mask id="h" fill="#fff"><use xlink:href="#g"/></mask><path d="M1.391 6.191h5.623L8.372.863C8.497.373 8.938.03 9.445.03h6.889l-1.57 6.16H28.89c.613 0 1.11.496 1.11 1.107V27.02a3.722 3.722 0 0 1-3.728 3.716h-8.97c-.608 0-1.1-.491-1.1-1.097v-1.38h5.133c.49 0 .948-.392.948-.913V8.636h-8.109L8.828 29.893a1.116 1.116 0 0 1-1.083.843H.9l5.527-22.1H.279V7.3c0-.612.498-1.109 1.112-1.109" fill="#FFF" mask="url(#h)"/></g><g transform="translate(138.828 21.88)"><mask id="j" fill="#fff"><use xlink:href="#i"/></mask><path d="M.35.336h29.435a1.48 1.48 0 0 1 1.482 1.477v.993H14.373l-4.5 14.045h11.642c.163 0 .326-.097.457-.26.13-.13.196-.293.13-.488l-2.054-8.582h6.106c1.143 0 2.137.78 2.402 1.89l1.667 6.953c.163.747-.033 1.43-.49 2.015-.521.618-1.206.91-1.924.91H4.164c-1.564 0-2.676-1.517-2.2-3.002l4.32-13.48h-4.51A1.423 1.423 0 0 1 .35 1.385V.336z" fill="#FFF" mask="url(#j)"/></g><path d="M140.318 11.553h27.405c.68 0 1.23.548 1.23 1.225v1.245H141.69a1.37 1.37 0 0 1-1.373-1.367v-1.103z" fill="#FFF"/></g></g></svg>