<svg width="159" height="53" viewBox="0 0 159 53" xmlns="http://www.w3.org/2000/svg" xmlns:xlink="http://www.w3.org/1999/xlink"><title>Group</title><defs><path id="a" d="M34.174.387H0v34.246h34.174V.387z"/><path id="c" d="M.063 5.356h5.963V.359H.063z"/><path id="e" d="M.017 7.79h6.177V.02H.017z"/><path id="g" d="M.383 5.356h5.964V.359H.383v4.997z"/></defs><g fill="none" fill-rule="evenodd"><path d="M125.874 3.564h30.274c.75 0 1.358.605 1.358 1.352v1.375H127.39a1.513 1.513 0 0 1-1.516-1.51V3.564zm-1.261 11.769h32.517c.904 0 1.637.73 1.637 1.63v1.096h-18.662l-4.972 15.5h12.862c.18 0 .36-.108.504-.287.144-.143.216-.323.144-.538l-2.27-9.472h6.746c1.262 0 2.36.862 2.654 2.086l1.84 7.673c.18.825-.035 1.579-.54 2.225-.576.681-1.333 1.004-2.125 1.004h-26.121c-1.728 0-2.956-1.674-2.43-3.313l4.773-14.878h-4.982c-.87 0-1.575-.702-1.575-1.568v-1.158z" fill="#FFF"/><g transform="translate(49 2.1)"><mask id="b" fill="#fff"><use xlink:href="#a"/></mask><path d="M31.136 29.741l-.507-18.247a1.219 1.219 0 0 1 1.22-1.25h1.852l.473 18.25a1.217 1.217 0 0 1-1.22 1.247h-1.818zM15.021 4.308h1.992l.101-2.748A1.22 1.22 0 0 1 18.336.387h4.89l-.145 3.921h7.116v26.908c0 1.88-1.544 3.417-3.431 3.417h-3.142a.974.974 0 0 1-.976-.972V31.9c.363 0 .731.038 1.044-.181.281-.196.437-.524.437-.863V7.078h-1.156l-.899 26.38a1.22 1.22 0 0 1-1.221 1.175h-4.888l.94-27.555h-3.107V5.526a1.22 1.22 0 0 1 1.223-1.218zm-2.668 25.433l.612-18.319a1.222 1.222 0 0 1 1.223-1.178h1.885l-.61 18.32a1.22 1.22 0 0 1-1.222 1.177h-1.888zM1.223 7.221h1.92V1.606A1.22 1.22 0 0 1 4.365.387h5.35v6.835h3.107v1.517A1.22 1.22 0 0 1 11.6 9.956H9.716v23.43c0 .67-.544 1.211-1.215 1.211H3.142V9.956H0V8.44a1.22 1.22 0 0 1 1.223-1.218z" fill="#FFF" mask="url(#b)"/></g><path d="M59.349 47.291v3.802h1.601a.776.776 0 0 0 .775-.773v-3.029H59.35zm-.72-.61h5.04v3.478c0 .857-.7 1.553-1.552 1.553h-4.711v-3.814a1.22 1.22 0 0 1 1.222-1.218zM66.446 44.06v6.468a1.22 1.22 0 0 1-1.222 1.218h-.72v-6.47a1.22 1.22 0 0 1 1.222-1.217h.72zM69.258 44.06v6.468a1.22 1.22 0 0 1-1.222 1.218h-.721v-6.47a1.22 1.22 0 0 1 1.222-1.217h.72z" fill="#FFF"/><g transform="translate(70.022 46.407)"><mask id="d" fill="#fff"><use xlink:href="#c"/></mask><path d="M1.996 4.736h1.32a.776.776 0 0 0 .776-.772V2.887h-.874a1.22 1.22 0 0 0-1.222 1.217v.632zm4.03-.933c0 .849-.707 1.553-1.55 1.553H.062V3.485a1.22 1.22 0 0 1 1.222-1.217h2.79V.978H.063v-.62h5.963v3.445z" fill="#FFF" mask="url(#d)"/></g><g transform="translate(76.867 43.973)"><mask id="f" fill="#fff"><use xlink:href="#e"/></mask><path d="M1.96 7.17h1.525A.775.775 0 0 0 4.26 6.4V3.361H3.182A1.22 1.22 0 0 0 1.96 4.58V7.17zm0-4.42h4.234v3.487c0 .849-.69 1.554-1.551 1.554H.017V1.236A1.22 1.22 0 0 1 1.24.019h.72V2.75z" fill="#FFF" mask="url(#f)"/></g><path d="M85.66 48.509v2.584h1.6a.776.776 0 0 0 .776-.773v-3.029h-1.154a1.22 1.22 0 0 0-1.222 1.218m-.72-1.829h5.039v3.48c0 .856-.7 1.552-1.55 1.552h-4.712v-3.814a1.22 1.22 0 0 1 1.222-1.218M90.815 51.746v-3.789a1.22 1.22 0 0 1 1.222-1.217h.72v1.103l2.062-1.18v.934l-2.061 1.18v1.752a1.22 1.22 0 0 1-1.223 1.217h-.72z" fill="#FFF"/><g transform="translate(94.956 46.407)"><mask id="h" fill="#fff"><use xlink:href="#g"/></mask><path d="M2.317 4.736h1.32a.776.776 0 0 0 .776-.772V2.887h-.874a1.22 1.22 0 0 0-1.222 1.217v.632zm4.03-.933c0 .849-.707 1.553-1.55 1.553H.382V3.485a1.22 1.22 0 0 1 1.223-1.217h2.79V.978H.383v-.62h5.964v3.445z" fill="#FFF" mask="url(#h)"/></g><path d="M105.069 44.916v1.773h1.449v.61h-1.449v3.827h1.449v.62h-3.391V47.3h-1.287v-.61h1.287v-.557a1.22 1.22 0 0 1 1.222-1.217h.72zM107.14 51.763h1.942v-5.015h-1.942v5.015zm1.934-7.288v.47a1.22 1.22 0 0 1-1.223 1.218h-.72v-.471a1.22 1.22 0 0 1 1.222-1.217h.72zM111.869 48.509v2.584h1.6a.776.776 0 0 0 .776-.773v-3.029h-1.154a1.22 1.22 0 0 0-1.222 1.218m-.72-1.829h5.039v3.48c0 .856-.7 1.552-1.55 1.552h-4.712v-3.814a1.22 1.22 0 0 1 1.222-1.218M129.537 51.128h3.434v.618h-5.372v-4.31c0-.387.316-.702.705-.702h4.667v.61h-3.434v3.784zM135.514 44.06v6.904a.766.766 0 0 1-.768.765h-1.17v-7.024c0-.356.29-.646.649-.646h1.289zM138.302 47.285v3.792h1.598a.775.775 0 0 0 .774-.77v-3.022h-2.372zm-1.133-.61h5.443v3.47c0 .856-.697 1.55-1.548 1.55h-4.7v-4.219c0-.442.36-.8.805-.8zM149.686 46.743v4.2a.787.787 0 0 1-.789.786h-1.15v-.254c-.195.152-.45.254-.815.254h-3.494v-4.302c0-.378.308-.684.687-.684h1.251v4.368h1.215c.52 0 .876-.178 1.157-.56V47.52c0-.428.348-.776.779-.776h1.159zM117.074 51.746v-4.303c0-.421.343-.762.766-.762h1.116v.246c.19-.148.438-.246.793-.246h3.391v4.4a.665.665 0 0 1-.666.665h-1.215V47.28h-1.18c-.504 0-.85.173-1.123.543v3.17a.755.755 0 0 1-.757.753h-1.125zM153.946 51.128a.775.775 0 0 0 .773-.77V47.3h-2.524v3.827h1.75zm1.482-7.103h1.23v6.171c0 .852-.7 1.55-1.556 1.55h-4.837v-4.239c0-.45.367-.815.819-.815h3.635v-1.96c0-.39.318-.707.709-.707zM105.361 18.247h-1.712a1.22 1.22 0 0 0-1.222 1.217v9.895h2.1c.436 0 .834-.325.834-.794V18.247zm-7.363-2.129h12.978v12.194c0 1.766-1.45 3.211-3.224 3.211H96.776V17.335a1.22 1.22 0 0 1 1.222-1.217zm-.363-6.133h13.703v1.525a1.22 1.22 0 0 1-1.222 1.217H96.413v-1.524a1.22 1.22 0 0 1 1.222-1.218zm-8.838-6.674h31.416v28.97a4.121 4.121 0 0 1-4.13 4.113h-6.267a.976.976 0 0 1-.977-.974v-1.768h2.607c.545 0 1.052-.433 1.052-1.046V6.053H96.512A1.22 1.22 0 0 0 95.29 7.27v27.907a1.22 1.22 0 0 1-1.222 1.217h-6.494V4.528a1.22 1.22 0 0 1 1.223-1.217zM52.337 51.13h4.48v.62h-6.423v-6.478a1.22 1.22 0 0 1 1.222-1.217h5.201v.62h-4.48v6.456z" fill="#FFF"/><g fill="#FFF"><path d="M0 30.723v-8.481c0-4.92 3.956-8.908 8.837-8.908h2.21V39.63h-2.21C3.957 39.63 0 35.642 0 30.723"/><path d="M29.18 0H21.65c-5.857 0-10.604 4.786-10.604 10.69v2.644h16.151c5.857 0 10.605-4.785 10.605-10.689V0h-8.624zM27.198 39.63H11.046v2.645c0 5.904 4.749 10.69 10.605 10.69h16.152v-2.646c0-5.903-4.748-10.689-10.605-10.689"/></g></g></svg>