<svg width="164" height="56" viewBox="0 0 164 56" xmlns="http://www.w3.org/2000/svg" xmlns:xlink="http://www.w3.org/1999/xlink"><title>Group 4</title><defs><path id="a" d="M35.703.186H0v36.349h35.703z"/><path id="c" d="M36.36 34.999V.142H.354v34.857H36.36z"/></defs><g fill="none" fill-rule="evenodd"><g fill="#FFF"><path d="M27.482 10.485H10.158V8.866c0-4.639 3.82-8.4 8.533-8.4h17.323v1.619c0 4.639-3.82 8.4-8.532 8.4M8.714 10.485C3.901 10.485 0 14.325 0 19.064v36.893h1.461c4.814 0 8.715-3.84 8.715-8.579V10.485H8.714z"/><path d="M0 24.399v10.018h27.215c4.812 0 8.714-3.84 8.714-8.579V24.4H0z"/></g><g transform="translate(47 1.333)"><mask id="b" fill="#fff"><use xlink:href="#a"/></mask><path d="M34.373.186v4.936h.161c.646 0 1.169.526 1.169 1.176V8.03h-1.33v24.833c0 1.99-1.48 3.635-3.304 3.635h-4.824V33.59h.342c.57 0 .988-.46.988-1.071V8.029h-1.102l-2.658 28.468h-4.967c-.657 0-1.171-.57-1.109-1.227L20.32 8.03h-.77a1.172 1.172 0 0 1-1.167-1.177V5.122h9.192V1.617c0-.79.636-1.431 1.42-1.431h5.378zm-23.13 23.149l.645 1.492V4.815H5.013v20.318l.798-1.798V6.614h4.01c.785 0 1.422.641 1.422 1.431v15.29zM1.533 1.907H16.94v22.958c0 .972-.782 1.76-1.747 1.76h-2.545l4.292 9.91h-5.025a1.68 1.68 0 0 1-1.555-1.052L8.508 30.91l-2.393 5.624h-4.55c-.804 0-1.339-.838-1.005-1.575l3.77-8.335H0V3.451C0 2.6.686 1.907 1.533 1.907z" fill="#FFF" mask="url(#b)"/></g><path d="M113.359 7.985V6.914h-13.294l-.76 1.224 6.572 2.985 7.482-3.138zm-23.937 16.53h5.63l1.405-2.755h7.286c.474 0 .783.503.57.93l-.905 1.825h17.889v8.923c0 2.352-1.91 4.277-4.246 4.277h-8.942a.64.64 0 0 1-.637-.643v-2.188h3.54c.96 0 1.74-.785 1.74-1.752v-5.709H102.4a.637.637 0 0 0-.574.36l-4.8 9.932h-7.62a.643.643 0 0 1-.568-.934l4.731-9.358h-4.786v-2.265a.64.64 0 0 1 .638-.643zm-1.551-11.236l7.18-11.645h7.251c.507 0 .812.568.533.995l-.947 1.454h18.771a.64.64 0 0 1 .638.642v6.168l-8.47 3.444 6.448 3.348a.632.632 0 0 0 .264.058h2.943a.64.64 0 0 1 .638.642v2.15H113a.634.634 0 0 1-.259-.055l-6.922-3.087a.634.634 0 0 0-.497-.008l-7.649 3.104a.637.637 0 0 1-.239.046H87.98a.64.64 0 0 1-.637-.642v-2.15h3.553a.638.638 0 0 0 .245-.05l7.52-3.51-2.507-1.147-.797 1.224h-6.943a.642.642 0 0 1-.542-.981z" fill="#FFF"/><g transform="translate(127.405 2.372)"><mask id="d" fill="#fff"><use xlink:href="#c"/></mask><path d="M1.683.142h31.916c.791 0 1.432.645 1.432 1.442V3.05H3.281c-.883 0-1.598-.721-1.598-1.61V.142zm-1.33 12.55h34.282c.953 0 1.725.779 1.725 1.739V15.6H16.686l-5.242 16.53h13.56c.19 0 .38-.115.532-.307.152-.152.227-.344.152-.573l-2.393-10.102h7.111c1.331 0 2.488.92 2.798 2.224l1.941 8.184c.19.88-.038 1.683-.57 2.372-.608.727-1.405 1.071-2.24 1.071H4.51c-1.68 0-2.875-1.648-2.364-3.26L7.267 15.6H2.013c-.916 0-1.66-.749-1.66-1.672v-1.236z" fill="#FFF" mask="url(#d)"/></g><path d="M53.342 47.39h-4.358v2.928h3.889v.64h-3.89v3.038a.772.772 0 0 1-.768.775H47v-7.313c0-.39.314-.707.702-.707h5.64v.64zM55.772 49.59v4.43a.749.749 0 0 1-.746.75h-1.238v-4.415c0-.422.34-.764.76-.764h1.224zm-.009-2.348v.804c0 .52-.417.94-.933.94h-1.05V47.89c0-.36.288-.65.644-.65h1.34zM65.763 54.13h1.348c.435 0 .792-.358.792-.797V52.22h-2.14v1.91zm4.115-.963c0 .876-.722 1.603-1.583 1.603h-4.507v-3.19h4.098v-1.332h-4.098v-.192c0-.247.2-.448.445-.448h5.645v3.559zM79.896 54.13h3.516v.64h-5.5v-4.379c0-.447.36-.81.804-.81h4.696v.632h-3.516v3.918zM86.015 52.176h1.844c.435 0 .792-.36.792-.797v-1.166h-2.636v1.963zm0 .631v1.324h4.62v.64H84.03v-4.38c0-.447.36-.809.802-.809h5.801v2.033a1.19 1.19 0 0 1-1.191 1.192h-3.428zM70.698 54.753V50.24c0-.359.289-.65.644-.65h1.34v.264c.2-.158.461-.264.835-.264h3.576v4.286c0 .485-.39.877-.87.877h-1.114v-4.522h-1.244c-.53 0-.896.183-1.183.578v3.126a.815.815 0 0 1-.812.818h-1.172zM56.583 54.753v-4.375c0-.435.35-.788.781-.788h1.203v.264c.2-.158.46-.264.835-.264h3.575v4.425a.735.735 0 0 1-.731.738h-1.252v-4.522H59.75c-.531 0-.896.183-1.183.578v3.138a.803.803 0 0 1-.8.806h-1.184zM97.257 54.13h3.515v.64h-5.499V50.31c0-.402.323-.727.722-.727h4.777v.63h-3.515v3.919zM103.375 46.812v7.15a.79.79 0 0 1-.786.791h-1.198v-7.272c0-.37.298-.669.665-.669h1.32zM106.23 50.248v3.926h1.635c.435 0 .792-.359.792-.797v-3.13h-2.428zm-1.16-.631h5.57v3.593c0 .885-.713 1.604-1.583 1.604h-4.811v-4.368c0-.458.368-.829.823-.829zM117.882 49.59v4.35a.81.81 0 0 1-.807.813h-1.177v-.263c-.2.158-.461.263-.836.263h-3.575V50.3c0-.391.314-.708.702-.708h1.281v4.522h1.244c.531 0 .897-.184 1.184-.578v-3.14a.8.8 0 0 1 .798-.804h1.186zM122.242 54.13c.435 0 .792-.358.792-.797V50.17h-2.584v3.962h1.792zm1.518-7.353h1.258v6.39c0 .882-.717 1.603-1.592 1.603h-4.95v-4.388c0-.466.374-.844.837-.844h3.721v-2.03c0-.404.325-.731.726-.731z" fill="#FFF"/></g></svg>