<svg width="164" height="57" viewBox="0 0 164 57" xmlns="http://www.w3.org/2000/svg"><title>P</title><g fill-rule="nonzero" fill="#FFF"><path d="M27.285 1.966V.432h-8.391c-4.748 0-8.632 3.884-8.632 8.631v1.535h8.392a8.596 8.596 0 0 0 8.631-8.632z"/><path d="M35.917 10.598c-4.747 0-8.632 3.884-8.632 8.631v8.392H10.262V10.598H8.727c-4.747 0-8.631 3.884-8.631 8.631v37.548H1.63c4.748 0 8.632-3.885 8.632-8.632V37.739h8.392c4.747 0 8.631-3.884 8.631-8.631v-1.535h1.535c4.747 0 8.631-3.884 8.631-8.631V10.55h-1.534v.048z"/><g><path d="M130.385 17.982h31.889c.863 0 1.582.72 1.582 1.583v1.103h-18.318l-4.891 15.249h12.611c.192 0 .336-.096.48-.288a.541.541 0 0 0 .144-.527l-2.206-9.351h6.618c1.246 0 2.301.863 2.589 2.062l1.822 7.576c.192.816-.048 1.535-.527 2.206-.576.672-1.295 1.007-2.062 1.007h-25.607c-1.679 0-2.877-1.63-2.398-3.26l4.7-14.674h-4.892a1.515 1.515 0 0 1-1.534-1.535v-1.15zM131.632 6.378h29.683c.719 0 1.342.575 1.342 1.342v1.343h-29.539a1.494 1.494 0 0 1-1.486-1.486v-1.2zM55.578 5.706h31.745c.72 0 1.342.576 1.342 1.343v1.343h-31.6a1.494 1.494 0 0 1-1.487-1.487V5.706zM56.345 22.01H67.71v-1.198c0-.672.527-1.2 1.199-1.2h7.24v2.399h12.564v1.486c0 .671-.527 1.199-1.198 1.199h-1.727l2.59 12.42c.144.767-.432 1.438-1.151 1.438h-6.618l-2.925-13.906h-1.582v12.756c0 .67-.528 1.198-1.2 1.198h-7.24V24.696H66.08l-2.686 12.947c-.096.576-.623.96-1.199.96h-7.049l2.877-13.907h-2.877v-1.487c0-.671.528-1.198 1.199-1.198zM63.778 9.974l1.39 7.481c.144.72-.431 1.39-1.198 1.39h-6.762l-1.39-7.48c-.144-.72.431-1.439 1.198-1.439h6.762v.048zM75.19 9.974l1.391 7.481c.144.72-.431 1.39-1.199 1.39h-6.76l-1.392-7.48c-.143-.72.432-1.439 1.2-1.439h6.76v.048zM78.404 18.894l1.438-7.913c.096-.575.623-.959 1.199-.959h7.193l-1.439 7.913a1.231 1.231 0 0 1-1.199 1.007h-7.192v-.048zM94.084 5.61h14.338v22.347c0 .671-.527 1.199-1.199 1.199h-2.78l3.98 9.446h-4.844c-.48 0-.96-.287-1.103-.767l-1.774-4.603-2.254 5.37h-3.932a1.2 1.2 0 0 1-1.103-1.678l3.405-7.768h-3.98V6.857c.047-.719.575-1.246 1.246-1.246zm9.111 20.429l.624 1.438V8.344h-6.33v19.325l.72-1.63v-15.92h3.787c.672 0 1.2.527 1.2 1.198v14.722zm13.427-19.661l-.287 1.822h8.535c.672 0 1.199.527 1.199 1.199v25.799c0 1.822-1.295 3.356-2.781 3.356h-4.508a1.187 1.187 0 0 1-1.199-1.198v-1.487h2.206c.432 0 .815-.48.815-1.007V10.885h-4.7l-.718 4.412h-4.412c-.72 0-1.295-.671-1.199-1.39l1.487-8.968h4.363c.768 0 1.343.72 1.2 1.439zm-1.678 12.42l-.72 11.22h.912a.395.395 0 0 0 .383-.24c.144-.143.192-.335.192-.527l-.288-6.665h3.021c.624 0 1.151.527 1.2 1.15l.287 6.714c.048.624-.048 1.151-.384 1.63-.335.432-.767.672-1.246.672h-7.385a1.211 1.211 0 0 1-1.199-1.295l.959-13.954h3.069c.72 0 1.247.575 1.199 1.295z"/><g><path d="M62.867 53.42v-3.74c0-.672.527-1.2 1.198-1.2h.72v1.104l2.014-1.151v.91l-2.014 1.152v1.726c0 .671-.528 1.199-1.199 1.199h-.72zM68.525 48.433h4.94v3.404c0 .864-.672 1.535-1.535 1.535h-4.604v-3.74c0-.672.528-1.2 1.2-1.2zm.72 1.774v2.542h1.582a.757.757 0 0 0 .767-.768v-2.973h-1.15c-.672 0-1.2.576-1.2 1.199zM76.198 52.844h3.356v.624H74.28v-3.74c0-.672.527-1.2 1.198-1.2h4.076v.624h-2.158c-.67 0-1.198.528-1.198 1.199v2.493zM86.316 48.48v4.94h-1.918v-.24c-.192.144-.432.24-.816.24H80.13v-4.94h1.918v4.316h1.199c.527 0 .863-.191 1.15-.527v-3.74h1.919v-.048zM87.131 53.42v-3.74c0-.672.527-1.2 1.199-1.2h.72v1.104l2.013-1.151v.91l-2.014 1.152v1.726c0 .671-.527 1.199-1.199 1.199h-.719zM93.509 51.55v1.246h4.46v.624H91.59v-3.74c0-.672.527-1.2 1.198-1.2h5.131V50.4c0 .623-.527 1.15-1.15 1.15h-3.261zm0-.576h1.774a.757.757 0 0 0 .767-.767v-1.103h-1.342c-.672 0-1.2.528-1.2 1.199v.671zM103.387 49.008v3.165c0 .671-.527 1.199-1.199 1.199h-.719v-4.364h-.863v3.165c0 .671-.528 1.199-1.199 1.199h-.72v-3.788c0-.672.528-1.2 1.2-1.2h6.233v3.79c0 .67-.527 1.198-1.198 1.198h-.72v-4.364h-.815zM108.902 51.55v1.246h4.46v.624h-6.33v-3.74c0-.672.527-1.2 1.198-1.2h5.131V50.4c0 .623-.527 1.15-1.15 1.15h-3.31zm0-.576h1.774a.757.757 0 0 0 .767-.767v-1.103h-1.342c-.672 0-1.2.528-1.2 1.199v.671zM123.863 46.706v1.727h1.439v.623h-1.439v3.788h1.439v.624h-3.309v-4.364h-1.247v-.671h1.247v-.528c0-.671.527-1.199 1.199-1.199h.671z"/><g><path d="M131.488 52.844h3.356v.624h-5.226v-4.22c0-.384.287-.671.67-.671h4.556v.575h-3.356v3.692zM137.338 45.94v6.76a.757.757 0 0 1-.767.768h-1.151V46.61c0-.336.288-.624.623-.624h1.295v-.048zM138.92 48.48h5.323v3.405c0 .816-.671 1.535-1.486 1.535h-4.604v-4.124c0-.48.336-.815.767-.815zm1.103.576v3.693h1.535a.757.757 0 0 0 .767-.768v-2.973h-2.302v.048zM151.149 48.529v4.124a.757.757 0 0 1-.768.767h-1.103v-.24c-.191.144-.431.24-.815.24h-3.405V49.2c0-.384.288-.671.672-.671h1.199v4.267h1.198c.528 0 .864-.191 1.103-.527v-2.973c0-.432.336-.767.768-.767h1.15zM114.129 53.42v-4.268c0-.432.335-.767.767-.767h1.103v.24a1.22 1.22 0 0 1 .767-.24h3.357v4.364a.656.656 0 0 1-.672.67h-1.198v-4.41h-1.151c-.48 0-.863.191-1.103.527v3.117a.757.757 0 0 1-.767.767h-1.103zM86.316 48.48v4.125a.757.757 0 0 1-.767.767h-1.151v-.24c-.192.144-.432.24-.816.24H80.13v-4.268c0-.384.288-.671.671-.671h1.247v4.316h1.199c.527 0 .863-.192 1.15-.576V49.2c0-.432.336-.767.768-.767h1.15v.048zM156.711 45.843h1.199v6.042c0 .816-.671 1.535-1.535 1.535h-4.699v-4.124c0-.432.336-.815.815-.815h3.549v-1.918c0-.432.287-.72.671-.72zm-1.438 6.953a.757.757 0 0 0 .767-.767v-2.973h-2.446v3.74h1.679z"/></g><path d="M56.297 53.372h-.72v-6.426c0-.671.528-1.199 1.2-1.199h5.562v3.07c0 .863-.671 1.534-1.534 1.534h-3.31v1.87c0 .623-.575 1.15-1.198 1.15zm1.199-3.645h2.158a.757.757 0 0 0 .767-.767v-2.59h-2.925v3.357z"/></g></g></g></svg>