<svg width="175" height="54" viewBox="0 0 175 54" xmlns="http://www.w3.org/2000/svg" xmlns:xlink="http://www.w3.org/1999/xlink"><title>Group 73</title><defs><path id="a" d="M.026 7.185H5.83V.345H.026z"/><path id="c" d="M31.238 19.7V.406H.378V19.7h30.86z"/></defs><g fill="none" fill-rule="evenodd"><g opacity=".945"><path d="M77.618 43.711l.74 3.913.753-3.913h2.179l1.139 7.098h-.678a1.11 1.11 0 0 1-1.09-.942l-.595-3.698-.955 4.515h-1.493l-.962-4.531-.59 3.712a1.11 1.11 0 0 1-1.09.944H74.3l1.14-7.098h2.178zM84.824 50.277h1.193c.385 0 .7-.32.7-.712v-.994h-.789c-.61 0-1.104.502-1.104 1.123v.583zm3.641-.86c0 .782-.639 1.431-1.401 1.431h-3.987v-1.725c0-.62.494-1.123 1.104-1.123h2.521v-1.19h-3.625v-.57h5.388v3.176zM89.22 50.833v-3.495c0-.62.494-1.122 1.104-1.122h.652v1.017l1.862-1.088v.861l-1.862 1.088v1.616c0 .62-.495 1.123-1.105 1.123h-.65zM98.627 46.215l-1.87 2.27 2.017 2.347h-1.817l-1.855-2.175v1.053c0 .62-.494 1.122-1.104 1.122h-.651v-5.966c0-.62.494-1.123 1.104-1.123h.651v4.554l1.716-2.082h1.81zM100.976 48.532h1.631c.386 0 .7-.32.7-.712v-1.04h-1.227c-.61 0-1.104.502-1.104 1.122v.63zm0 .564v1.181h4.087v.571H99.22v-3.51c0-.62.495-1.122 1.105-1.122h4.738v1.815c0 .587-.47 1.065-1.055 1.065h-3.032zM108.435 44.533v1.636h1.31v.563h-1.31v3.53h1.31v.57h-3.065v-4.1h-1.162v-.563h1.162v-.513c0-.62.495-1.123 1.105-1.123h.65zM112.062 46.223v3.503c0 .62-.494 1.122-1.105 1.122h-.65v-3.502c0-.62.494-1.123 1.104-1.123h.65zm-.008-2.097v.435c0 .62-.494 1.123-1.104 1.123h-.651v-.435c0-.62.494-1.123 1.104-1.123h.65z" fill="#FFF"/><g transform="translate(119.057 45.87)"><mask id="b" fill="#fff"><use xlink:href="#a"/></mask><path d="M1.789 2.032v2.187h2.294V.91h-1.19c-.61 0-1.104.503-1.104 1.123zM.026 7.185v-.571h3.348c.39 0 .709-.324.709-.72V4.79H.026V1.468C.026.848.52.346 1.13.346h4.7V5.76c0 .786-.627 1.424-1.4 1.424H.025z" fill="#FFF" mask="url(#b)"/></g><path d="M130.603 50.259h3.106v.57h-4.86V46.85c0-.358.287-.648.639-.648h4.221v.563h-3.106v3.494zM136.01 43.731v6.377a.7.7 0 0 1-.694.706h-1.06v-6.486c0-.33.264-.597.588-.597h1.166zM138.532 46.71v3.502h1.446c.385 0 .7-.32.7-.711V46.71h-2.146zm-1.025-.563h4.924v3.205c0 .79-.63 1.43-1.4 1.43h-4.252v-3.895c0-.409.326-.74.728-.74zM148.83 46.21v3.879c0 .4-.32.725-.713.725h-1.04v-.235c-.177.141-.408.235-.738.235h-3.16V46.84c0-.349.277-.631.62-.631h1.133v4.033h1.1c.468 0 .79-.164 1.045-.516v-2.8a.71.71 0 0 1 .705-.717h1.048zM112.84 50.833v-3.957a.71.71 0 0 1 .703-.715h1.025v.231c.175-.14.403-.231.729-.231h3.116v4.049a.618.618 0 0 1-.613.623h-1.116v-4.11H115.6c-.463 0-.781.162-1.032.51v2.893a.7.7 0 0 1-.695.707h-1.033zM152.684 50.259c.384 0 .7-.32.7-.712v-2.822H151.1v3.534h1.584zm1.341-6.559h1.112V49.4c0 .787-.633 1.43-1.408 1.43h-4.374v-3.914c0-.415.33-.752.74-.752h3.289v-1.81c0-.36.287-.653.641-.653zM94.137 21.176h-9.432v3.384h8.55c.49 0 .882-.431.882-.962v-2.422zm1.566 9.556H83.138v3.516h11.619c.555 0 .946-.398.946-.928v-2.588zm-18.766-4.776v-6.177c0-.621.496-1.125 1.107-1.125h23.86v5.276c0 1.733-1.395 3.151-3.1 3.151h-20.76a1.117 1.117 0 0 1-1.107-1.125zm-1.5 10.814v-7.434c0-.622.495-1.126 1.107-1.126h26.895v5.408c0 1.726-1.372 3.152-3.101 3.152H75.436zm29.046-23.557v3.59c0 .62-.494 1.121-1.103 1.121h-6.665v-2.19H82.159v1.061a1.12 1.12 0 0 1-1.11 1.13h-6.657v-3.586c0-.622.496-1.126 1.108-1.126h28.983zM75.11 7.605h2.872v-.962c0-.623.496-1.128 1.11-1.128h6.625v2.09h7.408v-.963c0-.622.496-1.127 1.109-1.127h6.658v2.09h3.983v1.4c0 .62-.494 1.122-1.103 1.122h-2.88v.997c0 .622-.496 1.127-1.108 1.127h-6.66v-2.124h-7.407v.994a1.12 1.12 0 0 1-1.111 1.13h-6.624v-2.124H74V8.734a1.12 1.12 0 0 1 1.11-1.129zM139.334 6.345l-.475 6.099a1.112 1.112 0 0 1-1.1 1.034h-4.006l.503-6.105a1.112 1.112 0 0 1 1.1-1.028h3.978zm-12.206 21.467h5.515v-4.114h-5.515v4.114zm0-6.603h5.515v-4.048h-5.515v4.048zM125.43 6.345l.46 5.919a1.118 1.118 0 0 1-1.104 1.214h-3.795l-.46-5.921a1.116 1.116 0 0 1 1.101-1.212h3.798zm-3.883 8.294h5.09V6.572c0-.62.495-1.123 1.105-1.123h5.423v9.19h6.168v18.515c0 2.123-1.795 3.782-3.982 3.782h-5.156v-2.522h1.534a.922.922 0 0 0 .914-.928v-3.153h-5.516v5.445c0 .64-.51 1.158-1.14 1.158h-5.55V15.768a1.12 1.12 0 0 1 1.11-1.129zm-11.822 1.162h9.242v1.396c0 .622-.495 1.125-1.106 1.125h-.753v5.84h2.186v1.397c0 .621-.495 1.125-1.106 1.125h-1.08v7.697h1.827v1.398c0 .62-.495 1.124-1.106 1.124h-7.281v-10.22h-2.057v-1.398c0-.62.495-1.123 1.105-1.123h.952v-5.84h-1.926v-1.4c0-.62.494-1.121 1.103-1.121zm6.73-10.352l-.588 2.953h3.492v2.488h-3.981l-.511 2.672c-.102.53-.558.912-1.089.912h-5.32l1.586-8.121a1.108 1.108 0 0 1 1.083-.904h5.328z" fill="#FFF"/><g transform="translate(142.91 17.129)"><mask id="d" fill="#fff"><use xlink:href="#c"/></mask><path d="M.378.406h29.38c.817 0 1.48.673 1.48 1.504V2.92H14.376L9.884 17.218h11.62c.163 0 .326-.1.457-.265.13-.132.195-.298.13-.497L20.04 7.72h6.095c1.14 0 2.132.796 2.397 1.924l1.664 7.078c.163.761-.032 1.456-.488 2.052-.521.629-1.204.927-1.92.927H4.185c-1.561 0-2.671-1.545-2.196-3.057L6.303 2.921H1.8A1.434 1.434 0 0 1 .378 1.475V.406z" fill="#FFF" mask="url(#d)"/></g><path d="M144.429 6.68h27.353c.678 0 1.227.558 1.227 1.247v1.268H145.8c-.757 0-1.37-.623-1.37-1.392V6.68z" fill="#FFF"/></g><path d="M11.189 43.186c0 4.827-4.008 8.74-8.951 8.74H0V21.822c0-4.826 4.007-8.74 8.951-8.74h2.238v30.104zm27.307 0c0 4.827-4.007 8.74-8.95 8.74h-2.239V21.822c0-4.826 4.008-8.74 8.951-8.74h2.238v30.104zm25.08 0c0 4.827-4.008 8.74-8.95 8.74h-2.239V21.822c0-4.826 4.008-8.74 8.951-8.74h2.238v30.104zm-16.56-30.103h-8.52v-3.47C38.496 4.305 42.905 0 48.343 0h8.52v3.47c0 5.309-4.409 9.613-9.846 9.613zm-27.307 0h-8.52v-3.47C11.189 4.305 15.597 0 21.035 0h8.52v3.47c0 5.309-4.408 9.613-9.846 9.613z" fill="#FFF"/></g></svg>