<svg width="285" height="160" viewBox="0 0 285 160" xmlns="http://www.w3.org/2000/svg" xmlns:xlink="http://www.w3.org/1999/xlink"><title>Group 75</title><defs><path id="a" d="M0 0h285v160H0z"/><linearGradient x1="50%" y1="0%" x2="50%" y2="100%" id="c"><stop stop-color="#FFF" stop-opacity="0" offset="0%"/><stop stop-color="#FFF" offset="100%"/></linearGradient></defs><g fill="none" fill-rule="evenodd"><mask id="b" fill="#fff"><use xlink:href="#a"/></mask><use fill="#EE704D" xlink:href="#a"/><g opacity=".44" mask="url(#b)"><g fill="url(#c)" transform="translate(134 52)"><path d="M129.29 35.755V22.65h-4.65c-9.942 0-18 8.059-18 18v13.105h4.65c9.941 0 18-8.059 18-18M22.65 100.649V22.65H18c-9.941 0-18 8.059-18 18v77.999h4.65c9.942 0 18-8.059 18-18M75.593 100.649V22.65h-4.651c-9.941 0-18 8.059-18 18v77.999h4.651c9.941 0 18-8.059 18-18M88.64 22.65H75.593V18c0-9.942 8.059-18 18-18h13.047v4.65c0 9.941-8.06 18-18 18"/><path d="M0 53.697h106.64v4.65c0 9.942-8.059 18-18 18H0v-22.65zM106.637 100.649v-4.656h4.656c9.94 0 18 8.058 18 18v4.656h-4.656c-9.941 0-18-8.059-18-18"/></g></g></g></svg>