<svg width="285" height="160" viewBox="0 0 285 160" xmlns="http://www.w3.org/2000/svg" xmlns:xlink="http://www.w3.org/1999/xlink"><title>Group 54</title><defs><path id="a" d="M0 0h285v160H0z"/><linearGradient x1="39.336%" y1="111.724%" x2="39.336%" y2="0%" id="c"><stop stop-color="#FFF" offset="0%"/><stop stop-color="#FFF" stop-opacity="0" offset="100%"/></linearGradient><linearGradient x1="50%" y1="0%" x2="50%" y2="100%" id="d"><stop stop-color="#FFF" stop-opacity="0" offset="0%"/><stop stop-color="#FFF" offset="100%"/></linearGradient><linearGradient x1="32.822%" y1="100%" x2="32.822%" y2="10.346%" id="e"><stop stop-color="#FFF" offset="0%"/><stop stop-color="#FFF" stop-opacity="0" offset="100%"/></linearGradient><linearGradient x1="60.764%" y1="100%" x2="60.764%" y2="-10.866%" id="f"><stop stop-color="#FFF" offset="0%"/><stop stop-color="#FFF" stop-opacity="0" offset="100%"/></linearGradient></defs><g fill="none" fill-rule="evenodd"><g><mask id="b" fill="#fff"><use xlink:href="#a"/></mask><use fill="#A1D052" xlink:href="#a"/><g opacity=".426" mask="url(#b)"><path d="M28.284 28.405v-4.302C28.284 10.79 39.03 0 52.284 0H75.56v4.302c0 13.31-10.745 24.102-24 24.102H28.284z" fill="url(#c)" transform="translate(164 41)"/><path d="M28.284 28.405H24c-13.255 0-24 10.791-24 24.102v104.825h4.284c13.256 0 24-10.791 24-24.102V28.405z" fill="url(#d)" transform="translate(164 41)"/><path d="M103.844 28.358H99.56c-13.256 0-24 10.79-24 24.101v23.494h4.284c13.254 0 24-10.79 24-24.101V28.358z" fill="url(#e)" transform="translate(164 41)"/><path d="M0 75.88h75.559v4.302c0 13.312-10.746 24.101-24 24.101H0V75.88z" fill="url(#f)" transform="translate(164 41)"/></g></g></g></svg>