<svg width="285" height="160" viewBox="0 0 285 160" xmlns="http://www.w3.org/2000/svg" xmlns:xlink="http://www.w3.org/1999/xlink"><title>Group 3</title><defs><path id="a" d="M0 0h285v160H0z"/><linearGradient x1="50%" y1="122.518%" x2="50%" y2="-70.231%" id="c"><stop stop-color="#FFF" offset="0%"/><stop stop-color="#FFF" stop-opacity="0" offset="100%"/></linearGradient><linearGradient x1="50%" y1="0%" x2="50%" y2="98.384%" id="d"><stop stop-color="#FFF" stop-opacity="0" offset="0%"/><stop stop-color="#FFF" offset="100%"/></linearGradient></defs><g fill="none" fill-rule="evenodd"><g><mask id="b" fill="#fff"><use xlink:href="#a"/></mask><use fill="#5E5EE0" xlink:href="#a"/><g opacity=".407" mask="url(#b)"><path d="M48.964 32.455H27.797V23.85C27.797 10.68 38.75.001 52.26.001h21.167v8.606c0 13.17-10.952 23.848-24.462 23.848M116.807 32.455H95.64V23.85C95.64 10.68 106.592.001 120.1.001h21.167v8.606c0 13.17-10.952 23.848-24.461 23.848" fill="url(#c)" transform="translate(121 56)"/><path d="M157.947 107.135v-74.68h-5.56c-12.281 0-22.237 9.707-22.237 21.68v74.68h5.56c12.28 0 22.237-9.706 22.237-21.68M95.64 107.135v-74.68h-5.56c-12.281 0-22.238 9.707-22.238 21.68v74.68h5.56c12.281 0 22.237-9.706 22.237-21.68M27.797 107.135v-74.68h-5.56C9.957 32.455 0 42.162 0 54.135v74.68h5.56c12.281 0 22.237-9.706 22.237-21.68" fill="url(#d)" transform="translate(121 56)"/></g></g></g></svg>