<svg width="164" height="55" viewBox="0 0 164 55" xmlns="http://www.w3.org/2000/svg"><title>Page 1</title><g fill="#FFF" fill-rule="evenodd"><path d="M21.924 54.5c3.07 0 5.56-2.467 5.56-5.51v-7.634H22.55c-3.07 0-5.56 2.467-5.56 5.51V54.5h4.934zM0 10.858h37.525c3.838 0 6.949-3.083 6.949-6.887V.46H6.949C3.111.46 0 3.542 0 7.346v3.512z"/><path d="M23.94 2.215c-3.838 0-6.95 3.083-6.95 6.887v25.573h4.935c3.07 0 5.558-2.467 5.558-5.51V2.215H23.94zM58.594 3.37h30.218a1.43 1.43 0 0 1 1.436 1.424V5.98H60.03a1.43 1.43 0 0 1-1.436-1.424V3.371zm-1.262 11.26h32.742a1.43 1.43 0 0 1 1.436 1.423v1.186H72.835l-4.976 14.829H80.73c.18 0 .361-.103.505-.275.144-.137.216-.309.144-.514l-2.271-9.063h8.905l2.343 9.337c.18.79-.036 1.51-.54 2.128a2.784 2.784 0 0 1-2.128.961H61.406c-1.65 0-2.815-1.601-2.294-3.152l4.782-14.251h-5.126a1.43 1.43 0 0 1-1.436-1.424V14.63zM118.87 22.971h1.84v-2.986h-1.84v2.986zm0-5.595h1.84v-3.227h-1.84v3.227zm-8.147 5.595h1.875v-2.986h-1.875v2.986zm0-5.595h1.875v-3.227h-1.875v3.227zm2.523-9.783l1.803 2.815 2.812-4.257h-13.592V4.92c0-.76.622-1.377 1.39-1.377h21.611l-5.66 7.998h5.264v16.031c0 1.82-1.55 3.261-3.425 3.261h-3.93v-2.437h.18c.577 0 1.01-.412 1.01-.961V25.58h-1.839v3.875c0 .76-.622 1.377-1.39 1.377h-4.882V25.58h-1.875v3.875c0 .76-.622 1.377-1.39 1.377h-4.74V12.918c0-.76.623-1.378 1.39-1.378h2.648l-2.523-3.947h7.138zM101.962 2.58l.396 3.49c.154 1.36-.92 2.552-2.302 2.552h-4.583l-.396-3.49c-.154-1.36.92-2.552 2.302-2.552h4.583zm-7.19 7.346h8.704l-2.38 10.813h2.452l-2.019 11.534h26.03v1.231c0 .76-.622 1.378-1.39 1.378H93.706l2.127-10.333h-2.271l2.127-11.705h-2.307v-1.54c0-.762.622-1.378 1.39-1.378zM154.848 24.173h-2.88c-.64 0-1.158.513-1.158 1.147v6.954h2.92c.613 0 1.118-.412 1.118-.961v-7.14zm-10.92-2.61h18.96v9.406c0 2.197-2.056 3.914-4.615 3.914H142.77V22.71c0-.633.518-1.147 1.158-1.147zm-.18-4.77h19.32v1.46c0 .634-.519 1.148-1.159 1.148H142.59v-1.46c0-.635.519-1.149 1.159-1.149zm0-5.733h19.32v1.46c0 .635-.519 1.149-1.159 1.149H142.59v-1.462c0-.633.519-1.147 1.159-1.147zm-.504-5.733h5.006v-.485a2.306 2.306 0 0 1 2.317-2.295h6.913v2.78h6.128v1.461c0 .634-.518 1.148-1.158 1.148h-20.365V6.475c0-.634.519-1.148 1.159-1.148zm-2.457-2.78l-1.802 8.101h1.225v22.008a2.306 2.306 0 0 1-2.316 2.295h-5.579V17.788h-2.848l2.989-13.44a2.31 2.31 0 0 1 2.261-1.801h6.07zM59.399 48.807h4.171v.552h-5.98v-5.702c0-.634.519-1.148 1.159-1.148h4.821v.551H59.4v5.747zM65.84 45.41v3.382h1.49c.397 0 .723-.31.723-.686v-2.697H65.84zm-.65-.544h4.67v3.096c0 .762-.65 1.382-1.443 1.382h-4.386v-3.33c0-.635.519-1.148 1.159-1.148zM75.064 45.41v2.816c0 .634-.518 1.148-1.158 1.148h-.65V45.41h-.81v2.817c0 .634-.518 1.148-1.158 1.148h-.65v-3.36c0-.635.519-1.148 1.159-1.148h5.877v3.36c0 .634-.519 1.148-1.158 1.148h-.643V45.41h-.809zM82.893 45.41v2.816c0 .634-.518 1.148-1.158 1.148h-.65V45.41h-.81v2.817c0 .634-.518 1.148-1.158 1.148h-.65v-3.36c0-.635.519-1.148 1.158-1.148h5.878v3.36c0 .634-.519 1.148-1.159 1.148h-.642V45.41h-.809zM92.118 44.926v3.3c0 .634-.519 1.148-1.158 1.148h-.65v-.227c-.183.136-.421.227-.762.227h-3.26v-3.3c0-.634.519-1.148 1.159-1.148h.65v3.897h1.134c.484 0 .817-.159 1.079-.499v-2.25c0-.634.518-1.148 1.158-1.148h.65zM101.255 44.926v3.315c0 .634-.518 1.148-1.158 1.148h-.65v-3.315c0-.634.519-1.148 1.159-1.148h.65zm-.007-2.024v.355c0 .634-.519 1.148-1.159 1.148h-.65v-.355c0-.634.519-1.148 1.159-1.148h.65zM103.865 48.838h3.205v.551h-5.013v-3.323c0-.634.518-1.148 1.158-1.148h3.855v.544h-3.205v3.376zM109.394 48.838h1.23c.396 0 .72-.31.72-.688v-.959h-1.95v1.647zm3.751-.83c0 .754-.658 1.381-1.443 1.381h-4.108v-1.601c0-.634.518-1.148 1.158-1.148h2.577v-1.148h-3.735v-.551h5.551v3.066zM116.652 43.295v1.578H118v.544h-1.348v3.406H118v.55h-3.157v-3.956h-1.198v-.544h1.198v-.43c0-.634.518-1.148 1.158-1.148h.65zM120.387 44.926v3.315c0 .634-.518 1.148-1.158 1.148h-.65v-3.315c0-.634.519-1.148 1.158-1.148h.65zm-.007-2.024v.355c0 .634-.519 1.148-1.159 1.148h-.65v-.355c0-.634.519-1.148 1.159-1.148h.65zM122.981 45.41v3.382h1.491c.397 0 .722-.31.722-.686v-2.697h-2.213zm-.65-.544h4.671v3.096c0 .762-.65 1.382-1.443 1.382h-4.386v-3.33c0-.635.518-1.148 1.158-1.148zM137.917 48.838h3.204v.551h-5.012v-3.323c0-.634.518-1.148 1.158-1.148h3.854v.544h-3.204v3.376zM143.493 42.532v5.694c0 .634-.519 1.148-1.158 1.148h-.65V43.68c0-.634.518-1.148 1.158-1.148h.65zM146.095 45.41v3.382h1.49c.397 0 .723-.31.723-.686v-2.697h-2.213zm-.65-.544h4.67v3.096c0 .762-.65 1.382-1.443 1.382h-4.386v-3.33c0-.635.519-1.148 1.159-1.148zM156.715 44.926v3.3c0 .634-.518 1.148-1.158 1.148h-.65v-.227c-.182.136-.42.227-.762.227h-3.26v-3.3c0-.634.52-1.148 1.16-1.148h.65v3.897h1.133c.484 0 .817-.159 1.08-.499v-2.25c0-.634.518-1.148 1.157-1.148h.65zM127.78 49.374v-3.3c0-.634.518-1.148 1.158-1.148h.65v.226c.183-.135.42-.226.762-.226h3.26v3.3c0 .634-.519 1.148-1.159 1.148h-.65v-3.897h-1.134c-.484 0-.817.159-1.079.499v2.25c0 .634-.518 1.148-1.158 1.148h-.65zM92.864 49.374v-3.3c0-.634.518-1.148 1.158-1.148h.65v.226c.183-.135.42-.226.761-.226h3.26v3.3c0 .634-.518 1.148-1.158 1.148h-.65v-3.897h-1.134c-.484 0-.817.159-1.08.499v2.25c0 .634-.518 1.148-1.157 1.148h-.65zM160.69 48.838c.396 0 .721-.31.721-.688v-2.726h-2.356v3.414h1.634zm1.88-6.336h.65v5.505c0 .755-.65 1.382-1.444 1.382h-4.52v-3.36c0-.635.517-1.148 1.157-1.148h2.998v-1.232c0-.634.519-1.147 1.158-1.147z"/></g></svg>