<svg width="90" height="28" viewBox="0 0 90 28" xmlns="http://www.w3.org/2000/svg"><title>Rectangle 3</title><g fill="none" fill-rule="evenodd"><path d="M0 0h86.85c1.657 0 3.009 1.35 3.017 2.996L90 28H14C6.269 28 0 21.734 0 14V0z" fill="#44B1D2" opacity=".993"/><g fill-rule="nonzero" fill="#FFF"><path d="M26.463 7.559a2.92 2.92 0 0 0 2.912-2.912v-.566h-5.904a2.92 2.92 0 0 0-2.912 2.912v.566h-.485a2.969 2.969 0 0 0-2.977 2.976v12.796h.502a2.969 2.969 0 0 0 2.976-2.977v-4.497h5.807a2.969 2.969 0 0 0 2.977-2.976v-.502h-8.8V7.56h5.904zM35.813 8.546h4.837v7.15c0 .307-.243.55-.55.55h-.793l1.343 3.09h-1.57a.53.53 0 0 1-.484-.324l-.583-1.424-.744 1.747h-1.423a.348.348 0 0 1-.324-.485l1.18-2.604h-1.358V9.03a.454.454 0 0 1 .47-.485zm3.041 6.664l.21.47V9.45h-2.167v6.325l.243-.566v-5.209H38.4c.243 0 .453.195.453.453v4.756zm7.264-7.198v1.537h.048c.21 0 .372.161.372.372v.533h-.42v7.733c0 .614-.47 1.132-1.036 1.132h-1.52v-.906h.113c.178 0 .307-.145.307-.34v-7.635h-.34l-.84 8.865h-1.553a.336.336 0 0 1-.34-.388l.809-8.493h-.243a.366.366 0 0 1-.372-.372v-.534h2.88V8.432c0-.242.193-.453.452-.453h1.683v.033zM48.156 11.668l2.248-3.624h2.281c.162 0 .26.178.162.307l-.291.453h5.888c.113 0 .194.097.194.195v1.925l-2.653 1.067 2.022 1.035a.146.146 0 0 0 .081.017h.922c.114 0 .194.097.194.194v.663h-3.17c-.033 0-.049 0-.081-.016l-2.168-.955a.276.276 0 0 0-.161 0l-2.395.971c-.016.016-.048.016-.08.016h-2.96a.197.197 0 0 1-.195-.194v-.663h1.116c.033 0 .049 0 .081-.016l2.362-1.1-.793-.356-.242.388h-2.184c-.162 0-.259-.178-.178-.307zm.485 3.494h1.763l.437-.858h2.281c.146 0 .243.162.178.292l-.291.566h5.613v2.782c0 .728-.598 1.327-1.326 1.327h-2.799a.197.197 0 0 1-.194-.195v-.679h1.116c.307 0 .55-.243.55-.55v-1.78h-3.251a.199.199 0 0 0-.178.114l-1.505 3.09h-2.394c-.145 0-.242-.162-.178-.292l1.488-2.911h-1.504v-.712c0-.097.08-.194.194-.194zm7.506-5.144v-.34h-4.173l-.243.388 2.054.922 2.362-.97zM60.676 12.218h10.758c.291 0 .534.242.534.533v.373h-6.18l-1.65 5.144h4.255c.064 0 .113-.033.161-.097.049-.049.065-.114.049-.178l-.744-3.155h2.232a.9.9 0 0 1 .874.696l.614 2.556c.065.275-.016.517-.178.744a.904.904 0 0 1-.695.34H61.97a.78.78 0 0 1-.745-1.02l1.602-5.03h-1.65a.511.511 0 0 1-.518-.518v-.388h.016zm.421-3.899H71.11c.243 0 .453.194.453.453v.453H61.6a.504.504 0 0 1-.502-.501v-.405z"/></g></g></svg>