<svg width="90" height="28" viewBox="0 0 90 28" xmlns="http://www.w3.org/2000/svg"><title>Rectangle 3 Copy</title><g fill="none" fill-rule="evenodd"><path d="M0 0h86.85c1.657 0 3.009 1.35 3.017 2.996L90 28H14C6.269 28 0 21.734 0 14V0z" fill="#A0D148" opacity=".993"/><g fill-rule="nonzero" fill="#FFF"><path d="M27.135 4.627v-.514H24.32a2.903 2.903 0 0 0-2.895 2.894v.515h2.815a2.903 2.903 0 0 0 2.895-2.895z"/><path d="M30.03 7.506a2.903 2.903 0 0 0-2.895 2.895v2.814h-5.71v-5.71h-.514a2.903 2.903 0 0 0-2.895 2.896v12.592h.515a2.903 2.903 0 0 0 2.894-2.895v-3.49h2.815a2.903 2.903 0 0 0 2.895-2.895V13.2h.514a2.903 2.903 0 0 0 2.895-2.895V7.49h-.515v.016zM61.71 11.912h10.695c.29 0 .53.242.53.531v.37h-6.143l-1.64 5.114h4.23c.064 0 .112-.032.16-.097a.181.181 0 0 0 .049-.176l-.74-3.136h2.22c.417 0 .771.289.868.691l.61 2.541c.065.273-.015.515-.176.74a.898.898 0 0 1-.692.337h-8.587a.847.847 0 0 1-.805-1.093l1.576-4.921h-1.64a.508.508 0 0 1-.514-.515v-.386zM62.129 8.037h9.954a.45.45 0 0 1 .45.45v.45h-9.906a.501.501 0 0 1-.498-.498v-.402zM36.623 7.795h10.646a.45.45 0 0 1 .45.45v.45H37.121a.501.501 0 0 1-.498-.498v-.402zM36.88 13.263h3.795v-.402c0-.225.177-.402.402-.402h2.429v.804h4.213v.499a.398.398 0 0 1-.402.402h-.579l.869 4.165a.401.401 0 0 1-.386.482H45l-.98-4.663h-.531v4.261a.398.398 0 0 1-.402.402h-2.413v-4.663h-.53l-.9 4.342a.399.399 0 0 1-.403.321h-2.38l.965-4.663h-.965v-.499a.42.42 0 0 1 .418-.386zM39.373 9.243l.466 2.508c.048.242-.145.467-.402.467H37.17l-.467-2.509a.41.41 0 0 1 .402-.482h2.268v.016zM43.2 9.243l.467 2.508c.048.242-.145.467-.402.467h-2.268l-.466-2.509a.41.41 0 0 1 .402-.482H43.2v.016zM44.262 12.218l.482-2.654a.399.399 0 0 1 .402-.321h2.429l-.483 2.653a.413.413 0 0 1-.402.338h-2.428v-.016zM49.537 7.763h4.808v7.494a.398.398 0 0 1-.402.402h-.933l1.335 3.168h-1.624c-.161 0-.322-.096-.37-.257l-.595-1.544L51 18.827h-1.319a.402.402 0 0 1-.37-.562l1.142-2.606h-1.335V8.181c0-.24.193-.418.419-.418zm3.039 6.867l.21.483V8.696h-2.124v6.48l.242-.546V9.29h1.27c.225 0 .402.178.402.403v4.937zm4.519-6.593l-.096.61h2.862c.225 0 .402.178.402.403v8.652c0 .61-.434 1.125-.933 1.125H57.82a.398.398 0 0 1-.402-.402v-.498h.74c.144 0 .273-.16.273-.338V9.55h-1.576l-.241 1.479h-1.48a.415.415 0 0 1-.402-.467l.499-3.007h1.463c.241 0 .434.225.402.483zm-.563 4.149l-.241 3.763h.305a.132.132 0 0 0 .13-.08.242.242 0 0 0 .063-.177l-.096-2.236h1.013c.21 0 .386.177.402.386l.097 2.252c.016.209-.016.386-.129.546a.528.528 0 0 1-.418.225H55.18a.406.406 0 0 1-.402-.434l.322-4.68h1.03c.224 0 .401.21.401.435z"/></g></g></svg>