<svg width="90" height="28" viewBox="0 0 90 28" xmlns="http://www.w3.org/2000/svg"><title>Rectangle 3 Copy 2</title><g fill="none" fill-rule="evenodd"><path d="M0 0h86.85c1.657 0 3.009 1.35 3.017 2.996L90 28H14C6.269 28 0 21.734 0 14V0z" fill="#EB5F69" opacity=".993"/><g fill-rule="nonzero" fill="#FFF"><path d="M18.06 13.405v7.702h1.035c.917 0 1.667-.75 1.667-1.667v-7.702h-1.036c-.916 0-1.666.75-1.666 1.667zM18.06 8.762v1.202h1.035c.917 0 1.667-.75 1.667-1.666V7.095h-1.036c-.916 0-1.666.738-1.666 1.667zM32.536 7.095h-1.643c-.714 0-1.357.453-1.583 1.143l-2.155 7.87L25 8.237a1.677 1.677 0 0 0-1.583-1.143h-1.643l4.214 14.024h1.298c.619 0 1.154-.393 1.357-.976l3.893-13.048zM36.929 11.048h2.595v-.87c0-.166.13-.297.297-.297h1.87v1.167h2.904v4.25c0 .464-.393.845-.88.845H41.69v1.452h3.298v.381a.295.295 0 0 1-.298.298h-5.166v-2.131H36.63v-4.798a.31.31 0 0 1 .298-.297zm1.821 2.214h.774v-1.536h-.476a.295.295 0 0 0-.298.298v1.238zm0 2.214h.774V13.94h-.774v1.536zm2.94-3.75v1.536h.774v-1.536h-.774zm.786 2.214h-.786v1.536h.512c.143 0 .274-.119.274-.262V13.94zM45.988 13.69h2.929v-.821l1.869-2.13h-4.667v-.382c0-.167.131-.297.298-.297h7.619l-2.917 3.297v.322h3.333v.38a.295.295 0 0 1-.297.298h-3.036v3.12c0 .463-.393.844-.869.844h-2.667v-.678h1.06c.143 0 .274-.12.274-.262v-3.024H45.69v-.38c0-.156.143-.287.298-.287zM59.44 12.774l-.226.583h4.417v1.226l-1.69 1.822 1.809 1.905h-2.524l-.536-.56-.523.56h-2.512l1.774-1.905-.989-1.048-1.071 2.762a.294.294 0 0 1-.274.19h-2.047l2.154-5.523h-2.25l.977-2.417a.312.312 0 0 1 .273-.19h1.69l-.75 1.928h.31l.798-2.024a.294.294 0 0 1 .274-.19h2.047l-.869 2.214h3.988v.381a.295.295 0 0 1-.297.298H59.44v-.012zm.262 1.262l.977 1.035.964-1.035h-1.94zm1.881-3.905h1.5l.322 1.202a.295.295 0 0 1-.286.37h-1.5l-.321-1.203c-.06-.179.083-.369.285-.369zM64.512 10.024h8.476v.38a.295.295 0 0 1-.298.298h-2.202v.524h2.31v1.572c0 .369-.31.678-.703.678h-7.678v-1.952c0-.167.13-.298.297-.298h2.012v-.524h-2.5v-.38a.285.285 0 0 1 .286-.298zm0 5.095h8.476v.381a.295.295 0 0 1-.298.298h-2.988v1.44c0 .548-.476 1.012-1.047 1.012h-1.94v-.679h.535a.264.264 0 0 0 .262-.261v-1.524h-3.286v-.381c-.012-.155.12-.286.286-.286zm2.036 1.012l-.238 1.75a.307.307 0 0 1-.298.262h-1.667l.226-1.738a.307.307 0 0 1 .298-.262h1.679v-.012zm-1.643-2.12h7.678v.382a.295.295 0 0 1-.297.297h-7.679v-.38c0-.167.143-.298.298-.298zm1.31-1.213h.5v-.893h-.203a.295.295 0 0 0-.298.297v.596zm2.118-1.572h.524v-.524h-.524v.524zm0 1.572h.524v-.893h-.524v.893zm2.655-.893h-.5v.893h.322a.173.173 0 0 0 .178-.167v-.726zm1.595 4.226l.227 1.667a.297.297 0 0 1-.298.333h-1.595l-.227-1.667a.297.297 0 0 1 .298-.333h1.595z"/></g></g></svg>