<svg width="90" height="28" viewBox="0 0 90 28" xmlns="http://www.w3.org/2000/svg"><title>Rectangle 3 Copy 3</title><g fill="none" fill-rule="evenodd"><path d="M0 0h86.85c1.657 0 3.009 1.35 3.017 2.996L90 28H14C6.269 28 0 21.734 0 14V0z" fill="#F17047" opacity=".993"/><g fill-rule="nonzero" fill="#FFF"><path d="M32.157 6.665V6h-1.838a2.552 2.552 0 0 0-2.545 2.545v.665h1.838c1.4 0 2.545-1.132 2.545-2.545zM32.157 13.607h.664c1.4 0 2.545-1.146 2.545-2.545V9.21h-.664a2.552 2.552 0 0 0-2.545 2.544v1.853l-4.383-.014V9.21h-.665a2.552 2.552 0 0 0-2.545 2.544v1.839H20.28V9.21h-.664a2.552 2.552 0 0 0-2.545 2.544v11.029h.664c1.4 0 2.545-1.145 2.545-2.545v-3.436h4.284v5.98h.665c1.4 0 2.545-1.144 2.545-2.544v-3.436h1.838c1.4 0 2.545-1.145 2.545-2.545v-.65zM32.807 19.587h-.664v.665c0 1.4 1.145 2.545 2.545 2.545h.664v-.665a2.534 2.534 0 0 0-2.545-2.545zM47.512 9.294l-1.315 2.913 3.746 6.405a.355.355 0 0 1-.31.537H47.78l-2.686-4.51-1.937 4.298a.357.357 0 0 1-.325.212h-2.263l4.383-9.643a.357.357 0 0 1 .326-.212h2.234zM51.612 11.231h1.795l.439-1.71a.36.36 0 0 1 .34-.27h2.205l-.495 1.98h4.51a.35.35 0 0 1 .354.354v6.32c0 .664-.538 1.188-1.188 1.188h-2.87a.35.35 0 0 1-.354-.354v-.438h1.64a.299.299 0 0 0 .297-.297v-5.995h-2.587l-1.71 6.815a.36.36 0 0 1-.34.269h-2.192l1.768-7.084h-1.966v-.424a.36.36 0 0 1 .354-.354zM62.032 13.027h9.402a.47.47 0 0 1 .467.467v.325H66.5l-1.442 4.496h3.718c.057 0 .1-.028.142-.085.042-.042.056-.099.042-.155l-.636-2.743h1.951c.368 0 .679.254.764.608l.537 2.234c.056.24-.014.452-.156.65a.79.79 0 0 1-.608.297h-7.55a.745.745 0 0 1-.707-.962l1.386-4.326h-1.442a.447.447 0 0 1-.453-.453v-.353h-.014zM62.4 9.62h8.752c.212 0 .396.17.396.395v.396h-8.71a.44.44 0 0 1-.438-.438V9.62z"/></g></g></svg>