<svg width="90" height="28" viewBox="0 0 90 28" xmlns="http://www.w3.org/2000/svg"><title>Rectangle 3 Copy 4</title><g fill="none" fill-rule="evenodd"><path d="M0 0h86.85c1.657 0 3.009 1.35 3.017 2.996L90 28H14C6.269 28 0 21.734 0 14V0z" fill="#9256E9" opacity=".993"/><g fill-rule="nonzero" fill="#FFF"><path d="M37.234 12.675H48.22c.264 0 .482.218.482.482v.404h-6.262l-1.662 5.018h4.319a.215.215 0 0 0 .17-.093c.048-.047.079-.109.048-.171l-.762-3.06h2.983l.793 3.153a.8.8 0 0 1-.187.715.937.937 0 0 1-.714.326h-8.81a.817.817 0 0 1-.777-1.072l1.6-4.816h-1.724a.484.484 0 0 1-.482-.482v-.404zm.435-3.806H47.8c.265 0 .482.217.482.481v.404h-10.13a.484.484 0 0 1-.482-.481v-.404zM49.804 11.09h2.92l-.792 3.667h.824l-.684 3.9h8.732v.42a.458.458 0 0 1-.466.465H49.446l.715-3.495H49.4l.714-3.962h-.776v-.529c0-.264.202-.466.466-.466zm2.408-2.485l.14 1.18a.784.784 0 0 1-.777.87h-1.538l-.14-1.18a.784.784 0 0 1 .777-.87h1.538zm3.775 1.693l.606.948.948-1.445h-4.552v-.42c0-.264.202-.466.466-.466h7.24l-1.896 2.704h1.772v5.422c0 .621-.513 1.103-1.15 1.103H58.1v-.823h.061c.187 0 .342-.14.342-.327v-.621h-.621v1.305a.458.458 0 0 1-.466.466h-1.632v-1.771h-.621v1.305a.458.458 0 0 1-.466.466h-1.585v-6.06c0-.263.202-.465.466-.465h.886l-.84-1.337h2.362v.016zm-.839 3.31h.622V12.52h-.622v1.087zm0 1.895h.622v-1.01h-.622v1.01zm2.735-2.983v1.087h.621V12.52h-.621zm0 2.983h.621v-1.01h-.621v1.01zM65.232 8.589l-.606 2.734h.404v7.443a.77.77 0 0 1-.777.776h-1.865v-5.81h-.947l1.01-4.553a.768.768 0 0 1 .76-.606h2.02v.016zm.823.948h1.678v-.171a.77.77 0 0 1 .777-.777h2.315v.948h2.05v.497c0 .217-.17.388-.388.388h-6.836v-.497a.408.408 0 0 1 .404-.388zm.171 1.942h6.479v.497c0 .218-.171.388-.389.388h-6.478v-.497c0-.217.17-.388.388-.388zm0 1.942h6.479v.497c0 .218-.171.388-.389.388h-6.478v-.497c0-.217.17-.388.388-.388zm.062 1.6h6.355v3.185c0 .746-.684 1.32-1.554 1.32h-5.205V15.41c.016-.202.187-.389.404-.389zm3.651.886h-.963a.385.385 0 0 0-.388.388v2.346h.978c.202 0 .373-.14.373-.326v-2.408zM23.718 20.8v2.58h1.662a1.87 1.87 0 0 0 1.864-1.864v-2.58h-1.662a1.85 1.85 0 0 0-1.864 1.865zM20.346 5.093a2.327 2.327 0 0 0-2.33 2.33V8.62h5.702v8.064h1.662a1.87 1.87 0 0 0 1.864-1.865V8.62h3.372c1.29 0 2.33-1.04 2.33-2.33V5.093h-12.6z"/></g></g></svg>