<svg width="90" height="28" viewBox="0 0 90 28" xmlns="http://www.w3.org/2000/svg"><title>Rectangle 3 Copy 5</title><g fill="none" fill-rule="evenodd"><path d="M0 0h86.85c1.657 0 3.009 1.35 3.017 2.996L90 28H14C6.269 28 0 21.734 0 14V0z" fill="#F27E35" opacity=".993"/><g fill-rule="nonzero" fill="#FFF"><path d="M25.624 9.834h2.14a3.795 3.795 0 0 0 3.804-3.804v-.935H25.782A3.795 3.795 0 0 0 21.978 8.9v.935H25.624z"/><path d="M21.186 9.834a3.18 3.18 0 0 0-3.17 3.17v3.012a3.18 3.18 0 0 0 3.17 3.17h.792V9.834h-.792zM25.782 23.94h5.785v-.934a3.795 3.795 0 0 0-3.803-3.804h-5.785v.935a3.805 3.805 0 0 0 3.803 3.804zM61.889 13.21h10.54c.286 0 .523.238.523.523v.365h-6.054l-1.617 5.04h4.169c.063 0 .11-.031.158-.095.048-.047.063-.11.048-.174l-.73-3.09h2.188c.412 0 .76.284.856.68l.602 2.505c.063.27-.016.507-.174.73a.885.885 0 0 1-.682.332h-8.464a.835.835 0 0 1-.792-1.078l1.553-4.85h-1.617a.5.5 0 0 1-.507-.507v-.38zm.412-3.835h9.811c.238 0 .444.19.444.443v.444h-9.763a.494.494 0 0 1-.492-.491v-.396zM37.765 11.245h.618V9.422c0-.222.175-.396.397-.396h1.727v2.219h1.015v.491a.392.392 0 0 1-.397.397h-.618v7.623a.392.392 0 0 1-.396.397h-1.744v-8.02h-1.014v-.492a.417.417 0 0 1 .412-.396zm3.614 7.339l.19-5.96c0-.222.19-.38.396-.38h.619l-.19 5.96c0 .205-.19.38-.397.38h-.618zm.856-8.29h.65l.031-.888c0-.206.19-.38.397-.38h1.585l-.048 1.284h2.314v8.765c0 .618-.507 1.11-1.11 1.11H45.04a.318.318 0 0 1-.317-.318v-.57c.111 0 .238.016.333-.064a.339.339 0 0 0 .143-.285v-7.735h-.38l-.286 8.591c0 .206-.19.38-.396.38h-1.585l.301-8.97h-1.014v-.508c0-.238.19-.412.396-.412zm5.23 8.29l-.158-5.944c0-.222.174-.412.396-.412h.602l.159 5.943a.406.406 0 0 1-.396.413h-.603zM50.27 9.295h10.193v9.431a1.33 1.33 0 0 1-1.332 1.332h-2.029a.318.318 0 0 1-.317-.317v-.571h.84a.335.335 0 0 0 .333-.333V10.2h-5.183a.392.392 0 0 0-.396.396v9.082a.392.392 0 0 1-.396.396h-2.108V9.707c0-.237.174-.412.396-.412zm2.87 2.172h4.438v.491a.392.392 0 0 1-.396.396h-4.438v-.49c0-.223.174-.397.396-.397zm.11 1.997h4.201v3.963c0 .57-.475 1.046-1.046 1.046h-3.566V13.86a.428.428 0 0 1 .412-.396zm2.394.682h-.555a.392.392 0 0 0-.396.396v3.217h.682c.142 0 .27-.11.27-.253v-3.36z"/></g></g></svg>