<svg width="90" height="29" viewBox="0 0 90 29" xmlns="http://www.w3.org/2000/svg"><title>Rectangle 3 Copy 6</title><g fill="none" fill-rule="evenodd"><path d="M0 .175h86.85c1.657 0 3.009 1.35 3.017 2.996L90 28.175H14c-7.732 0-14-6.267-14-14v-14z" fill="#5F5AE4" opacity=".993"/><g fill-rule="nonzero" fill="#FFF"><path d="M43.528 10.263h.84v-.271a.32.32 0 0 1 .322-.323h1.937v.607h2.169v-.271a.32.32 0 0 1 .323-.323h1.95v.607h1.161v.4a.32.32 0 0 1-.323.323h-.839v.284a.32.32 0 0 1-.323.322h-1.95v-.606h-2.168v.284a.32.32 0 0 1-.323.322h-1.937v-.606h-1.162v-.4c0-.194.155-.35.323-.35zm8.586 1.614v1.033a.32.32 0 0 1-.323.322h-1.95V12.6h-4.26v.31a.32.32 0 0 1-.323.322h-1.936V12.2a.32.32 0 0 1 .322-.322h8.47zm-8.483 6.778v-2.143a.32.32 0 0 1 .323-.323h7.863v1.55c0 .49-.4.903-.904.903h-7.282v.013zm.44-3.112v-1.781a.32.32 0 0 1 .322-.323h6.972v1.51a.906.906 0 0 1-.904.904h-6.068a.302.302 0 0 1-.323-.31zm5.487 1.369H45.89v1.007h3.395c.168 0 .272-.116.272-.271v-.736zm-.465-2.737H46.33v.968h2.505c.142 0 .258-.129.258-.271v-.697zM55.613 9.643l-.168.852h1.02v.71h-1.162l-.155.762a.32.32 0 0 1-.323.258h-1.55l.466-2.337a.32.32 0 0 1 .322-.258h1.55v.013zm-1.963 2.983h2.699v.4a.32.32 0 0 1-.323.323h-.22v1.678h.646v.4a.32.32 0 0 1-.323.323h-.31v2.208h.53v.4a.32.32 0 0 1-.323.323h-2.13v-2.944h-.607v-.4a.32.32 0 0 1 .323-.323h.284v-1.678h-.569v-.4c0-.168.142-.31.323-.31zm3.46-.336h1.485V9.966a.32.32 0 0 1 .323-.323h1.588v2.647h1.807v5.32c0 .606-.529 1.084-1.162 1.084h-1.51v-.723h.452a.273.273 0 0 0 .27-.272v-.903H58.75v1.562c0 .18-.155.336-.336.336h-1.626v-6.081a.32.32 0 0 1 .322-.323zM58.246 9.9l.13 1.705a.319.319 0 0 1-.323.348h-1.11l-.13-1.704a.319.319 0 0 1 .323-.349h1.11zm.491 4.274h1.614v-1.162h-1.614v1.162zm0 1.898h1.614v-1.188h-1.614v1.188zM62.3 9.9l-.142 1.756a.324.324 0 0 1-.322.297H60.66l.142-1.756a.324.324 0 0 1 .323-.297H62.3zM63.462 13.116h8.586a.43.43 0 0 1 .426.426v.297h-4.932l-1.317 4.106h3.396c.052 0 .09-.026.129-.078.039-.038.052-.09.039-.142l-.594-2.517h1.782c.335 0 .62.232.697.555l.49 2.04c.052.22-.013.413-.142.594a.721.721 0 0 1-.555.27h-6.894a.68.68 0 0 1-.646-.877l1.265-3.95h-1.316a.408.408 0 0 1-.414-.414v-.31zM63.798 10.005h7.992a.36.36 0 0 1 .361.361v.362h-7.953c-.22 0-.4-.181-.4-.4v-.323zM23.194 10.366H20.74v-1.02a2.832 2.832 0 0 1 2.84-2.84h2.453v1.02a2.84 2.84 0 0 1-2.84 2.84zM32.36 10.366h-2.453v-1.02a2.832 2.832 0 0 1 2.84-2.84h2.454v1.02a2.84 2.84 0 0 1-2.84 2.84zM38.428 19.262v-8.896h-.645a2.59 2.59 0 0 0-2.582 2.582v8.896h.645c1.42 0 2.582-1.15 2.582-2.582zM29.894 19.262v-8.896h-.645a2.59 2.59 0 0 0-2.582 2.582v8.896h.645a2.573 2.573 0 0 0 2.582-2.582zM20.728 19.262v-8.896h-.646a2.59 2.59 0 0 0-2.582 2.582v8.896h.646a2.573 2.573 0 0 0 2.582-2.582z"/></g></g></svg>