<?xml version="1.0" encoding="UTF-8"?>
<svg width="48px" height="48px" viewBox="0 0 48 48" version="1.1" xmlns="http://www.w3.org/2000/svg" xmlns:xlink="http://www.w3.org/1999/xlink">
    <!-- Generator: Sketch 41.2 (35397) - http://www.bohemiancoding.com/sketch -->
    <title>高效</title>
    <desc>Created with Sketch.</desc>
    <defs>
        <polygon id="path-1" points="39.9152593 20.1905778 39.9152593 40.2962963 0 40.2962963 0 20.1905778 0 0.0848592593 39.9152593 0.0848592593"></polygon>
    </defs>
    <g id="解决方案页面" stroke="none" stroke-width="1" fill="none" fill-rule="evenodd">
        <g id="高效">
            <g id="Page-1" transform="translate(4.000000, 3.000000)">
                <g id="Group-17" transform="translate(0.000000, 0.211556)">
                    <mask id="mask-2" fill="white">
                        <use xlink:href="#path-1"></use>
                    </mask>
                    <g id="Clip-16"></g>
                    <path d="M33.7777778,31.8341926 L33.7777778,28.1319704 C35.1739259,25.7556741 35.9786667,22.9918222 35.9786667,20.0424889 C35.9786667,11.2084148 28.7917037,4.02145185 19.9576296,4.02145185 C11.1235556,4.02145185 3.93659259,11.2084148 3.93659259,20.0424889 C3.93659259,22.8407111 4.65985185,25.4727111 5.92592593,27.764563 L5.92592593,31.5891556 C3.33540741,28.4469333 1.77777778,24.4232296 1.77777778,20.0424889 C1.77777778,10.0178963 9.93303704,1.86263704 19.9576296,1.86263704 C29.9819259,1.86263704 38.1374815,10.0178963 38.1374815,20.0424889 C38.1374815,24.5393778 36.4927407,28.6570074 33.7777778,31.8341926 L33.7777778,31.8341926 Z M32.7128889,26.3704889 L7.20237037,26.3704889 C6.25214815,24.462637 5.71437037,22.3144889 5.71437037,20.0424889 C5.71437037,12.188563 12.104,5.79922963 19.9576296,5.79922963 C27.8112593,5.79922963 34.2008889,12.188563 34.2008889,20.0424889 C34.2008889,22.3144889 33.6631111,24.462637 32.7128889,26.3704889 L32.7128889,26.3704889 Z M7.7037037,38.518637 L32,38.518637 L32,28.1482667 L7.7037037,28.1482667 L7.7037037,38.518637 Z M19.9576296,0.0848592593 C8.95288889,0.0848592593 0,9.03774815 0,20.0424889 C0,25.5811556 2.26962963,30.5989333 5.92592593,34.2181926 L5.92592593,40.2964148 L33.7777778,40.2964148 L33.7777778,34.4199704 C37.5564444,30.7864889 39.9152593,25.6860444 39.9152593,20.0424889 C39.9152593,9.03774815 30.9623704,0.0848592593 19.9576296,0.0848592593 L19.9576296,0.0848592593 Z" id="Fill-15" fill="#40465B" mask="url(#mask-2)"></path>
                </g>
                <path d="M19.9576,21.1428444 C19.4675259,21.1428444 19.0687111,20.7440296 19.0687111,20.2539556 C19.0687111,19.7638815 19.4675259,19.3650667 19.9576,19.3650667 C20.4476741,19.3650667 20.8464889,19.7638815 20.8464889,20.2539556 C20.8464889,20.7440296 20.4476741,21.1428444 19.9576,21.1428444 M27.432563,11.9268444 L21.2710815,17.9360296 C20.8829333,17.7152889 20.4352296,17.5872889 19.9576,17.5872889 C19.4924148,17.5872889 19.0550815,17.7075852 18.6740444,17.9179556 L14.8541926,14.0981037 C14.5072296,13.7508444 13.9442667,13.7508444 13.5973037,14.0981037 C13.2500444,14.445363 13.2500444,15.0080296 13.5973037,15.3549926 L17.4894519,19.2477333 C17.3623407,19.5585481 17.2909333,19.8978074 17.2909333,20.2539556 C17.2909333,21.7241778 18.4873778,22.9206222 19.9576,22.9206222 C21.4278222,22.9206222 22.6242667,21.7241778 22.6242667,20.2539556 C22.6242667,19.9105481 22.5567111,19.5831407 22.4378963,19.2812148 L28.6737481,13.1997333 C29.0254519,12.8569185 29.0322667,12.2942519 28.6897481,11.9425481 C28.346637,11.591437 27.7842667,11.5843259 27.432563,11.9268444" id="Fill-20" fill="#40465B"></path>
                <path d="M12.4895704,35.9880296 C12.2074963,36.257363 12.1912,36.7127704 12.4477926,36.9939556 C12.5698667,37.1403259 12.7666074,37.2484741 12.9935704,37.2484741 L16.5479407,37.2484741 C16.9405333,37.2484741 17.2483852,36.9056593 17.2483852,36.5127704 C17.2483852,36.1145481 16.9405333,35.7669926 16.5479407,35.7669926 L14.7938667,35.7669926 L16.3746074,34.3228444 C16.9091259,33.8398815 17.1852741,33.1572148 17.1852741,32.4366222 L17.1852741,32.4330667 C17.1852741,31.7832889 16.9814222,31.1770667 16.5559407,30.7207704 C16.0723852,30.1856593 15.3968296,29.8807704 14.6747556,29.8807704 C14.0246815,29.8807704 13.4223111,30.1169185 12.9666074,30.5424 L12.6587556,30.8244741 C12.5159407,30.9548444 12.4406815,31.1287704 12.4317926,31.307437 C12.4229037,31.4855111 12.4827556,31.6683259 12.6119407,31.8170667 C12.868237,32.0982519 13.3269037,32.1207704 13.604237,31.867437 L13.9144593,31.5877333 C14.130163,31.3978074 14.4057185,31.2932148 14.690163,31.2932148 C15.0252741,31.2932148 15.3286815,31.4256593 15.5429037,31.6647704 C15.7354963,31.883437 15.8374222,32.1518815 15.8374222,32.4404741 C15.8374222,32.7803259 15.7085333,33.075437 15.4646815,33.2944 L12.4895704,35.9880296 Z" id="Fill-28" fill="#40465B"></path>
                <path d="M20.7407407,34.5819259 L19.096,34.5819259 L20.7407407,32.5792593 L20.7407407,34.5819259 Z M17.0740741,34.7582222 C16.9842963,34.8714074 16.9321481,35.0035556 16.9208889,35.1407407 C16.917037,35.1878519 16.9176296,35.2355556 16.9235556,35.2835556 C16.9466667,35.4651852 17.0414815,35.5653333 17.181037,35.6708148 C17.2977778,35.776 17.4462222,35.7671111 17.6420741,35.7671111 L20.7407407,35.7671111 L20.7407407,36.506963 C20.7407407,36.8995556 20.9404444,37.2071111 21.3333333,37.2071111 C21.7262222,37.2071111 21.9259259,36.8995556 21.9259259,36.506963 L21.9259259,35.8903704 C22.5185185,35.8666667 22.5884444,35.5682963 22.5884444,35.1914074 C22.5884444,34.8213333 22.5185185,34.517037 21.9259259,34.4927407 L21.9259259,30.5528889 C21.9259259,30.5188148 21.9736296,30.4927407 21.9712593,30.5025185 C21.9712593,30.4702222 21.9994074,30.437037 21.9819259,30.3946667 L21.989037,30.370963 C21.9893333,30.3718519 21.9979259,30.3771852 21.9988148,30.3851852 C21.9979259,30.3834074 22.0005926,30.3813333 21.9997037,30.3792593 L21.9917037,30.3354074 C21.9878519,30.3217778 21.9825185,30.3096296 21.9780741,30.2971852 C21.9754074,30.2900741 21.9745185,30.2835556 21.9700741,30.2752593 L21.9413333,30.2192593 C21.914963,30.1795556 21.8983704,30.1620741 21.8865185,30.1496296 C21.8755556,30.133037 21.864,30.1176296 21.8367407,30.0903704 L21.8293333,30.0826667 C21.8121481,30.0574815 21.741037,30.0376296 21.7143704,30.0237037 C21.7031111,30.0154074 21.6296296,30.0082963 21.6296296,30.0032593 L21.6296296,30.0026667 C21.6296296,29.997037 21.6604444,29.9914074 21.6503704,29.9857778 L21.6488889,29.984 L21.6053333,29.9226667 L21.557037,29.9179259 C21.5525926,29.9161481 21.5537778,29.8862222 21.5493333,29.8847407 L21.5437037,29.8411852 L21.482963,29.8411852 L21.4518519,29.8411852 L21.1851852,29.8411852 L21.1422222,29.8841481 C21.1297778,29.8868148 21.1134815,29.901037 21.0954074,29.909037 C21.0728889,29.914963 21.048,29.9315556 21.0245926,29.9517037 C21.0062222,29.9585185 20.9917037,29.9691852 20.9798519,29.9757037 L20.9431111,30.0017778 C20.9271111,30.0121481 20.912,30.0245926 20.9087407,30.0299259 L20.9042963,30.0317037 L20.8477037,30.0515556 L17.0740741,34.7582222 Z" id="Fill-30" fill="#40465B"></path>
                <path d="M23.6466963,37.2056296 C23.6529185,37.2056296 23.6585481,37.2071111 23.6647704,37.2071111 C24.0629926,37.2071111 24.2961778,36.8995556 24.2961778,36.506963 L24.2961778,34.2402963 C24.2961778,33.7223704 24.8188444,33.3099259 25.3258074,33.3013333 C25.843437,33.3099259 26.3702519,33.7300741 26.3702519,34.2376296 L26.3702519,36.506963 C26.3702519,36.8995556 26.5702519,37.2071111 26.9628444,37.2071111 C27.3557333,37.2071111 27.555437,36.8995556 27.555437,36.506963 L27.555437,34.2376296 C27.555437,32.9434074 26.5092148,31.8906667 25.2206222,31.8906667 C24.9172148,31.8906667 24.5924741,31.9588148 24.2961778,32.0942222 L24.2961778,30.5828148 C24.2961778,30.1902222 24.0970667,29.8826667 23.6985481,29.8826667 C23.3124741,29.8826667 23.1109926,30.1967407 23.1109926,30.5828148 L23.1109926,36.506963 C23.1109926,36.5762963 23.0570667,36.6408889 23.0695111,36.6906667 C23.1604741,36.9887407 23.3530667,37.197037 23.6466963,37.2056296" id="Fill-32" fill="#40465B"></path>
            </g>
        </g>
    </g>
</svg>