<?xml version="1.0" encoding="UTF-8"?>
<svg width="48px" height="48px" viewBox="0 0 48 48" version="1.1" xmlns="http://www.w3.org/2000/svg" xmlns:xlink="http://www.w3.org/1999/xlink">
    <!-- Generator: Sketch 41.2 (35397) - http://www.bohemiancoding.com/sketch -->
    <title>全球采购 </title>
    <desc>Created with Sketch.</desc>
    <defs>
        <polygon id="path-1" points="20.4303155 38.2045455 40.8605379 38.2045455 40.8605379 0.10405303 20.4303155 0.10405303 9.31818176e-05 0.10405303 9.31818176e-05 38.2045455"></polygon>
    </defs>
    <g id="解决方案页面" stroke="none" stroke-width="1" fill="none" fill-rule="evenodd">
        <g id="全球采购-">
            <g id="Group-15" transform="translate(5.000000, 4.000000)">
                <mask id="mask-2" fill="white">
                    <use xlink:href="#path-1"></use>
                </mask>
                <g id="Clip-14"></g>
                <path d="M30.4491159,12.2176894 L24.7091159,12.2176894 L24.7091159,7.86920455 L31.333722,7.86920455 L30.4491159,12.2176894 Z M29.2489341,18.1192045 L24.7091159,18.1192045 L24.7091159,14.0813258 L30.0701765,14.0813258 L29.2489341,18.1192045 Z M27.9853886,24.3313258 L24.7091159,24.3313258 L24.7091159,19.9828409 L28.8699947,19.9828409 L27.9853886,24.3313258 Z M26.4690098,33.6488864 C26.4690098,35.1332727 25.2613735,36.3409091 23.7772977,36.3409091 C22.2929114,36.3409091 21.0855856,35.1332727 21.0855856,33.6488864 C21.0855856,32.1648106 22.2929114,30.9571742 23.7772977,30.9571742 C25.2613735,30.9571742 26.4690098,32.1648106 26.4690098,33.6488864 L26.4690098,33.6488864 Z M17.5651765,24.3313258 L22.8454795,24.3313258 L22.8454795,19.9828409 L17.5651765,19.9828409 L17.5651765,24.3313258 Z M10.4212371,12.2176894 L15.7015402,12.2176894 L15.7015402,7.86920455 L10.4212371,7.86920455 L10.4212371,12.2176894 Z M10.4212371,18.1192045 L15.7015402,18.1192045 L15.7015402,14.0813258 L10.4212371,14.0813258 L10.4212371,18.1192045 Z M10.4212371,24.3313258 L15.7015402,24.3313258 L15.7015402,19.9828409 L10.4212371,19.9828409 L10.4212371,24.3313258 Z M17.5651765,18.1192045 L22.8454795,18.1192045 L22.8454795,14.0813258 L17.5651765,14.0813258 L17.5651765,18.1192045 Z M17.5651765,12.2176894 L22.8454795,12.2176894 L22.8454795,7.86920455 L17.5651765,7.86920455 L17.5651765,12.2176894 Z M12.1811311,33.6488864 C12.1811311,35.1332727 10.9734947,36.3409091 9.48941894,36.3409091 C8.00503258,36.3409091 6.79770682,35.1332727 6.79770682,33.6488864 C6.79770682,32.1648106 8.00503258,30.9571742 9.48941894,30.9571742 C10.9734947,30.9571742 12.1811311,32.1648106 12.1811311,33.6488864 L12.1811311,33.6488864 Z M4.99619167,24.3313258 L4.25912348,19.9828409 L8.55760076,19.9828409 L8.55760076,24.3313258 L4.99619167,24.3313258 Z M3.25866136,14.0813258 L8.55760076,14.0813258 L8.55760076,18.1192045 L3.94323712,18.1192045 L3.25866136,14.0813258 Z M2.20570682,7.86920455 L8.55760076,7.86920455 L8.55760076,12.2176894 L2.942775,12.2176894 L2.20570682,7.86920455 Z M39.9288129,0.10405303 L32.9553962,0.10405303 L31.7545932,6.00556818 L9.31818176e-05,6.00556818 L3.42172955,26.1949621 L8.55760076,26.1949621 L8.55760076,29.1901364 C6.49113864,29.6212576 4.93407045,31.4563182 4.93407045,33.6488864 C4.93407045,36.1607576 6.97754773,38.2045455 9.48941894,38.2045455 C12.0009795,38.2045455 14.0447674,36.1607576 14.0447674,33.6488864 C14.0447674,31.4563182 12.4873886,29.6212576 10.4212371,29.1901364 L10.4212371,26.1949621 L22.8454795,26.1949621 L22.8454795,29.1901364 C20.7790174,29.6212576 19.2219492,31.4563182 19.2219492,33.6488864 C19.2219492,36.1607576 21.2654265,38.2045455 23.7772977,38.2045455 C26.2888583,38.2045455 28.3326462,36.1607576 28.3326462,33.6488864 C28.3326462,31.4563182 26.7752674,29.6212576 24.7091159,29.1901364 L24.7091159,26.1949621 L29.5082902,26.1949621 L32.5034644,11.4678864 C32.5441538,11.3911667 32.5773886,11.3091667 32.5954038,11.2200227 L34.4782977,1.96768939 L39.9288129,1.96768939 C40.4434871,1.96768939 40.8606311,1.55054545 40.8606311,1.03587121 C40.8606311,0.52119697 40.4434871,0.10405303 39.9288129,0.10405303 L39.9288129,0.10405303 Z" id="Fill-13" fill="#40465B" mask="url(#mask-2)"></path>
            </g>
        </g>
    </g>
</svg>