<?xml version="1.0" encoding="UTF-8"?>
<svg width="48px" height="48px" viewBox="0 0 48 48" version="1.1" xmlns="http://www.w3.org/2000/svg" xmlns:xlink="http://www.w3.org/1999/xlink">
    <!-- Generator: Sketch 41.2 (35397) - http://www.bohemiancoding.com/sketch -->
    <title>一站式采购</title>
    <desc>Created with Sketch.</desc>
    <defs>
        <polygon id="path-1" points="7.68163518e-05 44.3258522 44.4175261 44.3258522 44.4175261 0.18212482 7.68163518e-05 0.18212482 7.68163518e-05 44.3258522"></polygon>
    </defs>
    <g id="解决方案页面" stroke="none" stroke-width="1" fill="none" fill-rule="evenodd">
        <g id="一站式采购">
            <g id="Page-1" transform="translate(1.000000, 1.000000)">
                <path d="M19.5751692,30.6332782 C19.6626692,30.6307782 19.7491692,30.6232782 19.8356692,30.6232782 C19.7486692,30.6232782 19.6621692,30.6307782 19.5751692,30.6332782" id="Fill-1" fill="#90DCEC"></path>
                <path d="M19.0531015,25.4481429 C19.0534398,25.4488195 19.0537782,25.4501729 19.0541165,25.451188 L20.883891,30.7155113 L20.884906,30.7155113 L19.0558083,25.4508496 C19.0554699,25.4501729 19.0571617,25.4491579 19.056485,25.4481429 C19.056485,25.4478045 19.0598684,25.4467895 19.0595301,25.4461128 L17.663515,21.4093083 L19.0524248,25.4461128 C19.0527632,25.4467895 19.0527632,25.4474662 19.0531015,25.4481429" id="Fill-3" fill="#90DCEC"></path>
                <g id="Group-7" transform="translate(0.000000, 0.154962)">
                    <mask id="mask-2" fill="white">
                        <use xlink:href="#path-1"></use>
                    </mask>
                    <g id="Clip-6"></g>
                    <path d="M24.127233,39.4732796 C23.542266,40.6818306 22.5214282,41.589839 21.2531044,42.0307469 C20.718172,42.2164454 20.1624198,42.3111415 19.6019664,42.3111415 C17.4649231,42.3111415 15.5568966,40.9531586 14.854399,38.9323027 C14.4134911,37.6643147 14.4930761,36.3002873 15.0780431,35.092072 C15.6633458,33.8835209 16.6841836,32.9751768 17.953179,32.5339331 C18.4877757,32.3482346 19.0428562,32.2538743 19.6029738,32.2538743 C21.740353,32.2538743 23.6480436,33.6115214 24.3505412,35.6323773 C24.791785,36.9003653 24.7121999,38.2647285 24.127233,39.4732796 L24.127233,39.4732796 Z M20.482439,23.4897802 L19.7500551,21.382959 L37.2285445,15.3079666 L37.9605927,17.4151236 L20.482439,23.4897802 Z M17.1946025,14.030912 L34.6734278,7.95625541 L36.5670148,13.4049772 L19.0885253,19.4799696 L17.1946025,14.030912 Z M40.5160452,24.7664991 L23.0375558,30.8414914 L21.143633,25.3931054 L38.6224583,19.3181131 L40.5160452,24.7664991 Z M43.0792212,27.9955702 L42.3458298,28.2504439 L25.8267264,33.991985 C25.5161097,33.4050032 25.1255721,32.8744362 24.6745901,32.4056567 L40.3635912,26.9525695 L43.0802286,26.0079587 L35.9152232,5.39140042 L17.3134764,11.8569304 L17.3087752,11.8586094 L14.644187,12.7894523 L17.5438365,21.091483 L17.5438365,21.0928262 C17.5438365,21.0934978 17.5304044,21.0941694 17.5304044,21.094841 L18.9159231,25.1009578 C18.9162589,25.1016294 18.9132367,25.102301 18.9132367,25.1029726 C18.9139083,25.1036442 18.9122293,25.1049874 18.9125651,25.105659 L20.7279102,30.3307367 L20.7269028,30.3307367 C20.3595355,30.3307367 19.9837732,30.2397344 19.6033096,30.2397344 L19.6029738,30.2393986 C19.5448801,30.2393986 19.4867864,30.2598825 19.428021,30.2615615 C19.1949745,30.2689492 18.9622638,30.3307367 18.7308963,30.3307367 L18.7298889,30.3307367 L10.850297,7.64563865 L9.82072836,4.67580655 L1.47537928,0.297957035 C0.982757872,0.0393895641 0.373613206,0.228110238 0.115381537,0.720731641 C-0.142850133,1.21335304 0.0472137487,1.8214903 0.540170954,2.07972197 L8.17932862,6.08315235 L16.7825736,30.8361186 C15.2432576,31.5070508 14.0041486,32.6870587 13.264377,34.21395 C12.4450203,35.9067275 12.3335341,37.8171045 12.9510738,39.5938324 C13.9349734,42.4243067 16.6076208,44.325953 19.6019664,44.325953 C20.3880787,44.325953 21.1664675,44.1939828 21.91497,43.9337363 C23.6913621,43.3161966 25.1208708,42.044179 25.9405633,40.3514015 C26.6202264,38.9474138 26.8049174,37.3943299 26.4986661,35.8916164 L43.740751,29.8985597 C44.266281,29.7158834 44.5443249,29.1416622 44.3616487,28.6161322 C44.1789725,28.090938 43.605087,27.8122224 43.0792212,27.9955702 L43.0792212,27.9955702 Z" id="Fill-5" fill="#40465B" mask="url(#mask-2)"></path>
                </g>
                <path d="M20.6737782,38.1666654 C20.5543421,38.4129812 20.3465977,38.5980564 20.0877632,38.6880564 C19.5585902,38.8721165 18.9637782,38.5764023 18.7831015,38.0563647 C18.6931015,37.7978684 18.7093421,37.5194098 18.8287782,37.273094 C18.9478759,37.0267782 19.156297,36.8413647 19.4147932,36.751703 C19.5244173,36.7138083 19.6374248,36.6941842 19.751109,36.6941842 C20.1872368,36.6941842 20.5763346,36.9712895 20.7194549,37.3833947 C20.8091165,37.641891 20.7932143,37.9203496 20.6737782,38.1666654 M19.751109,34.664109 C19.4100564,34.664109 19.0727256,34.7212895 18.7485902,34.8339586 C17.9775,35.1019286 17.3569737,35.654109 17.0013722,36.3886579 C16.646109,37.1228684 16.5977256,37.9518158 16.8653571,38.7225677 C17.2920113,39.9504248 18.4515226,40.7756504 19.7504323,40.7756504 C20.0921617,40.7756504 20.4298308,40.7184699 20.7539662,40.6054624 C21.5250564,40.3378308 22.1452444,39.7859887 22.5008459,39.0514398 C22.8564474,38.316891 22.9051692,37.4879436 22.6371992,36.716515 C22.2102068,35.4889962 21.0503571,34.664109 19.751109,34.664109" id="Fill-18" fill="#40465B"></path>
            </g>
        </g>
    </g>
</svg>