<svg width="44" height="45" viewBox="0 0 44 45" xmlns="http://www.w3.org/2000/svg"><title>Page 1</title><g stroke-width="2" stroke="#DFDFE0" fill="none" fill-rule="evenodd"><path d="M29.237 29.112l-3.326 2.79a1.825 1.825 0 0 1-2.571-.224L12.892 19.226a1.825 1.825 0 0 1 .225-2.571l3.253-2.73a1.37 1.37 0 0 0 .169-1.931L10.8 5.154a1.37 1.37 0 0 0-1.932-.168L4.81 8.39C.252 12.215-.342 19.01 3.482 23.567l13.95 16.624c3.823 4.557 10.618 5.152 15.176 1.328l4.13-3.466c.54-.454.61-1.26.157-1.8l-5.86-6.983a1.277 1.277 0 0 0-1.798-.158zM6.22 7.207l7.502 8.94M26.779 31.708l7.502 8.94M21.255 10.124a10.696 10.696 0 0 1 10.293 3.616 10.7 10.7 0 0 1 1.43 11.552"/><path d="M20.592 1.66C26.94.743 33.601 3.032 38.026 8.305c4.57 5.447 5.59 12.692 3.307 18.922"/></g></svg>