<svg width="38" height="48" viewBox="0 0 38 48" xmlns="http://www.w3.org/2000/svg"><title>Page 1</title><g fill="#DFDFE0" fill-rule="evenodd"><path d="M31.805 35.249V22.044h1.61c1.222 0 2.215.993 2.215 2.215v8.775a2.216 2.216 0 0 1-2.214 2.215h-1.611zm-9.726 10.362h-4.024a.416.416 0 0 1 0-.832h4.024a.416.416 0 0 1 0 .832zM5.826 35.249H4.215A2.217 2.217 0 0 1 2 33.034v-8.775c0-1.222.993-2.215 2.215-2.215h1.61v13.205zm29.419-14.77c.01-.062.037-.118.037-.183v-3.809C35.282 7.397 27.885 0 18.794 0S2.307 7.397 2.307 16.487v3.809c0 .072.027.136.04.204C.964 21.191 0 22.608 0 24.259v8.775a4.22 4.22 0 0 0 4.215 4.215h2.61a1 1 0 0 0 1-1V21.044a1 1 0 0 0-1-1H4.308v-3.557C4.307 8.499 10.806 2 18.794 2c7.989 0 14.488 6.499 14.488 14.487v3.557h-2.477a1 1 0 0 0-1 1v15.205a1 1 0 0 0 1 1h2.61c.173 0 .337-.031.503-.051-.657 4.954-3.625 6.502-9.707 6.884a2.411 2.411 0 0 0-2.132-1.303h-4.024a2.419 2.419 0 0 0-2.416 2.416 2.419 2.419 0 0 0 2.416 2.416h4.024a2.417 2.417 0 0 0 2.24-1.523c6.504-.395 11.168-2.209 11.687-9.754.98-.773 1.624-1.957 1.624-3.3v-8.775a4.207 4.207 0 0 0-2.385-3.78z"/><path d="M9.856 20.044a1 1 0 0 0-1 1v15.205a1 1 0 1 0 2 0V21.044a1 1 0 0 0-1-1M28.774 36.249V21.044a1 1 0 1 0-2 0v15.205a1 1 0 1 0 2 0"/></g></svg>