<svg width="40" height="40" viewBox="0 0 40 40" xmlns="http://www.w3.org/2000/svg" xmlns:xlink="http://www.w3.org/1999/xlink"><title>Group 61</title><defs><ellipse id="a" cx="20" cy="20" rx="20" ry="20"/><mask id="b" x="0" y="0" width="40" height="40" fill="#fff"><use xlink:href="#a"/></mask></defs><g fill="none" fill-rule="evenodd"><use stroke="#FFF" mask="url(#b)" stroke-width="3" xlink:href="#a"/><path d="M14.37 9.537c-1.112 3.69-2.91 6.979-5.37 9.817l.568 1.822a33.48 33.48 0 0 0 2.578-3.17v13.413h1.727V15.215a30.754 30.754 0 0 0 2.105-4.945l-1.608-.733zm3.004 1.207v7.451h4.708v2.579h-6.577v1.656h4.897c-1.42 2.554-3.264 4.589-5.535 6.15l.97 1.538c2.389-1.845 4.376-4.4 5.96-7.688h.285v8.942h1.703V22.43h.284c1.537 3.051 3.477 5.606 5.843 7.664L31 28.604c-2.342-1.75-4.187-3.809-5.535-6.174h5.133v-1.656h-6.813v-2.579h4.755v-7.451H17.374zm9.486 5.819h-7.806v-4.187h7.806v4.187z" fill="#FFF"/></g></svg>