<svg width="40" height="40" viewBox="0 0 40 40" xmlns="http://www.w3.org/2000/svg"><title>Group 17</title><g fill="none" fill-rule="evenodd"><path d="M38.336 12C35.25 4.936 28.2 0 20 0 8.954 0 0 8.954 0 20s8.954 20 20 20c8.955 0 16.536-5.886 19.084-14h-1.807c-2.44 7.127-9.198 12.25-17.152 12.25C10.115 38.25 2 30.135 2 20.125S10.115 2 20.125 2c7.089 0 13.227 4.07 16.206 10h2.005z" fill="#FFF"/><path stroke="#FFF" stroke-width="2" d="M12 20.36l6.896 5.109L30 14M31 10.683l7.11 2.644S38 9 39 6"/></g></svg>