<svg width="62" height="65" viewBox="0 0 62 65" xmlns="http://www.w3.org/2000/svg" xmlns:xlink="http://www.w3.org/1999/xlink"><title>Page 1</title><defs><path id="a" d="M0 65h61.482V.973H0z"/></defs><g fill="none" fill-rule="evenodd"><path fill="#F07E3F" d="M33.453 31.736h-3.358l3.75-6h-2l-5 8H31.75l-3.302 5.312h2l4.547-7.312"/><g transform="translate(0 -.973)"><path d="M37.995 21.698H21.287c-1.933 0-3.5-1.567-3.5-3.5s1.567-3.5 3.5-3.5c.448 0 .873.092 1.267.245-.13-.54-.205-1.102-.205-1.683 0-3.935 3.133-7.125 7-7.125 2.114 0 4.004.96 5.288 2.467.29-.09.594-.154.914-.154 1.7 0 3.078 1.378 3.078 3.078 0 .08-.017.155-.023.234 2.47.305 4.388 2.386 4.388 4.938 0 2.76-2.24 5-5 5zm2.45-11.534c-.597-2.14-2.565-3.716-4.893-3.716-.072 0-.144.002-.217.005-1.64-1.484-3.766-2.317-5.986-2.317-4.803 0-8.74 3.833-8.988 8.64-2.594.44-4.575 2.704-4.575 5.422 0 3.033 2.468 5.5 5.5 5.5h16.708c3.86 0 7-3.14 7-7 0-2.958-1.87-5.534-4.55-6.534z" fill="#DD3730"/><path d="M36.392 58.542h-12V48.344c1.914.545 3.93.844 6.017.844 2.073 0 4.078-.295 5.982-.834v10.188zm-8 4.458h4v-2.458h-4V63zM52.41 27.188c0-4.372-1.284-8.45-3.492-11.878-.184-.286-.507-.456-.848-.456-.8 0-1.264.882-.83 1.555 2.173 3.38 3.365 7.45 3.142 11.818-.507 9.92-7.99 17.844-17.87 18.852-11.99 1.223-22.104-8.153-22.104-19.892 0-3.974 1.17-7.67 3.17-10.78.433-.672-.03-1.554-.83-1.554-.342 0-.664.17-.85.456-2.207 3.428-3.49 7.506-3.49 11.878 0 9.302 5.807 17.27 13.984 20.48v10.874c0 1.105.895 2 2 2h2V63c0 1.105.895 2 2 2h4c1.105 0 2-.895 2-2v-2.458h2c1.105 0 2-.895 2-2v-10.86c8.194-3.203 14.017-11.18 14.017-20.494z" fill="#DD3730"/><path d="M27.392 56.198h6c.552 0 1-.448 1-1s-.448-1-1-1h-6c-.552 0-1 .448-1 1s.448 1 1 1M27.392 52.292h6c.552 0 1-.448 1-1s-.448-1-1-1h-6c-.552 0-1 .448-1 1s.448 1 1 1M30.41 42.958c-7.52 0-13.82-5.19-15.534-12.18-.11-.452-.5-.778-.965-.778-.65 0-1.12.616-.964 1.25 1.93 7.857 9.018 13.708 17.463 13.708 8.444 0 15.532-5.85 17.462-13.71.155-.632-.313-1.248-.965-1.248-.465 0-.855.326-.965.777-1.713 6.992-8.014 12.18-15.533 12.18" fill="#DD3730"/><mask id="b" fill="#fff"><use xlink:href="#a"/></mask><path fill="#DD3730" mask="url(#b)" d="M29.41 48.083h2v-4.125h-2M23.753 30.708c1.104 0 2-.895 2-2s-.896-2-2-2-2 .895-2 2 .896 2 2 2M39.816 28.896c0-1.105-.897-2-2-2-1.105 0-2 .895-2 2s.895 2 2 2c1.103 0 2-.895 2-2z"/><path d="M60.482 27.23h-3.956c-.553 0-1-.45-1-1 0-.553.447-1 1-1h3.956c.552 0 1 .447 1 1 0 .55-.448 1-1 1M5.68 27.23H1c-.552 0-1-.45-1-1 0-.553.448-1 1-1h4.68c.552 0 1 .447 1 1 0 .55-.448 1-1 1M43.27 5.526l2.34-4.053c.277-.478.89-.642 1.367-.366.478.276.642.888.366 1.366l-2.34 4.053c-.276.478-.888.642-1.366.366-.478-.276-.642-.888-.366-1.366M17.849 4.9c.274.478.11 1.09-.367 1.365-.48.276-1.09.113-1.367-.366L14.14 2.472c-.277-.478-.114-1.09.364-1.366.48-.276 1.09-.112 1.367.366L17.85 4.9z" fill="#F07E3F" mask="url(#b)"/></g></g></svg>