<svg width="52" height="59" viewBox="0 0 52 59" xmlns="http://www.w3.org/2000/svg"><title>Page 1</title><g fill="none" fill-rule="evenodd"><path d="M35.5 22.33c0-1.105.895-2 2-2 1.104 0 2 .895 2 2s-.896 2-2 2c-1.105 0-2-.895-2-2zm2-15.682c1.104 0 2 .895 2 2s-.896 2-2 2c-1.105 0-2-.895-2-2s.895-2 2-2zm0 27.365c1.104 0 2 .895 2 2s-.896 2-2 2c-1.105 0-2-.895-2-2s.895-2 2-2zm11.64-6.78c1.106 0 2 .896 2 2 0 1.106-.894 2-2 2-1.103 0-2-.894-2-2 0-1.104.897-2 2-2zm0-9.537c-1.103 0-2-.895-2-2s.897-2 2-2c1.106 0 2 .895 2 2s-.894 2-2 2zm-11.64 30c1.104 0 2 .895 2 2s-.896 2-2 2c-1.105 0-2-.895-2-2s.895-2 2-2zm11.64-6.923c1.106 0 2 .895 2 2s-.894 2-2 2c-1.103 0-2-.895-2-2s.897-2 2-2z" fill="#F07E3F"/><path d="M15.65 36.265c.06-.19.1-.385.1-.594 0-.114-.016-.226-.034-.336l8.3-5.166c.267.347.643.602 1.08.715v9.852c-.443.115-.824.375-1.092.73l-8.354-5.2zm-1.9-2.594c-.535 0-1.018.214-1.377.556L4.397 29.26l8.247-5.13c.354.316.818.515 1.33.515.52 0 .988-.203 1.343-.526l8.192 5.097-3.423 2.13.04.064-4.83 3.007c-.367-.45-.92-.746-1.547-.746zm10.42-16.715c.25.255.57.437.925.53v9.54c-.61.157-1.11.59-1.347 1.163l-7.886-4.908c.068-.2.113-.412.113-.635 0-.188-.034-.366-.083-.538l8.278-5.152zM27.595 2c0-1.104-.895-2-2-2-1.104 0-2 .896-2 2 0 .93.64 1.707 1.5 1.93v9.696c-.394.102-.738.32-.998.617l-8.485-5.28c.014-.096.03-.192.03-.293 0-1.104-.896-2-2-2-1.105 0-2 .896-2 2 0 1.105.895 2 2 2 .64 0 1.206-.307 1.572-.777l8.426 5.244c-.028.135-.045.275-.045.418 0 .185.034.36.08.53l-8.28 5.154c-.362-.368-.865-.595-1.42-.595-.55 0-1.05.223-1.41.583l-8.598-5.35c.017-.107.033-.213.033-.323 0-1.104-.896-2-2-2-1.105 0-2 .896-2 2 0 1.105.895 2 2 2 .632 0 1.19-.3 1.555-.757l8.507 5.295c-.05.176-.087.36-.087.552 0 .23.046.445.117.65l-8.36 5.203c-.345-.603-.988-1.015-1.732-1.015-1.105 0-2 .895-2 2s.895 2 2 2c.88 0 1.62-.572 1.886-1.362l7.964 4.958c-.06.188-.1.385-.1.593 0 .3.07.582.188.837L3.643 41.67c-.36-.355-.855-.576-1.402-.576-1.103 0-2 .896-2 2 0 1.105.897 2 2 2 1.106 0 2-.895 2-2 0-.196-.036-.383-.09-.562l8.43-5.246c.33.24.73.385 1.17.385.534 0 1.017-.212 1.376-.553l8.495 5.287c-.01.086-.025.17-.025.26 0 .242.05.47.128.685l-8.694 5.41c-.36-.348-.85-.564-1.39-.564-1.103 0-2 .895-2 2 0 1.104.897 2 2 2 1.106 0 2-.896 2-2 0-.203-.038-.395-.094-.58l8.748-5.444c.23.197.5.344.8.422v9.696c-.86.223-1.5.998-1.5 1.93 0 1.104.897 2 2 2 1.106 0 2-.896 2-2 0-.932-.638-1.707-1.5-1.93v-9.696c.862-.223 1.5-1 1.5-1.93 0-.93-.638-1.706-1.5-1.93v-9.85c.862-.224 1.5-1 1.5-1.93 0-.93-.638-1.707-1.5-1.93v-9.54c.862-.223 1.5-.998 1.5-1.93 0-.93-.638-1.705-1.5-1.928V3.93c.862-.223 1.5-1 1.5-1.93z" fill="#DD3730"/></g></svg>