<svg width="63" height="62" viewBox="0 0 63 62" xmlns="http://www.w3.org/2000/svg"><title>Page 1</title><g fill="none" fill-rule="evenodd"><path d="M42.471 1.278c-1.103 0-1.998.895-1.998 2s.895 2 2 2c1.103 0 2-.895 2-2s-.897-2-2-2M2.076 33.114C.886 16.467 13.76 2.538 30.022 2c.543-.018.978-.45.978-.993 0-.56-.465-1.025-1.026-1.007C12.6.568-1.202 15.5.082 33.274c1.118 15.464 13.86 27.9 29.344 28.67 16.115.8 29.73-10.78 32.175-26.045.097-.602-.384-1.146-.994-1.146-.494 0-.904.364-.982.85-2.292 14.305-15.036 25.118-30.156 24.34-14.47-.744-26.36-12.378-27.392-26.83zM53.556 9.442c-1.105 0-2 .895-2 2s.895 2 2 2c1.104 0 2-.895 2-2s-.896-2-2-2M60.52 22.64c-1.104 0-2 .895-2 2s.896 2 2 2c1.105 0 2-.895 2-2s-.895-2-2-2" fill="#F07E3F"/><path d="M41.41 46.194H20.975c-.028 0-.055-.004-.083-.004-.36-.004-.715-.027-1.066-.067-.036-.004-.07-.012-.106-.016-.313-.04-.622-.09-.925-.16-.055-.01-.107-.027-.16-.04-.283-.068-.56-.145-.833-.236-.063-.02-.124-.045-.187-.067-.26-.093-.514-.193-.762-.306-.065-.03-.13-.063-.195-.094-.24-.115-.474-.238-.703-.37l-.196-.12c-.22-.136-.438-.28-.647-.432-.065-.045-.128-.092-.19-.14-.205-.156-.403-.32-.594-.49-.06-.053-.12-.107-.177-.16-.188-.176-.368-.36-.542-.55-.053-.056-.106-.113-.158-.173-.17-.195-.333-.4-.49-.608-.043-.06-.09-.12-.132-.18-.156-.218-.3-.445-.44-.676-.033-.057-.07-.112-.102-.17-.14-.247-.27-.503-.39-.764-.02-.045-.045-.09-.065-.135-.128-.29-.242-.59-.343-.893-.006-.02-.014-.037-.02-.056-.428-1.313-.59-2.747-.423-4.237.02-.184.052-.365.083-.545.035-.207.076-.41.123-.613.046-.19.09-.383.147-.57.045-.15.1-.297.15-.444.047-.13.092-.26.142-.385.067-.17.14-.335.217-.5.043-.09.087-.183.133-.274.092-.184.19-.365.292-.542.03-.054.064-.106.096-.158.665-1.09 1.534-2.048 2.55-2.817l.186-.138c.153-.11.31-.214.47-.316.106-.068.213-.133.32-.196.134-.078.27-.155.406-.227.164-.086.333-.165.502-.242.094-.043.186-.088.282-.128.57-.237 1.166-.424 1.784-.552.05-.01.1-.017.15-.026.24-.047.485-.084.73-.113.174-.02.345-.03.516-.04.17-.01.338-.024.51-.026.166 0 .33.006.496.012.15.008.3.01.447.023v-.007c1.988.158 3.814.894 5.305 2.045.174.134.383.21.603.21.937 0 1.374-1.197.634-1.772-1.865-1.447-4.17-2.344-6.672-2.484.19-5.354 4.58-9.64 9.982-9.64 5.523 0 10 4.478 10 10 0 .55-.056 1.086-.142 1.612 5.487.042 9.923 4.5 9.923 9.996 0 5.523-4.476 10-10 10m2.22-21.79c-.1-6.533-5.445-11.817-12-11.817-6.51 0-11.826 5.212-11.996 11.68-.106.013-.207.036-.312.05-.228.033-.456.065-.68.11-.15.03-.294.067-.44.102-.194.045-.386.09-.574.146-.182.052-.36.113-.537.174-.14.05-.282.097-.42.152-.215.082-.425.173-.634.268l-.27.126c-.244.118-.482.244-.716.378l-.138.08c-.263.155-.52.32-.77.494l-.034.023c-2.14 1.5-3.766 3.674-4.57 6.216-.024.074-.053.144-.075.218-.054.186-.095.378-.14.567-.04.16-.083.315-.115.476-.04.207-.068.418-.098.63-.017.116-.042.23-.055.35-.003.02-.002.038-.004.058-.046.43-.077.866-.077 1.31 0 .87.1 1.717.276 2.535.006.03.016.063.024.095.083.37.18.735.298 1.092.025.075.055.147.08.222.11.31.226.614.358.912.042.094.09.185.134.278.13.27.265.54.413.8.058.1.12.198.182.297.148.243.3.482.467.713.072.102.15.2.224.3.168.22.34.433.52.64.087.098.176.195.266.29.183.197.37.386.566.57.1.092.2.185.304.275.198.173.4.338.61.498.11.085.222.17.337.252.213.152.432.294.655.43.12.076.24.152.363.222.228.13.463.248.7.363.127.063.254.128.384.186.243.108.493.2.744.293.132.047.262.1.397.144.262.085.532.154.802.22.13.034.258.074.39.102.296.063.6.107.902.148.11.015.22.04.333.05.418.045.84.07 1.27.07h20.438c6.618 0 12-5.383 12-12 0-5.84-4.226-10.743-9.78-11.79" fill="#DD3730"/><path fill="#DD3730" d="M31.695 32.2h9.64v14.45h2V30.2h-13.64v16.45h2"/><path d="M20.492 34.64c-1.105 0-2 .895-2 2s.895 2 2 2c1.104 0 2-.895 2-2s-.896-2-2-2" fill="#F07E3F"/></g></svg>