<?xml version="1.0" encoding="UTF-8"?>
<svg width="1176px" height="454px" viewBox="0 0 1176 454" version="1.1" xmlns="http://www.w3.org/2000/svg" xmlns:xlink="http://www.w3.org/1999/xlink">
    <!-- Generator: Sketch 42 (36781) - http://www.bohemiancoding.com/sketch -->
    <title>Group 40</title>
    <desc>Created with Sketch.</desc>
    <defs>
        <rect id="path-1" x="0" y="0" width="731" height="359"></rect>
        <linearGradient x1="50%" y1="0%" x2="50%" y2="100%" id="linearGradient-3">
            <stop stop-color="#F28C6C" offset="0%"></stop>
            <stop stop-color="#DD3730" offset="100%"></stop>
        </linearGradient>
        <linearGradient x1="50%" y1="0%" x2="50%" y2="100%" id="linearGradient-4">
            <stop stop-color="#E879AD" offset="0%"></stop>
            <stop stop-color="#FFC05A" offset="100%"></stop>
        </linearGradient>
        <polygon id="path-5" points="0.636011172 0 0.636011172 422.366672 875 422.366672 875 0"></polygon>
        <linearGradient x1="50%" y1="0%" x2="50%" y2="96.0180166%" id="linearGradient-7">
            <stop stop-color="#FFF0D3" offset="0%"></stop>
            <stop stop-color="#FFE4EB" offset="100%"></stop>
        </linearGradient>
        <polygon id="path-8" points="418.095277 227 443.095277 242 456.095277 216 457.095277 205 430.095277 81 164.095277 1.42108547e-14 5.0952766 79 0.0952765957 161 181.095277 187 394.095277 180"></polygon>
        <linearGradient x1="50%" y1="0%" x2="50%" y2="100%" id="linearGradient-10">
            <stop stop-color="#F28A6D" offset="0%"></stop>
            <stop stop-color="#FEE8F0" offset="100%"></stop>
        </linearGradient>
        <polygon id="path-11" points="0.000159720908 131.027806 145.812569 131.027806 145.812569 0.310471985 0.000159720908 0.310471985"></polygon>
        <linearGradient x1="50%" y1="0%" x2="50%" y2="100%" id="linearGradient-13">
            <stop stop-color="#FFA78E" offset="0%"></stop>
            <stop stop-color="#F3905D" offset="100%"></stop>
        </linearGradient>
        <polygon id="path-14" points="0.000159720908 131.027806 145.812569 131.027806 145.812569 0.310471985 0.000159720908 0.310471985"></polygon>
        <polygon id="path-16" points="0.000159720908 131.027806 145.812569 131.027806 145.812569 0.310471985 0.000159720908 0.310471985"></polygon>
        <linearGradient x1="6.21676015%" y1="100%" x2="50%" y2="50%" id="linearGradient-18">
            <stop stop-color="#00A3FF" stop-opacity="0.3" offset="0%"></stop>
            <stop stop-color="#006AFF" offset="100%"></stop>
        </linearGradient>
        <linearGradient x1="50%" y1="0%" x2="50%" y2="97.7479273%" id="linearGradient-19">
            <stop stop-color="#E5E2F9" offset="0%"></stop>
            <stop stop-color="#D2CDEA" offset="100%"></stop>
        </linearGradient>
        <linearGradient x1="50%" y1="0%" x2="50%" y2="100%" id="linearGradient-20">
            <stop stop-color="#E97BAA" offset="0%"></stop>
            <stop stop-color="#EF8F94" offset="100%"></stop>
        </linearGradient>
        <linearGradient x1="50%" y1="0%" x2="50%" y2="100%" id="linearGradient-21">
            <stop stop-color="#F6B3B2" offset="0%"></stop>
            <stop stop-color="#EB646B" offset="100%"></stop>
        </linearGradient>
        <linearGradient x1="50%" y1="0%" x2="50%" y2="100%" id="linearGradient-22">
            <stop stop-color="#D2E5FE" offset="0%"></stop>
            <stop stop-color="#B7CCE7" offset="100%"></stop>
        </linearGradient>
    </defs>
    <g id="0327new" stroke="none" stroke-width="1" fill="none" fill-rule="evenodd">
        <g id="电子发票" transform="translate(-360.000000, -596.000000)">
            <g id="Group-55-Copy" transform="translate(148.236612, 668.728919) scale(-1, 1) rotate(-9.000000) translate(-148.236612, -668.728919) translate(-80.263388, 423.728919)">
                <g id="Group-54" transform="translate(228.032623, 244.849844) rotate(-5.000000) translate(-228.032623, -244.849844) translate(19.032623, 17.349844)">
                    <g id="Group-53" transform="translate(0.000000, 0.000000)">
                        <g id="Group-45" transform="translate(-0.000000, 0.000000)">
                            <polygon id="Path-7" fill="#F9F9F9" points="311.34375 0.765625 1.42375001e-12 378.037109 402.365234 264.898438"></polygon>
                            <polygon id="Path-7" fill="#F3F3F3" points="417.953125 185.708984 -1.51345603e-12 377.896484 402.365234 264.757812"></polygon>
                        </g>
                    </g>
                </g>
            </g>
            <g id="Group-56" transform="translate(594.000000, 692.000000)">
                <mask id="mask-2" fill="white">
                    <use xlink:href="#path-1"></use>
                </mask>
                <g id="Mask"></g>
                <g mask="url(#mask-2)" id="Oval-11" fill="#FFE5E1" opacity="0.323810634">
                    <g transform="translate(101.666667, 91.086842)">
                        <ellipse cx="265" cy="265.082043" rx="265" ry="265.082043"></ellipse>
                    </g>
                </g>
            </g>
            <g id="Group-40" transform="translate(360.000000, 558.000000)">
                <g id="Page-1" transform="translate(161.000000, 0.000000)">
                    <g id="Group-7" transform="translate(239.617021, 0.176424)"></g>
                    <g id="Group-39" transform="translate(0.904723, 69.000000)">
                        <path d="M263.343518,422.367321 C263.343518,325.358721 342.005367,246.716962 439.038749,246.716962 C536.072131,246.716962 614.730734,325.358721 614.730734,422.367321" id="Fill-1" fill="url(#linearGradient-3)"></path>
                        <path d="M360.757895,217.367701 C276.15593,249.660325 220,330.651274 220,421.972493 L234.702421,421.972493 C234.702421,336.863434 286.988151,261.371601 365.785713,231.181517 L370.362928,243.757238 L385.306465,217.566768 L357.024142,207.109226 L360.757918,217.367692 Z" id="Combined-Shape" fill="url(#linearGradient-4)"></path>
                        <mask id="mask-6" fill="white">
                            <use xlink:href="#path-5"></use>
                        </mask>
                        <g id="Clip-6"></g>
                        <circle id="Oval-12" stroke="#DFDFDF" stroke-dasharray="3" mask="url(#mask-6)" cx="440" cy="429" r="365"></circle>
                        <circle id="Oval-12" stroke="#DFDFDF" stroke-dasharray="3" opacity="0.423041045" mask="url(#mask-6)" cx="441" cy="426" r="405"></circle>
                        <text id="用友电子发票" mask="url(#mask-6)" font-family=".PingFangSC-Medium, .PingFang SC" font-size="23" font-weight="400" fill="#FFFFFF">
                            <tspan x="369.103" y="367">用友电子发票</tspan>
                        </text>
                        <path d="M730.636011,422.366672 L715.93359,422.366672 C715.93359,269.728425 591.719561,145.542874 439.039074,145.542874 C286.355339,145.542874 162.141311,269.728425 162.141311,422.366672 L147.43889,422.366672 C147.43889,261.619487 278.250825,130.844208 439.039074,130.844208 C599.827323,130.844208 730.636011,261.619487 730.636011,422.366672" id="Fill-5" fill="url(#linearGradient-7)" mask="url(#mask-6)"></path>
                        <g id="Combined-Shape" transform="translate(239.000000, 131.000000)">
                            <g>
                                <g>
                                    <mask id="mask-9" fill="white">
                                        <use xlink:href="#path-8"></use>
                                    </mask>
                                    <g id="Mask"></g>
                                    <path d="M434.85462,237.485653 C438.885359,254.934005 441.015985,273.100977 441.015985,291.756142 L455.718406,291.756142 C455.718406,271.194645 453.27877,251.192042 448.673694,232.022458 L455.761526,215.558485 L445.120374,218.811811 C413.636884,113.213078 315.61577,36 199.896927,36 C131.563788,36 67.3186239,62.6023784 19,110.911908 L29.3968976,121.302904 C74.9360886,75.7720976 135.489413,50.6986662 199.896927,50.6986662 C309.003838,50.6986662 401.419286,123.525073 431.059029,223.110796 L418.465641,226.960981 L434.85463,237.485698 Z" fill="url(#linearGradient-10)" mask="url(#mask-9)"></path>
                                </g>
                            </g>
                        </g>
                    </g>
                    <path d="M439.904723,218.823209 C431.120106,218.823209 424,211.700022 424,202.911604 C424,194.123187 431.120106,187 439.904723,187 C448.68934,187 455.809447,194.123187 455.809447,202.911604 C455.809447,211.700022 448.68934,218.823209 439.904723,218.823209 Z" id="Fill-10" fill="#DD3730"></path>
                    <path d="M205.809447,345.911604 C205.809447,354.700022 198.68934,361.823209 189.904723,361.823209 C181.120106,361.823209 174,354.700022 174,345.911604 C174,337.123187 181.120106,330 189.904723,330 C198.68934,330 205.809447,337.123187 205.809447,345.911604" id="Fill-12" fill="#DD3730"></path>
                    <g id="Group-16" transform="translate(11.000000, 275.000000)">
                        <mask id="mask-12" fill="white">
                            <use xlink:href="#path-11"></use>
                        </mask>
                        <g id="Clip-15"></g>
                        <path d="M145.812569,71.4250149 L137.887218,64.6163626 L130.199851,58.0138395 C126.408077,25.5269331 98.8210816,0.310471985 65.330802,0.310471985 C29.2498493,0.310471985 0.000159720908,29.5728161 0.000159720908,65.6693788 C0.000159720908,101.765941 29.2498493,131.028286 65.330802,131.028286 C97.5081757,131.028286 124.232678,107.746881 129.642425,77.1071475 L135.956192,74.8876643 L145.812569,71.4250149 Z" id="Fill-14" fill="url(#linearGradient-13)" mask="url(#mask-12)"></path>
                    </g>
                    <text id="财务云" font-family="PingFangSC-Semibold, PingFang SC" font-size="18" font-weight="500" fill="#FFFFFF">
                        <tspan x="50.5" y="348">财务云</tspan>
                    </text>
                    <g id="Group-16" transform="translate(789.000000, 332.000000) scale(-1, 1) translate(-789.000000, -332.000000) translate(716.000000, 266.000000)">
                        <mask id="mask-15" fill="white">
                            <use xlink:href="#path-14"></use>
                        </mask>
                        <g id="Clip-15"></g>
                        <path d="M145.812569,71.4250149 L137.887218,64.6163626 L130.199851,58.0138395 C126.408077,25.5269331 98.8210816,0.310471985 65.330802,0.310471985 C29.2498493,0.310471985 0.000159720908,29.5728161 0.000159720908,65.6693788 C0.000159720908,101.765941 29.2498493,131.028286 65.330802,131.028286 C97.5081757,131.028286 124.232678,107.746881 129.642425,77.1071475 L135.956192,74.8876643 L145.812569,71.4250149 Z" id="Fill-14" fill="url(#linearGradient-13)" mask="url(#mask-15)"></path>
                    </g>
                    <text id="领域云" font-family=".PingFangSC-Medium, .PingFang SC" font-size="18" font-weight="400" fill="#FFFFFF">
                        <tspan x="771.987" y="339">领域云</tspan>
                    </text>
                    <g id="Group-16" transform="translate(439.517329, 111.474994) rotate(85.000000) translate(-439.517329, -111.474994) translate(366.517329, 45.474994)">
                        <mask id="mask-17" fill="white">
                            <use xlink:href="#path-16"></use>
                        </mask>
                        <g id="Clip-15"></g>
                        <path d="M145.812569,71.4250149 L137.887218,64.6163626 L130.199851,58.0138395 C126.408077,25.5269331 98.8210816,0.310471985 65.330802,0.310471985 C29.2498493,0.310471985 0.000159720908,29.5728161 0.000159720908,65.6693788 C0.000159720908,101.765941 29.2498493,131.028286 65.330802,131.028286 C97.5081757,131.028286 124.232678,107.746881 129.642425,77.1071475 L135.956192,74.8876643 L145.812569,71.4250149 Z" id="Fill-14" fill="url(#linearGradient-13)" mask="url(#mask-17)"></path>
                    </g>
                    <text id="营销云" font-family="PingFangSC-Semibold, PingFang SC" font-size="18" font-weight="500" fill="#FFFFFF">
                        <tspan x="412.517329" y="111.974994">营销云</tspan>
                    </text>
                    <path d="M702.809447,345.911604 C702.809447,354.700022 695.68934,361.823209 686.904723,361.823209 C678.120106,361.823209 671,354.700022 671,345.911604 C671,337.123187 678.120106,330 686.904723,330 C695.68934,330 702.809447,337.123187 702.809447,345.911604" id="Fill-10" fill="#DD3730"></path>
                </g>
                <g id="Group-76" opacity="0.136621358" transform="translate(355.500000, 214.000000) scale(-1, 1) translate(-355.500000, -214.000000) translate(336.000000, 199.000000)">
                    <circle id="Oval-19" fill="#006AFF" cx="22" cy="22" r="8"></circle>
                    <path d="M38.3025394,7.2272393 C36.3908562,5.11887335 34.0758405,3.38296118 31.479289,2.14129958 M25.005438,0.203579646 C24.0227952,0.0693464316 23.019496,0 22,0 C20.5646749,0 19.1614536,0.137452828 17.8027811,0.399913481 C7.66006651,2.35922565 0,11.2850606 0,22" id="Oval-19-Copy" stroke="url(#linearGradient-18)" stroke-width="2" stroke-linecap="round"></path>
                </g>
                <circle id="Oval" fill="#EFD9AC" opacity="0.284456623" cx="575.140038" cy="219" r="10"></circle>
                <polygon id="Fill-1" fill="#F95BAE" opacity="0.218297101" transform="translate(1117.500000, 306.999500) scale(-1, 1) translate(-1117.500000, -306.999500) " points="1059 304 1059 309.999 1176 309.999 1176 307 1103.17067 307 1103.17067 304"></polygon>
                <path d="M285.5,273 C302.344685,273 316,259.344685 316,242.5 C316,225.655315 302.344685,212 285.5,212 C268.655315,212 255,225.655315 255,242.5 C255,259.344685 268.655315,273 285.5,273 Z" id="Oval-7" fill="url(#linearGradient-19)" opacity="0.78853778"></path>
                <polygon id="Fill-3" fill="#006AFF" opacity="0.2" points="182 276 206.228906 276 206.228906 270 182 270"></polygon>
                <polygon id="Fill-7" fill-opacity="0.256793478" fill="#DE3C34" opacity="0.533004982" points="0 361.695416 0 375.457448 159.263359 375.457448 159.263359 373.737194 24.8387462 373.737194 24.8387462 361.695416"></polygon>
                <path d="M182,228 C192.49341,228 201,219.49341 201,209 C201,198.50659 192.49341,190 182,190 C171.50659,190 163,198.50659 163,209 C163,219.49341 171.50659,228 182,228 Z" id="Oval-7" fill="url(#linearGradient-20)" opacity="0.520638993"></path>
                <circle id="Oval-8" stroke="#8FABCF" stroke-dasharray="1" cx="101.5" cy="317.5" r="7.5"></circle>
                <path d="M886,256 C906.434536,256 923,239.434536 923,219 C923,198.565464 906.434536,182 886,182 C865.565464,182 849,198.565464 849,219 C849,239.434536 865.565464,256 886,256 Z" id="Oval-10" fill="url(#linearGradient-21)" opacity="0.296933302"></path>
                <circle id="Oval" fill="#CBE0A2" cx="727" cy="399" r="10"></circle>
                <circle id="Oval" fill="#CBE0A2" cx="937" cy="150" r="7"></circle>
                <polygon id="Fill-2" fill="#93DDC7" opacity="0.27417346" points="904.979474 457.978829 914.979474 457.978829 914.979474 442.978829 904.979474 442.978829"></polygon>
                <path d="M1012.6714,274.054438 C1011.60306,273.464415 1010.58136,272.800302 1009.61322,272.069026 L1040.45779,272.069026 C1039.48965,272.800301 1038.46795,273.464415 1037.39961,274.054437 L1012.67139,274.054437 Z M1017.29258,276.039848 C1019.73536,276.813665 1022.33669,277.231094 1025.0355,277.231094 C1027.73432,277.231094 1030.33565,276.813665 1032.77843,276.039848 L1017.29258,276.039848 Z M1002.90783,264.524465 C1003.22489,265.066932 1003.56132,265.596691 1003.91619,266.112794 L1046.15482,266.112794 C1046.50969,265.596691 1046.84612,265.066932 1047.16318,264.524465 L1002.90783,264.524465 Z M1001.86154,262.539054 C1001.61605,262.018968 1001.38754,261.489287 1001.17674,260.950726 L1048.89427,260.950726 C1048.68347,261.489287 1048.45496,262.018968 1048.20946,262.539054 L1001.86154,262.539054 Z M1007.28629,270.083615 C1006.63273,269.455212 1006.01245,268.792441 1005.42838,268.098208 L1044.64264,268.098205 C1044.05856,268.792438 1043.43828,269.455211 1042.78472,270.083615 L1007.28629,270.083615 Z M1000.49278,258.965315 C1000.33658,258.442685 1000.19661,257.913047 1000.07347,257.376986 L1049.99754,257.376986 C1049.8744,257.913047 1049.73443,258.442685 1049.57823,258.965315 L1000.49278,258.965315 Z M999.515513,249.435343 C999.460194,250.090435 999.429532,250.752549 999.424459,251.420754 L1050.64655,251.420754 C1050.64148,250.752549 1050.61082,250.090435 1050.5555,249.435343 L999.515513,249.435343 Z M999.761371,247.449932 C999.871215,246.779001 1000.00713,246.116839 1000.16804,245.464521 L1049.90297,245.464521 C1050.06388,246.116839 1050.19979,246.779001 1050.30964,247.449932 L999.761371,247.449932 Z M999.699563,255.391575 C999.603011,254.737496 999.531186,254.075366 999.485067,253.406165 L1050.58594,253.406165 C1050.53982,254.075366 1050.468,254.737496 1050.37145,255.391575 L999.699563,255.391575 Z M1000.7444,243.479111 C1000.97042,242.80434 1001.22378,242.142099 1001.50314,241.4937 L1048.56786,241.4937 C1048.84723,242.142099 1049.10059,242.80434 1049.32661,243.479111 L1000.7444,243.479111 Z M1006.49549,233.949139 C1006.00939,234.459011 1005.54411,234.988908 1005.10102,235.537466 L1044.96999,235.537467 C1044.52689,234.988908 1044.06162,234.459011 1043.57552,233.949139 L1006.49549,233.949139 Z M1008.61434,231.963728 C1009.28922,231.399291 1009.99362,230.868965 1010.72487,230.375399 L1039.34614,230.375399 C1040.07739,230.868965 1040.78179,231.399291 1041.45667,231.963728 L1008.61434,231.963728 Z M1002.46244,239.508289 C1002.8285,238.827433 1003.22447,238.165043 1003.64858,237.522878 L1046.42243,237.522878 C1046.84654,238.165043 1047.24251,238.827433 1047.60857,239.508289 L1002.46244,239.508289 Z M1014.23378,228.389988 C1017.51595,226.861167 1021.17604,226.007496 1025.0355,226.007496 C1028.89497,226.007496 1032.55506,226.861167 1035.83723,228.389988 L1014.23378,228.389988 Z" id="Combined-Shape" fill="#FEDABF" opacity="0.555706522" transform="translate(1025.035504, 251.619295) rotate(-25.000000) translate(-1025.035504, -251.619295) "></path>
                <circle id="Oval" fill="#EFD9AC" cx="934" cy="276" r="10"></circle>
                <circle id="Oval" fill="#EFD9AC" cx="140" cy="419" r="10"></circle>
                <path d="M991,223 C1007.56854,223 1021,209.568542 1021,193 C1021,176.431458 1007.56854,163 991,163 C974.431458,163 961,176.431458 961,193 C961,209.568542 974.431458,223 991,223 Z" id="Oval-10" fill="url(#linearGradient-22)"></path>
            </g>
            <path d="M709.5,970 C711.985281,970 714,967.985281 714,965.5 C714,963.014719 711.985281,961 709.5,961 C707.014719,961 705,963.014719 705,965.5 C705,967.985281 707.014719,970 709.5,970 Z" id="Oval-16" fill="#DE3A32"></path>
            <path d="M728.852311,946 C727.949792,946 727.217323,946.732468 727.217323,947.634945 L727.217323,957.198655 C727.166647,957.227276 721.20233,963.092686 721.20233,963.092686 C720.932557,963.359155 720.932557,963.791642 721.20233,964.058926 L727.071001,969.857312 C727.11434,969.899835 727.217323,979.516668 727.217323,979.516668 C727.217323,980.419144 727.949792,981.151612 728.852311,981.151612 L853.365141,981.151612 C854.267532,981.151612 855,980.419144 855,979.516668 L855,947.634945 C855,946.732468 854.267532,946 853.365141,946 L728.852311,946 Z" id="澳门外卖-对话框" stroke="#DE3A32" fill="#FFFFFF"></path>
            <text id="受票服务" font-family="PingFangSC-Regular, PingFang SC" font-size="17" font-weight="normal" fill="#DD3730">
                <tspan x="754" y="969.575806">受票服务</tspan>
            </text>
            <path d="M827.5,897 C829.985281,897 832,894.985281 832,892.5 C832,890.014719 829.985281,888 827.5,888 C825.014719,888 823,890.014719 823,892.5 C823,894.985281 825.014719,897 827.5,897 Z" id="Oval-16" fill="#DE3A32"></path>
            <path d="M846.852311,873 C845.949792,873 845.217323,873.732468 845.217323,874.634945 L845.217323,884.198655 C845.166647,884.227276 839.20233,890.092686 839.20233,890.092686 C838.932557,890.359155 838.932557,890.791642 839.20233,891.058926 L845.071001,896.857312 C845.11434,896.899835 845.217323,906.516668 845.217323,906.516668 C845.217323,907.419144 845.949792,908.151612 846.852311,908.151612 L971.365141,908.151612 C972.267532,908.151612 973,907.419144 973,906.516668 L973,874.634945 C973,873.732468 972.267532,873 971.365141,873 L846.852311,873 Z" id="澳门外卖-对话框" stroke="#DE3A32" fill="#FFFFFF"></path>
            <text id="归档服务" font-family="PingFangSC-Regular, PingFang SC" font-size="17" font-weight="normal" fill="#DD3730">
                <tspan x="872" y="896.575806">归档服务</tspan>
            </text>
            <path d="M1043.5,899 C1045.98528,899 1048,896.985281 1048,894.5 C1048,892.014719 1045.98528,890 1043.5,890 C1041.01472,890 1039,892.014719 1039,894.5 C1039,896.985281 1041.01472,899 1043.5,899 Z" id="Oval-16" fill="#DE3A32"></path>
            <path d="M1062.85231,875 C1061.94979,875 1061.21732,875.732468 1061.21732,876.634945 L1061.21732,886.198655 C1061.16665,886.227276 1055.20233,892.092686 1055.20233,892.092686 C1054.93256,892.359155 1054.93256,892.791642 1055.20233,893.058926 L1061.071,898.857312 C1061.11434,898.899835 1061.21732,908.516668 1061.21732,908.516668 C1061.21732,909.419144 1061.94979,910.151612 1062.85231,910.151612 L1187.36514,910.151612 C1188.26753,910.151612 1189,909.419144 1189,908.516668 L1189,876.634945 C1189,875.732468 1188.26753,875 1187.36514,875 L1062.85231,875 Z" id="澳门外卖-对话框" stroke="#DE3A32" fill="#FFFFFF"></path>
            <text id="开票服务" font-family="PingFangSC-Regular, PingFang SC" font-size="17" font-weight="normal" fill="#DD3730">
                <tspan x="1088" y="898.575806">开票服务</tspan>
            </text>
        </g>
    </g>
</svg>