<svg width="1086" height="256" viewBox="0 0 1086 256" xmlns="http://www.w3.org/2000/svg" xmlns:xlink="http://www.w3.org/1999/xlink"><title>Group 38</title><defs><linearGradient x1="50%" y1="0%" x2="50%" y2="100%" id="a"><stop stop-color="#F59861" offset="0%"/><stop stop-color="#EC734D" offset="100%"/></linearGradient><path id="b" d="M954.862 144V.726H.375V144z"/><linearGradient x1="50%" y1="0%" x2="50%" y2="100%" id="c"><stop stop-color="#F28D6D" offset="0%"/><stop stop-color="#E03D31" offset="100%"/></linearGradient></defs><g fill="none" fill-rule="evenodd"><g transform="translate(82 111)"><path d="M3.5 5.5v123.146" stroke="#ECECEC" stroke-linecap="square"/><circle fill="#E03D31" cx="4" cy="4" r="4"/></g><g transform="translate(228 52)"><path d="M3.5 5.5v123.146" stroke="#ECECEC" stroke-linecap="square"/><circle fill="#E03D31" cx="4" cy="4" r="4"/></g><g transform="translate(390 6)"><path d="M3.5 5.5v180.044" stroke="#ECECEC" stroke-linecap="square"/><circle fill="#E03D31" cx="4" cy="4" r="4"/></g><g transform="translate(564 6)"><path d="M3.5 5.5v180.044" stroke="#ECECEC" stroke-linecap="square"/><circle fill="#E03D31" cx="4" cy="4" r="4"/></g><g transform="translate(724 52)"><path d="M3.5 5.5v180.044" stroke="#ECECEC" stroke-linecap="square"/><circle fill="#E03D31" cx="4" cy="4" r="4"/></g><g transform="translate(919 114)"><path d="M3.5 5.5v120.067" stroke="#ECECEC" stroke-linecap="square"/><circle fill="#E03D31" cx="4" cy="4" r="4"/></g><path d="M.72 144.445C69.648 135.355 100.178 46 171.085 46c58.548 0 68.152 68.723 125.915 98.445H.72zM370 144.445C497.954 135.355 554.629 46 686.258 46 794.944 46 812.77 114.723 920 144.445H370z" fill="url(#a)" transform="translate(0 111)"/><g transform="translate(132.137 111.445)"><mask id="d" fill="#fff"><use xlink:href="#b"/></mask><path d="M.375 144C84.48 144 107.043.726 273.196.726c180.516 0 187.537 124.817 333.88 124.817 79.936 0 95.192-53.557 163.68-53.557 66.104 0 70.86 72.014 184.108 72.014H.375z" fill="url(#c)" mask="url(#d)"/></g><text font-family="MicrosoftYaHei, Microsoft YaHei" font-size="17" fill="#666" transform="translate(0 -3)"><tspan x="96.5" y="124">公众号自助开票</tspan></text><text font-family="MicrosoftYaHei, Microsoft YaHei" font-size="17" fill="#666" transform="translate(0 -3)"><tspan x="244" y="65">二维码扫描开票</tspan></text><text font-family="MicrosoftYaHei, Microsoft YaHei" font-size="17" fill="#666" transform="translate(0 -3)"><tspan x="932.5" y="124">支付集成开票</tspan></text><text font-family="MicrosoftYaHei, Microsoft YaHei" font-size="23" fill="#FFF" transform="translate(0 -3)"><tspan x="370" y="217">受票服务</tspan></text><text font-family="MicrosoftYaHei, Microsoft YaHei" font-size="17" fill="#666" transform="translate(0 -3)"><tspan x="739.5" y="65">系统集成开票</tspan></text><text font-family="MicrosoftYaHei, Microsoft YaHei" font-size="17" fill="#666" transform="translate(0 -3)"><tspan x="405.5" y="18">预约开票</tspan></text><text font-family="MicrosoftYaHei, Microsoft YaHei" font-size="17" fill="#666" transform="translate(0 -3)"><tspan x="579" y="18">移动开票</tspan></text></g></svg>