<?xml version="1.0" encoding="UTF-8"?>
<svg width="136px" height="45px" viewBox="0 0 136 45" version="1.1" xmlns="http://www.w3.org/2000/svg" xmlns:xlink="http://www.w3.org/1999/xlink">
    <!-- Generator: Sketch 42 (36781) - http://www.bohemiancoding.com/sketch -->
    <title>Group 2</title>
    <desc>Created with Sketch.</desc>
    <defs></defs>
    <g id="Page-1" stroke="none" stroke-width="1" fill="none" fill-rule="evenodd">
        <g id="Group-2" fill-rule="nonzero">
            <path d="M66.8344971,9.49526812 C66.812927,9.48087885 66.7882753,9.47368421 66.7646508,9.47368421 C66.7297277,9.47368421 66.6968588,9.48807349 66.6711801,9.51479643 L65.1222357,11.2898163 C65.0986113,11.317567 65.0883398,11.3504568 65.0903941,11.38643 C65.0924484,11.4224032 65.1119642,11.4511817 65.1407245,11.4737934 C66.3661161,12.3875124 68.0578345,13.8254121 70.3103775,15.8686892 C70.3350291,15.8892453 70.3658437,15.9015789 70.3956311,15.9015789 C70.4274727,15.9015789 70.463423,15.8861619 70.4880747,15.8594389 C70.9657001,15.3342304 71.555285,14.6877408 72.2876439,13.8726912 C72.3102413,13.8480238 72.3225671,13.8141063 72.3174313,13.7801887 C72.3164042,13.7472989 72.2999698,13.7144091 72.2753181,13.6917974 C70.1213816,11.9044439 68.2889435,10.4912115 66.8344971,9.49526812 L66.8344971,9.49526812 L66.8344971,9.49526812 Z" id="Shape" fill="#ABAABC"></path>
            <path d="M71.9227074,19.979285 C71.1009863,19.7038332 70.2659122,19.361574 69.4287838,18.9586743 C69.4133765,18.9514796 69.3938607,18.9473684 69.3753719,18.9473684 C69.3579104,18.9473684 69.3373673,18.9514796 69.3199058,18.9586743 C69.2860098,18.9771748 69.260331,19.0080089 69.2531409,19.0470655 C68.3061073,23.7194687 67.3056619,27.715576 66.2795376,30.9213009 C66.2682389,30.9531629 66.2744018,30.9881082 66.2867277,31.0199702 C66.3021349,31.0487488 66.3308952,31.0703327 66.3617097,31.0816385 L69.090851,31.8864101 C69.1000954,31.8915492 69.1144755,31.892577 69.1268013,31.892577 C69.1483715,31.892577 69.1699416,31.8864101 69.1904847,31.8761321 C69.2202721,31.8586594 69.2418422,31.828853 69.2480052,31.7959633 C70.3634916,27.0084459 71.2386246,23.3011519 72.0038524,20.1293446 C72.0202868,20.0645929 71.9853636,19.9998411 71.9227074,19.979285 L71.9227074,19.979285 L71.9227074,19.979285 Z" id="Shape" fill="#ABAABC"></path>
            <path d="M68.0530876,1.21093347 C68.0325445,1.19243297 68.0037843,1.18421053 67.975024,1.18421053 C67.941128,1.18421053 67.9072321,1.19654419 67.8836076,1.22532274 L66.3069302,2.92942403 C66.2833057,2.95409136 66.2709799,2.98903674 66.2740613,3.02398213 C66.2750885,3.0568719 66.29255,3.08976167 66.3202831,3.11237339 C67.9822141,4.48757696 69.561973,5.97481132 71.0184737,7.53296425 C71.0431253,7.55968719 71.074967,7.57407646 71.1109173,7.57407646 L71.1109173,7.57407646 C71.1458404,7.57407646 71.1797364,7.55968719 71.2043881,7.53296425 L73.0039573,5.61405164 C73.0255275,5.5883565 73.0388805,5.55546673 73.035799,5.52257696 C73.035799,5.48763158 73.0203917,5.45679742 72.994713,5.4341857 C70.9958763,3.62833168 69.3811943,2.24798908 68.0530876,1.21093347 L68.0530876,1.21093347 L68.0530876,1.21093347 Z" id="Shape" fill="#ABAABC"></path>
            <path d="M97.7393957,3.68365442 L87.2347183,3.68365442 L87.2275282,0.125392254 C87.2275282,0.0555014896 87.1689806,0 87.0991343,0 L84.1922958,0 C84.1614813,0 84.1296396,0.0133614697 84.1039608,0.0380287984 C84.0834178,0.0606405164 84.0680105,0.0925024826 84.0680105,0.12642006 L84.0762277,3.68365442 L73.4975954,3.68365442 C73.4298034,3.68365442 73.3743372,3.73915591 73.3743372,3.80904667 L73.3743372,5.6354568 C73.3743372,5.70534757 73.4298034,5.76084906 73.4975954,5.76084906 L77.986247,5.76084906 C78.1382654,6.13085899 78.3067183,6.58617676 78.4874969,7.06718967 C78.8336469,7.99940914 79.2239645,9.04879841 79.6738568,10.0200745 L77.1326842,10.0200745 C75.2797031,9.97690665 74.457982,10.6994538 74.485715,12.7756207 L74.485715,32.0243595 C74.485715,32.0942502 74.5411812,32.1497517 74.6110275,32.1497517 L77.2405351,32.1497517 C77.3083271,32.1497517 77.3648204,32.0942502 77.3648204,32.0243595 L77.3648204,13.2782175 C77.382282,12.5196971 77.6822102,12.2072443 78.4381936,12.1959384 L84.1768885,12.1959384 L84.1768885,15.2423535 L78.8993846,15.2423535 C78.8295383,15.2423535 78.7740722,15.2968272 78.7740722,15.3677458 L78.7740722,17.0235402 C78.7740722,17.0924032 78.8295383,17.1499603 78.8993846,17.1499603 L84.1768885,17.1499603 L84.1768885,20.3844638 L80.0867716,20.3844638 C80.0158982,20.3844638 79.960432,20.4420209 79.960432,20.509856 L79.960432,28.3920953 C79.960432,28.4599305 80.0158982,28.5185154 80.0867716,28.5185154 L87.9958375,28.5185154 C88.2197565,28.5267378 88.4190238,28.5308491 88.6059654,28.5308491 C89.7255604,28.5308491 90.3418513,28.3612612 90.7444946,27.9439722 C91.1604909,27.5122939 91.3176451,26.8164697 91.2724504,25.6231877 L91.2724504,20.5108838 C91.2724504,20.4420209 91.2169843,20.3854916 91.147138,20.3854916 L86.9224642,20.3854916 L86.9224642,17.1509881 L92.334525,17.1509881 C92.4053984,17.1509881 92.4608646,17.093431 92.4608646,17.024568 L92.4608646,15.3677458 C92.4608646,15.2957994 92.4053984,15.2423535 92.334525,15.2423535 L86.9224642,15.2423535 L86.9224642,12.1959384 L92.6724578,12.1959384 C93.5568352,12.1949106 93.7745912,12.6635899 93.7345323,13.5834757 L93.7345323,28.5801837 C93.7345323,29.4404568 93.0494224,29.6213505 92.4721633,29.6213505 L89.2849125,29.6213505 C89.2520436,29.6213505 89.2212291,29.6357398 89.1976046,29.6583515 C89.1739801,29.6819911 89.1626814,29.713853 89.1626814,29.7487984 L89.1708987,31.8311321 C89.1708987,31.899995 89.227392,31.9575521 89.295184,31.9575521 L93.5445093,31.9575521 C95.5587532,31.9575521 96.581796,30.9873039 96.581796,29.0776415 L96.615692,12.9184856 C96.6393165,10.8628749 96.0096727,9.99540715 93.5568352,10.0200745 L91.4378218,10.0200745 C92.0191895,8.88537736 92.5132493,7.47933962 92.9138384,6.33744786 C92.985739,6.13702582 93.0525038,5.94379841 93.1182415,5.76187686 L97.7393957,5.76187686 C97.8102691,5.76187686 97.8647081,5.70637537 97.8647081,5.63648461 L97.8647081,3.81007448 C97.8647081,3.73915591 97.8102691,3.68365442 97.7393957,3.68365442 L97.7393957,3.68365442 L97.7393957,3.68365442 Z M90.0645204,5.76084906 C89.8046511,6.37444886 89.0989981,8.17002483 88.6562958,9.29752731 C88.5309833,9.61923039 88.427241,9.87720953 88.3707477,10.0200745 L82.864189,10.0200745 C82.7768812,9.80629096 82.5457721,9.28005462 82.205785,8.50611718 C81.7600013,7.4937289 81.2197196,6.26344588 81.0235337,5.76084906 L90.0645204,5.76084906 L90.0645204,5.76084906 L90.0645204,5.76084906 Z M82.7162792,26.751718 L82.7162792,22.4082125 L88.5124946,22.4082125 L88.5124946,25.3662363 C88.4898973,26.6941609 88.4703814,26.6951887 87.3158632,26.7434955 L87.1402203,26.7506902 L82.7162792,26.7506902 L82.7162792,26.751718 L82.7162792,26.751718 Z" id="Shape" fill="#ABAABC"></path>
            <path d="M104.705426,9.49526812 C104.683856,9.47985104 104.658177,9.47368421 104.634552,9.47368421 C104.600656,9.47368421 104.565733,9.48704568 104.540055,9.51582423 L102.990083,11.2908441 C102.968513,11.317567 102.956187,11.3525124 102.96235,11.3884856 C102.966459,11.423431 102.984947,11.4522095 103.010626,11.4748213 C104.234991,12.389568 105.926709,13.8264399 108.182333,15.869717 C108.203904,15.8902731 108.235745,15.9015789 108.265533,15.9015789 C108.299429,15.9015789 108.333325,15.8861619 108.359003,15.8604667 C108.836629,15.3352582 109.427241,14.6887686 110.156518,13.8726912 C110.180143,13.8490516 110.193496,13.8161619 110.190414,13.7801887 C110.18836,13.7462711 110.170899,13.7154369 110.14522,13.6928252 C107.989229,11.9044439 106.158845,10.4901837 104.705426,9.49526812 L104.705426,9.49526812 L104.705426,9.49526812 Z" id="Shape" fill="#ABAABC"></path>
            <path d="M109.794069,19.9803128 C108.973375,19.7038332 108.134193,19.361574 107.3022,18.9597021 C107.284738,18.9504518 107.267277,18.9473684 107.246734,18.9473684 C107.226191,18.9473684 107.208729,18.9514796 107.192295,18.9597021 C107.157372,18.9771748 107.131693,19.0090367 107.122448,19.0470655 C106.178496,23.7194687 105.178051,27.715576 104.149872,30.9213009 C104.139601,30.9531629 104.143709,30.9881082 104.159117,31.0199702 C104.174524,31.0487488 104.202257,31.0693049 104.235126,31.0816385 L106.964267,31.8853823 C106.973511,31.8905214 106.985837,31.8915492 106.99919,31.8915492 C107.018706,31.8915492 107.041303,31.8853823 107.061847,31.8751043 C107.091634,31.8586594 107.114231,31.8278252 107.121421,31.7949355 C108.236908,27.0074181 109.111014,23.3011519 109.876241,20.1293446 C109.889594,20.0645929 109.857753,20.0008689 109.794069,19.9803128 L109.794069,19.9803128 L109.794069,19.9803128 Z" id="Shape" fill="#ABAABC"></path>
            <path d="M105.925556,1.21093347 C105.903986,1.19346077 105.876253,1.18421053 105.847493,1.18421053 C105.812569,1.18421053 105.781755,1.197572 105.756076,1.22635055 L104.178372,2.93045184 C104.152693,2.95614697 104.142421,2.98903674 104.144476,3.02398213 C104.147557,3.0578997 104.163991,3.09078947 104.18967,3.11340119 C105.851601,4.48963257 107.433414,5.97686693 108.890942,7.53399206 C108.914567,7.560715 108.946408,7.57510427 108.981332,7.57510427 L108.981332,7.57510427 C109.017282,7.57510427 109.050151,7.560715 109.073775,7.53399206 L110.873344,5.61405164 C110.895942,5.58938431 110.908268,5.55752234 110.908268,5.52360477 C110.90724,5.48865938 110.889779,5.45782522 110.867182,5.43624131 C108.870399,3.62935948 107.252636,2.24798908 105.925556,1.21093347 L105.925556,1.21093347 L105.925556,1.21093347 Z" id="Shape" fill="#ABAABC"></path>
            <path d="M135.612076,3.68262661 L125.106371,3.68262661 L125.098154,0.124364449 C125.098154,0.0555014896 125.042688,0 124.972841,0 L122.066003,0 C122.032107,0 122.00232,0.0133614697 121.976641,0.0380287984 C121.954043,0.0606405164 121.939663,0.0925024826 121.939663,0.125392254 L121.948908,3.68262661 L111.370275,3.68262661 C111.302483,3.68262661 111.244963,3.7381281 111.244963,3.80801887 L111.244963,5.6354568 C111.244963,5.70431976 111.302483,5.75982125 111.370275,5.75982125 L115.859954,5.75982125 C116.011973,6.13085899 116.181453,6.58514896 116.360177,7.06616187 C116.704273,7.99838133 117.096644,9.04879841 117.54551,10.0200745 L115.002283,10.0200745 C113.148274,9.97690665 112.32758,10.698426 112.357368,12.7745929 L112.357368,32.0233317 C112.357368,32.0942502 112.411807,32.1487239 112.480626,32.1487239 L115.110134,32.1487239 C115.17998,32.1487239 115.2375,32.0932224 115.2375,32.0233317 L115.2375,13.2782175 C115.252908,12.5207249 115.550782,12.2072443 116.309846,12.1959384 L122.049568,12.1959384 L122.049568,15.2423535 L116.77001,15.2423535 C116.701191,15.2423535 116.644698,15.2968272 116.644698,15.3687736 L116.644698,17.024568 C116.644698,17.0924032 116.700164,17.1499603 116.77001,17.1499603 L122.049568,17.1499603 L122.049568,20.3834359 L117.958424,20.3834359 C117.889605,20.3834359 117.832085,20.440993 117.832085,20.509856 L117.832085,28.3920953 C117.832085,28.4599305 117.890632,28.5185154 117.958424,28.5185154 L125.86749,28.5185154 C126.090382,28.5267378 126.291704,28.5298213 126.476591,28.5298213 C127.596186,28.5298213 128.215558,28.3612612 128.61512,27.9429444 C129.032144,27.5112661 129.191352,26.8154419 129.144103,25.6221599 L129.144103,20.509856 C129.144103,20.440993 129.088637,20.3834359 129.019818,20.3834359 L124.79309,20.3834359 L124.79309,17.1499603 L130.209259,17.1499603 C130.277051,17.1499603 130.333545,17.0924032 130.333545,17.024568 L130.333545,15.3687736 C130.333545,15.297855 130.277051,15.2423535 130.209259,15.2423535 L124.79309,15.2423535 L124.79309,12.1959384 L130.544111,12.1959384 C131.428488,12.1949106 131.646244,12.6635899 131.606185,13.5834757 L131.606185,28.5791559 C131.606185,29.439429 130.919021,29.6192949 130.341762,29.6192949 L127.157592,29.6192949 C127.123696,29.6192949 127.090828,29.6336842 127.06823,29.6573237 C127.045633,29.6809633 127.03228,29.7128252 127.03228,29.7477706 L127.043579,31.8290765 C127.045633,31.8989672 127.098018,31.9544687 127.167864,31.9544687 L131.420271,31.9544687 C133.433488,31.9544687 134.453449,30.9852483 134.453449,29.0755859 L134.489399,12.91643 C134.513024,10.8597915 133.879271,9.99335154 131.427461,10.0190467 L129.306393,10.0190467 C129.889815,8.88434955 130.382848,7.47728401 130.784464,6.33539225 C130.85431,6.13599801 130.922102,5.94277061 130.989894,5.75982125 L135.610021,5.75982125 C135.677813,5.75982125 135.734307,5.70431976 135.734307,5.6354568 L135.734307,3.80904667 C135.735334,3.7381281 135.679868,3.68262661 135.612076,3.68262661 L135.612076,3.68262661 L135.612076,3.68262661 Z M127.935146,5.75982125 C127.67425,6.37342105 126.971678,8.16899702 126.525894,9.29752731 C126.401609,9.61717478 126.299921,9.87618173 126.242401,10.0190467 L120.733788,10.0190467 C120.649561,9.80526316 120.418452,9.27902681 120.078465,8.50508937 C119.6296,7.49270109 119.090345,6.26344588 118.892105,5.75982125 L127.935146,5.75982125 L127.935146,5.75982125 L127.935146,5.75982125 Z M120.589986,26.7506902 L120.589986,22.4082125 L126.385175,22.4082125 L126.385175,25.3672642 C126.363604,26.6951887 126.33998,26.6951887 125.187516,26.7445233 L125.013927,26.751718 L120.589986,26.751718 L120.589986,26.7506902 L120.589986,26.7506902 Z" id="Shape" fill="#ABAABC"></path>
            <path d="M92.3096501,38.3788332 L92.3096501,37.8947368 L98.7170205,37.8947368 L98.7170205,38.3788332 L95.4958737,38.3788332 L95.4958737,43.8498411 L94.8641756,43.8498411 L94.8641756,38.3788332 L92.3096501,38.3788332 L92.3096501,38.3788332 L92.3096501,38.3788332 Z M98.1356528,41.3923585 C97.3663164,40.8630387 96.5846542,40.4364995 95.7988834,40.1219911 L95.8183992,39.605005 C96.7366726,39.8958739 97.4977918,40.3275521 98.1356528,40.729424 L98.1356528,41.3923585 L98.1356528,41.3923585 L98.1356528,41.3923585 Z" id="Shape" fill="#B6B5C7"></path>
            <path d="M106.540386,42.3698014 L109.030201,42.3698014 L109.030201,41.9936246 L106.399666,41.9936246 C106.383232,41.9381231 106.375015,41.8733714 106.375015,41.801425 L106.375015,41.1744638 L109.1134,41.1744638 L109.1134,40.803426 L106.348309,40.803426 L106.348309,39.9811817 L108.626531,39.9811817 L108.626531,39.6029494 L106.348309,39.6029494 L106.348309,38.8454568 L108.92235,38.8454568 L108.92235,38.490864 L107.594244,38.490864 C107.682579,38.3294985 107.740099,38.1301043 107.757561,37.8947368 L107.189546,37.8947368 C107.17003,38.110576 107.114564,38.3120258 107.026229,38.490864 L105.102374,38.490864 C105.026365,38.3120258 104.982197,38.110576 104.963709,37.8947368 L104.391585,37.8947368 C104.42959,38.1301043 104.477866,38.3294985 104.535387,38.490864 L103.204198,38.490864 L103.204198,38.8454568 L105.751534,38.8454568 L105.751534,39.6029494 L103.557538,39.6029494 L103.557538,39.9811817 L105.751534,39.9811817 L105.751534,40.8023982 L103.039854,40.8023982 L103.039854,41.1734359 L105.779267,41.1734359 L105.779267,41.8003972 C105.779267,41.8363704 105.751534,41.9730685 105.751534,41.9925968 L103.118945,41.9925968 L103.118945,42.3687736 L105.61595,42.3687736 C105.273908,42.9679841 104.330983,43.3955511 102.960764,43.6113903 L102.960764,44.0800695 C104.404938,43.861147 105.445443,43.4006902 106.080222,42.6935601 C106.692405,43.4006902 107.73599,43.861147 109.197627,44.0800695 L109.197627,43.5795283 C107.766805,43.2516584 106.882428,42.9690119 106.540386,42.3698014 L106.540386,42.3698014 L106.540386,42.3698014 Z" id="Shape" fill="#B6B5C7"></path>
            <g id="Group" transform="translate(65.090138, 36.710526)" fill="#999999">
                <path d="M0.503304188,2.02169315 C0.791933732,2.21903178 1.15246387,2.50167825 1.59413898,2.86552135 C1.43903912,3.03305362 1.31988955,3.1625571 1.22539162,3.2591708 C0.789879429,2.85729891 0.445783709,2.56231877 0.197213069,2.37834161 L0.503304188,2.02169315 L0.503304188,2.02169315 L0.503304188,2.02169315 Z" id="Shape"></path>
                <path d="M0.93676208,3.81932473 C1.11035067,3.90257696 1.27674919,3.9683565 1.43903912,4.02385799 C1.27161344,4.70837637 1.08878049,5.48334161 0.88540451,6.35492056 L0.343068569,6.19252731 C0.543363092,5.54809335 0.744684768,4.75873883 0.93676208,3.81932473 L0.93676208,3.81932473 L0.93676208,3.81932473 Z" id="Shape"></path>
                <path d="M0.748793373,0.375148957 C1.01379844,0.583793446 1.34145973,0.86438431 1.73383157,1.22000497 L1.37432858,1.60337637 C1.08159043,1.28989573 0.769336401,0.995943396 0.428322135,0.717408143 L0.748793373,0.375148957 L0.748793373,0.375148957 L0.748793373,0.375148957 Z" id="Shape"></path>
            </g>
            <path d="M70.8468302,41.4473684 L68.640509,41.4473684 L68.640509,43.0199106 L70.221295,43.0199106 C70.7112462,43.0353277 70.8663461,42.9613257 70.8468302,42.4710626 L70.8468302,41.4473684 L70.8468302,41.4473684 L70.8468302,41.4473684 Z M70.0477064,42.716708 L69.1366231,42.716708 L69.1366231,41.79785 L70.3445532,41.79785 L70.3445532,42.4176167 C70.3404446,42.716708 70.315793,42.70643 70.0477064,42.716708 L70.0477064,42.716708 L70.0477064,42.716708 Z" id="Shape" fill="#B6B6C8"></path>
            <path d="M72.3052066,38.9030139 L72.3052066,38.5443098 L70.2221435,38.5443098 L70.2365237,37.8947368 L69.6531017,37.8947368 L69.6438573,38.5443098 L67.457052,38.5443098 L67.457052,38.9030139 L68.3691624,38.9030139 C68.4636603,39.1301589 68.576647,39.499141 68.7286654,39.8043992 L68.1801665,39.8043992 C67.7970391,39.8270109 67.6984325,39.9503476 67.6799438,40.3368024 L67.6799438,44.1838779 L68.2007096,44.1838779 L68.2007096,40.4950844 C68.2222798,40.3141907 68.3229406,40.2134657 68.508855,40.195993 L69.6192057,40.195993 L69.6192057,40.8558441 L68.5335066,40.8558441 L68.5335066,41.183714 L69.6192057,41.183714 L69.6192057,41.8908441 L70.1132655,41.8908441 L70.1132655,41.183714 L71.2266976,41.183714 L71.2266976,40.8558441 L70.1132655,40.8558441 L70.1132655,40.195993 L71.2513492,40.195993 C71.433155,40.195993 71.5297073,40.2936346 71.5297073,40.4950844 L71.5297073,43.4993595 C71.5297073,43.6422244 71.4341822,43.7275323 71.2513492,43.7275323 L70.6134882,43.7275323 L70.6134882,44.1458491 L71.4649967,44.1458491 C71.8542871,44.1458491 72.050473,43.9587885 72.050473,43.591862 L72.0556088,40.3655809 C72.0556088,39.9441807 71.9066718,39.8043992 71.4649967,39.8043992 L71.0017515,39.8043992 C71.1455527,39.5330586 71.2708651,39.1661321 71.3612544,38.9030139 L72.3052066,38.9030139 L72.3052066,38.9030139 L72.3052066,38.9030139 Z M70.449144,39.8043992 L69.3110602,39.8043992 C69.2915444,39.7530089 68.9587473,39.0201837 68.922797,38.9030139 L70.8055655,38.9030139 C70.7706424,38.9811271 70.4840671,39.7190914 70.449144,39.8043992 L70.449144,39.8043992 L70.449144,39.8043992 Z" id="Shape" fill="#B6B6C8"></path>
            <g id="Group" transform="translate(74.557794, 36.710526)" fill="#999999">
                <path d="M0.362584445,2.02169315 C0.641969627,2.21903178 1.00455407,2.50167825 1.44417487,2.86552135 C1.29421077,3.03305362 1.1730069,3.1625571 1.08672618,3.2591708 C0.642996779,2.85729891 0.298901058,2.56231877 0.0503304188,2.37834161 L0.362584445,2.02169315 L0.362584445,2.02169315 L0.362584445,2.02169315 Z" id="Shape"></path>
                <path d="M0.786797975,3.81932473 C0.959359411,3.90257696 1.12781224,3.9683565 1.28702071,4.02385799 C1.12267648,4.70837637 0.939843534,5.48334161 0.737494708,6.35492056 L0.194131615,6.19252731 C0.397507593,5.54809335 0.597802117,4.75873883 0.786797975,3.81932473 L0.786797975,3.81932473 L0.786797975,3.81932473 Z" id="Shape"></path>
                <path d="M0.598829268,0.375148957 C0.860752876,0.583793446 1.19457708,0.86438431 1.58181316,1.22000497 L1.22641878,1.60337637 C0.931626323,1.28989573 0.620399448,0.995943396 0.284520939,0.717408143 L0.598829268,0.375148957 L0.598829268,0.375148957 L0.598829268,0.375148957 Z" id="Shape"></path>
            </g>
            <path d="M79.1310296,41.4473684 L76.9247084,41.4473684 L76.9247084,43.0199106 L78.5034401,43.0199106 C78.9923642,43.0353277 79.1536269,42.9613257 79.1310296,42.4710626 L79.1310296,41.4473684 L79.1310296,41.4473684 L79.1310296,41.4473684 Z M78.3349873,42.716708 L77.4249311,42.716708 L77.4249311,41.79785 L78.6338883,41.79785 L78.6338883,42.4176167 C78.6266983,42.716708 78.5999923,42.70643 78.3349873,42.716708 L78.3349873,42.716708 L78.3349873,42.716708 Z" id="Shape" fill="#B6B6C8"></path>
            <path d="M80.5883788,38.9071251 L80.5883788,38.5484211 L78.5145601,38.5484211 L78.520723,37.8947368 L77.9414096,37.8947368 L77.930111,38.5484211 L75.7412513,38.5484211 L75.7412513,38.9071251 L76.6564432,38.9071251 C76.7468325,39.1342701 76.8741993,39.5032522 77.0200548,39.8085104 L76.4705288,39.8085104 C76.0863742,39.8311221 75.9836591,39.9544588 75.9661975,40.3409136 L75.9661975,44.1879891 L76.492099,44.1879891 L76.492099,40.4991956 C76.5105877,40.3183019 76.6112486,40.217577 76.7992173,40.2001043 L77.9054593,40.2001043 L77.9054593,40.8599553 L76.8259232,40.8599553 L76.8259232,41.1878252 L77.9054593,41.1878252 L77.9054593,41.8949553 L78.4015735,41.8949553 L78.4015735,41.1878252 L79.5098698,41.1878252 L79.5098698,40.8599553 L78.4015735,40.8599553 L78.4015735,40.2001043 L79.5376029,40.2001043 C79.721463,40.2001043 79.809798,40.2977458 79.809798,40.4991956 L79.809798,43.5034707 C79.809798,43.6463357 79.721463,43.7316435 79.5376029,43.7316435 L78.8966604,43.7316435 L78.8997419,44.1499603 L79.7502233,44.1499603 C80.1395136,44.1499603 80.3346724,43.9628997 80.3346724,43.5959732 L80.338781,40.3676365 C80.338781,39.9472642 80.196007,39.8085104 79.7533047,39.8085104 L79.2859508,39.8085104 C79.4338606,39.5371698 79.5560916,39.1702433 79.6433995,38.9071251 L80.5883788,38.9071251 L80.5883788,38.9071251 L80.5883788,38.9071251 Z M78.7364248,39.8085104 L77.6024497,39.8085104 C77.5808795,39.7571202 77.2491096,39.0242949 77.2141864,38.9071251 L79.0928464,38.9071251 C79.0568961,38.9852383 78.7723751,39.7232026 78.7364248,39.8085104 L78.7364248,39.8085104 L78.7364248,39.8085104 Z" id="Shape" fill="#B6B6C8"></path>
            <path d="M120.712619,44.0780139 L120.712619,41.3697468 L121.302204,41.3697468 L121.323774,43.6566137 L123.466412,43.6566137 L123.466412,40.872289 L120.965299,40.872289 L120.981733,38.3253873 L121.54153,38.3253873 L121.551802,40.4221102 L123.467439,40.4221102 L123.467439,37.8947368 L124.124816,37.8947368 L124.124816,40.4221102 L125.837078,40.4221102 C126.017856,40.4056653 126.1103,40.3028848 126.1103,40.1209633 L126.1103,38.3253873 L126.677288,38.3253873 L126.677288,40.3686643 C126.643392,40.6708391 126.476993,40.835288 126.176038,40.872289 L124.124816,40.872289 L124.124816,43.6566137 L126.036345,43.6566137 C126.221232,43.6566137 126.311622,43.5589722 126.311622,43.374995 L126.311622,41.3697468 L126.902234,41.3697468 L126.902234,43.5497219 C126.882718,43.8817031 126.670097,44.0584856 126.252047,44.0769861 L120.712619,44.0769861 L120.712619,44.0780139 L120.712619,44.0780139 Z" id="Shape" fill="#B6B5C7"></path>
            <polygon id="Shape" fill="#B6B5C7" transform="translate(86.932289, 40.855263) scale(1, -1) translate(-86.932289, -40.855263) " points="84.0254507 41.4307229 84.0254507 40.2631579 89.8391276 40.2631579 89.8391276 41.4473684"></polygon>
            <path d="M111.670204,44.1448213 L111.244963,43.8405909 C111.689719,43.4623585 112.10777,43.0389027 112.427214,42.5188332 C112.203295,42.2947716 111.443203,41.5136395 111.443203,41.5136395 L111.921856,39.266857 L111.363085,39.266857 L111.363085,38.844429 L112.006082,38.844429 L112.173508,37.8947368 L112.732278,37.8947368 L112.539174,38.844429 L113.319809,38.8403178 C113.790244,38.8259285 113.848792,38.9852383 113.854955,39.4343893 C113.861118,39.9421251 113.768674,40.4827507 113.641307,40.946291 C113.413279,41.7767577 113.071238,42.4201639 113.071238,42.4201639 L114.082982,43.4346077 L113.715262,43.7748113 C113.43485,43.5116931 113.123623,43.221852 112.789799,42.9073436 C112.564852,43.3020209 112.193024,43.7090318 111.670204,44.1448213 L111.670204,44.1448213 L111.670204,44.1448213 Z M112.705572,41.9895134 C113.076374,41.3008838 113.382465,40.4940566 113.382465,39.4498064 C113.382465,39.2997468 113.278723,39.2678848 113.154437,39.266857 L112.48268,39.266857 L112.065657,41.3132175 C112.066684,41.3132175 112.65216,41.9381231 112.705572,41.9895134 L112.705572,41.9895134 L112.705572,41.9895134 Z M117.662605,41.114851 L116.094145,41.114851 L116.094145,43.5517776 C116.094145,43.9073982 115.85071,44.0852085 115.366921,44.0852085 L114.122014,44.103709 L114.13434,43.6668918 L115.058776,43.6668918 C115.35665,43.681281 115.471691,43.5774727 115.476827,43.3020209 L115.476827,41.114851 L113.825167,41.114851 L113.825167,40.6965343 L115.476827,40.6965343 L115.476827,40.1620755 C116.047923,39.6214499 116.464946,39.2082721 116.868617,38.7858441 L114.162073,38.7961221 L114.162073,38.3408044 L117.165464,38.3418322 C117.441767,38.3315541 117.681094,38.6347567 117.391437,38.9359037 C117.041178,39.2976912 116.686811,39.6748957 116.086955,40.2617726 L116.094145,40.6965343 L117.662605,40.6965343 L117.662605,41.114851 L117.662605,41.114851 L117.662605,41.114851 Z" id="Shape" fill="#B6B5C7"></path>
            <path d="M129.860653,44.2126564 L129.860653,41.3882473 C129.782589,41.4992502 129.653168,41.6575323 129.468281,41.8610377 C129.448765,41.9042056 129.430277,41.9309285 129.413842,41.949429 L128.996819,41.6667825 C129.514503,41.0665442 129.953097,40.4169712 130.307464,39.7067577 L130.839528,39.7067577 C130.617664,40.2083267 130.39888,40.6913952 130.39888,40.6913952 L130.449211,44.2136842 L129.860653,44.2136842 L129.860653,44.2126564 L129.860653,44.2126564 Z M129.492933,39.9339027 L129.074882,39.684146 C129.525802,39.160993 129.916119,38.5617825 130.249943,37.8947368 L130.810768,37.8947368 C130.432776,38.6512016 129.997264,39.33572 129.492933,39.9339027 L129.492933,39.9339027 L129.492933,39.9339027 Z M132.496323,44.1273486 L132.488106,43.7100596 L133.49266,43.7100596 C133.698091,43.7275323 133.798751,43.6329742 133.798751,43.4315243 L133.798751,40.4930288 L131.141511,40.4930288 L131.141511,40.074712 L135.50485,40.074712 L135.50485,40.4930288 L134.389364,40.4930288 L134.389364,43.6278352 C134.349305,43.9248709 134.171607,44.0903476 133.854218,44.1273486 L132.496323,44.1273486 L132.496323,44.1273486 L132.496323,44.1273486 Z M131.510258,38.5607547 L131.510258,38.1126316 L135.225465,38.1126316 L135.225465,38.5607547 L131.510258,38.5607547 L131.510258,38.5607547 L131.510258,38.5607547 Z" id="Shape" fill="#B6B5C7"></path>
            <path d="M27.3144023,34.3533664 C36.6029325,34.0614697 43.967608,26.6674379 44.0754589,17.4850248 L44.0744318,9.58839623 L54.2945882,9.58839623 L54.2945882,18.318575 C54.0953209,32.5177061 41.7582054,43.7197567 27.3144023,44.0414598 L27.3144023,44.0394042 C12.631273,43.9489573 0.202741029,32.6667378 0.000392202025,18.3175472 L0.000392202025,2.62398709 C-0.0232322803,1.01855511 1.02240785,-0.022611718 2.5980581,0.00205561072 L44.069296,0 L44.069296,9.58531281 L11.5496826,9.59353525 C10.7146085,9.59353525 10.2154129,10.1022989 10.2154129,10.9296822 L10.2154129,17.3246872 C10.3253181,26.6304369 17.8163333,34.2588083 27.3133752,34.3533664 L27.3144023,34.3533664 L27.3144023,34.3533664 L27.3144023,34.3533664 Z" id="Shape" fill="#B6B6C8"></path>
        </g>
    </g>
</svg>