<?xml version="1.0" encoding="UTF-8"?>
<svg width="183px" height="45px" viewBox="0 0 183 45" version="1.1" xmlns="http://www.w3.org/2000/svg" xmlns:xlink="http://www.w3.org/1999/xlink">
    <!-- Generator: Sketch 42 (36781) - http://www.bohemiancoding.com/sketch -->
    <title>Group 3</title>
    <desc>Created with Sketch.</desc>
    <defs></defs>
    <g id="Page-1" stroke="none" stroke-width="1" fill="none" fill-rule="evenodd">
        <g id="Group-3" fill-rule="nonzero">
            <g id="Group" transform="translate(68.478261, 18.586957)" fill="#B7B7C2">
                <polygon id="path3350" transform="translate(8.892146, 9.810875) scale(-1, 1) rotate(-180.000000) translate(-8.892146, -9.810875) " points="4.2279855 11.561581 13.5670821 11.561581 13.5670821 19.0568774 17.7558029 19.0568774 17.7558029 0.564871842 13.5670821 0.564871842 13.5670821 8.28746241 4.2279855 8.28746241 4.2279855 0.564871842 0.0284898129 0.564871842 0.0284898129 19.0568774 4.2279855 19.0568774"></polygon>
                <path d="M25.3633719,8.17708196 C25.3633719,4.90837509 26.3896759,3.53919821 29.8618695,3.53919821 C33.3232884,3.53919821 34.3280426,4.90837509 34.3280426,8.17708196 L34.3280426,19.2576735 L38.5275383,19.2576735 L38.5275383,8.07967017 C38.5275383,5.72014004 38.2420049,4.09390426 37.3476928,3.10355102 C35.7179976,1.30684459 33.3232884,0.565432603 29.8618695,0.565432603 C26.3896759,0.565432603 23.9788044,1.30684459 22.3329469,3.10355102 C21.4224725,4.10743367 21.1962007,5.73366946 21.1962007,8.07967017 L21.1962007,19.2576735 L25.3633719,19.2576735 L25.3633719,8.17708196 Z" id="path3362" transform="translate(29.861870, 9.911553) scale(-1, 1) rotate(-180.000000) translate(-29.861870, -9.911553) "></path>
                <path d="M46.9181792,8.25690551 L52.8631997,8.25690551 L49.8381621,15.3733783 L46.9181792,8.25690551 Z M52.2220965,19.0587911 L60.7180615,0.566785544 L56.0579412,0.566785544 L54.2208301,4.96655158 L45.5497739,4.96655158 L43.7880868,0.566785544 L39.338076,0.566785544 L47.7693919,19.0587911 L52.2220965,19.0587911 Z" id="path3366" transform="translate(50.028069, 9.812788) scale(-1, 1) rotate(-180.000000) translate(-50.028069, -9.812788) "></path>
                <polygon id="path3370" transform="translate(73.624170, 9.812247) scale(-1, 1) rotate(-180.000000) translate(-73.624170, -9.812247) " points="62.6176666 19.05825 67.2266064 4.84153978 71.1136315 19.05825 76.0646727 19.05825 80.5200709 4.84153978 84.8246213 19.05825 89.1345592 19.05825 82.9740418 0.566244368 77.8371346 0.566244368 73.5864584 14.3608368 69.8718307 0.566244368 64.7537795 0.566244368 58.1137815 19.05825"></polygon>
                <path d="M94.7789615,11.5421183 L106.370001,11.5421183 L106.370001,8.32752906 L94.7520244,8.32752906 C94.7789615,4.99117512 96.1877725,3.77893946 99.5037309,3.77893946 L106.370001,3.77893946 L106.370001,0.567056133 L99.3043963,0.567056133 C96.8989122,0.567056133 95.026783,0.742938539 93.0846172,2.18788015 C91.0212345,3.70046884 90.0326425,6.13305781 90.0326425,9.47482353 C90.0326425,16.0122373 92.9957248,19.0590617 99.4256133,19.0590617 L106.370001,19.0590617 L106.370001,15.8282372 L99.5037309,15.8282372 C96.462531,15.8282372 94.9432779,14.4401191 94.7789615,11.5421183" id="path3374" transform="translate(98.201322, 9.813059) scale(-1, 1) rotate(-180.000000) translate(-98.201322, -9.813059) "></path>
                <polygon id="path3376" transform="translate(112.267881, 9.810894) scale(-1, 1) rotate(-180.000000) translate(-112.267881, -9.810894) " points="110.079241 19.056897 114.456522 19.056897 114.456522 0.564891426 110.079241 0.564891426"></polygon>
            </g>
            <path d="M4.30879702,17.8494977 C3.93494985,12.8848205 9.17586388,7.92576749 9.17586388,7.92576749 C9.17586388,7.92576749 18.8041918,19.5507889 25.8452152,34.8820943 C25.8988235,35.0170728 25.7930177,35.1000283 25.7930177,35.1000283 C25.7154267,35.1998562 25.5814061,35.1520513 25.5475482,35.1492392 C22.9799941,33.8725678 11.914118,28.270961 7.3433074,23.8321375 C7.3433074,23.8321375 4.50630118,21.6049926 4.30879702,17.8494977 Z M5.43033851,39.3659106 L5.43033851,39.3659106 L23.8476017,38.7261689 L23.8476017,38.733199 C23.8476017,38.733199 24.0366414,38.733199 24.0902496,38.897704 C24.0902496,38.897704 24.1311612,39.00175 23.9900868,39.1240742 L23.9957298,39.1254802 C22.1913882,40.4148059 16.7191121,44.2223238 14.2968647,44.8255089 C10.7925765,45.6733424 7.4265413,42.9133138 5.43033851,39.3659106 Z M1.0231742,31.1251934 C1.0231742,31.1251934 -0.899669897,27.5806023 0.526592306,23.1839596 C0.526592306,23.1839596 16.2070121,31.5343469 24.2962183,36.9700427 L24.2962183,36.9714487 C24.2962183,36.9714487 24.4514001,37.1064272 24.3625232,37.2498418 C24.3625232,37.2498418 24.2962183,37.3735721 24.1720728,37.3735721 C21.3124947,37.3848203 10.6331625,37.4284071 10.3580674,37.3791962 C10.3580674,37.3791962 8.59604809,37.3327973 6.8368503,36.6115061 C6.8368503,36.6115061 3.02078773,35.3348346 1.0231742,31.1251934 Z M22.6188436,0.562410324 C22.6188436,0.562410324 24.7815142,0.074519368 25.5814061,0 C25.5814061,0 31.0113598,7.00060251 28.3662148,33.4085793 C28.3662148,33.4324817 28.3619825,33.5885506 28.1898718,33.6349494 C28.1898718,33.6349494 28.0981734,33.6813483 27.9740279,33.559024 C26.2500987,31.0745764 18.2370727,19.2498994 16.6147171,12.0496412 C16.6147171,12.0496412 15.700555,9.00418929 16.5893237,6.22869434 C16.5893237,6.22869434 17.7419016,1.8193974 22.6188436,0.562410324 Z M31.5347458,33.4254516 C28.8867793,7.00482059 34.3449479,3.33955086e-13 34.3449479,3.33955086e-13 C35.8361043,0.20809182 37.2440269,0.569440453 37.2440269,0.569440453 C42.1294334,1.75050213 43.3285658,6.22869434 43.3285658,6.22869434 C44.176423,8.57675744 43.3074047,12.0496412 43.3074047,12.0496412 C41.6779953,19.2175608 33.7199883,30.9888089 31.9480938,33.5323096 L31.9480938,33.5280915 C31.9480938,33.5280915 31.8592169,33.6982206 31.6842847,33.6307314 C31.6842847,33.6307314 31.5573177,33.5955807 31.5432103,33.4254516 L31.5347458,33.4254516 Z M36.0434837,38.7430412 L36.0434837,38.7374171 L54.4804973,39.3799709 C50.348428,46.4579048 45.587167,44.8409752 45.587167,44.8409752 C43.0083269,44.1168719 37.6658393,40.3937155 35.909463,39.1311043 L35.909463,39.1282923 C35.793782,39.0467428 35.8361043,38.8864558 35.8361043,38.8864558 C35.8798374,38.7655376 36.0434837,38.7430412 36.0434837,38.7430412 Z M35.6343679,36.9616065 C43.7263956,31.5146625 59.3856542,23.1445909 59.3856542,23.1445909 C60.7822908,27.3514201 58.973717,30.9550642 58.973717,30.9550642 C56.95071,35.3713913 53.0485921,36.6115061 53.0485921,36.6115061 C51.296448,37.2821804 49.880061,37.3370154 49.880061,37.3370154 C49.599323,37.3848203 38.626556,37.3735721 35.7302985,37.3735721 L35.7302985,37.3665419 C35.6216712,37.3665419 35.5440803,37.2301574 35.5440803,37.2301574 C35.4975258,37.0558102 35.6343679,36.9630125 35.6343679,36.9630125 L35.6343679,36.9616065 Z M34.1022999,34.8061689 C41.1362696,19.5170443 50.7476686,7.92576749 50.7476686,7.92576749 C50.7476686,7.92576749 55.9335636,12.6851649 55.6020388,17.8284073 C55.4482677,21.5276612 52.5689391,23.8321375 52.5689391,23.8321375 C48.0221112,28.2498706 37.0465227,33.8135147 34.4056099,35.1211187 C34.2842859,35.1956381 34.1573189,35.1000283 34.1573189,35.1000283 C34.0204768,34.9847342 34.1107644,34.8061689 34.1107644,34.8061689 L34.1022999,34.8061689 Z" id="Combined-Shape" fill="#B6B5C5"></path>
        </g>
    </g>
</svg>