<?xml version="1.0" encoding="UTF-8"?>
<svg width="48px" height="48px" viewBox="0 0 48 48" version="1.1" xmlns="http://www.w3.org/2000/svg" xmlns:xlink="http://www.w3.org/1999/xlink">
    <!-- Generator: Sketch 41.2 (35397) - http://www.bohemiancoding.com/sketch -->
    <title>降低成本</title>
    <desc>Created with Sketch.</desc>
    <defs>
        <rect id="path-1" x="0" y="0" width="11" height="26" rx="2"></rect>
        <mask id="mask-2" maskContentUnits="userSpaceOnUse" maskUnits="objectBoundingBox" x="0" y="0" width="11" height="26" fill="white">
            <use xlink:href="#path-1"></use>
        </mask>
        <rect id="path-3" x="14" y="6" width="11" height="20" rx="2"></rect>
        <mask id="mask-4" maskContentUnits="userSpaceOnUse" maskUnits="objectBoundingBox" x="0" y="0" width="11" height="20" fill="white">
            <use xlink:href="#path-3"></use>
        </mask>
        <rect id="path-5" x="28" y="11" width="11" height="15" rx="2"></rect>
        <mask id="mask-6" maskContentUnits="userSpaceOnUse" maskUnits="objectBoundingBox" x="0" y="0" width="11" height="15" fill="white">
            <use xlink:href="#path-5"></use>
        </mask>
    </defs>
    <g id="解决方案页面" stroke="none" stroke-width="1" fill="none" fill-rule="evenodd">
        <g id="降低成本">
            <g id="Group-6" transform="translate(4.000000, 7.000000)">
                <g id="Group-5" transform="translate(0.000000, 7.000000)">
                    <use id="Rectangle" stroke="#40465B" mask="url(#mask-2)" stroke-width="4" xlink:href="#path-1"></use>
                    <use id="Rectangle" stroke="#40465B" mask="url(#mask-4)" stroke-width="4" xlink:href="#path-3"></use>
                    <use id="Rectangle" stroke="#40465B" mask="url(#mask-6)" stroke-width="4" xlink:href="#path-5"></use>
                    <path d="M32,7 L27,7 L27,9 L32.5,9 L34,9 L34,2 L32,2 L32,7 Z" id="Combined-Shape" fill="#40465B"></path>
                </g>
                <rect id="Rectangle-19" fill="#40465B" x="3" y="0" width="9" height="2"></rect>
                <rect id="Rectangle-19" fill="#40465B" x="12" y="0" width="2" height="2"></rect>
                <rect id="Rectangle-19" fill="#40465B" x="14" y="2" width="2" height="2"></rect>
                <rect id="Rectangle-19" fill="#40465B" x="16" y="4" width="2" height="2"></rect>
                <rect id="Rectangle-19" fill="#40465B" x="18" y="6" width="2" height="2"></rect>
                <rect id="Rectangle-19" fill="#40465B" x="20" y="6" width="2" height="2"></rect>
                <rect id="Rectangle-19" fill="#40465B" x="22" y="6" width="2" height="2"></rect>
                <rect id="Rectangle-19" fill="#40465B" x="24" y="6" width="2" height="2"></rect>
                <rect id="Rectangle-19" fill="#40465B" x="26" y="8" width="2" height="2"></rect>
                <rect id="Rectangle-19" fill="#40465B" x="28" y="10" width="2" height="2"></rect>
                <rect id="Rectangle-19" fill="#40465B" x="30" y="12" width="2" height="2"></rect>
            </g>
        </g>
    </g>
</svg>