<?xml version="1.0" encoding="UTF-8"?>
<svg width="48px" height="48px" viewBox="0 0 48 48" version="1.1" xmlns="http://www.w3.org/2000/svg" xmlns:xlink="http://www.w3.org/1999/xlink">
    <!-- Generator: Sketch 41.2 (35397) - http://www.bohemiancoding.com/sketch -->
    <title>自动自能</title>
    <desc>Created with Sketch.</desc>
    <defs>
        <rect id="path-1" x="4" y="4" width="32" height="20"></rect>
        <mask id="mask-2" maskContentUnits="userSpaceOnUse" maskUnits="objectBoundingBox" x="0" y="0" width="32" height="20" fill="white">
            <use xlink:href="#path-1"></use>
        </mask>
    </defs>
    <g id="解决方案页面" stroke="none" stroke-width="1" fill="none" fill-rule="evenodd">
        <g id="自动自能">
            <g id="Group-7" transform="translate(4.000000, 6.000000)">
                <g id="Group-16" transform="translate(14.000000, 8.000000)" fill="#40465B">
                    <path d="M5.91410448,10.127 C3.59128358,10.127 1.70149254,8.23720896 1.70149254,5.91438806 C1.70149254,3.59128358 3.59128358,1.70149254 5.91410448,1.70149254 C6.96023881,1.70149254 7.91676119,2.08716418 8.65407463,2.72097015 L5.88886567,6.22661194 L4.38758209,4.46443284 C4.08273134,4.10683582 3.54591045,4.06401493 3.18831343,4.36829851 C2.83071642,4.67343284 2.78789552,5.21025373 3.09246269,5.56785075 L5.93934328,8.91014925 L9.71892537,4.1181791 C9.97783582,4.66350746 10.1267164,5.27122388 10.1267164,5.91438806 C10.1267164,8.23720896 8.23692537,10.127 5.91410448,10.127 M11.7343433,0.188865672 C11.365403,-0.102373134 10.8302836,-0.0391343284 10.5396119,0.330089552 L9.70843284,1.38359701 C8.68073134,0.521507463 7.35753731,0 5.91410448,0 C2.65291045,0 0,2.65319403 0,5.91438806 C0,9.17558209 2.65291045,11.8284925 5.91410448,11.8284925 C9.17529851,11.8284925 11.828209,9.17558209 11.828209,5.91438806 C11.828209,4.71880597 11.469194,3.6068806 10.8566567,2.67531343 L11.8755672,1.38359701 C12.1665224,1.01465672 12.1032836,0.479820896 11.7343433,0.188865672" id="Fill-14"></path>
                    <rect id="Rectangle-9" x="1" y="19" width="2" height="8"></rect>
                    <rect id="Rectangle-9" x="10" y="19" width="2" height="8"></rect>
                </g>
                <path d="M0,3.99683887 C0,1.78944571 1.79642476,0 4.00002553,0 L35.9999745,0 C38.2091276,0 40,1.79412025 40,3.99683887 L40,24.0031611 C40,26.2105543 38.2035752,28 35.9999745,28 L4.00002553,28 C1.79087243,28 0,26.2058797 0,24.0031611 L0,3.99683887 Z M2,4.00494659 C2,2.89764516 2.88989258,2 3.99970728,2 L36.0002927,2 C37.1047006,2 38,2.89702623 38,4.00494659 L38,23.9950534 C38,25.1023548 37.1101074,26 36.0002927,26 L3.99970728,26 C2.89529944,26 2,25.1029738 2,23.9950534 L2,4.00494659 Z" id="Combined-Shape" fill="#40465B"></path>
                <use id="Rectangle-23" stroke="#40465B" mask="url(#mask-2)" stroke-width="4" xlink:href="#path-1"></use>
                <rect id="Rectangle-24" fill="#40465B" x="9" y="34" width="23" height="2" rx="1"></rect>
            </g>
        </g>
    </g>
</svg>