<?xml version="1.0" encoding="UTF-8"?>
<svg width="48px" height="48px" viewBox="0 0 48 48" version="1.1" xmlns="http://www.w3.org/2000/svg" xmlns:xlink="http://www.w3.org/1999/xlink">
    <!-- Generator: Sketch 41.2 (35397) - http://www.bohemiancoding.com/sketch -->
    <title>渠道</title>
    <desc>Created with Sketch.</desc>
    <defs></defs>
    <g id="解决方案页面" stroke="none" stroke-width="1" fill="none" fill-rule="evenodd">
        <g id="渠道" fill="#40465B">
            <g id="资产" transform="translate(1.000000, 5.000000)">
                <path d="M30.249281,37 C29.6560467,37 29.0627566,36.8379502 28.5151471,36.5139635 L20,32 L21,30.5 L29.4506513,34.9170833 C29.7929212,35.1253524 30.2036562,35.1947943 30.6143912,35.1021863 C31.0251262,35.0096348 31.3445558,34.7550335 31.5727357,34.3847711 L43.9629163,13.5324385 C44.3964359,12.7918572 44.168256,11.8429503 43.4380914,11.38008 L28.2185021,2.07639687 C27.8762322,1.86812781 27.4654972,1.79868595 27.0547622,1.89123743 C26.6440272,1.9838454 26.3245976,2.2383902 26.0964177,2.6087091 L20.5744749,11.9123922 L19,10.9635418 L24.5219986,1.65980224 C24.9783584,0.872945219 25.7313075,0.340632996 26.5984024,0.109197812 C27.4654972,-0.122237371 28.3782169,0.0166463399 29.1540063,0.502626324 L44.3736513,9.80636591 C45.9709107,10.7783824 46.4728954,12.8844087 45.5145509,14.4813453 L33.1243703,35.3336215 C32.6680104,36.120535 31.9150056,36.6528472 31.0479108,36.8842824" id="Fill-1"></path>
                <path d="M32.6491506,20.8692989 L25.4351399,16.6222059 C25.0107511,16.3826582 24.8767766,15.8381591 25.1224237,15.4243078 C25.3681254,15.0105098 25.9264888,14.8798087 26.3508231,15.1194096 L33.5648883,19.3665027 C33.9892226,19.6061035 34.1232516,20.1506027 33.8775499,20.5644007 C33.7212191,20.8475509 33.4085575,21 33.1181976,21 C32.9618668,21 32.805536,20.9564507 32.6491506,20.8692989 Z" id="Fill-2"></path>
                <path d="M30.0152776,19 C29.5125797,19 29.0852988,18.6592291 29.0098818,18.1821832 L28.004486,10.0036825 C27.9542285,9.50384085 28.3312519,9.0494797 28.8842074,9.00405468 C29.4371628,8.95862966 29.9398607,9.29940052 29.9901182,9.79918669 L30.995514,17.9776874 C31.0457715,18.4774736 30.6687481,18.9318347 30.1157926,18.9773152 C30.0906946,19 30.0403757,19 30.0152776,19" id="Fill-3"></path>
                <path d="M29.4716501,18.9644518 C29.1076467,18.9644518 28.7664143,18.7584186 28.6299547,18.3922304 C28.447953,17.9344533 28.6526702,17.3850872 29.1304177,17.2019652 L36.751274,14.0662032 C37.2062505,13.8830812 37.7522001,14.0891144 37.9342018,14.5697469 C38.1162035,15.027524 37.9114308,15.57689 37.4337388,15.760012 L29.8128825,18.8957741 C29.6991383,18.9415406 29.5853942,18.9644518 29.4716501,18.9644518 Z M31.2460695,24 C31.0867833,24 30.9275527,23.9541776 30.768322,23.8626445 L23.4432115,19.4222289 C23.0109505,19.1704292 22.8744909,18.5982078 23.1246946,18.1633419 C23.3749539,17.7284201 23.9436745,17.5911205 24.37588,17.8428644 L31.7237615,22.3061912 C32.1560225,22.5579909 32.2924821,23.1302123 32.0422784,23.5650782 C31.8602767,23.8626445 31.5645309,24 31.2460695,24 L31.2460695,24 Z" id="Fill-4"></path>
                <path d="M24.8865943,26 C24.7333004,26 24.579953,25.9553994 24.4266591,25.8661436 C24.010568,25.6208128 23.8791427,25.0631685 24.1200713,24.6393262 L28.3687772,17.4345514 C28.6097058,17.0107635 29.1572222,16.8769071 29.5733132,17.1222924 C29.9894578,17.3676776 30.1208296,17.9253219 29.8799545,18.3491098 L25.6311952,25.5538846 C25.4779013,25.8438705 25.1931821,26 24.8865943,26" id="Fill-5"></path>
                <path d="M12.0766938,34.171764 C10.8700238,34.171764 9.87627851,33.3982729 9.52136536,32.1091402 L6.30346299,20.3897519 C6.23246881,20.1319597 6.27977901,19.8506486 6.42176738,19.6162609 C6.61106594,19.335007 11.0356384,12.7252834 11.9347632,11.5064785 C12.7628939,10.3814058 13.969564,9.86576414 15.4602108,10.0298241 C16.5959444,10.147018 20.145076,11.0611074 22.1562505,11.6470768 C23.2919842,11.975254 24.167425,12.6549557 24.6406426,13.5691023 C25.0665499,14.4128639 25.1138601,15.3972811 24.782631,16.3114277 C24.167425,18.0224698 22.3928593,18.842827 20.2870643,18.4209176 C19.2223249,18.2099343 18.039281,17.9052759 17.3294547,17.7411587 C16.4303299,19.170947 14.1825466,22.7804957 13.5673406,23.882164 C13.0941231,24.7259256 13.3071057,25.5462828 14.1825466,26.3432355 C15.1526078,27.2104588 19.4115657,29.5777409 20.9495227,30.4215597 C21.3044358,30.6090814 21.4937344,30.9840675 21.4464242,31.3591108 C21.399114,31.7341541 21.115195,32.0622741 20.7365979,32.1560063 C20.6656037,32.179468 13.969564,33.8201823 12.9048245,34.1014362 C12.6209056,34.1248979 12.3369866,34.171764 12.0766938,34.171764 Z M8.26732733,20.3194242 L11.3668675,31.6169602 C11.4851719,32.015408 11.6981545,32.4607219 12.431607,32.2497958 C13.1178071,32.0622741 15.9098021,31.3825725 17.9682869,30.8668736 C16.1700371,29.859052 13.7566392,28.4527254 12.9285085,27.7026388 C11.4142355,26.3197738 11.0356384,24.5384039 11.9347632,22.9446129 C12.7155837,21.5382863 15.9807385,16.3817555 16.1227269,16.1473677 C16.3356517,15.7957861 16.761559,15.6316688 17.1637824,15.7488627 C17.1874664,15.7488627 19.1040205,16.2645616 20.6892877,16.5926816 C21.8486476,16.8270693 22.7240885,16.4989494 23.0080652,15.7019966 C23.1736798,15.2566828 23.1499958,14.8113117 22.9606972,14.4363256 C22.7240885,13.9909545 22.2745549,13.6628345 21.6357228,13.4753128 C19.4352497,12.8424773 16.1700371,12.0221201 15.2945962,11.9283879 C14.4901495,11.8345985 13.9222538,12.0689862 13.4963465,12.6549557 C12.73921,13.6628345 9.2137624,18.8896931 8.26732733,20.3194242 Z M5.33334393,36 C4.29228845,36 3.34585338,35.3202411 3.03825043,34.2654962 L0.080640813,23.5071207 C-0.0849737722,22.8976896 0.00964662911,22.2648541 0.317249582,21.7257507 C0.624852535,21.1867047 1.14538027,20.7881997 1.76058618,20.6241397 L3.08556063,20.272558 C4.33959865,19.9444381 5.64094688,20.6710058 5.99586004,21.9132724 L8.95346965,32.6717052 C9.11908424,33.281079 9.02446383,33.9139146 8.71686088,34.4530179 C8.40925793,34.9921212 7.88873019,35.3905689 7.27358205,35.5546289 L5.94854984,35.9062106 C5.75925127,35.9765383 5.54632648,36 5.33334393,36 Z M3.70076653,22.0773324 C3.65345633,22.0773324 3.62977235,22.0773324 3.58246215,22.1007941 L2.25742993,22.4523757 C2.09181535,22.4992418 1.99719495,22.6164357 1.97351096,22.6633018 C1.94988475,22.7102251 1.87889056,22.8508235 1.92620076,23.0148835 L4.88381038,33.7733162 C4.95480456,34.007704 5.21503955,34.171764 5.4753323,34.1014362 L6.80036451,33.7498546 C6.9659791,33.7029885 7.03697328,33.5857946 7.08428348,33.5389285 C7.13159368,33.4920624 7.17890388,33.3514068 7.13159368,33.1873468 L4.17398407,22.428914 C4.10298989,22.2179879 3.91369132,22.0773324 3.70076653,22.0773324 L3.70076653,22.0773324 Z" id="Fill-6"></path>
            </g>
        </g>
    </g>
</svg>