<?xml version="1.0" encoding="UTF-8"?>
<svg width="48px" height="48px" viewBox="0 0 48 48" version="1.1" xmlns="http://www.w3.org/2000/svg" xmlns:xlink="http://www.w3.org/1999/xlink">
    <!-- Generator: Sketch 41.2 (35397) - http://www.bohemiancoding.com/sketch -->
    <title>个性商城</title>
    <desc>Created with Sketch.</desc>
    <defs></defs>
    <g id="解决方案页面" stroke="none" stroke-width="1" fill="none" fill-rule="evenodd">
        <g id="个性商城" fill="#40465B">
            <g id="层级line_01" transform="translate(6.000000, 6.000000)">
                <path d="M34.7250146,8.79260474 L20.8499854,0.779111371 C19.125,-0.25970379 16.875,-0.25970379 15.1500146,0.779111371 L1.27498535,8.79260474 C0.45,9.23779881 0,10.0539735 0,11.0185751 C0,11.9831333 0.45,12.7993514 1.27498535,13.2445455 L15.1500146,21.2580389 C16.0500146,21.777403 17.0249854,22 18,22 C18.9750146,22 20.025,21.7032329 20.8499854,21.2580389 L34.7250146,13.2445455 C35.55,12.7993514 36,11.9831333 36,11.0185751 C36,10.0539735 35.55,9.23779881 34.7250146,8.79260474 Z M33.6749854,11.4637692 L19.8,19.403049 C18.7500146,19.9966267 17.325,19.9966267 16.2,19.403049 L2.32501465,11.4637692 C2.10001465,11.3153422 2.10001465,11.1669586 2.10001465,11.0185751 C2.10001465,10.8701481 2.10001465,10.7217646 2.32501465,10.573381 L16.2,2.6340577 C16.7250146,2.26307713 17.4000146,2.1146936 18,2.1146936 C18.5999854,2.1146936 19.2749854,2.26307713 19.8,2.55988767 L33.6749854,10.573381 C33.8999854,10.7217646 33.8999854,10.8701481 33.8999854,11.0185751 C33.8999854,11.1669586 33.8250146,11.3153422 33.6749854,11.4637692 L33.6749854,11.4637692 Z" id="Fill-1"></path>
                <path d="M34.3994823,18.1545987 L20.3257796,26.3455088 C19.1846673,27.0280846 17.8153327,27.0280846 16.6742204,26.3455088 L2.60051768,18.1545987 C2.06798378,17.8512613 1.45940544,18.00293 1.15509399,18.5338371 C0.850782533,19.0646998 1.00296055,19.7472756 1.53544988,20.0506575 L15.6091972,28.2415676 C16.522087,28.7724747 17.5110212,29 18.5,29 C19.4889788,29 20.477913,28.7724747 21.3908028,28.2415676 L35.4645501,20.0506575 C35.9970395,19.7472756 36.1492175,19.0646998 35.844906,18.6096492 C35.5405946,18.0787865 34.8559272,17.9270734 34.3994823,18.1545987" id="Fill-2"></path>
                <path d="M34.3994823,25.1546307 L20.3257796,33.3455502 C19.1846673,34.0281268 17.8153327,34.0281268 16.6742204,33.3455502 L2.60051768,25.1546307 C2.06798378,24.8512485 1.45940544,25.0029174 1.15509399,25.5338251 C0.850782533,26.0647329 1.00296055,26.6714528 1.53544988,26.974835 L15.6091972,35.2415667 C16.522087,35.7724745 17.5110212,36 18.5,36 C19.4889788,36 20.477913,35.7724745 21.3908028,35.2415667 L35.4645501,27.0506472 C35.9970395,26.7473095 36.1492175,26.0647329 35.844906,25.6096818 C35.5405946,25.078774 34.8559272,24.8512485 34.3994823,25.1546307" id="Fill-3"></path>
                <rect id="Rectangle-10" transform="translate(13.698235, 8.538021) rotate(-30.000000) translate(-13.698235, -8.538021) " x="7.69583025" y="7.53802122" width="12.0048095" height="2" rx="1"></rect>
                <rect id="Rectangle-10-Copy" transform="translate(15.834475, 11.461979) rotate(-30.000000) translate(-15.834475, -11.461979) " x="11.984155" y="10.4619788" width="7.70063972" height="2" rx="1"></rect>
                <rect id="Rectangle-10-Copy-2" transform="translate(18.920837, 13.989468) rotate(-30.000000) translate(-18.920837, -13.989468) " x="16.1254952" y="12.9894678" width="5.59068367" height="2" rx="1"></rect>
            </g>
        </g>
    </g>
</svg>