<?xml version="1.0" encoding="UTF-8"?>
<svg width="48px" height="48px" viewBox="0 0 48 48" version="1.1" xmlns="http://www.w3.org/2000/svg" xmlns:xlink="http://www.w3.org/1999/xlink">
    <!-- Generator: Sketch 41.2 (35397) - http://www.bohemiancoding.com/sketch -->
    <title>B2B</title>
    <desc>Created with Sketch.</desc>
    <defs>
        <path d="M15.5564141,22.7245943 C14.5767196,22.2067915 12.983098,22.2095519 12.0086263,22.7245943 L6.89389229,25.4279103 C5.91419775,25.9457132 5.26973275,25.487801 5.4547898,24.4030811 L6.43960144,18.6305652 C6.62450163,17.5467648 6.14010795,16.0465985 5.33928254,15.2618234 L1.2013758,11.2068494 C0.408786258,10.4301451 0.660046654,9.66993522 1.74953916,9.51077836 L7.46798563,8.67540777 C8.56331743,8.51539789 9.84326893,7.58714972 10.3329752,6.5896044 L12.9008043,1.35886509 C13.3877626,0.366917587 14.1745298,0.361319772 14.6642361,1.35886509 L17.2320652,6.5896044 C17.7190235,7.58155191 19.0075623,8.51625091 20.0970548,8.67540777 L25.8155013,9.51077836 C26.9108331,9.67078824 27.16449,10.4220743 26.3636646,11.2068494 L22.2257579,15.2618234 C21.4331683,16.0385277 20.9403819,17.5458454 21.125439,18.6305652 L22.1102506,24.4030811 C22.2951508,25.4868815 21.6456198,25.9429528 20.6711481,25.4279103 L15.5564141,22.7245943 Z" id="path-1"></path>
        <mask id="mask-2" maskContentUnits="userSpaceOnUse" maskUnits="objectBoundingBox" x="-4" y="-4" width="34.0940969" height="33.0282333">
            <rect x="-3.26191495" y="-3.38719619" width="34.0940969" height="33.0282333" fill="white"></rect>
            <use xlink:href="#path-1" fill="black"></use>
        </mask>
    </defs>
    <g id="解决方案页面" stroke="none" stroke-width="1" fill="none" fill-rule="evenodd">
        <g id="B2B">
            <g id="Group-9" transform="translate(0.000000, 8.000000)">
                <path d="M38.2208582,17.4402466 C37.7308562,17.1812634 36.9294234,17.1849539 36.4464039,17.4402466 L31.4342759,20.0893318 C30.9442739,20.348315 30.622336,20.1169627 30.716494,19.5650515 L31.6737253,13.954199 C31.7673074,13.4056638 31.5242485,12.6484579 31.1253888,12.2575922 L27.070492,8.28396447 C26.6740721,7.89548965 26.8046281,7.51455084 27.3446603,7.43566106 L32.9483898,6.61704872 C33.4962287,6.5370185 34.1374446,6.07063342 34.3839535,5.56848803 L36.8900175,0.46356586 C37.1350185,-0.0355080015 37.5307358,-0.0385795278 37.7772446,0.46356586 L40.2833086,5.56848803 C40.5283096,6.06756189 41.1788401,6.53815893 41.7188723,6.61704872 L47.3226018,7.43566106 C47.8704407,7.51569127 47.9956298,7.8930988 47.5967701,8.28396447 L43.5418733,12.2575922 C43.1454533,12.646067 42.8993788,13.4022879 42.9935368,13.954199 L43.950768,19.5650515 C44.0443501,20.1135867 43.7160057,20.3446245 43.2329862,20.0893318 L38.2208582,17.4402466 Z" id="Star" stroke="#40465B" stroke-width="2" fill="#FFFFFF"></path>
                <path d="M11.6823966,17.4402466 C11.1923946,17.1812634 10.3909619,17.1849539 9.90794239,17.4402466 L4.89581432,20.0893318 C4.40581231,20.348315 4.0838745,20.1169627 4.1780325,19.5650515 L5.13526379,13.954199 C5.22884584,13.4056638 4.98578697,12.6484579 4.58692727,12.2575922 L0.532030486,8.28396447 C0.135610535,7.89548965 0.266166544,7.51455084 0.806198743,7.43566106 L6.40992828,6.61704872 C6.95776718,6.5370185 7.59898306,6.07063342 7.84549191,5.56848803 L10.3515559,0.46356586 C10.5965569,-0.0355080015 10.9922742,-0.0385795278 11.2387831,0.46356586 L13.7448471,5.56848803 C13.9898481,6.06756189 14.6403785,6.53815893 15.1804107,6.61704872 L20.7841403,7.43566106 C21.3319792,7.51569127 21.4571682,7.8930988 21.0583085,8.28396447 L17.0034117,12.2575922 C16.6069918,12.646067 16.3609172,13.4022879 16.4550752,13.954199 L17.4123065,19.5650515 C17.5058886,20.1135867 17.1775442,20.3446245 16.6945247,20.0893318 L11.6823966,17.4402466 Z" id="Star" stroke="#40465B" stroke-width="2" fill="#FFFFFF"></path>
                <g id="Group-8" transform="translate(9.230769, 4.800000)">
                    <g id="Star">
                        <use fill="#FFFFFF" fill-rule="evenodd" xlink:href="#path-1"></use>
                        <use stroke="#FFFFFF" mask="url(#mask-2)" stroke-width="8" xlink:href="#path-1"></use>
                    </g>
                    <path d="M15.5564141,22.7245943 C14.5767196,22.2067915 12.983098,22.2095519 12.0086263,22.7245943 L6.89389229,25.4279103 C5.91419775,25.9457132 5.26973275,25.487801 5.4547898,24.4030811 L6.43960144,18.6305652 C6.62450163,17.5467648 6.14010795,16.0465985 5.33928254,15.2618234 L1.2013758,11.2068494 C0.408786258,10.4301451 0.660046654,9.66993522 1.74953916,9.51077836 L7.46798563,8.67540777 C8.56331743,8.51539789 9.84326893,7.58714972 10.3329752,6.5896044 L12.9008043,1.35886509 C13.3877626,0.366917587 14.1745298,0.361319772 14.6642361,1.35886509 L17.2320652,6.5896044 C17.7190235,7.58155191 19.0075623,8.51625091 20.0970548,8.67540777 L25.8155013,9.51077836 C26.9108331,9.67078824 27.16449,10.4220743 26.3636646,11.2068494 L22.2257579,15.2618234 C21.4331683,16.0385277 20.9403819,17.5458454 21.125439,18.6305652 L22.1102506,24.4030811 C22.2951508,25.4868815 21.6456198,25.9429528 20.6711481,25.4279103 L15.5564141,22.7245943 Z" id="Star" stroke="#40465B" stroke-width="2" fill="#FFFFFF"></path>
                </g>
            </g>
        </g>
    </g>
</svg>