<?xml version="1.0" encoding="UTF-8"?>
<svg width="256px" height="256px" viewBox="0 0 256 256" version="1.1" xmlns="http://www.w3.org/2000/svg" xmlns:xlink="http://www.w3.org/1999/xlink">
    <!-- Generator: Sketch 41.2 (35397) - http://www.bohemiancoding.com/sketch -->
    <title>采购</title>
    <desc>Created with Sketch.</desc>
    <defs>
        <polygon id="path-1" points="0.000225474565 155 252.1596 155 252.1596 0.474347039 0.000225474565 0.474347039"></polygon>
    </defs>
    <g id="Page-1" stroke="none" stroke-width="1" fill="none" fill-rule="evenodd">
        <g id="采购">
            <g id="Group" transform="translate(3.000000, 15.000000)">
                <g id="Page-1">
                    <polygon id="Fill-1" fill-opacity="0.627547554" fill="#A0D148" points="192.734 157.1 204.187 157.1 204.187 149.1 192.734 149.1"></polygon>
                    <g id="Group-18" transform="translate(0.000000, 0.825000)">
                        <g id="Group-4" transform="translate(0.000000, 54.000000)">
                            <mask id="mask-2" fill="white">
                                <use xlink:href="#path-1"></use>
                            </mask>
                            <g id="Clip-3"></g>
                            <path d="M244.1596,127.1543 C244.1596,128.2583 243.2636,129.1543 242.1596,129.1543 L236.0666,129.1543 L235.0866,129.1543 L235.0866,123.2033 L237.0216,123.2033 L239.0376,123.2033 L242.1596,123.2033 C243.2636,123.2033 244.1596,124.0973 244.1596,125.2033 L244.1596,127.1543 Z M227.0866,115.2033 L227.0866,123.2033 L227.0866,128.8663 C227.0296,128.9633 226.9716,129.0573 226.9156,129.1543 L225.1696,129.1543 C222.2296,123.3253 216.2016,119.3083 209.2406,119.3083 C207.5706,119.3083 205.9566,119.5453 204.4246,119.9763 C199.5666,121.3443 195.5456,124.7223 193.3106,129.1543 L188.6566,129.1543 L188.6566,127.6143 L188.6566,112.7753 L188.6566,104.7753 L188.6566,90.2753 L188.6566,82.2753 L188.6566,69.2753 L188.6566,61.8633 L194.1706,61.8633 C198.5366,61.8633 202.4406,64.5823 203.9536,68.6773 L209.6056,83.9693 L212.4346,91.6263 L216.2656,91.6263 L228.1556,91.6263 C233.0536,91.6263 237.0216,95.5953 237.0216,100.4923 L237.0216,106.5033 L237.0216,115.2033 L235.0866,115.2033 L233.8216,115.2033 L227.0866,115.2033 Z M219.0866,137.1543 C219.0866,142.5923 214.6786,147.0003 209.2406,147.0003 C203.8036,147.0003 199.3946,142.5923 199.3946,137.1543 C199.3946,133.8543 201.0236,130.9403 203.5156,129.1543 C205.1306,127.9973 207.1026,127.3083 209.2406,127.3083 C211.3776,127.3083 213.3496,127.9973 214.9656,129.1543 C217.4576,130.9403 219.0866,133.8543 219.0866,137.1543 L219.0866,137.1543 Z M180.7306,57.0253 L180.6566,57.0253 L180.6566,61.2753 L177.7736,61.2753 L144.7586,61.2753 C142.5496,61.2753 140.7586,63.0663 140.7586,65.2753 C140.7586,67.4843 142.5496,69.2753 144.7586,69.2753 L178.6056,69.2753 L180.6566,69.2753 L180.6566,82.2753 L177.3516,82.2753 L160.2336,82.2753 C158.0246,82.2753 156.2336,84.0663 156.2336,86.2753 C156.2336,88.4843 158.0246,90.2753 160.2336,90.2753 L174.8616,90.2753 L180.6566,90.2753 L180.6566,96.9803 L180.6566,104.7753 L176.1426,104.7753 L168.4456,104.7753 C166.2356,104.7753 164.4456,106.5663 164.4456,108.7753 C164.4456,110.9843 166.2356,112.7753 168.4456,112.7753 L169.6156,112.7753 L180.6566,112.7753 L180.6566,129.1543 L142.0266,129.1543 L134.8186,129.1543 C133.6356,126.8063 131.9436,124.7613 129.8996,123.1453 C126.8666,120.7493 123.0486,119.3083 118.8886,119.3083 C116.9936,119.3083 115.1716,119.6153 113.4576,120.1673 C110.7576,113.5063 105.3106,108.2653 98.4656,105.8663 C97.7176,102.0983 95.9986,98.6823 93.5976,95.8643 L93.5976,68.6433 C104.9466,66.4503 114.3286,58.6663 118.7396,48.2753 L173.5906,48.2753 L178.7306,48.2753 C179.8356,48.2753 180.7306,49.1713 180.7306,50.2753 L180.7306,57.0253 Z M128.7356,137.1543 C128.7356,142.5923 124.3276,147.0003 118.8886,147.0003 C115.8216,147.0003 113.0826,145.5953 111.2766,143.3953 C112.5166,141.4763 113.5086,139.3823 114.1956,137.1543 C114.8646,134.9853 115.2346,132.6903 115.2906,130.3183 C115.2956,130.1173 115.3126,129.9193 115.3126,129.7173 C115.3126,129.5273 115.2956,129.3423 115.2916,129.1543 C115.2826,128.7723 115.2706,128.3923 115.2466,128.0153 C116.3736,127.5623 117.5996,127.3083 118.8886,127.3083 C121.0276,127.3083 123.0006,127.9973 124.6136,129.1543 C125.4396,129.7463 126.1586,130.4703 126.7666,131.2823 C127.9946,132.9223 128.7356,134.9473 128.7356,137.1543 L128.7356,137.1543 Z M105.6126,137.1543 C104.6766,139.1143 103.3856,140.8663 101.8156,142.3333 C98.7266,145.2193 94.5916,147.0003 90.0296,147.0003 L89.5066,147.0003 L73.6856,147.0003 L37.9976,147.0003 L30.6786,147.0003 C29.5956,147.0003 28.5316,146.9193 27.4886,146.7723 C16.4746,145.2213 8.0006,135.7633 8.0006,124.3223 C8.0006,121.1633 8.6466,118.1573 9.8136,115.4253 C11.1106,112.3863 13.0516,109.6893 15.4656,107.5053 C19.4886,103.8623 24.8236,101.6433 30.6786,101.6433 C31.6686,101.6433 32.6416,101.7143 33.5986,101.8373 C34.4806,99.7553 35.6506,97.8263 37.0476,96.0873 C38.9206,93.7533 41.2086,91.7673 43.8066,90.2513 C47.4186,88.1413 51.6166,86.9293 56.0996,86.9293 C60.7796,86.9293 65.1466,88.2543 68.8596,90.5373 C71.2856,92.0283 73.4346,93.9253 75.2026,96.1413 C75.7136,96.0863 76.2306,96.0543 76.7566,96.0543 C77.9796,96.0543 79.1646,96.2153 80.2966,96.5083 C82.2616,97.0173 84.0606,97.9363 85.5976,99.1713 C88.7066,101.6693 90.7216,105.4553 90.8616,109.7193 C90.8676,109.8773 90.8886,110.0293 90.8886,110.1883 C90.8886,110.9593 90.8256,111.7143 90.7066,112.4513 C91.6956,112.4893 92.6576,112.6273 93.5976,112.8243 C94.1586,112.9423 94.7076,113.0963 95.2466,113.2673 C97.9616,114.1273 100.3876,115.6293 102.3356,117.6073 C104.1936,119.4933 105.6236,121.8033 106.4616,124.3843 C106.8636,125.6273 107.1166,126.9313 107.2266,128.2793 C107.2506,128.5693 107.2756,128.8593 107.2856,129.1543 C107.2916,129.3423 107.3126,129.5273 107.3126,129.7173 C107.3126,132.3833 106.6916,134.8993 105.6126,137.1543 L105.6126,137.1543 Z M75.0046,58.3613 C72.4296,57.0373 70.1006,55.3043 68.1046,53.2453 C63.4966,48.4933 60.6566,42.0173 60.6566,34.8753 C60.6566,20.2953 72.4766,8.4743 87.0566,8.4743 C93.4036,8.4743 99.2266,10.7163 103.7796,14.4483 C106.0006,16.2673 107.9156,18.4453 109.4446,20.8883 C111.9846,24.9443 113.4576,29.7363 113.4576,34.8753 C113.4576,36.7253 113.2646,38.5323 112.9026,40.2753 C112.3066,43.1403 111.2436,45.8333 109.8016,48.2753 C106.2786,54.2413 100.4806,58.7033 93.5976,60.4573 C91.5066,60.9903 89.3146,61.2753 87.0566,61.2753 C86.5666,61.2753 86.0806,61.2593 85.5976,61.2333 C81.7956,61.0263 78.2106,60.0093 75.0046,58.3613 L75.0046,58.3613 Z M248.1596,115.2033 L245.0216,115.2033 L245.0216,107.7723 L245.0216,100.4923 C245.0216,96.3773 243.5446,92.6093 241.0956,89.6813 C238.0016,85.9823 233.3546,83.6263 228.1556,83.6263 L218.0076,83.6263 L217.8146,83.1043 L211.4586,65.9063 C211.1366,65.0333 210.7476,64.1973 210.3056,63.3973 C207.0996,57.6023 200.9196,53.8633 194.1706,53.8633 L188.7306,53.8633 L188.7306,44.2753 C188.7306,42.0663 186.9396,40.2753 184.7306,40.2753 L178.3906,40.2753 L168.8756,40.2753 L121.0296,40.2753 C121.3086,38.5153 121.4576,36.7123 121.4576,34.8753 C121.4576,29.1043 120.0216,23.6673 117.5006,18.8863 C116.1306,16.2883 114.4376,13.8873 112.4756,11.7343 C105.6646,4.2583 95.6176,-0.2187 84.5666,0.5623 C81.8846,0.7533 79.2826,1.2593 76.7976,2.0423 C65.1916,5.6913 56.1506,15.3883 53.4726,27.3873 C53.1376,28.8993 52.8996,30.4473 52.7716,32.0243 C51.7796,44.2743 57.2536,55.3303 66.1386,62.1553 C68.4466,63.9293 70.9826,65.4213 73.6996,66.5703 C77.3846,68.1283 81.3936,69.0613 85.5976,69.2383 L85.5976,89.9013 C83.4636,88.9683 81.1566,88.3583 78.7366,88.1423 C77.7576,87.1833 76.7196,86.3003 75.6386,85.4823 C72.8166,83.3423 69.6776,81.6913 66.3316,80.5823 C63.0776,79.5033 59.6336,78.9293 56.0996,78.9293 C51.2186,78.9293 46.5216,80.0173 42.2886,82.0073 C39.6216,83.2603 37.1466,84.8833 34.9176,86.8083 C32.6186,88.7923 30.5806,91.0963 28.8966,93.6943 C23.0186,94.0323 17.5846,96.0393 13.0486,99.2363 C10.5556,100.9933 8.3336,103.1063 6.4636,105.5083 C2.3856,110.7453 -0.0344,117.3323 0.0006,124.4743 C0.0836,141.4673 14.3476,155.0003 31.3416,155.0003 L34.4306,155.0003 L45.6216,155.0003 L87.7866,155.0003 L90.0296,155.0003 C94.4426,155.0003 98.5876,153.8533 102.2016,151.8573 C103.5126,151.1333 104.7586,150.3043 105.9146,149.3683 C108.3056,151.9073 111.4276,153.7433 114.9386,154.5463 C116.2116,154.8363 117.5296,155.0003 118.8886,155.0003 C118.9596,155.0003 119.0276,154.9903 119.0976,154.9893 C128.8416,154.8763 136.7346,146.9243 136.7346,137.1543 L178.3886,137.1543 L190.4806,137.1543 L191.3946,137.1543 C191.3946,146.1433 198.0826,153.5823 206.7406,154.8033 C207.5586,154.9203 208.3886,155.0003 209.2406,155.0003 C219.0806,155.0003 227.0866,146.9943 227.0866,137.1543 L231.4116,137.1543 L245.0216,137.1543 L248.1596,137.1543 C250.3686,137.1543 252.1596,135.3633 252.1596,133.1543 L252.1596,119.2033 C252.1596,116.9933 250.3686,115.2033 248.1596,115.2033 L248.1596,115.2033 Z" id="Fill-2" fill="#A0D148" mask="url(#mask-2)"></path>
                        </g>
                        <path d="M73.3666,165.75 L64.6896,165.75 L69.9436,160.496 C71.5066,158.935 71.5066,156.401 69.9436,154.84 C68.3816,153.277 65.8486,153.277 64.2866,154.84 L57.3666,161.76 L50.4456,154.84 C49.4156,153.809 47.9656,153.473 46.6466,153.803 C45.9676,153.973 45.3206,154.309 44.7896,154.84 C43.2266,156.401 43.2266,158.935 44.7896,160.496 L50.0436,165.75 L43.1166,165.75 L41.3666,165.75 C39.1576,165.75 37.3666,167.541 37.3666,169.75 C37.3666,171.959 39.1576,173.75 41.3666,173.75 L47.5956,173.75 L53.3666,173.75 L53.3666,177.917 L50.3626,177.917 L46.3666,177.917 C44.1576,177.917 42.3666,179.707 42.3666,181.917 C42.3666,184.126 44.1576,185.917 46.3666,185.917 L53.3666,185.917 L53.3666,194 C53.3666,196.209 55.1576,198 57.3666,198 C59.5756,198 61.3666,196.209 61.3666,194 L61.3666,190.849 L61.3666,185.917 L67.7386,185.917 L68.3666,185.917 C70.5756,185.917 72.3666,184.126 72.3666,181.917 C72.3666,179.707 70.5756,177.917 68.3666,177.917 L61.3666,177.917 L61.3666,173.75 L73.3666,173.75 C75.5756,173.75 77.3666,171.959 77.3666,169.75 C77.3666,167.541 75.5756,165.75 73.3666,165.75" id="Fill-5" fill="#B8B6F2" opacity="0.492980072"></path>
                        <path d="M97.4066,85.7754 L90.8386,85.7754 L90.6566,85.7754 L90.6566,75.6614 L90.6566,75.0254 C90.6566,72.8164 88.8656,71.0254 86.6566,71.0254 C84.4476,71.0254 82.6566,72.8164 82.6566,75.0254 L82.6566,82.5844 L82.6566,85.7754 L82.6566,89.7754 L82.6566,93.7754 L83.6416,93.7754 L97.4066,93.7754 C99.6156,93.7754 101.4066,91.9844 101.4066,89.7754 C101.4066,87.5664 99.6156,85.7754 97.4066,85.7754 Z" id="Fill-7" fill="#5E5AE3" opacity="0.441972373"></path>
                        <path d="M73.5189,124.7373 C73.5189,123.3333 73.5899,121.9463 73.6999,120.5703 C70.9829,119.4213 68.4469,117.9293 66.1379,116.1553 C65.7389,118.9613 65.5189,121.8233 65.5189,124.7373 C65.5189,128.0903 65.8049,131.3763 66.3319,134.5823 C69.6769,135.6913 72.8169,137.3423 75.6389,139.4823 C74.2679,134.8003 73.5189,129.8563 73.5189,124.7373" id="Fill-9" fill="#A0D148"></path>
                        <g id="Group-13" transform="translate(1.000000, 0.000000)" fill-opacity="0.2" fill="#A0D148">
                            <path d="M12.0482,153.2363 C9.7462,144.1123 8.5182,134.5663 8.5182,124.7373 C8.5182,60.4653 60.8082,8.1743 125.0802,8.1743 C189.3532,8.1743 241.6432,60.4653 241.6432,124.7373 C241.6432,131.1873 241.1082,137.5133 240.0952,143.6813 C242.5442,146.6093 244.0222,150.3773 244.0222,154.4923 L244.0222,161.7723 C247.6742,150.0683 249.6432,137.6293 249.6432,124.7373 C249.6432,56.0533 193.7642,0.1743 125.0802,0.1743 C56.3972,0.1743 0.5182,56.0533 0.5182,124.7373 C0.5182,136.8013 2.2482,148.4673 5.4632,159.5083 C7.3332,157.1063 9.5562,154.9933 12.0482,153.2363" id="Fill-11"></path>
                        </g>
                        <path d="M41.518,124.7373 C41.518,108.8883 45.888,94.0653 53.473,81.3873 C56.151,69.3883 65.192,59.6913 76.797,56.0423 C90.676,46.0673 107.686,40.1743 126.081,40.1743 C170.308,40.1743 206.582,74.1343 210.305,117.3973 C210.747,118.1973 211.136,119.0333 211.458,119.9063 L217.815,137.1043 C218.358,133.0573 218.643,128.9303 218.643,124.7373 C218.643,73.6983 177.12,32.1743 126.081,32.1743 C75.041,32.1743 33.518,73.6983 33.518,124.7373 C33.518,130.2173 34,135.5873 34.917,140.8083 C37.147,138.8833 39.622,137.2603 42.289,136.0073 C41.797,132.3183 41.518,128.5613 41.518,124.7373" id="Fill-14" fill="#A0D148" opacity="0.5"></path>
                        <path d="M126.0805,72.1748 C143.7145,72.1748 159.3365,80.9118 168.8755,94.2758 L178.3915,94.2758 C167.8785,76.2908 148.3735,64.1748 126.0805,64.1748 C121.4025,64.1748 116.8525,64.7258 112.4765,65.7348 C114.4375,67.8878 116.1305,70.2878 117.5005,72.8868 C120.2945,72.4258 123.1585,72.1748 126.0805,72.1748" id="Fill-16" fill="#A0D148" opacity="0.8"></path>
                    </g>
                </g>
            </g>
        </g>
    </g>
</svg>