<svg width="253" height="209" viewBox="0 0 253 209" xmlns="http://www.w3.org/2000/svg" xmlns:xlink="http://www.w3.org/1999/xlink"><title>Group</title><defs><path id="a" d="M0 155h252.16V.474H0z"/></defs><g fill="none" fill-rule="evenodd"><path fill-opacity=".628" fill="#A0D148" d="M192.734 156.1h11.453v-8h-11.453z"/><g transform="translate(0 53.825)"><mask id="b" fill="#fff"><use xlink:href="#a"/></mask><path d="M244.16 127.154a2 2 0 0 1-2 2h-7.073v-5.95h7.073a2 2 0 0 1 2 2v1.95zm-17.073-11.95V128.865c-.057.097-.115.191-.171.288h-1.746c-2.94-5.829-8.968-9.846-15.93-9.846-1.67 0-3.283.237-4.815.668-4.858 1.368-8.88 4.746-11.114 9.178h-4.654V61.863h5.514c4.366 0 8.27 2.72 9.783 6.814l5.652 15.292 2.829 7.657h15.72a8.865 8.865 0 0 1 8.867 8.866V115.203h-9.935zm-8 21.95c0 5.438-4.408 9.846-9.846 9.846-5.437 0-9.846-4.408-9.846-9.846 0-3.3 1.629-6.214 4.12-8a9.798 9.798 0 0 1 11.45 0c2.493 1.786 4.122 4.7 4.122 8zM180.73 57.025h-.074v4.25h-35.898a4 4 0 0 0 0 8h35.897v13H160.235a4 4 0 0 0 0 8H180.657v14.5h-12.211a4 4 0 1 0 0 8H180.656v16.38H134.82a18.002 18.002 0 0 0-4.92-6.01 17.699 17.699 0 0 0-11.01-3.837c-1.895 0-3.717.307-5.431.86a25.184 25.184 0 0 0-14.992-14.302c-.748-3.768-2.467-7.184-4.868-10.002v-27.22c11.349-2.194 20.73-9.978 25.142-20.369h59.99a2 2 0 0 1 2 2v6.75zm-51.995 80.13c0 5.437-4.408 9.845-9.847 9.845a9.825 9.825 0 0 1-7.612-3.605 25.162 25.162 0 0 0 2.919-6.24 25.182 25.182 0 0 0 1.095-6.837c.005-.2.022-.399.022-.6 0-.19-.017-.376-.021-.564a28.524 28.524 0 0 0-.045-1.139 9.786 9.786 0 0 1 11.52 3.267 9.759 9.759 0 0 1 1.969 5.872zm-23.123 0a17.273 17.273 0 0 1-3.797 5.178C98.726 145.22 94.592 147 90.03 147H30.678c-1.082 0-2.146-.08-3.19-.228-11.013-1.55-19.487-11.009-19.487-22.45 0-3.159.646-6.165 1.813-8.897a22.71 22.71 0 0 1 5.652-7.92 22.587 22.587 0 0 1 18.133-5.668 24.362 24.362 0 0 1 3.449-5.75 24.525 24.525 0 0 1 6.759-5.836A24.29 24.29 0 0 1 56.1 86.93a24.28 24.28 0 0 1 12.76 3.608 24.576 24.576 0 0 1 6.343 5.604 14.105 14.105 0 0 1 5.094.367 14.108 14.108 0 0 1 5.3 2.663 14.089 14.089 0 0 1 5.265 10.548c.006.158.027.31.027.47 0 .77-.063 1.525-.182 2.262a17.304 17.304 0 0 1 4.54.816 17.262 17.262 0 0 1 7.089 4.34 17.254 17.254 0 0 1 4.126 6.777c.402 1.243.655 2.547.765 3.895.024.29.049.58.059.875.006.188.027.373.027.563 0 2.666-.621 5.182-1.7 7.437zM75.005 58.36a26.472 26.472 0 0 1-6.9-5.116c-4.608-4.752-7.448-11.228-7.448-18.37 0-14.58 11.82-26.4 26.4-26.4a26.29 26.29 0 0 1 16.723 5.973 26.494 26.494 0 0 1 5.665 6.44 26.264 26.264 0 0 1 4.013 13.987c0 1.85-.193 3.657-.555 5.4a26.233 26.233 0 0 1-3.101 8c-3.523 5.966-9.321 10.428-16.204 12.182a26.454 26.454 0 0 1-8 .776 26.245 26.245 0 0 1-10.593-2.872zm173.155 56.842h-3.138v-14.71c0-4.116-1.477-7.884-3.926-10.812-3.094-3.699-7.741-6.055-12.94-6.055h-10.148l-.193-.522-6.356-17.198a18.242 18.242 0 0 0-1.153-2.509c-3.206-5.795-9.386-9.534-16.135-9.534h-5.44v-9.588a4 4 0 0 0-4-4H121.03c.279-1.76.428-3.563.428-5.4a34.177 34.177 0 0 0-3.957-15.989 34.544 34.544 0 0 0-5.025-7.152C105.665 4.258 95.618-.219 84.566.562a33.828 33.828 0 0 0-7.768 1.48C65.192 5.692 56.15 15.388 53.473 27.387a34.234 34.234 0 0 0-.701 4.637c-.992 12.25 4.482 23.306 13.367 30.131a34.395 34.395 0 0 0 7.56 4.415 34.189 34.189 0 0 0 11.899 2.668v20.663a21.984 21.984 0 0 0-6.861-1.759 32.08 32.08 0 0 0-3.098-2.66 32.106 32.106 0 0 0-9.307-4.9A32.47 32.47 0 0 0 56.1 78.93a32.422 32.422 0 0 0-13.811 3.078 32.307 32.307 0 0 0-7.371 4.801 32.325 32.325 0 0 0-6.021 6.886 30.49 30.49 0 0 0-15.848 5.542 30.91 30.91 0 0 0-6.585 6.272A30.525 30.525 0 0 0 0 124.474C.084 141.467 14.348 155 31.34 155H90.03c4.413 0 8.558-1.147 12.172-3.143a25.432 25.432 0 0 0 3.713-2.489A17.874 17.874 0 0 0 118.889 155c.07 0 .139-.01.209-.01 9.744-.114 17.637-8.066 17.637-17.836H191.395c0 8.99 6.688 16.428 15.346 17.65.818.116 1.648.196 2.5.196 9.84 0 17.846-8.006 17.846-17.846h21.073a4 4 0 0 0 4-4v-13.95a4 4 0 0 0-4-4z" fill="#A0D148" mask="url(#b)"/></g><path d="M73.367 165.575H64.69l5.254-5.254a3.997 3.997 0 0 0 0-5.656 3.999 3.999 0 0 0-5.657 0l-6.92 6.92-6.921-6.92a3.981 3.981 0 0 0-3.8-1.037 3.965 3.965 0 0 0-1.856 1.037 3.997 3.997 0 0 0 0 5.656l5.254 5.254h-8.677a4 4 0 0 0 0 8H53.366v4.167H46.368a4 4 0 1 0 0 8h7v8.083a4 4 0 0 0 8 0v-8.083h7a4 4 0 0 0 0-8h-7v-4.167h12a4 4 0 0 0 0-8" fill="#CFE8A3" opacity=".493"/><path d="M97.407 85.6h-6.75V74.85a4 4 0 0 0-8 0V93.6h14.75a4 4 0 0 0 0-8z" fill="#B0D967" opacity=".442"/><path d="M73.519 124.562c0-1.404.07-2.79.18-4.167a34.425 34.425 0 0 1-7.561-4.415 60.896 60.896 0 0 0-.62 8.582c0 3.353.287 6.64.814 9.845a32.119 32.119 0 0 1 9.307 4.9 52.378 52.378 0 0 1-2.12-14.745" fill="#A0D148"/><path d="M13.048 153.061a116.357 116.357 0 0 1-3.53-28.499C9.518 60.29 61.808 8 126.08 8c64.273 0 116.563 52.291 116.563 116.563 0 6.45-.535 12.776-1.548 18.944a16.793 16.793 0 0 1 3.927 10.811v7.28c3.652-11.704 5.621-24.143 5.621-37.035C250.643 55.878 194.764 0 126.08 0 57.397 0 1.518 55.88 1.518 124.562c0 12.064 1.73 23.73 4.945 34.771a30.933 30.933 0 0 1 6.585-6.272" fill-opacity=".2" fill="#A0D148"/><path d="M41.518 124.562c0-15.849 4.37-30.672 11.955-43.35 2.678-11.999 11.719-21.696 23.324-25.345C90.676 45.892 107.686 40 126.081 40c44.227 0 80.501 33.96 84.224 77.223.442.8.831 1.636 1.153 2.51l6.357 17.197c.543-4.047.828-8.174.828-12.367C218.643 73.523 177.12 32 126.081 32c-51.04 0-92.563 41.524-92.563 92.563 0 5.48.482 10.85 1.399 16.071a32.335 32.335 0 0 1 7.372-4.8 85.15 85.15 0 0 1-.771-11.27" fill="#A0D148" opacity=".5"/><path d="M126.08 72c17.634 0 33.257 8.737 42.795 22.1h9.517C167.879 76.117 148.374 64 126.08 64c-4.678 0-9.228.55-13.605 1.56a34.55 34.55 0 0 1 5.025 7.152 52.654 52.654 0 0 1 8.58-.712" fill="#A0D148" opacity=".8"/></g></svg>