<svg width="255" height="246" viewBox="0 0 255 246" xmlns="http://www.w3.org/2000/svg"><title>Group</title><g fill="none" fill-rule="evenodd"><path d="M154.932 91.317h-49.62a4 4 0 0 1 0-8h49.62a4 4 0 0 1 0 8M153.932 122.234h-49.62a4 4 0 0 1 0-8h49.62a4 4 0 0 1 0 8" fill="#44B1D3"/><path d="M42.55 95.5c-2.783 0-5.476-.388-8.034-1.097a29.874 29.874 0 0 1-8.148-3.648l-.143-.092a30.547 30.547 0 0 1-1.981-1.404l-.163-.128c-.293-.23-.584-.463-.87-.703l-.095-.084a30.102 30.102 0 0 1-3.398-3.396l-.167-.193a28.119 28.119 0 0 1-.576-.715c-.093-.118-.187-.234-.278-.353-.17-.223-.335-.451-.5-.678a25.842 25.842 0 0 1-.751-1.093 31.08 31.08 0 0 1-.712-1.14c-.106-.178-.208-.359-.311-.539-.12-.213-.24-.425-.355-.641-.106-.198-.206-.399-.308-.599-.104-.206-.21-.411-.31-.619-.111-.237-.217-.478-.323-.718-.08-.179-.163-.354-.24-.534a30.938 30.938 0 0 1-.492-1.251c-.06-.16-.112-.324-.168-.486-.097-.279-.195-.557-.284-.839-.058-.184-.11-.37-.164-.554-.078-.266-.156-.531-.227-.799-.051-.193-.098-.388-.145-.582a34.63 34.63 0 0 1-.185-.802 29.415 29.415 0 0 1-.12-.591 28.053 28.053 0 0 1-.146-.819c-.032-.198-.064-.396-.092-.595a26.721 26.721 0 0 1-.108-.851c-.023-.193-.046-.385-.064-.579-.03-.306-.051-.613-.071-.921-.011-.176-.026-.351-.034-.528a31.612 31.612 0 0 1-.028-1.113c-.001-.118-.008-.235-.007-.355 0-.495.013-.987.037-1.476.004-.087.014-.175.019-.262.024-.42.053-.839.095-1.254.005-.054.013-.109.019-.163.047-.443.1-.883.167-1.319l.026-.162a30.778 30.778 0 0 1 .559-2.732l.039-.153c.112-.431.233-.857.363-1.279l.035-.115c.286-.919.617-1.819.987-2.698.037-.087.078-.172.115-.258.14-.32.282-.639.432-.954.099-.208.205-.413.309-.619a25.7 25.7 0 0 1 .28-.549 31.117 31.117 0 0 1 .629-1.123c.16-.271.323-.541.492-.807.053-.085.108-.17.162-.254.192-.298.387-.593.589-.884l.056-.077a30.329 30.329 0 0 1 3.983-4.615l.117-.112a31.657 31.657 0 0 1 2.744-2.282c.187-.137.377-.27.566-.402.166-.117.33-.235.498-.348a29.827 29.827 0 0 1 15.465-5.034c.144-.005.29-.007.435-.01 12.049-.306 22.537 6.488 27.582 16.503.688 1.367 2.06 2.251 3.59 2.251 3.007 0 4.902-3.174 3.546-5.857-5.998-11.868-18.04-20.18-32.051-20.868C48.679 16.135 59.66 8 72.55 8c15.727 0 28.618 12.104 29.888 27.502l.112-.002c3.648 0 7.144.652 10.378 1.845.085 0 .167-.006.252-.006h.017l14.91.065c-5.191-4.726-11.69-8.038-18.883-9.318C104.812 11.889 89.842 0 72.55 0S40.29 11.889 35.877 28.086l-.06.012a37.602 37.602 0 0 0-15.026 6.266l-.085.059c-.394.278-.782.565-1.165.858-.057.043-.115.085-.171.129-.352.272-.698.552-1.04.836-.082.068-.166.135-.248.204-.314.266-.622.538-.927.814-.103.091-.206.181-.307.275-.282.259-.56.526-.833.794-.116.114-.235.226-.35.341-.256.257-.506.521-.756.785-.123.131-.248.261-.37.393a34.85 34.85 0 0 0-.698.79c-.125.144-.252.286-.374.431-.227.269-.445.544-.664.819-.116.146-.235.291-.35.439a36.96 36.96 0 0 0-.652.879c-.102.14-.207.277-.306.418-.227.321-.445.647-.662.976-.08.119-.16.236-.238.356-.237.368-.466.742-.691 1.118-.05.084-.103.166-.152.25-.253.431-.497.868-.733 1.31l-.051.092a37.514 37.514 0 0 0-4.262 14.296c-.023.257-.032.512-.05.768-.024.338-.052.674-.067 1.014-.01.232-.01.462-.016.692-.008.333-.022.665-.022 1l.002.089c0 .532.018 1.059.04 1.585.005.098.004.198.009.295.032.624.079 1.243.14 1.858.02.186.048.369.069.554.05.428.1.854.163 1.277.035.237.08.47.12.704.062.368.124.736.197 1.099.05.255.11.506.165.758.075.339.15.677.235 1.013.066.262.137.521.209.782.088.32.176.64.272.957.08.265.165.527.25.79a37.573 37.573 0 0 0 .945 2.577 34.453 34.453 0 0 0 .709 1.622c.125.266.249.531.378.793.13.264.266.523.402.783.139.267.278.533.423.796.135.245.277.485.418.727.157.269.312.541.476.806.135.219.277.433.417.65.18.279.357.561.544.835.109.159.225.314.335.471a38.22 38.22 0 0 0 2.609 3.305c.077.086.15.176.227.262.279.31.567.611.856.911.113.118.223.238.337.353.283.287.574.567.866.845.127.121.25.243.38.362.294.272.594.537.896.8.133.116.265.233.399.346.308.261.62.515.937.765.135.107.269.214.406.319a37.5 37.5 0 0 0 2.426 1.726c.124.081.249.16.374.24.367.234.738.464 1.113.686l.329.189c.398.23.799.455 1.206.67.076.041.154.079.23.119.445.231.892.457 1.346.671l.019.008A37.76 37.76 0 0 0 42.55 103.5h35.13v-8H42.55z" fill="#44B1D3" opacity=".269"/><path d="M219 237.915h-7.53c-13.803 0-25.262-10.227-27.205-23.5h61.945c-1.943 13.274-13.405 23.5-27.21 23.5zm-7.53-192.147c13.82.007 25.29 10.261 27.206 23.56l-54.42-.557c1.899-13.173 13.168-22.997 27.215-23.003zm-27.5 160.647V76.77l62.987.644v-4.145c0-19.566-15.91-35.485-35.473-35.5h-.027c-.111.001-55.897-.244-83.35-.364l-14.91-.065h-.016c-.085 0-.167.006-.252.006-19.46.136-35.248 16.003-35.248 35.494v70.904c2.699.041 5.378.324 8 .863V72.84c0-15.163 12.335-27.5 27.497-27.5l11.633.05 9.988.044 53.953.236c-7.853 6.362-12.781 16.04-12.781 27.058v137.687c0 11.078 5.103 20.984 13.079 27.5h-41.924c-5.971 5.166-13.525 8-21.42 8H219c19.575 0 35.5-15.925 35.5-35.5v-4h-70.53z" fill="#44B1D3"/><path d="M119.444 159.875c2.883-7.07 9.815-12.058 17.922-12.058 10.69 0 19.357 8.666 19.357 19.357 0 8.58-5.59 15.846-13.32 18.384a32.745 32.745 0 0 1 5.659 4.566c.385.392.757.797 1.122 1.208 8.64-4.603 14.538-13.704 14.538-24.158 0-15.084-12.272-27.357-27.356-27.357-11.606 0-21.54 7.269-25.508 17.49a28.35 28.35 0 0 1 1.888.413 28.09 28.09 0 0 1 5.698 2.155" fill="#44B1D3"/><path d="M148.065 223.788a24.818 24.818 0 0 1-5.448 7.431c-4.429 4.14-10.36 6.693-16.902 6.696H40.541c-1.554 0-3.08-.116-4.576-.326C20.16 235.363 8 221.792 8 205.374c0-4.53.928-8.846 2.602-12.766a32.622 32.622 0 0 1 8.11-11.365 32.419 32.419 0 0 1 26.02-8.133 35.042 35.042 0 0 1 4.947-8.25 35.216 35.216 0 0 1 9.7-8.375 34.872 34.872 0 0 1 17.64-4.765c.223 0 .44.018.661.023 2.76.051 5.435.426 8 1.082a34.905 34.905 0 0 1 9.648 4.071 35.254 35.254 0 0 1 9.101 8.042c.733-.08 1.475-.124 2.23-.124 1.173 0 2.318.111 3.435.304.555.096 1.105.206 1.644.346a20.204 20.204 0 0 1 6.331 2.901c.433.296.867.592 1.275.92a20.214 20.214 0 0 1 7.494 14.12c.028.336.05.674.061 1.016.008.225.04.445.04.673 0 1.106-.092 2.19-.263 3.247a24.715 24.715 0 0 1 6.515 1.171 24.785 24.785 0 0 1 8.478 4.676 25.129 25.129 0 0 1 1.693 1.551 24.75 24.75 0 0 1 5.921 9.726 24.56 24.56 0 0 1 1.098 5.588c.034.417.07.833.084 1.255.01.27.04.535.04.808 0 3.826-.892 7.436-2.44 10.672m10.4-11.683l-.004-.056a34.493 34.493 0 0 0-.107-1.645 32.574 32.574 0 0 0-1.462-7.409 32.905 32.905 0 0 0-6.709-11.663 32.002 32.002 0 0 0-1.122-1.208 32.66 32.66 0 0 0-5.659-4.566 32.824 32.824 0 0 0-8.706-3.95 28.23 28.23 0 0 0-10.34-18.559 28.233 28.233 0 0 0-10.61-5.329 28.517 28.517 0 0 0-1.889-.413 28.037 28.037 0 0 0-3.904-.462 43.245 43.245 0 0 0-8.435-6.764 42.943 42.943 0 0 0-13.838-5.475 42.958 42.958 0 0 0-8-.863c-.22-.004-.44-.023-.66-.023a43.017 43.017 0 0 0-21.674 5.856 43.038 43.038 0 0 0-11.906 10.276 43.568 43.568 0 0 0-3.462 4.985 40.462 40.462 0 0 0-26.638 10.476 40.9 40.9 0 0 0-10.095 14.154A40.266 40.266 0 0 0 0 205.374c0 20.084 14.981 37.34 34.852 40.137 1.91.268 3.823.404 5.69.404h85.164c7.895 0 15.448-2.834 21.42-8 .322-.279.643-.56.956-.853a32.727 32.727 0 0 0 7.2-9.822c2.138-4.47 3.222-9.223 3.222-14.124 0-.34-.016-.676-.039-1.01" fill="#44B1D3"/><path d="M92.68 189.69h-8.676l5.254-5.254a4 4 0 1 0-5.657-5.656l-6.92 6.92-6.92-6.92a3.984 3.984 0 0 0-3.8-1.036 3.965 3.965 0 0 0-1.858 1.036 4 4 0 0 0 0 5.656l5.255 5.254H60.68a4 4 0 0 0 0 8h12v8.167h-7a4 4 0 0 0 0 8h7v11.083a4 4 0 0 0 8 0v-11.083h7a4 4 0 0 0 0-8h-7v-8.167h12a4 4 0 0 0 0-8" fill="#CCEAF3"/><path d="M196.601 181.99a4 4 0 0 0-4 4v10.03a4 4 0 0 0 8 0v-10.03a4 4 0 0 0-4-4" fill="#44B1D3" opacity=".692"/><path d="M194.14 214.339h37.61a4 4 0 0 0 0-8H229.6v-17.35a3.993 3.993 0 0 0-1.171-2.828 3.996 3.996 0 0 0-2.828-1.172h-12.907a4 4 0 1 0 0 8h8.906v13.35h-27.46a4 4 0 0 0 0 8" fill="#44B1D3" opacity=".387"/><path d="M242.636 197.936a4 4 0 1 0 0-8 4 4 0 0 0 0 8M196.601 174.339a4 4 0 1 0 0-8 4 4 0 0 0 0 8M242.636 158.147a4 4 0 1 0 0-8 4 4 0 0 0 0 8M219.268 173.798a4 4 0 1 0 0-8 4 4 0 0 0 0 8" fill="#44B1D3"/><path d="M196.601 137.817a4 4 0 1 0 0-8 4 4 0 0 0 0 8" fill="#44B1D3" opacity=".341"/><path d="M219.268 153.607a4 4 0 1 0 0-8 4 4 0 0 0 0 8" fill="#44B1D3" opacity=".377"/><path d="M242.636 167.525a4 4 0 0 0-4 4v5.031a4 4 0 0 0 8 0v-5.03a4 4 0 0 0-4-4" fill="#44B1D3" opacity=".419"/><path d="M196.601 145.32a4 4 0 0 0-4 4v5.031a4 4 0 0 0 8 0v-5.03a4 4 0 0 0-4-4" fill="#44B1D3" opacity=".559"/><path d="M242.637 124.805a4 4 0 0 0-4 4v10.03a4 4 0 0 0 8 0v-10.03a4 4 0 0 0-4-4" fill="#44B1D3" opacity=".194"/><path d="M219.268 133.927a4 4 0 1 0 0-8 4 4 0 0 0 0 8M219.268 93.406a4 4 0 1 0 0-8 4 4 0 0 0 0 8" fill="#44B1D3"/><path d="M219.268 102.91a4 4 0 0 0-4 4v5.03a4 4 0 1 0 8 0v-5.03a4 4 0 0 0-4-4" fill="#44B1D3" opacity=".29"/><path d="M196.601 85.894a4 4 0 0 0-4 4v26.03a4 4 0 1 0 8 0v-26.03a4 4 0 0 0-4-4" fill="#44B1D3" opacity=".763"/><path d="M242.21 112.91a4 4 0 1 0 0-8.001 4 4 0 0 0 0 8" fill="#44B1D3"/><path d="M242.637 83.378a4 4 0 0 0-4 4v5.031a4 4 0 1 0 8 0v-5.031a4 4 0 0 0-4-4" fill="#44B1D3" opacity=".376"/></g></svg>