<?xml version="1.0" encoding="UTF-8"?>
<svg width="256px" height="256px" viewBox="0 0 256 256" version="1.1" xmlns="http://www.w3.org/2000/svg" xmlns:xlink="http://www.w3.org/1999/xlink">
    <!-- Generator: Sketch 41.2 (35397) - http://www.bohemiancoding.com/sketch -->
    <title>协同</title>
    <desc>Created with Sketch.</desc>
    <defs></defs>
    <g id="Page-1" stroke="none" stroke-width="1" fill="none" fill-rule="evenodd">
        <g id="协同">
            <g id="Page-1" transform="translate(6.000000, 15.000000)">
                <path d="M235.815,214.2376 C235.815,215.3416 234.919,216.2376 233.815,216.2376 L182.29,216.2376 C181.185,216.2376 180.29,215.3416 180.29,214.2376 L180.29,213.7706 L180.29,205.7706 L180.29,182.7696 L180.29,174.7696 L180.29,117.7696 C180.29,116.6656 181.185,115.7696 182.29,115.7696 L190.917,115.7696 L198.917,115.7696 L233.815,115.7696 C234.919,115.7696 235.815,116.6656 235.815,117.7696 L235.815,214.2376 Z M172.289,111.7696 L172.289,174.7696 L131.407,174.7696 C129.198,174.7696 127.407,176.5606 127.407,178.7696 L127.407,182.7696 C127.407,183.8756 126.511,184.7696 125.407,184.7696 L86.407,184.7696 C85.302,184.7696 84.407,183.8756 84.407,182.7696 L84.407,178.7696 C84.407,176.5606 82.617,174.7696 80.407,174.7696 L24.046,174.7696 L24.046,80.7586 C24.046,79.6546 24.942,78.7586 26.046,78.7586 L166.311,78.7586 L177.132,78.7586 L188.917,78.7586 C190.021,78.7586 190.917,79.6546 190.917,80.7586 L190.917,86.2766 L190.917,94.5066 L190.917,107.7696 L176.289,107.7696 C174.08,107.7696 172.289,109.5606 172.289,111.7696 L172.289,111.7696 Z M172.289,205.7706 L10,205.7706 C8.895,205.7706 8,204.8756 8,203.7706 L8,184.7696 C8,183.6656 8.895,182.7696 10,182.7696 L76.407,182.7696 L76.407,192.7696 L135.407,192.7696 L135.407,182.7696 L172.289,182.7696 L172.289,205.7706 Z M239.814,107.7696 L198.917,107.7696 L198.917,95.4586 L198.917,87.4566 L198.917,74.7596 C198.917,72.5506 197.127,70.7596 194.917,70.7596 L20.045,70.7596 C17.836,70.7596 16.045,72.5506 16.045,74.7596 L16.045,174.7696 L4,174.7696 C1.791,174.7696 0,176.5606 0,178.7696 L0,209.7706 C0,211.9806 1.791,213.7706 4,213.7706 L172.289,213.7706 L172.289,220.2376 C172.289,222.4476 174.08,224.2376 176.289,224.2376 L239.814,224.2376 C242.024,224.2376 243.814,222.4476 243.814,220.2376 L243.814,111.7696 C243.814,109.5606 242.024,107.7696 239.814,107.7696 L239.814,107.7696 Z" id="Fill-1" fill="#F27E35"></path>
                <path d="M214.1275,13.9729 C213.2725,13.6639 212.3945,13.3789 211.5175,13.1239 C203.8385,10.8989 195.6955,10.9509 188.1125,13.1439 C189.4695,15.4999 190.5855,17.9709 191.4505,20.5319 C197.2715,19.0579 203.4455,19.1139 209.2905,20.8079 C209.9995,21.0139 210.7115,21.2449 211.4085,21.4969 C227.2395,27.2069 236.5725,43.9279 233.1175,60.3909 C232.2255,64.6459 230.5385,68.6749 228.1725,72.2539 L231.3765,81.5719 C232.5555,84.9939 231.7385,88.7479 229.2455,91.3689 C226.7515,93.9899 223.0495,94.9939 219.5835,93.9899 C219.1745,93.8709 218.7685,93.7229 218.3765,93.5519 C210.5395,90.1079 205.9165,88.1389 203.7355,87.2529 C202.1395,87.4359 200.5265,87.4999 198.9165,87.4559 L198.9165,95.4579 C200.1065,95.4859 201.2955,95.4639 202.4785,95.3909 C204.5795,96.2739 208.4455,97.9259 215.1665,100.8789 C215.8815,101.1919 216.6175,101.4599 217.3575,101.6739 C223.7035,103.5119 230.4795,101.6759 235.0405,96.8829 C239.6015,92.0899 241.0955,85.2239 238.9415,78.9699 L236.9375,73.1429 C238.7835,69.6589 240.1275,65.9379 240.9465,62.0349 C245.2165,41.6889 233.6845,21.0259 214.1275,13.9729" id="Fill-3" fill="#CFE8A3" opacity="0.51319067"></path>
                <path d="M177.5962,35.699 C177.0682,44.032 172.5142,51.335 165.8892,55.711 C163.5562,57.252 160.9752,58.441 158.2102,59.167 C156.6552,59.574 155.0472,59.844 153.3982,59.952 C148.5562,60.269 143.9752,59.261 139.9822,57.254 C139.5882,57.056 127.8122,58.585 121.6142,59.407 C120.1872,59.596 119.2262,57.995 120.0542,56.819 L128.1942,45.257 C126.2862,41.288 125.3572,36.761 125.7162,31.987 C126.6822,19.183 137.1172,8.877 149.9312,8.055 C160.0382,7.407 168.9982,12.542 173.8422,20.467 C175.2902,22.837 176.3712,25.455 177.0022,28.245 C177.5402,30.623 177.7592,33.123 177.5962,35.699 M180.5882,16.136 C179.4022,14.227 178.0202,12.418 176.4412,10.737 C170.0362,3.913 160.9982,0 151.6452,0 C150.9072,0 150.1582,0.024 149.4182,0.072 C132.6232,1.148 119.0042,14.61 117.7392,31.385 C117.4112,35.72 117.9092,40.058 119.1862,44.155 L113.5142,52.212 C111.4292,55.171 111.1682,59.004 112.8332,62.215 C114.4992,65.427 117.7762,67.422 121.3832,67.423 C121.8102,67.423 122.2422,67.393 122.6652,67.338 C131.1512,66.212 136.1392,65.608 138.4812,65.364 C142.6242,67.099 147.1312,68.01 151.6442,68.01 C152.3992,68.01 153.1642,67.984 153.9202,67.934 C156.0232,67.797 158.0732,67.466 160.0542,66.961 C162.6782,66.292 165.1792,65.314 167.5222,64.073 C177.6882,58.687 184.8142,48.294 185.5792,36.205 C185.8602,31.777 185.2952,27.451 183.9652,23.391 C183.1352,20.855 182.0082,18.422 180.5882,16.136" id="Fill-5" fill="#CFE8A3"></path>
                <path d="M140.9859,31.2449 C138.7769,31.2449 136.9859,33.0359 136.9859,35.2449 C136.9859,37.4539 138.7769,39.2449 140.9859,39.2449 C143.1949,39.2449 144.9859,37.4539 144.9859,35.2449 C144.9859,33.0359 143.1949,31.2449 140.9859,31.2449" id="Fill-7" fill="#CFE8A3"></path>
                <path d="M163.8658,31.2449 C161.6568,31.2449 159.8658,33.0359 159.8658,35.2449 C159.8658,37.4539 161.6568,39.2449 163.8658,39.2449 C166.0748,39.2449 167.8658,37.4539 167.8658,35.2449 C167.8658,33.0359 166.0748,31.2449 163.8658,31.2449" id="Fill-9" fill="#CFE8A3"></path>
                <path d="M94.6636,100.784 C94.6636,98.575 92.8726,96.784 90.6636,96.784 L56.7636,96.784 C54.5546,96.784 52.7636,98.575 52.7636,100.784 C52.7636,102.993 54.5546,104.784 56.7636,104.784 L90.6636,104.784 C92.8726,104.784 94.6636,102.993 94.6636,100.784" id="Fill-11" fill="#FACBAE"></path>
                <path d="M126.5982,96.784 L116.6192,96.784 C114.4092,96.784 112.6192,98.575 112.6192,100.784 C112.6192,102.993 114.4092,104.784 116.6192,104.784 L126.5982,104.784 C128.8072,104.784 130.5982,102.993 130.5982,100.784 C130.5982,98.575 128.8072,96.784 126.5982,96.784" id="Fill-13" fill="#FACBAE"></path>
                <path d="M157.3443,100.784 C157.3443,98.575 155.5543,96.784 153.3443,96.784 C151.1353,96.784 149.3443,98.575 149.3443,100.784 C149.3443,102.993 151.1353,104.784 153.3443,104.784 C155.5543,104.784 157.3443,102.993 157.3443,100.784" id="Fill-15" fill="#F27E35"></path>
                <path d="M115.4439,118.469 C115.4439,120.678 117.2349,122.469 119.4439,122.469 L138.6439,122.469 C140.8539,122.469 142.6439,120.678 142.6439,118.469 C142.6439,116.26 140.8539,114.469 138.6439,114.469 L119.4439,114.469 C117.2349,114.469 115.4439,116.26 115.4439,118.469" id="Fill-17" fill="#FACBAE"></path>
                <path d="M67.8072,122.469 C70.0162,122.469 71.8072,120.678 71.8072,118.469 C71.8072,116.26 70.0162,114.469 67.8072,114.469 L57.8282,114.469 C55.6192,114.469 53.8282,116.26 53.8282,118.469 C53.8282,120.678 55.6192,122.469 57.8282,122.469 L67.8072,122.469 Z" id="Fill-19" fill="#FACBAE"></path>
                <path d="M93.5542,122.469 C95.7632,122.469 97.5542,120.678 97.5542,118.469 C97.5542,116.26 95.7632,114.469 93.5542,114.469 C91.3442,114.469 89.5542,116.26 89.5542,118.469 C89.5542,120.678 91.3442,122.469 93.5542,122.469" id="Fill-21" fill="#F27E35"></path>
                <path d="M94.6636,134.7835 C94.6636,132.5745 92.8726,130.7835 90.6636,130.7835 L56.7636,130.7835 C54.5546,130.7835 52.7636,132.5745 52.7636,134.7835 C52.7636,136.9935 54.5546,138.7835 56.7636,138.7835 L90.6636,138.7835 C92.8726,138.7835 94.6636,136.9935 94.6636,134.7835" id="Fill-23" fill="#F27E35"></path>
                <path d="M126.5982,130.7835 L116.6192,130.7835 C114.4092,130.7835 112.6192,132.5745 112.6192,134.7835 C112.6192,136.9935 114.4092,138.7835 116.6192,138.7835 L126.5982,138.7835 C128.8072,138.7835 130.5982,136.9935 130.5982,134.7835 C130.5982,132.5745 128.8072,130.7835 126.5982,130.7835" id="Fill-25" fill="#FACBAE"></path>
                <path d="M157.3443,134.7835 C157.3443,132.5745 155.5543,130.7835 153.3443,130.7835 C151.1353,130.7835 149.3443,132.5745 149.3443,134.7835 C149.3443,136.9935 151.1353,138.7835 153.3443,138.7835 C155.5543,138.7835 157.3443,136.9935 157.3443,134.7835" id="Fill-27" fill="#F27E35"></path>
                <path d="M115.4439,153.469 C115.4439,155.678 117.2349,157.469 119.4439,157.469 L138.6439,157.469 C140.8539,157.469 142.6439,155.678 142.6439,153.469 C142.6439,151.26 140.8539,149.469 138.6439,149.469 L119.4439,149.469 C117.2349,149.469 115.4439,151.26 115.4439,153.469" id="Fill-29" fill="#F27E35"></path>
                <path d="M67.8072,157.469 C70.0162,157.469 71.8072,155.678 71.8072,153.469 C71.8072,151.26 70.0162,149.469 67.8072,149.469 L57.8282,149.469 C55.6192,149.469 53.8282,151.26 53.8282,153.469 C53.8282,155.678 55.6192,157.469 57.8282,157.469 L67.8072,157.469 Z" id="Fill-31" fill="#FACBAE"></path>
                <path d="M93.5542,157.469 C95.7632,157.469 97.5542,155.678 97.5542,153.469 C97.5542,151.26 95.7632,149.469 93.5542,149.469 C91.3442,149.469 89.5542,151.26 89.5542,153.469 C89.5542,155.678 91.3442,157.469 93.5542,157.469" id="Fill-33" fill="#F27E35"></path>
                <path d="M208.0523,201.7708 C205.8423,201.7708 204.0523,203.5618 204.0523,205.7708 C204.0523,207.9808 205.8423,209.7708 208.0523,209.7708 C210.2613,209.7708 212.0523,207.9808 212.0523,205.7708 C212.0523,203.5618 210.2613,201.7708 208.0523,201.7708 Z" id="Fill-35" fill="#FACBAE"></path>
                <path d="M213.0415,121.1175 L203.0625,121.1175 C200.8535,121.1175 199.0625,122.9085 199.0625,125.1175 C199.0625,127.3265 200.8535,129.1175 203.0625,129.1175 L213.0415,129.1175 C215.2505,129.1175 217.0415,127.3265 217.0415,125.1175 C217.0415,122.9085 215.2505,121.1175 213.0415,121.1175" id="Fill-37" fill="#FACBAE"></path>
                <path d="M90.8912,46.8445 C90.8912,47.9485 89.9952,48.8445 88.8912,48.8445 L34.5402,48.8445 C33.4362,48.8445 32.5402,47.9485 32.5402,46.8445 L32.5402,20.8665 L62.0812,35.7855 L62.0822,35.7845 L90.8912,21.2345 L90.8912,46.8445 Z M87.1762,14.1485 L62.0802,26.8225 L36.9852,14.1485 L87.1762,14.1485 Z M94.8912,6.1485 L43.6642,6.1485 L9.7642,6.1485 C7.5542,6.1485 5.7642,7.9395 5.7642,10.1485 C5.7642,12.3575 7.5542,14.1485 9.7642,14.1485 L24.5402,14.1485 L24.5402,21.5005 L17.3282,21.5005 C15.1192,21.5005 13.3282,23.2905 13.3282,25.5005 C13.3282,27.7095 15.1192,29.5005 17.3282,29.5005 L24.5402,29.5005 L24.5402,36.7955 C24.3002,36.7505 24.0532,36.7205 23.7992,36.7205 C21.5902,36.7205 19.7992,38.5115 19.7992,40.7205 C19.7992,42.9295 21.5902,44.7205 23.7992,44.7205 C24.0532,44.7205 24.3002,44.6915 24.5402,44.6455 L24.5402,52.8445 C24.5402,55.0535 26.3312,56.8445 28.5402,56.8445 L94.8912,56.8445 C97.1012,56.8445 98.8912,55.0535 98.8912,52.8445 L98.8912,10.1485 C98.8912,7.9395 97.1012,6.1485 94.8912,6.1485 L94.8912,6.1485 Z" id="Fill-39" fill="#FACBAE"></path>
            </g>
        </g>
    </g>
</svg>