<?xml version="1.0" encoding="UTF-8"?>
<svg width="256px" height="256px" viewBox="0 0 256 256" version="1.1" xmlns="http://www.w3.org/2000/svg" xmlns:xlink="http://www.w3.org/1999/xlink">
    <!-- Generator: Sketch 41.2 (35397) - http://www.bohemiancoding.com/sketch -->
    <title>财务</title>
    <desc>Created with Sketch.</desc>
    <defs></defs>
    <g id="Page-1" stroke="none" stroke-width="1" fill="none" fill-rule="evenodd">
        <g id="财务">
            <g id="Group" transform="translate(1.000000, 5.000000)">
                <g id="Page-1">
                    <path d="M154.932,91.3174 L105.312,91.3174 C103.103,91.3174 101.312,89.5264 101.312,87.3174 C101.312,85.1084 103.103,83.3174 105.312,83.3174 L154.932,83.3174 C157.141,83.3174 158.932,85.1084 158.932,87.3174 C158.932,89.5264 157.141,91.3174 154.932,91.3174" id="Fill-1" fill="#44B1D3"></path>
                    <path d="M153.932,122.2339 L104.312,122.2339 C102.103,122.2339 100.312,120.4429 100.312,118.2339 C100.312,116.0249 102.103,114.2339 104.312,114.2339 L153.932,114.2339 C156.141,114.2339 157.932,116.0249 157.932,118.2339 C157.932,120.4429 156.141,122.2339 153.932,122.2339" id="Fill-3" fill="#44B1D3"></path>
                    <path d="M42.5507,95.5 C39.7667,95.5 37.0737,95.112 34.5157,94.403 C31.9977,93.704 29.6127,92.686 27.4067,91.394 C27.3937,91.386 27.3817,91.379 27.3677,91.372 C27.0297,91.173 26.6967,90.966 26.3677,90.755 C26.3207,90.724 26.2727,90.694 26.2247,90.663 C25.9127,90.46 25.6047,90.251 25.3007,90.037 C25.2427,89.996 25.1847,89.955 25.1267,89.914 C24.8287,89.7 24.5337,89.483 24.2437,89.259 C24.1897,89.217 24.1357,89.174 24.0807,89.131 C23.7877,88.901 23.4967,88.668 23.2117,88.428 C23.1797,88.4 23.1477,88.372 23.1157,88.344 C21.8937,87.305 20.7587,86.168 19.7177,84.948 C19.6627,84.883 19.6057,84.82 19.5507,84.755 C19.3537,84.521 19.1637,84.28 18.9747,84.04 C18.8817,83.922 18.7877,83.806 18.6967,83.687 C18.5267,83.464 18.3617,83.236 18.1967,83.009 C18.0937,82.866 17.9907,82.723 17.8907,82.578 C17.7387,82.359 17.5917,82.139 17.4457,81.916 C17.3397,81.754 17.2357,81.592 17.1327,81.428 C16.9967,81.212 16.8637,80.996 16.7337,80.776 C16.6277,80.598 16.5257,80.417 16.4227,80.237 C16.3027,80.024 16.1827,79.812 16.0677,79.596 C15.9617,79.398 15.8617,79.197 15.7597,78.997 C15.6557,78.791 15.5507,78.586 15.4507,78.378 C15.3387,78.141 15.2327,77.9 15.1267,77.66 C15.0477,77.481 14.9637,77.306 14.8877,77.126 C14.7147,76.714 14.5507,76.297 14.3947,75.875 C14.3357,75.715 14.2827,75.551 14.2267,75.389 C14.1297,75.11 14.0317,74.832 13.9427,74.55 C13.8847,74.366 13.8327,74.18 13.7787,73.996 C13.7007,73.73 13.6227,73.465 13.5517,73.197 C13.5007,73.004 13.4537,72.809 13.4067,72.615 C13.3427,72.349 13.2797,72.082 13.2217,71.813 C13.1797,71.617 13.1407,71.419 13.1027,71.222 C13.0497,70.95 13.0007,70.677 12.9557,70.403 C12.9237,70.205 12.8917,70.007 12.8637,69.808 C12.8227,69.525 12.7877,69.242 12.7557,68.957 C12.7327,68.764 12.7097,68.572 12.6917,68.378 C12.6617,68.072 12.6407,67.765 12.6207,67.457 C12.6097,67.281 12.5947,67.106 12.5867,66.929 C12.5697,66.56 12.5627,66.188 12.5587,65.816 C12.5577,65.698 12.5507,65.581 12.5517,65.461 C12.5517,64.966 12.5647,64.474 12.5887,63.985 C12.5927,63.898 12.6027,63.81 12.6077,63.723 C12.6317,63.303 12.6607,62.884 12.7027,62.469 C12.7077,62.415 12.7157,62.36 12.7217,62.306 C12.7687,61.863 12.8227,61.423 12.8887,60.987 C12.8977,60.933 12.9067,60.879 12.9147,60.825 C12.9837,60.39 13.0597,59.958 13.1467,59.529 C13.1577,59.475 13.1687,59.422 13.1797,59.369 C13.2687,58.94 13.3667,58.515 13.4737,58.093 C13.4877,58.042 13.4997,57.991 13.5127,57.94 C13.6247,57.509 13.7457,57.083 13.8757,56.661 C13.8877,56.623 13.8987,56.584 13.9107,56.546 C14.1967,55.627 14.5277,54.727 14.8977,53.848 C14.9347,53.761 14.9757,53.676 15.0127,53.59 C15.1527,53.27 15.2947,52.951 15.4447,52.636 C15.5437,52.428 15.6497,52.223 15.7537,52.017 C15.8457,51.833 15.9377,51.649 16.0337,51.468 C16.1657,51.221 16.3017,50.976 16.4407,50.732 C16.5137,50.603 16.5877,50.474 16.6627,50.345 C16.8227,50.074 16.9857,49.804 17.1547,49.538 C17.2077,49.453 17.2627,49.368 17.3167,49.284 C17.5087,48.986 17.7037,48.691 17.9057,48.4 L17.9617,48.323 C19.1317,46.653 20.4677,45.107 21.9447,43.708 C21.9837,43.671 22.0227,43.633 22.0617,43.596 C22.3137,43.36 22.5707,43.13 22.8307,42.902 C22.9117,42.831 22.9937,42.76 23.0757,42.689 C23.3107,42.488 23.5497,42.291 23.7907,42.096 C23.9137,41.998 24.0377,41.901 24.1617,41.805 C24.3747,41.639 24.5887,41.474 24.8057,41.314 C24.9927,41.177 25.1827,41.044 25.3717,40.912 C25.5377,40.795 25.7017,40.677 25.8697,40.564 C29.7787,37.944 34.3377,36.222 39.2537,35.684 C39.9517,35.609 40.6457,35.558 41.3347,35.53 C41.4787,35.525 41.6247,35.523 41.7697,35.52 C53.8187,35.214 64.3067,42.008 69.3517,52.023 C70.0397,53.39 71.4127,54.274 72.9427,54.274 C75.9487,54.274 77.8437,51.1 76.4877,48.417 C70.4897,36.549 58.4487,28.237 44.4367,27.549 C48.6787,16.135 59.6597,8 72.5507,8 C88.2777,8 101.1687,20.104 102.4387,35.502 C102.4767,35.502 102.5127,35.5 102.5507,35.5 C106.1987,35.5 109.6947,36.152 112.9287,37.345 C113.0137,37.345 113.0957,37.339 113.1807,37.339 L113.1977,37.339 C113.1977,37.339 119.1467,37.365 128.1077,37.404 C122.9167,32.678 116.4177,29.366 109.2247,28.086 C104.8117,11.889 89.8417,0 72.5507,0 C55.2597,0 40.2897,11.889 35.8767,28.086 C35.8567,28.09 35.8377,28.095 35.8177,28.098 C30.3117,29.078 25.2097,31.261 20.7907,34.364 C20.7627,34.384 20.7347,34.403 20.7057,34.423 C20.3117,34.701 19.9237,34.988 19.5407,35.281 C19.4837,35.324 19.4257,35.366 19.3697,35.41 C19.0177,35.682 18.6717,35.962 18.3297,36.246 C18.2477,36.314 18.1637,36.381 18.0817,36.45 C17.7677,36.716 17.4597,36.988 17.1547,37.264 C17.0517,37.355 16.9487,37.445 16.8477,37.539 C16.5657,37.798 16.2887,38.065 16.0147,38.333 C15.8987,38.447 15.7797,38.559 15.6657,38.674 C15.4087,38.931 15.1587,39.195 14.9087,39.459 C14.7857,39.59 14.6607,39.72 14.5387,39.852 C14.3007,40.111 14.0707,40.376 13.8407,40.642 C13.7157,40.786 13.5887,40.928 13.4667,41.073 C13.2397,41.342 13.0217,41.617 12.8027,41.892 C12.6867,42.038 12.5677,42.183 12.4527,42.331 C12.2297,42.62 12.0147,42.915 11.8007,43.21 C11.6987,43.35 11.5937,43.487 11.4947,43.628 C11.2677,43.949 11.0497,44.275 10.8327,44.604 C10.7537,44.723 10.6727,44.84 10.5947,44.96 C10.3577,45.328 10.1287,45.702 9.9037,46.078 C9.8537,46.162 9.8007,46.244 9.7517,46.328 C9.4987,46.759 9.2547,47.196 9.0187,47.638 C9.0017,47.669 8.9837,47.7 8.9677,47.73 C6.6557,52.076 5.1627,56.912 4.7057,62.026 C4.6827,62.283 4.6737,62.538 4.6557,62.794 C4.6317,63.132 4.6037,63.468 4.5887,63.808 C4.5787,64.04 4.5787,64.27 4.5727,64.5 C4.5647,64.833 4.5507,65.165 4.5507,65.5 C4.5507,65.53 4.5527,65.56 4.5527,65.589 C4.5537,66.121 4.5707,66.648 4.5927,67.174 C4.5977,67.272 4.5967,67.372 4.6017,67.469 C4.6337,68.093 4.6807,68.712 4.7427,69.327 C4.7617,69.513 4.7897,69.696 4.8107,69.881 C4.8607,70.309 4.9107,70.735 4.9737,71.158 C5.0087,71.395 5.0537,71.628 5.0937,71.862 C5.1557,72.23 5.2177,72.598 5.2907,72.961 C5.3417,73.216 5.4007,73.467 5.4557,73.719 C5.5307,74.058 5.6067,74.396 5.6907,74.732 C5.7567,74.994 5.8277,75.253 5.8997,75.514 C5.9877,75.834 6.0757,76.154 6.1717,76.471 C6.2517,76.736 6.3367,76.998 6.4227,77.261 C6.5227,77.566 6.6247,77.871 6.7317,78.174 C6.8257,78.439 6.9237,78.703 7.0237,78.966 C7.1347,79.258 7.2497,79.549 7.3677,79.838 C7.4767,80.104 7.5877,80.368 7.7017,80.63 C7.8227,80.909 7.9487,81.185 8.0767,81.46 C8.2007,81.726 8.3247,81.991 8.4537,82.253 C8.5837,82.517 8.7197,82.776 8.8557,83.036 C8.9947,83.303 9.1337,83.569 9.2787,83.832 C9.4137,84.077 9.5557,84.317 9.6967,84.559 C9.8537,84.828 10.0087,85.1 10.1727,85.365 C10.3077,85.584 10.4497,85.798 10.5897,86.015 C10.7697,86.294 10.9467,86.576 11.1337,86.85 C11.2427,87.009 11.3587,87.164 11.4687,87.321 C12.2787,88.471 13.1487,89.575 14.0777,90.626 C14.1547,90.712 14.2277,90.802 14.3047,90.888 C14.5837,91.198 14.8717,91.499 15.1607,91.799 C15.2737,91.917 15.3837,92.037 15.4977,92.152 C15.7807,92.439 16.0717,92.719 16.3637,92.997 C16.4907,93.118 16.6147,93.24 16.7437,93.359 C17.0377,93.631 17.3377,93.896 17.6397,94.159 C17.7727,94.275 17.9047,94.392 18.0387,94.505 C18.3467,94.766 18.6597,95.02 18.9757,95.27 C19.1107,95.377 19.2447,95.484 19.3817,95.589 C19.7047,95.839 20.0337,96.083 20.3657,96.323 C20.4977,96.418 20.6317,96.513 20.7657,96.607 C21.1087,96.849 21.4557,97.085 21.8077,97.315 C21.9317,97.396 22.0567,97.475 22.1817,97.555 C22.5487,97.789 22.9197,98.019 23.2947,98.241 C23.4047,98.305 23.5147,98.367 23.6237,98.43 C24.0217,98.66 24.4227,98.885 24.8297,99.1 C24.9057,99.141 24.9837,99.179 25.0607,99.219 C25.5047,99.45 25.9517,99.676 26.4057,99.89 C26.4127,99.893 26.4187,99.896 26.4247,99.898 C31.3227,102.204 36.7877,103.5 42.5507,103.5 L77.6807,103.5 L77.6807,95.5 L42.5507,95.5 Z" id="Fill-5" fill="#F27E35" opacity="0.269112319"></path>
                    <g id="Group-9" transform="translate(77.000000, 36.915000)" fill="#44B1D3">
                        <path d="M141.9999,201.0001 L134.4709,201.0001 C120.6669,201.0001 109.2079,190.7731 107.2649,177.5001 L169.2099,177.5001 C167.2669,190.7741 155.8049,201.0001 141.9999,201.0001 L141.9999,201.0001 Z M134.4709,8.8531 C148.2909,8.8601 159.7599,19.1141 161.6759,32.4131 L107.2569,31.8561 C109.1549,18.6831 120.4239,8.8591 134.4709,8.8531 L134.4709,8.8531 Z M106.9709,169.5001 L106.9709,39.8541 L169.9569,40.4981 L169.9569,36.3531 C169.9569,16.7871 154.0469,0.8681 134.4839,0.8531 L134.4839,0.8531 L134.4699,0.8531 L134.4569,0.8531 L134.4569,0.8531 C134.3459,0.8541 78.5599,0.6091 51.1069,0.4891 C42.1459,0.4501 36.1979,0.4241 36.1979,0.4241 L36.1809,0.4241 C36.0959,0.4241 36.0139,0.4301 35.9289,0.4301 C16.4699,0.5661 0.6809,16.4331 0.6809,35.9241 L0.6809,58.5851 L0.6809,66.5851 L0.6809,106.8281 C3.3799,106.8691 6.0589,107.1521 8.6809,107.6911 L8.6809,66.5851 L8.6809,58.5851 L8.6809,35.9241 C8.6809,20.7621 21.0159,8.4251 36.1779,8.4241 L47.8109,8.4751 L57.7989,8.5191 L111.7519,8.7551 C103.8989,15.1171 98.9709,24.7941 98.9709,35.8131 L98.9709,173.5001 C98.9709,184.5781 104.0739,194.4841 112.0499,201.0001 L70.1259,201.0001 C64.1549,206.1661 56.6009,209.0001 48.7059,209.0001 L141.9999,209.0001 C161.5749,209.0001 177.4999,193.0751 177.4999,173.5001 L177.4999,169.5001 L106.9709,169.5001 Z" id="Fill-7"></path>
                    </g>
                    <path d="M119.4437,159.875 C122.3267,152.805 129.2587,147.817 137.3657,147.817 C148.0557,147.817 156.7227,156.483 156.7227,167.174 C156.7227,175.754 151.1337,183.02 143.4027,185.558 C145.4477,186.868 147.3547,188.393 149.0617,190.124 C149.4467,190.516 149.8187,190.921 150.1837,191.332 C158.8237,186.729 164.7217,177.628 164.7217,167.174 C164.7217,152.09 152.4497,139.817 137.3657,139.817 C125.7597,139.817 115.8257,147.086 111.8577,157.307 C112.4907,157.426 113.1217,157.558 113.7457,157.72 C115.7347,158.235 117.6377,158.957 119.4437,159.875" id="Fill-10" fill="#F27E35"></path>
                    <g id="Group-14" transform="translate(0.000000, 142.915000)" fill="#44B1D3">
                        <path d="M148.0653,80.8731 C146.7213,83.6851 144.8693,86.1991 142.6173,88.3041 C138.1883,92.4431 132.2563,94.9971 125.7153,95.0001 L125.7053,95.0001 L124.9533,95.0001 L102.2533,95.0001 L90.7603,95.0001 L51.0433,95.0001 L40.5413,95.0001 C38.9873,95.0001 37.4613,94.8841 35.9653,94.6741 C20.1603,92.4481 8.0003,78.8771 8.0003,62.4591 C8.0003,57.9281 8.9283,53.6131 10.6023,49.6931 C12.4633,45.3341 15.2483,41.4631 18.7113,38.3281 C24.4843,33.1021 32.1403,29.9181 40.5413,29.9181 C41.9623,29.9181 43.3593,30.0191 44.7323,30.1951 C45.9973,27.2081 47.6773,24.4401 49.6793,21.9441 C52.3673,18.5951 55.6503,15.7471 59.3793,13.5701 C64.5623,10.5441 70.5863,8.8051 77.0193,8.8051 C77.2423,8.8051 77.4593,8.8231 77.6803,8.8281 C80.4393,8.8791 83.1153,9.2541 85.6803,9.9101 C89.1263,10.7911 92.3753,12.1651 95.3283,13.9811 C98.8083,16.1211 101.8933,18.8421 104.4293,22.0231 C105.1623,21.9431 105.9043,21.8991 106.6593,21.8991 C107.8323,21.8991 108.9773,22.0101 110.0943,22.2031 C110.6493,22.2991 111.1993,22.4091 111.7383,22.5491 C114.0353,23.1441 116.1623,24.1471 118.0693,25.4501 C118.5023,25.7461 118.9363,26.0421 119.3443,26.3701 C123.5573,29.7551 126.3673,34.7871 126.8383,40.4891 C126.8663,40.8261 126.8883,41.1641 126.8993,41.5061 C126.9073,41.7311 126.9393,41.9511 126.9393,42.1791 C126.9393,43.2851 126.8473,44.3681 126.6763,45.4261 C128.0963,45.4801 129.4763,45.6781 130.8243,45.9611 C131.6303,46.1311 132.4173,46.3521 133.1913,46.5971 C136.3373,47.5931 139.2063,49.2001 141.6693,51.2731 C142.2553,51.7681 142.8253,52.2791 143.3623,52.8241 C146.0293,55.5311 148.0813,58.8461 149.2833,62.5501 C149.8603,64.3311 150.2243,66.2041 150.3813,68.1381 C150.4153,68.5551 150.4513,68.9711 150.4653,69.3931 C150.4743,69.6631 150.5053,69.9281 150.5053,70.2011 C150.5053,74.0271 149.6133,77.6371 148.0653,80.8731 M158.4653,69.1901 L158.4613,69.1341 C158.4433,68.6121 158.4043,68.0991 158.3543,67.4891 C158.1453,64.9171 157.6533,62.4251 156.8923,60.0801 C155.5023,55.7971 153.1933,51.7991 150.1833,48.4171 C149.8183,48.0061 149.4473,47.6011 149.0613,47.2091 C147.3553,45.4771 145.4473,43.9531 143.4023,42.6431 C140.9783,41.0891 138.3573,39.8411 135.6053,38.9701 C135.2943,38.8711 134.9923,38.7791 134.6963,38.6931 C133.7973,31.4211 130.1143,24.7611 124.3553,20.1341 C122.8163,18.8971 121.1743,17.8391 119.4433,16.9601 C117.6373,16.0421 115.7343,15.3201 113.7463,14.8051 C113.1213,14.6431 112.4903,14.5111 111.8573,14.3921 C110.5673,14.1491 109.2623,13.9901 107.9533,13.9301 C105.4473,11.3411 102.6223,9.0751 99.5183,7.1661 C95.2393,4.5361 90.5553,2.6941 85.6803,1.6911 C83.0583,1.1521 80.3803,0.8691 77.6803,0.8281 C77.4603,0.8241 77.2403,0.8051 77.0193,0.8051 C69.4013,0.8051 61.9063,2.8301 55.3463,6.6611 C50.7763,9.3301 46.7693,12.7871 43.4403,16.9371 C42.1643,18.5271 41.0073,20.1931 39.9783,21.9221 C30.1083,22.0581 20.6693,25.7661 13.3403,32.3981 C9.0183,36.3121 5.5273,41.2071 3.2453,46.5521 C1.0913,51.5951 0.0003,56.9461 0.0003,62.4591 C0.0003,82.5431 14.9813,99.7981 34.8523,102.5961 C36.7613,102.8641 38.6753,103.0001 40.5413,103.0001 L113.1803,103.0001 L125.7063,103.0001 C133.6013,103.0001 141.1543,100.1661 147.1263,95.0001 C147.4483,94.7211 147.7693,94.4391 148.0823,94.1471 C151.0863,91.3391 153.5073,88.0341 155.2823,84.3251 C157.4203,79.8541 158.5043,75.1021 158.5043,70.2011 C158.5043,69.8611 158.4883,69.5251 158.4653,69.1901" id="Fill-12"></path>
                    </g>
                    <path d="M92.6805,189.6905 L84.0045,189.6905 L89.2585,184.4365 C90.8205,182.8755 90.8205,180.3415 89.2585,178.7805 C87.6965,177.2175 85.1635,177.2175 83.6005,178.7805 L76.6805,185.7005 L69.7605,178.7805 C68.7295,177.7495 67.2795,177.4135 65.9605,177.7435 C65.2815,177.9135 64.6345,178.2495 64.1035,178.7805 C62.5415,180.3415 62.5415,182.8755 64.1035,184.4365 L69.3575,189.6905 L62.4305,189.6905 L60.6805,189.6905 C58.4715,189.6905 56.6805,191.4815 56.6805,193.6905 C56.6805,195.8995 58.4715,197.6905 60.6805,197.6905 L66.9095,197.6905 L72.6805,197.6905 L72.6805,205.8575 L69.6775,205.8575 L65.6805,205.8575 C63.4715,205.8575 61.6805,207.6485 61.6805,209.8575 C61.6805,212.0665 63.4715,213.8575 65.6805,213.8575 L72.6805,213.8575 L72.6805,224.9405 C72.6805,227.1495 74.4715,228.9405 76.6805,228.9405 C78.8895,228.9405 80.6805,227.1495 80.6805,224.9405 L80.6805,221.7895 L80.6805,213.8575 L87.0535,213.8575 L87.6805,213.8575 C89.8895,213.8575 91.6805,212.0665 91.6805,209.8575 C91.6805,207.6485 89.8895,205.8575 87.6805,205.8575 L80.6805,205.8575 L80.6805,197.6905 L92.6805,197.6905 C94.8895,197.6905 96.6805,195.8995 96.6805,193.6905 C96.6805,191.4815 94.8895,189.6905 92.6805,189.6905" id="Fill-15" fill="#FACBAE"></path>
                    <path d="M196.6014,181.9893 C194.3924,181.9893 192.6014,183.7803 192.6014,185.9893 L192.6014,196.0203 C192.6014,198.2293 194.3924,200.0203 196.6014,200.0203 C198.8104,200.0203 200.6014,198.2293 200.6014,196.0203 L200.6014,185.9893 C200.6014,183.7803 198.8104,181.9893 196.6014,181.9893" id="Fill-19" fill="#44B1D3" opacity="0.691972373"></path>
                    <path d="M194.1405,214.3389 L231.7495,214.3389 C233.9585,214.3389 235.7495,212.5479 235.7495,210.3389 C235.7495,208.1299 233.9585,206.3389 231.7495,206.3389 L229.6015,206.3389 L229.6015,188.9889 C229.6015,188.7139 229.5735,188.4429 229.5205,188.1839 C229.4135,187.6619 229.2055,187.1789 228.9185,186.7529 C228.7745,186.5399 228.6105,186.3419 228.4305,186.1609 C228.0685,185.7989 227.6375,185.5059 227.1585,185.3039 C226.6805,185.1019 226.1535,184.9889 225.6015,184.9889 L212.6945,184.9889 C210.4845,184.9889 208.6945,186.7799 208.6945,188.9889 C208.6945,191.1979 210.4845,192.9889 212.6945,192.9889 L221.6015,192.9889 L221.6015,206.3389 L194.1405,206.3389 C191.9315,206.3389 190.1405,208.1299 190.1405,210.3389 C190.1405,212.5479 191.9315,214.3389 194.1405,214.3389" id="Fill-21" fill="#44B1D3" opacity="0.387398098"></path>
                    <path d="M242.6361,197.9356 C244.8451,197.9356 246.6361,196.1446 246.6361,193.9356 C246.6361,191.7266 244.8451,189.9356 242.6361,189.9356 C240.4271,189.9356 238.6361,191.7266 238.6361,193.9356 C238.6361,196.1446 240.4271,197.9356 242.6361,197.9356" id="Fill-23" fill="#44B1D3"></path>
                    <path d="M196.601,174.3389 C198.81,174.3389 200.601,172.5479 200.601,170.3389 C200.601,168.1289 198.81,166.3389 196.601,166.3389 C194.392,166.3389 192.601,168.1289 192.601,170.3389 C192.601,172.5479 194.392,174.3389 196.601,174.3389" id="Fill-25" fill="#44B1D3"></path>
                    <path d="M242.6361,158.1465 C244.8451,158.1465 246.6361,156.3555 246.6361,154.1465 C246.6361,151.9375 244.8451,150.1465 242.6361,150.1465 C240.4271,150.1465 238.6361,151.9375 238.6361,154.1465 C238.6361,156.3555 240.4271,158.1465 242.6361,158.1465" id="Fill-27" fill="#44B1D3"></path>
                    <path d="M219.2679,173.7979 C221.4769,173.7979 223.2679,172.0069 223.2679,169.7979 C223.2679,167.5889 221.4769,165.7979 219.2679,165.7979 C217.0589,165.7979 215.2679,167.5889 215.2679,169.7979 C215.2679,172.0069 217.0589,173.7979 219.2679,173.7979" id="Fill-29" fill="#44B1D3"></path>
                    <path d="M196.601,137.8174 C198.81,137.8174 200.601,136.0264 200.601,133.8174 C200.601,131.6084 198.81,129.8174 196.601,129.8174 C194.392,129.8174 192.601,131.6084 192.601,133.8174 C192.601,136.0264 194.392,137.8174 196.601,137.8174" id="Fill-31" fill="#44B1D3" opacity="0.34131567"></path>
                    <path d="M219.2679,153.6065 C221.4769,153.6065 223.2679,151.8155 223.2679,149.6065 C223.2679,147.3975 221.4769,145.6065 219.2679,145.6065 C217.0589,145.6065 215.2679,147.3975 215.2679,149.6065 C215.2679,151.8155 217.0589,153.6065 219.2679,153.6065" id="Fill-33" fill="#44B1D3" opacity="0.377264493"></path>
                    <path d="M242.6361,167.5254 C240.4271,167.5254 238.6361,169.3164 238.6361,171.5254 L238.6361,176.5564 C238.6361,178.7654 240.4271,180.5564 242.6361,180.5564 C244.8451,180.5564 246.6361,178.7654 246.6361,176.5564 L246.6361,171.5254 C246.6361,169.3164 244.8451,167.5254 242.6361,167.5254" id="Fill-35" fill="#44B1D3" opacity="0.419497283"></path>
                    <path d="M196.6014,145.3203 C194.3924,145.3203 192.6014,147.1113 192.6014,149.3203 L192.6014,154.3513 C192.6014,156.5603 194.3924,158.3513 196.6014,158.3513 C198.8104,158.3513 200.6014,156.5603 200.6014,154.3513 L200.6014,149.3203 C200.6014,147.1113 198.8104,145.3203 196.6014,145.3203" id="Fill-37" fill="#44B1D3" opacity="0.559103261"></path>
                    <path d="M242.6366,124.8047 C240.4276,124.8047 238.6366,126.5957 238.6366,128.8047 L238.6366,138.8357 C238.6366,141.0447 240.4276,142.8357 242.6366,142.8357 C244.8456,142.8357 246.6366,141.0447 246.6366,138.8357 L246.6366,128.8047 C246.6366,126.5957 244.8456,124.8047 242.6366,124.8047" id="Fill-39" fill="#44B1D3" opacity="0.194406703"></path>
                    <path d="M219.2679,133.9273 C221.4769,133.9273 223.2679,132.1363 223.2679,129.9273 C223.2679,127.7183 221.4769,125.9273 219.2679,125.9273 C217.0589,125.9273 215.2679,127.7183 215.2679,129.9273 C215.2679,132.1363 217.0589,133.9273 219.2679,133.9273" id="Fill-41" fill="#44B1D3"></path>
                    <path d="M219.2679,93.4063 C221.4769,93.4063 223.2679,91.6153 223.2679,89.4063 C223.2679,87.1973 221.4769,85.4063 219.2679,85.4063 C217.0589,85.4063 215.2679,87.1973 215.2679,89.4063 C215.2679,91.6153 217.0589,93.4063 219.2679,93.4063" id="Fill-43" fill="#44B1D3"></path>
                    <path d="M219.2679,102.9092 C217.0589,102.9092 215.2679,104.7002 215.2679,106.9092 L215.2679,111.9402 C215.2679,114.1502 217.0589,115.9402 219.2679,115.9402 C221.4769,115.9402 223.2679,114.1502 223.2679,111.9402 L223.2679,106.9092 C223.2679,104.7002 221.4769,102.9092 219.2679,102.9092" id="Fill-45" fill="#44B1D3" opacity="0.289968297"></path>
                    <path d="M196.6014,85.8936 C194.3924,85.8936 192.6014,87.6846 192.6014,89.8936 L192.6014,115.9246 C192.6014,118.1346 194.3924,119.9246 196.6014,119.9246 C198.8104,119.9246 200.6014,118.1346 200.6014,115.9246 L200.6014,89.8936 C200.6014,87.6846 198.8104,85.8936 196.6014,85.8936" id="Fill-47" fill="#44B1D3" opacity="0.763360507"></path>
                    <path d="M242.2098,112.9092 C244.4188,112.9092 246.2098,111.1182 246.2098,108.9092 C246.2098,106.7002 244.4188,104.9092 242.2098,104.9092 C240.0008,104.9092 238.2098,106.7002 238.2098,108.9092 C238.2098,111.1182 240.0008,112.9092 242.2098,112.9092" id="Fill-49" fill="#44B1D3"></path>
                    <path d="M242.6366,83.378 C240.4276,83.378 238.6366,85.169 238.6366,87.378 L238.6366,92.409 C238.6366,94.619 240.4276,96.409 242.6366,96.409 C244.8456,96.409 246.6366,94.619 246.6366,92.409 L246.6366,87.378 C246.6366,85.169 244.8456,83.378 242.6366,83.378" id="Fill-51" fill="#44B1D3" opacity="0.375622736"></path>
                </g>
            </g>
        </g>
    </g>
</svg>