<?xml version="1.0" encoding="UTF-8"?>
<svg width="256px" height="256px" viewBox="0 0 256 256" version="1.1" xmlns="http://www.w3.org/2000/svg" xmlns:xlink="http://www.w3.org/1999/xlink">
    <!-- Generator: Sketch 41.2 (35397) - http://www.bohemiancoding.com/sketch -->
    <title>人力</title>
    <desc>Created with Sketch.</desc>
    <defs>
        <polygon id="path-1" points="27.641 27.2569 27.641 0.2179 0.6023 0.2179 0.6023 27.2569 27.641 27.2569"></polygon>
    </defs>
    <g id="Page-1" stroke="none" stroke-width="1" fill="none" fill-rule="evenodd">
        <g id="人力">
            <g id="Group" transform="translate(9.000000, 8.000000)">
                <g id="Page-1">
                    <path d="M126.8273,164.2151 C114.4073,164.2151 104.3393,154.1471 104.3393,141.7271 C104.3393,139.6471 104.6283,137.6361 105.1563,135.7241 C105.9733,132.7681 107.3783,130.0571 109.2373,127.7241 C113.3583,122.5551 119.7043,119.2381 126.8273,119.2381 C133.9513,119.2381 140.2973,122.5551 144.4173,127.7241 C146.2773,130.0571 147.6813,132.7681 148.4993,135.7241 C149.0273,137.6361 149.3153,139.6471 149.3153,141.7271 C149.3153,154.1471 139.2473,164.2151 126.8273,164.2151 M156.6173,135.2551 C156.0273,132.5371 155.0743,129.9541 153.8113,127.5591 C148.7013,117.8651 138.5263,111.2391 126.8273,111.2391 C115.0623,111.2391 104.8413,117.9411 99.7593,127.7241 C98.4673,130.2121 97.5033,132.8961 96.9353,135.7241 C96.5473,137.6661 96.3393,139.6721 96.3393,141.7271 C96.3393,158.5381 110.0153,172.2151 126.8273,172.2151 C143.6393,172.2151 157.3153,158.5381 157.3153,141.7271 C157.3153,139.5061 157.0703,137.3421 156.6173,135.2551" id="Fill-3" fill="#EE704D"></path>
                    <path d="M137.0891,138.3039 L130.4891,131.7039 C128.9281,130.1419 126.3951,130.1419 124.8321,131.7039 L118.2331,138.3039 C116.6711,139.8659 116.6711,142.3989 118.2331,143.9599 C119.7241,145.4509 122.0901,145.5019 123.6611,144.1479 L123.6611,151.7569 C123.6611,153.9659 125.4521,155.7569 127.6611,155.7569 C129.8701,155.7569 131.6611,153.9659 131.6611,151.7569 L131.6611,144.1479 C133.2331,145.5019 135.5991,145.4509 137.0891,143.9599 C138.6511,142.3989 138.6511,139.8659 137.0891,138.3039" id="Fill-5" fill="#EE704D"></path>
                    <path d="M81.1555,103.4675 L87.7555,110.0675 C89.3175,111.6295 91.8495,111.6295 93.4125,110.0675 L100.0115,103.4675 C101.5735,101.9055 101.5735,99.3725 100.0115,97.8105 C98.5205,96.3205 96.1555,96.2685 94.5835,97.6235 L94.5835,90.0145 C94.5835,87.8045 92.7935,86.0145 90.5835,86.0145 C88.3745,86.0145 86.5835,87.8045 86.5835,90.0145 L86.5835,97.6235 C85.0115,96.2685 82.6465,96.3205 81.1555,97.8105 C79.5935,99.3725 79.5935,101.9055 81.1555,103.4675" id="Fill-7" fill="#4AB1D1" opacity="0.429008152"></path>
                    <path d="M94.8332,188.049 C94.8332,186.945 95.7292,186.049 96.8332,186.049 L156.8212,186.049 C157.9272,186.049 158.8212,186.945 158.8212,188.049 L158.8212,233.518 C158.8212,235.727 160.6122,237.518 162.8212,237.518 C165.0312,237.518 166.8212,235.727 166.8212,233.518 L166.8212,182.049 C166.8212,179.84 165.0312,178.049 162.8212,178.049 L90.8332,178.049 C88.6242,178.049 86.8332,179.84 86.8332,182.049 L86.8332,233.518 C86.8332,235.727 88.6242,237.518 90.8332,237.518 C93.0432,237.518 94.8332,235.727 94.8332,233.518 L94.8332,188.049 Z" id="Fill-9" fill="#EE704D"></path>
                    <polygon id="Fill-11" fill="#EE704D" points="45.0305 143.1828 39.8255 137.1078 62.1325 117.9988 67.3375 124.0748"></polygon>
                    <polygon id="Fill-13" fill="#EE704D" opacity="0.19604846" points="65.2414 31.2888 71.3164 26.0838 93.3204 51.7698 87.2454 56.9748"></polygon>
                    <polygon id="Fill-15" fill="#EE704D" opacity="0.216428895" points="202.7707 52.843 207.7447 59.109 181.2547 80.137 176.2807 73.872"></polygon>
                    <path d="M131.6613,204.7903 C131.6613,206.9993 129.8703,208.7903 127.6613,208.7903 C125.4523,208.7903 123.6613,206.9993 123.6613,204.7903 C123.6613,202.5813 125.4523,200.7903 127.6613,200.7903 C129.8703,200.7903 131.6613,202.5813 131.6613,204.7903" id="Fill-17" fill="#EE704D"></path>
                    <polygon id="Fill-19" fill="#EE704D" points="31.0451 75.7839 33.8641 68.2969 65.5171 80.2149 62.6971 87.7009"></polygon>
                    <polygon id="Fill-21" fill="#EE704D" opacity="0.516700634" points="177.5744 118.5959 181.9474 111.8969 220.8824 137.3129 216.5094 144.0109"></polygon>
                    <path d="M218.0002,58.4905 C211.9252,58.4905 207.0002,53.5655 207.0002,47.4905 C207.0002,41.4155 211.9252,36.4905 218.0002,36.4905 C224.0752,36.4905 229.0002,41.4155 229.0002,47.4905 C229.0002,53.5655 224.0752,58.4905 218.0002,58.4905 M218.0002,28.4905 C207.5232,28.4905 199.0002,37.0135 199.0002,47.4905 C199.0002,57.9675 207.5232,66.4905 218.0002,66.4905 C228.4772,66.4905 237.0002,57.9675 237.0002,47.4905 C237.0002,37.0135 228.4772,28.4905 218.0002,28.4905" id="Fill-23" fill="#F9C5B7"></path>
                    <path d="M27.0002,172.3625 C16.5232,172.3625 8.0002,163.8395 8.0002,153.3625 C8.0002,142.8855 16.5232,134.3625 27.0002,134.3625 C37.4772,134.3625 46.0002,142.8855 46.0002,153.3625 C46.0002,163.8395 37.4772,172.3625 27.0002,172.3625 M27.0002,126.3625 C12.1122,126.3625 0.0002,138.4745 0.0002,153.3625 C0.0002,168.2505 12.1122,180.3625 27.0002,180.3625 C41.8882,180.3625 54.0002,168.2505 54.0002,153.3625 C54.0002,138.4745 41.8882,126.3625 27.0002,126.3625" id="Fill-25" fill="#FDBDAC"></path>
                    <path d="M59.9807,30.0002 C53.9057,30.0002 48.9807,25.0752 48.9807,19.0002 C48.9807,12.9252 53.9057,8.0002 59.9807,8.0002 C66.0557,8.0002 70.9807,12.9252 70.9807,19.0002 C70.9807,25.0752 66.0557,30.0002 59.9807,30.0002 M59.9807,0.0002 C49.5037,0.0002 40.9807,8.5232 40.9807,19.0002 C40.9807,29.4762 49.5037,38.0002 59.9807,38.0002 C70.4577,38.0002 78.9807,29.4762 78.9807,19.0002 C78.9807,8.5232 70.4577,0.0002 59.9807,0.0002" id="Fill-27" fill="#FBB9A7"></path>
                    <path d="M27.0002,75.5066 C23.9522,75.5066 21.4802,73.0356 21.4802,69.9866 C21.4802,66.9386 23.9522,64.4676 27.0002,64.4676 C30.0482,64.4676 32.5202,66.9386 32.5202,69.9866 C32.5202,73.0356 30.0482,75.5066 27.0002,75.5066 M27.0002,56.4676 C19.5452,56.4676 13.4802,62.5316 13.4802,69.9866 C13.4802,77.4426 19.5452,83.5066 27.0002,83.5066 C34.4542,83.5066 40.5192,77.4426 40.5192,69.9866 C40.5192,62.5316 34.4542,56.4676 27.0002,56.4676" id="Fill-29" fill="#FFCDBF"></path>
                    <g id="Group-33" transform="translate(210.000000, 132.133000)">
                        <mask id="mask-2" fill="white">
                            <use xlink:href="#path-1"></use>
                        </mask>
                        <g id="Clip-32"></g>
                        <path d="M14.1223,19.2569 C11.0733,19.2569 8.6023,16.7859 8.6023,13.7379 C8.6023,10.6899 11.0733,8.2189 14.1223,8.2189 C17.1703,8.2189 19.6423,10.6899 19.6423,13.7379 C19.6423,16.7859 17.1703,19.2569 14.1223,19.2569 M14.1223,0.2179 C6.6673,0.2179 0.6023,6.2819 0.6023,13.7369 C0.6023,21.1929 6.6673,27.2569 14.1223,27.2569 C21.5763,27.2569 27.6413,21.1929 27.6413,13.7369 C27.6413,6.2819 21.5763,0.2179 14.1223,0.2179" id="Fill-31" fill="#EE704D" mask="url(#mask-2)"></path>
                    </g>
                    <path d="M131.6613,221.7903 C131.6613,223.9993 129.8703,225.7903 127.6613,225.7903 C125.4523,225.7903 123.6613,223.9993 123.6613,221.7903 C123.6613,219.5813 125.4523,217.7903 127.6613,217.7903 C129.8703,217.7903 131.6613,219.5813 131.6613,221.7903" id="Fill-34" fill="#EE704D"></path>
                    <path d="M76.4436,182.4475 C76.4436,180.2385 74.6526,178.4475 72.4436,178.4475 L38.5436,178.4475 C36.3336,178.4475 34.5436,180.2385 34.5436,182.4475 C34.5436,184.6575 36.3336,186.4475 38.5436,186.4475 L72.4436,186.4475 C74.6526,186.4475 76.4436,184.6575 76.4436,182.4475" id="Fill-36" fill="#F6B5A3"></path>
                    <path d="M188.3771,178.4475 L178.3981,178.4475 C176.1891,178.4475 174.3981,180.2385 174.3981,182.4475 C174.3981,184.6575 176.1891,186.4475 178.3981,186.4475 L188.3771,186.4475 C190.5871,186.4475 192.3771,184.6575 192.3771,182.4475 C192.3771,180.2385 190.5871,178.4475 188.3771,178.4475" id="Fill-38" fill="#F6B5A3"></path>
                    <path d="M219.1242,182.4475 C219.1242,180.2385 217.3332,178.4475 215.1242,178.4475 C212.9152,178.4475 211.1242,180.2385 211.1242,182.4475 C211.1242,184.6575 212.9152,186.4475 215.1242,186.4475 C217.3332,186.4475 219.1242,184.6575 219.1242,182.4475" id="Fill-40" fill="#95D1E4" opacity="0.530287591"></path>
                    <path d="M177.2238,200.133 C177.2238,202.342 179.0148,204.133 181.2238,204.133 L200.4238,204.133 C202.6328,204.133 204.4238,202.342 204.4238,200.133 C204.4238,197.924 202.6328,196.133 200.4238,196.133 L181.2238,196.133 C179.0148,196.133 177.2238,197.924 177.2238,200.133" id="Fill-42" fill="#EE704D"></path>
                    <path d="M49.5871,204.133 C51.7961,204.133 53.5871,202.342 53.5871,200.133 C53.5871,197.924 51.7961,196.133 49.5871,196.133 L39.6081,196.133 C37.3981,196.133 35.6081,197.924 35.6081,200.133 C35.6081,202.342 37.3981,204.133 39.6081,204.133 L49.5871,204.133 Z" id="Fill-44" fill="#EE704D"></path>
                    <path d="M75.3332,204.133 C77.5422,204.133 79.3332,202.342 79.3332,200.133 C79.3332,197.924 77.5422,196.133 75.3332,196.133 C73.1242,196.133 71.3332,197.924 71.3332,200.133 C71.3332,202.342 73.1242,204.133 75.3332,204.133" id="Fill-46" fill="#EE704D"></path>
                    <path d="M76.4436,216.4475 C76.4436,214.2385 74.6526,212.4475 72.4436,212.4475 L38.5436,212.4475 C36.3336,212.4475 34.5436,214.2385 34.5436,216.4475 C34.5436,218.6575 36.3336,220.4475 38.5436,220.4475 L72.4436,220.4475 C74.6526,220.4475 76.4436,218.6575 76.4436,216.4475" id="Fill-48" fill="#95D1E4" opacity="0.378566576"></path>
                    <path d="M188.3771,212.4475 L178.3981,212.4475 C176.1891,212.4475 174.3981,214.2385 174.3981,216.4475 C174.3981,218.6575 176.1891,220.4475 178.3981,220.4475 L188.3771,220.4475 C190.5871,220.4475 192.3771,218.6575 192.3771,216.4475 C192.3771,214.2385 190.5871,212.4475 188.3771,212.4475" id="Fill-50" fill="#95D1E4" opacity="0.332937047"></path>
                    <path d="M219.1242,216.4475 C219.1242,214.2385 217.3332,212.4475 215.1242,212.4475 C212.9152,212.4475 211.1242,214.2385 211.1242,216.4475 C211.1242,218.6575 212.9152,220.4475 215.1242,220.4475 C217.3332,220.4475 219.1242,218.6575 219.1242,216.4475" id="Fill-52" fill="#EE704D"></path>
                    <path d="M177.2238,235.133 C177.2238,237.342 179.0148,239.133 181.2238,239.133 L200.4238,239.133 C202.6328,239.133 204.4238,237.342 204.4238,235.133 C204.4238,232.924 202.6328,231.133 200.4238,231.133 L181.2238,231.133 C179.0148,231.133 177.2238,232.924 177.2238,235.133" id="Fill-54" fill="#F6B5A3"></path>
                    <path d="M49.5871,239.133 C51.7961,239.133 53.5871,237.342 53.5871,235.133 C53.5871,232.924 51.7961,231.133 49.5871,231.133 L39.6081,231.133 C37.3981,231.133 35.6081,232.924 35.6081,235.133 C35.6081,237.342 37.3981,239.133 39.6081,239.133 L49.5871,239.133 Z" id="Fill-56" fill="#F6B5A3" opacity="0.523663949"></path>
                    <path d="M75.3332,239.133 C77.5422,239.133 79.3332,237.342 79.3332,235.133 C79.3332,232.924 77.5422,231.133 75.3332,231.133 C73.1242,231.133 71.3332,232.924 71.3332,235.133 C71.3332,237.342 73.1242,239.133 75.3332,239.133" id="Fill-58" fill="#95D1E4"></path>
                </g>
                <path d="M188.6672,97.7234 C188.6672,79.0464 175.1222,63.4734 157.3412,60.3094 C152.9282,44.1124 137.9582,32.2234 120.6672,32.2234 C103.3762,32.2234 88.4062,44.1124 83.9932,60.3094 C83.9732,60.3134 83.9542,60.3184 83.9342,60.3224 C78.4282,61.3024 73.3262,63.4854 68.9062,66.5884 C68.8792,66.6074 68.8512,66.6274 68.8222,66.6464 C68.4282,66.9254 68.0402,67.2114 67.6572,67.5044 C67.6002,67.5474 67.5422,67.5904 67.4852,67.6344 C67.1342,67.9064 66.7882,68.1854 66.4462,68.4704 C66.3632,68.5384 66.2802,68.6044 66.1982,68.6744 C65.8842,68.9394 65.5762,69.2114 65.2712,69.4874 C65.1682,69.5794 65.0642,69.6694 64.9642,69.7624 C64.6822,70.0224 64.4052,70.2884 64.1312,70.5574 C64.0152,70.6704 63.8972,70.7824 63.7812,70.8974 C63.5242,71.1554 63.2742,71.4184 63.0252,71.6834 C62.9012,71.8144 62.7762,71.9434 62.6552,72.0764 C62.4172,72.3354 62.1872,72.6004 61.9562,72.8664 C61.8322,73.0094 61.7052,73.1514 61.5822,73.2974 C61.3562,73.5654 61.1382,73.8404 60.9192,74.1154 C60.8032,74.2624 60.6842,74.4064 60.5682,74.5554 C60.3462,74.8434 60.1312,75.1384 59.9162,75.4334 C59.8142,75.5734 59.7102,75.7104 59.6102,75.8514 C59.3842,76.1724 59.1662,76.4994 58.9492,76.8274 C58.8702,76.9464 58.7882,77.0634 58.7112,77.1834 C58.4742,77.5514 58.2452,77.9254 58.0202,78.3024 C57.9702,78.3854 57.9172,78.4674 57.8682,78.5514 C57.6142,78.9824 57.3712,79.4204 57.1352,79.8624 C57.1182,79.8934 57.1002,79.9234 57.0842,79.9544 C54.7722,84.3004 53.2792,89.1354 52.8222,94.2494 C52.7992,94.5074 52.7892,94.7624 52.7722,95.0184 C52.7482,95.3554 52.7202,95.6914 52.7052,96.0314 C52.6952,96.2634 52.6952,96.4934 52.6892,96.7244 C52.6812,97.0574 52.6672,97.3894 52.6672,97.7234 C52.6672,97.7534 52.6692,97.7834 52.6692,97.8134 C52.6702,98.3444 52.6872,98.8724 52.7092,99.3984 C52.7142,99.4954 52.7132,99.5954 52.7182,99.6934 C52.7492,100.3164 52.7972,100.9354 52.8592,101.5514 C52.8782,101.7364 52.9062,101.9194 52.9272,102.1044 C52.9772,102.5324 53.0262,102.9594 53.0902,103.3824 C53.1252,103.6184 53.1702,103.8514 53.2102,104.0864 C53.2722,104.4534 53.3342,104.8214 53.4062,105.1854 C53.4572,105.4394 53.5172,105.6904 53.5722,105.9424 C53.6472,106.2814 53.7232,106.6204 53.8072,106.9554 C53.8722,107.2174 53.9442,107.4774 54.0162,107.7374 C54.1042,108.0574 54.1922,108.3774 54.2882,108.6944 C54.3682,108.9594 54.4532,109.2224 54.5382,109.4844 C54.6392,109.7904 54.7402,110.0954 54.8482,110.3974 C54.9422,110.6624 55.0402,110.9274 55.1402,111.1894 C55.2512,111.4824 55.3662,111.7724 55.4842,112.0624 C55.5932,112.3274 55.7032,112.5914 55.8172,112.8544 C55.9392,113.1324 56.0652,113.4084 56.1932,113.6834 C56.3162,113.9494 56.4402,114.2144 56.5702,114.4764 C56.7002,114.7404 56.8362,115.0004 56.9722,115.2604 C57.1112,115.5264 57.2492,115.7934 57.3952,116.0554 C57.5302,116.3004 57.6722,116.5414 57.8132,116.7824 C57.9702,117.0524 58.1252,117.3234 58.2892,117.5894 C58.4242,117.8074 58.5662,118.0224 58.7062,118.2384 C58.8862,118.5174 59.0632,118.7994 59.2502,119.0734 C59.3582,119.2334 59.4752,119.3884 59.5852,119.5454 C60.3952,120.6944 61.2652,121.7984 62.1942,122.8494 C62.2712,122.9364 62.3442,123.0254 62.4212,123.1114 C62.6992,123.4214 62.9882,123.7224 63.2772,124.0224 C63.3902,124.1404 63.4992,124.2604 63.6132,124.3764 C63.8972,124.6634 64.1882,124.9424 64.4802,125.2214 C64.6062,125.3414 64.7312,125.4644 64.8592,125.5824 C65.1532,125.8544 65.4542,126.1204 65.7562,126.3834 C65.8892,126.4984 66.0212,126.6154 66.1552,126.7284 C66.4632,126.9894 66.7762,127.2434 67.0922,127.4944 C67.2272,127.6004 67.3612,127.7074 67.4972,127.8124 C67.8212,128.0624 68.1492,128.3064 68.4812,128.5464 C68.6142,128.6414 68.7472,128.7364 68.8822,128.8314 C69.2252,129.0724 69.5722,129.3084 69.9242,129.5384 C70.0482,129.6194 70.1732,129.6984 70.2982,129.7784 C70.6652,130.0134 71.0352,130.2424 71.4112,130.4644 C71.5212,130.5284 71.6312,130.5914 71.7402,130.6534 C72.1382,130.8844 72.5392,131.1084 72.9452,131.3244 C73.0222,131.3644 73.1002,131.4024 73.1772,131.4424 C73.6212,131.6744 74.0682,131.8994 74.5222,132.1134 L74.5402,132.1224 C78.9142,134.1814 83.7402,135.4274 88.8262,135.6724 C88.9062,135.1634 88.9912,134.6544 89.0922,134.1494 C89.5332,131.9554 90.1892,129.8104 91.0092,127.7234 L90.6672,127.7234 C87.8832,127.7234 85.1902,127.3364 82.6322,126.6264 C80.1132,125.9284 77.7292,124.9094 75.5232,123.6174 C75.5102,123.6094 75.4972,123.6024 75.4842,123.5954 C75.1472,123.3964 74.8132,123.1894 74.4832,122.9784 C74.4372,122.9484 74.3892,122.9184 74.3412,122.8874 C74.0282,122.6834 73.7212,122.4744 73.4172,122.2614 C73.3582,122.2204 73.3012,122.1794 73.2422,122.1374 C72.9442,121.9244 72.6502,121.7064 72.3602,121.4824 C72.3062,121.4404 72.2522,121.3974 72.1972,121.3544 C71.9032,121.1254 71.6132,120.8914 71.3282,120.6514 C71.2962,120.6244 71.2642,120.5954 71.2312,120.5674 C70.0102,119.5284 68.8752,118.3914 67.8342,117.1724 C67.7782,117.1074 67.7222,117.0444 67.6672,116.9784 C67.4702,116.7444 67.2802,116.5044 67.0912,116.2644 C66.9982,116.1454 66.9042,116.0294 66.8132,115.9104 C66.6432,115.6874 66.4782,115.4604 66.3132,115.2324 C66.2102,115.0894 66.1072,114.9464 66.0072,114.8014 C65.8552,114.5834 65.7072,114.3624 65.5622,114.1404 C65.4552,113.9784 65.3522,113.8154 65.2482,113.6514 C65.1132,113.4364 64.9802,113.2194 64.8502,113.0004 C64.7432,112.8224 64.6422,112.6414 64.5392,112.4604 C64.4192,112.2484 64.2992,112.0354 64.1842,111.8194 C64.0772,111.6214 63.9782,111.4204 63.8762,111.2204 C63.7722,111.0154 63.6662,110.8104 63.5672,110.6024 C63.4542,110.3654 63.3492,110.1234 63.2422,109.8834 C63.1632,109.7054 63.0802,109.5294 63.0042,109.3494 C62.8312,108.9374 62.6662,108.5204 62.5112,108.0994 C62.4522,107.9384 62.3992,107.7744 62.3432,107.6124 C62.2452,107.3334 62.1482,107.0554 62.0592,106.7734 C62.0012,106.5904 61.9492,106.4044 61.8952,106.2194 C61.8162,105.9544 61.7392,105.6884 61.6682,105.4214 C61.6172,105.2274 61.5702,105.0334 61.5222,104.8384 C61.4582,104.5724 61.3962,104.3054 61.3382,104.0364 C61.2962,103.8404 61.2572,103.6434 61.2192,103.4454 C61.1662,103.1744 61.1172,102.9014 61.0722,102.6274 C61.0392,102.4294 61.0082,102.2304 60.9802,102.0314 C60.9382,101.7494 60.9032,101.4654 60.8712,101.1814 C60.8492,100.9884 60.8252,100.7954 60.8082,100.6014 C60.7782,100.2964 60.7572,99.9894 60.7372,99.6814 C60.7262,99.5054 60.7112,99.3294 60.7032,99.1524 C60.6862,98.7844 60.6792,98.4124 60.6752,98.0404 C60.6742,97.9214 60.6672,97.8044 60.6682,97.6854 C60.6682,97.1904 60.6812,96.6984 60.7052,96.2084 C60.7092,96.1214 60.7192,96.0344 60.7242,95.9464 C60.7482,95.5264 60.7772,95.1084 60.8182,94.6934 C60.8242,94.6384 60.8322,94.5844 60.8382,94.5294 C60.8852,94.0874 60.9392,93.6474 61.0052,93.2104 C61.0142,93.1564 61.0222,93.1024 61.0312,93.0494 C61.1002,92.6134 61.1762,92.1814 61.2632,91.7524 C61.2732,91.6994 61.2842,91.6454 61.2962,91.5924 C61.3852,91.1634 61.4832,90.7384 61.5902,90.3164 C61.6042,90.2654 61.6152,90.2144 61.6292,90.1634 C61.7402,89.7334 61.8622,89.3064 61.9922,88.8844 C62.0042,88.8464 62.0152,88.8074 62.0262,88.7694 C62.3132,87.8504 62.6442,86.9514 63.0142,86.0724 C63.0512,85.9854 63.0922,85.9004 63.1292,85.8134 C63.2692,85.4934 63.4112,85.1744 63.5612,84.8604 C63.6602,84.6514 63.7662,84.4464 63.8692,84.2404 C63.9622,84.0564 64.0542,83.8724 64.1502,83.6914 C64.2822,83.4444 64.4182,83.1994 64.5572,82.9564 C64.6302,82.8274 64.7032,82.6974 64.7792,82.5694 C64.9382,82.2974 65.1022,82.0284 65.2712,81.7614 C65.3232,81.6764 65.3792,81.5924 65.4332,81.5074 C65.6252,81.2094 65.8202,80.9144 66.0222,80.6244 L66.0772,80.5464 C67.2472,78.8774 68.5842,77.3304 70.0612,75.9314 C70.1002,75.8944 70.1392,75.8564 70.1782,75.8204 C70.4302,75.5834 70.6872,75.3534 70.9462,75.1264 C71.0282,75.0554 71.1092,74.9834 71.1922,74.9134 C71.4272,74.7124 71.6662,74.5144 71.9072,74.3204 C72.0292,74.2224 72.1532,74.1254 72.2782,74.0284 C72.4912,73.8624 72.7052,73.6984 72.9222,73.5374 C73.1082,73.4004 73.2992,73.2674 73.4882,73.1354 C73.6532,73.0194 73.8172,72.9004 73.9852,72.7874 C77.8952,70.1684 82.4532,68.4454 87.3692,67.9074 C88.0672,67.8334 88.7622,67.7814 89.4512,67.7544 C89.5952,67.7484 89.7402,67.7464 89.8862,67.7434 C101.9352,67.4374 112.4232,74.2324 117.4682,84.2464 C118.1552,85.6134 119.5282,86.4974 121.0592,86.4974 C124.0642,86.4974 125.9602,83.3234 124.6042,80.6404 C118.6062,68.7734 106.5642,60.4604 92.5532,59.7724 C96.7952,48.3584 107.7752,40.2234 120.6672,40.2234 C136.3942,40.2234 149.2852,52.3274 150.5552,67.7264 C150.5932,67.7264 150.6292,67.7234 150.6672,67.7234 C167.2352,67.7234 180.6672,81.1554 180.6672,97.7234 C180.6672,110.3764 172.8312,121.1964 161.7492,125.6044 C162.8732,128.0314 163.7432,130.5644 164.3382,133.1694 C178.5542,127.6684 188.6672,113.8584 188.6672,97.7234" id="Fill-1" fill="#EE704D"></path>
            </g>
        </g>
    </g>
</svg>