<svg width="238" height="240" viewBox="0 0 238 240" xmlns="http://www.w3.org/2000/svg" xmlns:xlink="http://www.w3.org/1999/xlink"><title>Group</title><defs><path id="a" d="M27.641 27.257V.217H.602v27.04h27.039z"/></defs><g fill="none" fill-rule="evenodd"><path d="M126.827 164.215c-12.42 0-22.488-10.068-22.488-22.488 0-2.08.29-4.09.817-6.003a22.421 22.421 0 0 1 4.081-8c4.121-5.169 10.467-8.486 17.59-8.486 7.124 0 13.47 3.317 17.59 8.486a22.423 22.423 0 0 1 4.082 8c.528 1.912.816 3.923.816 6.003 0 12.42-10.068 22.488-22.488 22.488m29.79-28.96a30.245 30.245 0 0 0-2.806-7.696c-5.11-9.694-15.285-16.32-26.984-16.32-11.765 0-21.986 6.702-27.068 16.485a30.292 30.292 0 0 0-3.42 14.003c0 16.811 13.676 30.488 30.488 30.488 16.812 0 30.488-13.677 30.488-30.488 0-2.22-.245-4.385-.698-6.472" fill="#EE704D"/><path d="M137.09 138.304l-6.6-6.6a4 4 0 0 0-5.658 0l-6.599 6.6a4 4 0 0 0 0 5.656c1.491 1.49 3.857 1.542 5.428.188v7.609a4 4 0 0 0 8 0v-7.61c1.572 1.355 3.938 1.304 5.428-.187a4 4 0 0 0 0-5.656" fill="#EE704D"/><path d="M81.156 103.468l6.6 6.6a4 4 0 0 0 5.656 0l6.6-6.6a4 4 0 0 0 0-5.657c-1.492-1.49-3.856-1.543-5.428-.188v-7.609a4 4 0 1 0-8 0v7.61c-1.573-1.355-3.938-1.303-5.428.187a4 4 0 0 0 0 5.656" fill="#EE704D" opacity=".429"/><path d="M94.833 188.049a2 2 0 0 1 2-2h59.988a2 2 0 0 1 2 2v45.469a4 4 0 0 0 8 0v-51.469a4 4 0 0 0-4-4H90.833a4 4 0 0 0-4 4v51.469a4 4 0 0 0 8 0v-45.469zM45.03 143.183l-5.205-6.075 22.307-19.11 5.206 6.077z" fill="#EE704D"/><path fill="#EE704D" opacity=".196" d="M65.241 31.289l6.075-5.205L93.32 51.77l-6.075 5.205z"/><path fill="#EE704D" opacity=".216" d="M202.77 52.843l4.975 6.266-26.49 21.028-4.974-6.265z"/><path d="M131.661 204.79a4 4 0 1 1-8 0 4 4 0 0 1 8 0M31.045 75.784l2.82-7.487 31.652 11.918-2.82 7.486z" fill="#EE704D"/><path fill="#EE704D" opacity=".517" d="M177.574 118.596l4.373-6.7 38.935 25.417-4.373 6.698z"/><path d="M218 58.49c-6.075 0-11-4.925-11-11s4.925-11 11-11 11 4.925 11 11-4.925 11-11 11m0-30c-10.477 0-19 8.524-19 19 0 10.477 8.523 19 19 19s19-8.522 19-19c0-10.477-8.523-19-19-19" fill="#F9C5B7"/><path d="M27 172.363c-10.477 0-19-8.524-19-19 0-10.477 8.523-19 19-19s19 8.523 19 19c0 10.476-8.523 19-19 19m0-46c-14.888 0-27 12.112-27 27 0 14.887 12.112 27 27 27s27-12.113 27-27c0-14.888-12.112-27-27-27" fill="#FDBDAC"/><path d="M59.98 30c-6.074 0-11-4.925-11-11s4.926-11 11-11c6.076 0 11 4.925 11 11s-4.924 11-11 11m0-30c-10.476 0-19 8.523-19 19 0 10.476 8.524 19 19 19 10.478 0 19-8.524 19-19 0-10.477-8.522-19-19-19" fill="#FBB9A7"/><path d="M27 75.507a5.52 5.52 0 1 1 0-11.04 5.52 5.52 0 0 1 0 11.04m0-19.04c-7.455 0-13.52 6.065-13.52 13.52 0 7.456 6.065 13.52 13.52 13.52 7.454 0 13.52-6.064 13.52-13.52 0-7.455-6.066-13.52-13.52-13.52" fill="#FFCDBF"/><g transform="translate(210 132.133)"><mask id="b" fill="#fff"><use xlink:href="#a"/></mask><path d="M14.122 19.257a5.52 5.52 0 1 1 5.52-5.52 5.52 5.52 0 0 1-5.52 5.52m0-19.04C6.667.218.602 6.283.602 13.738c0 7.456 6.065 13.52 13.52 13.52 7.454 0 13.52-6.064 13.52-13.52 0-7.455-6.066-13.52-13.52-13.52" fill="#EE704D" mask="url(#b)"/></g><path d="M131.661 221.79a4 4 0 1 1-8 0 4 4 0 0 1 8 0" fill="#EE704D"/><path d="M76.444 182.447a4 4 0 0 0-4-4h-33.9a4 4 0 1 0 0 8h33.9a4 4 0 0 0 4-4M188.377 178.447h-9.979a4 4 0 0 0 0 8h9.98a4 4 0 1 0 0-8" fill="#F6B5A3"/><path d="M219.124 182.447a4 4 0 1 0-8 0 4 4 0 0 0 8 0" fill="#FCE0D9" opacity=".53"/><path d="M177.224 200.133a4 4 0 0 0 4 4h19.2a4 4 0 0 0 0-8h-19.2a4 4 0 0 0-4 4M49.587 204.133a4 4 0 0 0 0-8h-9.979a4 4 0 1 0 0 8h9.98zM75.333 204.133a4 4 0 1 0 0-8 4 4 0 0 0 0 8" fill="#EE704D"/><path d="M76.444 216.447a4 4 0 0 0-4-4h-33.9a4 4 0 1 0 0 8h33.9a4 4 0 0 0 4-4" fill="#FCE0D9" opacity=".379"/><path d="M188.377 212.447h-9.979a4 4 0 0 0 0 8h9.98a4 4 0 1 0 0-8" fill="#FCE0D9" opacity=".333"/><path d="M219.124 216.447a4 4 0 1 0-8 0 4 4 0 0 0 8 0" fill="#EE704D"/><path d="M177.224 235.133a4 4 0 0 0 4 4h19.2a4 4 0 0 0 0-8h-19.2a4 4 0 0 0-4 4" fill="#F6B5A3"/><path d="M49.587 239.133a4 4 0 0 0 0-8h-9.979a4 4 0 1 0 0 8h9.98z" fill="#F6B5A3" opacity=".524"/><path d="M75.333 239.133a4 4 0 1 0 0-8 4 4 0 0 0 0 8" fill="#FCE0D9"/><path d="M188.667 97.723c0-18.677-13.545-34.25-31.326-37.414-4.413-16.197-19.383-28.086-36.674-28.086-17.29 0-32.26 11.89-36.674 28.086-.02.004-.039.01-.059.013a37.613 37.613 0 0 0-15.028 6.266 39.215 39.215 0 0 0-1.249.916l-.172.13c-.35.272-.697.551-1.039.836-.083.068-.166.134-.248.204a35.68 35.68 0 0 0-.927.813c-.103.092-.207.182-.307.275-.282.26-.559.526-.833.795-.116.113-.234.225-.35.34-.257.258-.507.521-.756.786-.124.131-.249.26-.37.393-.238.26-.468.524-.699.79-.124.143-.25.285-.374.431-.226.268-.444.543-.663.818-.116.147-.235.291-.35.44a40.71 40.71 0 0 0-.653.878c-.102.14-.206.277-.306.418-.226.321-.444.648-.66.976-.08.12-.162.236-.239.356-.237.368-.466.742-.69 1.12-.05.082-.104.164-.153.248a35.68 35.68 0 0 0-.733 1.311c-.017.031-.035.061-.05.092a37.51 37.51 0 0 0-4.263 14.295c-.023.258-.033.513-.05.77-.024.336-.052.672-.067 1.012-.01.232-.01.462-.016.693-.008.333-.022.665-.022 1l.002.09c.001.53.018 1.058.04 1.584.005.097.004.197.01.295.03.623.078 1.242.14 1.858.02.185.047.368.068.553.05.428.1.855.163 1.278.035.236.08.47.12.704.062.367.124.735.196 1.1.051.253.111.504.166.756.075.34.151.678.235 1.013.065.262.137.522.21.782.087.32.175.64.271.957a40.35 40.35 0 0 0 1.196 3.368c.11.265.22.53.333.792.122.278.248.554.376.83a31.968 31.968 0 0 0 .78 1.576c.138.266.276.533.422.795.135.245.277.486.418.727.157.27.312.541.476.807.135.218.277.433.417.65.18.278.357.56.544.834.108.16.225.315.335.472a38.36 38.36 0 0 0 2.61 3.304c.076.087.15.176.226.262.278.31.567.611.856.911.113.118.222.238.336.354.284.287.575.566.867.845.126.12.251.243.38.361.293.272.594.538.896.801.133.115.265.232.4.345.307.261.62.515.936.766l.405.318a39.25 39.25 0 0 0 2.427 1.726c.124.081.25.16.374.24.367.235.737.464 1.113.686l.33.19c.397.23.798.454 1.204.67l.232.118c.444.232.891.457 1.345.671l.018.01a37.74 37.74 0 0 0 14.286 3.55c.08-.51.165-1.019.266-1.524a38.14 38.14 0 0 1 1.917-6.426h-.342a29.998 29.998 0 0 1-15.144-4.106l-.039-.022a33.188 33.188 0 0 1-1-.617l-.143-.09c-.313-.205-.62-.414-.924-.627-.059-.04-.116-.082-.175-.124a29.583 29.583 0 0 1-.882-.655l-.163-.128a29.305 29.305 0 0 1-.869-.703l-.097-.084a30.251 30.251 0 0 1-3.397-3.395c-.056-.065-.112-.128-.167-.194a28.072 28.072 0 0 1-.576-.714c-.093-.119-.187-.235-.278-.354a33.836 33.836 0 0 1-1.25-1.77c-.108-.162-.21-.325-.315-.489a30.552 30.552 0 0 1-.398-.65c-.107-.179-.208-.36-.31-.54-.12-.213-.24-.426-.356-.642-.107-.198-.206-.399-.308-.599-.104-.205-.21-.41-.309-.618-.113-.237-.218-.479-.325-.719-.079-.178-.162-.354-.238-.534a30.026 30.026 0 0 1-.493-1.25c-.059-.16-.112-.325-.168-.487a27.57 27.57 0 0 1-.284-.839c-.058-.183-.11-.369-.164-.554a27.84 27.84 0 0 1-.227-.798 34.621 34.621 0 0 1-.33-1.385 28.07 28.07 0 0 1-.119-.59 27.397 27.397 0 0 1-.239-1.415 24.065 24.065 0 0 1-.109-.85c-.022-.193-.046-.386-.063-.58-.03-.305-.05-.612-.07-.92-.012-.176-.027-.352-.035-.529-.017-.368-.024-.74-.028-1.112 0-.119-.008-.236-.007-.355 0-.495.013-.987.037-1.477.004-.087.014-.174.02-.262.023-.42.052-.838.093-1.253l.02-.164c.047-.442.101-.882.167-1.319.01-.054.017-.108.026-.16a30.538 30.538 0 0 1 .56-2.734c.013-.05.024-.102.038-.153.111-.43.233-.857.363-1.279l.034-.115c.287-.919.618-1.818.988-2.697.037-.087.078-.172.115-.259.14-.32.282-.639.432-.953.1-.209.205-.414.308-.62.093-.184.185-.368.281-.549.132-.247.268-.492.407-.735.073-.129.146-.259.222-.387.16-.272.323-.54.492-.808.052-.085.108-.169.162-.254.192-.298.387-.593.59-.883l.054-.078a30.384 30.384 0 0 1 3.984-4.615c.04-.037.078-.075.117-.11.252-.238.51-.468.768-.695.082-.07.163-.143.246-.213a31.203 31.203 0 0 1 1.73-1.376c.186-.137.377-.27.566-.402.165-.116.33-.235.497-.348a29.843 29.843 0 0 1 15.466-5.033c.144-.006.29-.008.435-.01 12.05-.307 22.537 6.488 27.582 16.502.687 1.367 2.06 2.251 3.591 2.251 3.005 0 4.901-3.174 3.545-5.857-5.998-11.867-18.04-20.18-32.05-20.868 4.241-11.414 15.221-19.549 28.113-19.549 15.727 0 28.618 12.104 29.888 27.503.038 0 .074-.003.112-.003 16.568 0 30 13.432 30 30 0 12.653-7.836 23.473-18.918 27.881a38.287 38.287 0 0 1 2.59 7.565c14.215-5.5 24.328-19.31 24.328-35.446" fill="#EE704D"/></g></svg>