<?xml version="1.0" encoding="UTF-8"?>
<svg width="256px" height="256px" viewBox="0 0 256 256" version="1.1" xmlns="http://www.w3.org/2000/svg" xmlns:xlink="http://www.w3.org/1999/xlink">
    <!-- Generator: Sketch 41.2 (35397) - http://www.bohemiancoding.com/sketch -->
    <title>营销</title>
    <desc>Created with Sketch.</desc>
    <defs>
        <polygon id="path-1" points="0 237.667 249.284 237.667 249.284 0 0 0"></polygon>
    </defs>
    <g id="Page-1" stroke="none" stroke-width="1" fill="none" fill-rule="evenodd">
        <g id="营销">
            <g id="Page-1" transform="translate(3.000000, 9.000000)">
                <path d="M27.7256,51.3336 C27.7256,49.1246 25.9346,47.3336 23.7256,47.3336 C21.5166,47.3336 19.7256,49.1246 19.7256,51.3336 C19.7256,53.5426 21.5166,55.3336 23.7256,55.3336 C25.9346,55.3336 27.7256,53.5426 27.7256,51.3336 Z" id="Fill-1" fill="#C8C7F2"></path>
                <path d="M35.5603,21.3336 C35.5603,23.5426 37.3513,25.3336 39.5603,25.3336 C41.7693,25.3336 43.5603,23.5426 43.5603,21.3336 C43.5603,19.1246 41.7693,17.3336 39.5603,17.3336 C37.3513,17.3336 35.5603,19.1246 35.5603,21.3336 Z" id="Fill-3" fill="#C8C7F2"></path>
                <path d="M50.562,21.3336 C50.562,23.5426 52.353,25.3336 54.562,25.3336 C56.771,25.3336 58.562,23.5426 58.562,21.3336 C58.562,19.1246 56.771,17.3336 54.562,17.3336 C52.353,17.3336 50.562,19.1246 50.562,21.3336 Z" id="Fill-5" fill="#C8C7F2"></path>
                <mask id="mask-2" fill="white">
                    <use xlink:href="#path-1"></use>
                </mask>
                <g id="Clip-8"></g>
                <path d="M8,34.25 L190.745,34.25 L190.745,8 L8,8 L8,34.25 Z M8,128 L8,42.25 L190.746,42.25 L190.746,59.013 C193.517,59.756 196.192,60.745 198.746,61.959 L198.746,4 C198.746,1.791 196.955,0 194.746,0 L4,0 C1.791,0 0,1.791 0,4 L0,132 C0,134.209 1.791,136 4,136 L98.156,136 C98.528,133.26 99.141,130.586 99.97,128 L8,128 Z" id="Fill-7" fill="#C9C7F2" mask="url(#mask-2)"></path>
                <path d="M209.9817,104.7183 C209.9817,106.8743 209.7627,108.9783 209.3487,111.0103 C209.5617,111.0063 209.7677,110.9783 209.9817,110.9783 C227.2697,110.9783 241.2837,124.9933 241.2837,142.2813 C241.2837,159.5693 227.2697,173.5833 209.9817,173.5833 L145.0297,173.5833 C127.7417,173.5833 113.7267,159.5693 113.7267,142.2813 C113.7267,140.1303 113.9447,138.0293 114.3577,136.0003 C114.9337,133.1753 115.8967,130.4933 117.1777,128.0003 C122.3687,117.8963 132.8877,110.9783 145.0297,110.9783 C146.0457,110.9783 147.0487,111.0363 148.0407,111.1313 C147.6097,109.0603 147.3767,106.9163 147.3767,104.7183 C147.3767,87.4303 161.3917,73.4163 178.6797,73.4163 C182.9567,73.4163 187.0317,74.2763 190.7457,75.8293 C193.6637,77.0493 196.3557,78.6993 198.7457,80.6983 C205.6117,86.4403 209.9817,95.0683 209.9817,104.7183 M190.7457,67.3203 C186.9407,66.0903 182.8887,65.4163 178.6797,65.4163 C157.4547,65.4163 140.1067,82.3253 139.3997,103.3803 C125.2317,105.4213 113.4867,115.0513 108.4177,128.0003 C107.4197,130.5483 106.6857,133.2273 106.2387,136.0003 C105.9087,138.0473 105.7267,140.1423 105.7267,142.2813 C105.7267,163.9523 123.3577,181.5833 145.0297,181.5833 L192.0597,181.5833 L192.0597,189.3653 C192.0597,191.5743 193.8507,193.3653 196.0597,193.3653 C198.2697,193.3653 200.0597,191.5743 200.0597,189.3653 L200.0597,181.5833 L209.9817,181.5833 C231.6537,181.5833 249.2837,163.9523 249.2837,142.2813 C249.2837,123.3463 235.8247,107.4963 217.9707,103.7943 C217.6477,89.8333 210.0087,77.6503 198.7457,70.9353 C196.2457,69.4443 193.5627,68.2313 190.7457,67.3203" id="Fill-9" fill="#5E5AE3" mask="url(#mask-2)"></path>
                <path d="M60.2937,119.207 C61.8557,120.769 64.3887,120.769 65.9507,119.207 L71.6077,113.55 L77.2637,107.893 L71.6077,102.236 L65.9507,96.58 C64.3887,95.017 61.8557,95.017 60.2937,96.58 C58.7317,98.142 58.7317,100.674 60.2937,102.236 L61.9507,103.893 L29.3937,103.893 L29.3937,74.936 C29.3937,72.726 27.6027,70.936 25.3937,70.936 C23.1847,70.936 21.3937,72.726 21.3937,74.936 L21.3937,103.893 L21.3937,104.936 L21.3937,111.893 L61.9507,111.893 L60.2937,113.55 C58.7317,115.112 58.7317,117.645 60.2937,119.207" id="Fill-10" fill="#5E5AE3" mask="url(#mask-2)"></path>
                <path d="M89.4624,57.2503 C89.4624,55.0413 87.6714,53.2503 85.4624,53.2503 L51.5624,53.2503 C49.3524,53.2503 47.5624,55.0413 47.5624,57.2503 C47.5624,59.4593 49.3524,61.2503 51.5624,61.2503 L85.4624,61.2503 C87.6714,61.2503 89.4624,59.4593 89.4624,57.2503" id="Fill-11" fill="#C8C7F2" mask="url(#mask-2)"></path>
                <path d="M121.3967,53.2503 L111.4177,53.2503 C109.2077,53.2503 107.4177,55.0413 107.4177,57.2503 C107.4177,59.4593 109.2077,61.2503 111.4177,61.2503 L121.3967,61.2503 C123.6057,61.2503 125.3967,59.4593 125.3967,57.2503 C125.3967,55.0413 123.6057,53.2503 121.3967,53.2503" id="Fill-12" fill="#C8C7F2" mask="url(#mask-2)"></path>
                <path d="M152.1436,57.2503 C152.1436,55.0413 150.3526,53.2503 148.1436,53.2503 C145.9346,53.2503 144.1436,55.0413 144.1436,57.2503 C144.1436,59.4593 145.9346,61.2503 148.1436,61.2503 C150.3526,61.2503 152.1436,59.4593 152.1436,57.2503" id="Fill-13" fill="#C8C7F2" mask="url(#mask-2)"></path>
                <path d="M110.2432,75.9355 C110.2432,78.1445 112.0342,79.9355 114.2432,79.9355 L133.4432,79.9355 C135.6522,79.9355 137.4432,78.1445 137.4432,75.9355 C137.4432,73.7265 135.6522,71.9355 133.4432,71.9355 L114.2432,71.9355 C112.0342,71.9355 110.2432,73.7265 110.2432,75.9355" id="Fill-14" fill="#C8C7F2" mask="url(#mask-2)"></path>
                <path d="M62.606,79.9355 C64.815,79.9355 66.606,78.1445 66.606,75.9355 C66.606,73.7265 64.815,71.9355 62.606,71.9355 L52.627,71.9355 C50.417,71.9355 48.627,73.7265 48.627,75.9355 C48.627,78.1445 50.417,79.9355 52.627,79.9355 L62.606,79.9355 Z" id="Fill-15" fill="#C8C7F2" mask="url(#mask-2)"></path>
                <path d="M88.3528,79.9355 C90.5618,79.9355 92.3528,78.1445 92.3528,75.9355 C92.3528,73.7265 90.5618,71.9355 88.3528,71.9355 C86.1438,71.9355 84.3528,73.7265 84.3528,75.9355 C84.3528,78.1445 86.1438,79.9355 88.3528,79.9355" id="Fill-16" fill="#C8C7F2" mask="url(#mask-2)"></path>
                <path d="M195.4768,121.0812 L186.7998,121.0812 L192.0538,115.8272 C193.6158,114.2652 193.6158,111.7332 192.0538,110.1702 C190.4918,108.6082 187.9598,108.6082 186.3968,110.1702 L179.4768,117.0912 L172.5568,110.1702 C170.9948,108.6082 168.4618,108.6082 166.8998,110.1702 C165.3378,111.7332 165.3378,114.2652 166.8998,115.8272 L172.1538,121.0812 L163.4768,121.0812 C161.2678,121.0812 159.4768,122.8722 159.4768,125.0812 C159.4768,127.2902 161.2678,129.0812 163.4768,129.0812 L175.4768,129.0812 L175.4768,137.2482 L168.4768,137.2482 C166.2678,137.2482 164.4768,139.0392 164.4768,141.2482 C164.4768,143.4572 166.2678,145.2482 168.4768,145.2482 L175.4768,145.2482 L175.4768,158.3312 C175.4768,160.5402 177.2678,162.3312 179.4768,162.3312 C181.6858,162.3312 183.4768,160.5402 183.4768,158.3312 L183.4768,145.2482 L190.4768,145.2482 C192.6858,145.2482 194.4768,143.4572 194.4768,141.2482 C194.4768,139.0392 192.6858,137.2482 190.4768,137.2482 L183.4768,137.2482 L183.4768,129.0812 L195.4768,129.0812 C197.6858,129.0812 199.4768,127.2902 199.4768,125.0812 C199.4768,122.8722 197.6858,121.0812 195.4768,121.0812" id="Fill-17" fill="#F27E35" mask="url(#mask-2)"></path>
                <path d="M23.7256,17.3336 C21.5166,17.3336 19.7256,19.1246 19.7256,21.3336 C19.7256,23.5426 21.5166,25.3336 23.7256,25.3336 C25.9346,25.3336 27.7256,23.5426 27.7256,21.3336 C27.7256,19.1246 25.9346,17.3336 23.7256,17.3336" id="Fill-18" fill="#C8C7F2" mask="url(#mask-2)"></path>
                <path d="M196.0603,196.667 C193.8513,196.667 192.0603,198.458 192.0603,200.667 C192.0603,202.876 193.8513,204.667 196.0603,204.667 C198.2693,204.667 200.0603,202.876 200.0603,200.667 C200.0603,198.458 198.2693,196.667 196.0603,196.667" id="Fill-19" fill="#5E5AE3" mask="url(#mask-2)"></path>
                <path d="M196.0601,226.0159 C198.2691,226.0159 200.0601,224.2249 200.0601,222.0159 L200.0601,211.9849 C200.0601,209.7759 198.2691,207.9849 196.0601,207.9849 C193.8511,207.9849 192.0601,209.7759 192.0601,211.9849 L192.0601,222.0159 C192.0601,224.2249 193.8511,226.0159 196.0601,226.0159" id="Fill-20" fill="#C8C7F2" mask="url(#mask-2)"></path>
                <path d="M182.521,196.6669 L53.912,196.6669 C51.702,196.6669 49.912,198.4579 49.912,200.6669 C49.912,202.8759 51.702,204.6669 53.912,204.6669 L107.06,204.6669 L107.06,222.0159 C107.06,222.2919 107.088,222.5619 107.141,222.8219 C107.248,223.3429 107.456,223.8269 107.743,224.2529 C107.887,224.4649 108.051,224.6639 108.231,224.8439 C108.593,225.2059 109.024,225.4989 109.503,225.7019 C109.981,225.9039 110.508,226.0159 111.06,226.0159 L173.967,226.0159 C176.177,226.0159 177.967,224.2249 177.967,222.0159 C177.967,219.8069 176.177,218.0159 173.967,218.0159 L115.06,218.0159 L115.06,204.6669 L182.521,204.6669 C184.73,204.6669 186.521,202.8759 186.521,200.6669 C186.521,198.4579 184.73,196.6669 182.521,196.6669" id="Fill-21" fill="#C8C7F2" mask="url(#mask-2)"></path>
                <path d="M40.8936,196.667 C38.6846,196.667 36.8936,198.458 36.8936,200.667 C36.8936,202.876 38.6846,204.667 40.8936,204.667 C43.1026,204.667 44.8936,202.876 44.8936,200.667 C44.8936,198.458 43.1026,196.667 40.8936,196.667" id="Fill-22" fill="#5E5AE3" mask="url(#mask-2)"></path>
                <path d="M228.1409,196.667 L211.9119,196.667 C209.7029,196.667 207.9119,198.458 207.9119,200.667 C207.9119,202.876 209.7029,204.667 211.9119,204.667 L228.1409,204.667 C230.3499,204.667 232.1409,202.876 232.1409,200.667 C232.1409,198.458 230.3499,196.667 228.1409,196.667" id="Fill-23" fill="#C8C7F2" mask="url(#mask-2)"></path>
                <path d="M240.7268,196.667 C238.5178,196.667 236.7268,198.458 236.7268,200.667 C236.7268,202.876 238.5178,204.667 240.7268,204.667 C242.9358,204.667 244.7268,202.876 244.7268,200.667 C244.7268,198.458 242.9358,196.667 240.7268,196.667" id="Fill-24" fill="#5E5AE3" mask="url(#mask-2)"></path>
                <path d="M240.7268,207.9847 C238.5178,207.9847 236.7268,209.7757 236.7268,211.9847 L236.7268,222.0157 C236.7268,224.2247 238.5178,226.0157 240.7268,226.0157 C242.9358,226.0157 244.7268,224.2247 244.7268,222.0157 L244.7268,211.9847 C244.7268,209.7757 242.9358,207.9847 240.7268,207.9847" id="Fill-25" fill="#C8C7F2" mask="url(#mask-2)"></path>
                <path d="M196.0603,229.667 C193.8513,229.667 192.0603,231.458 192.0603,233.667 C192.0603,235.876 193.8513,237.667 196.0603,237.667 C198.2693,237.667 200.0603,235.876 200.0603,233.667 C200.0603,231.458 198.2693,229.667 196.0603,229.667" id="Fill-26" fill="#5E5AE3" mask="url(#mask-2)"></path>
                <path d="M240.7268,229.667 C238.5178,229.667 236.7268,231.458 236.7268,233.667 C236.7268,235.876 238.5178,237.667 240.7268,237.667 C242.9358,237.667 244.7268,235.876 244.7268,233.667 C244.7268,231.458 242.9358,229.667 240.7268,229.667" id="Fill-27" fill="#5E5AE3" mask="url(#mask-2)"></path>
                <path d="M40.8936,225.667 C38.6846,225.667 36.8936,227.458 36.8936,229.667 C36.8936,231.876 38.6846,233.667 40.8936,233.667 C43.1026,233.667 44.8936,231.876 44.8936,229.667 C44.8936,227.458 43.1026,225.667 40.8936,225.667" id="Fill-28" fill="#5E5AE3" mask="url(#mask-2)"></path>
            </g>
        </g>
    </g>
</svg>