<svg width="244" height="225" viewBox="0 0 244 225" xmlns="http://www.w3.org/2000/svg"><title>Page 1</title><g fill="none" fill-rule="evenodd"><path d="M235.815 214.238a2 2 0 0 1-2 2H182.29a2 2 0 0 1-2-2V117.77a2 2 0 0 1 2-2H233.815a2 2 0 0 1 2 2v96.468zM172.289 111.77v63h-40.882a4 4 0 0 0-4 4v4a2 2 0 0 1-2 2h-39c-1.105 0-2-.894-2-2v-4a4 4 0 0 0-4-4H24.046V80.759a2 2 0 0 1 2-2H188.917a2 2 0 0 1 2 2V107.77h-14.628a4 4 0 0 0-4 4zm0 94H10a2 2 0 0 1-2-2v-19a2 2 0 0 1 2-2h66.407v10h59v-10h36.882v23zm67.525-98h-40.897V74.76a4 4 0 0 0-4-4H20.045a4 4 0 0 0-4 4v100.01H4a4 4 0 0 0-4 4v31a4 4 0 0 0 4 4h168.289v6.468a4 4 0 0 0 4 4h63.525c2.21 0 4-1.79 4-4V111.77a4 4 0 0 0-4-4z" fill="#F27E35"/><path d="M214.127 13.973a43.187 43.187 0 0 0-2.61-.85c-7.678-2.224-15.821-2.172-23.404.02a41.221 41.221 0 0 1 3.338 7.389c5.82-1.474 11.995-1.418 17.84.276.709.206 1.42.437 2.118.689 15.83 5.71 25.163 22.43 21.709 38.894a34.279 34.279 0 0 1-4.945 11.863l3.203 9.318a9.62 9.62 0 0 1-2.13 9.797 9.605 9.605 0 0 1-9.663 2.62 10.06 10.06 0 0 1-1.207-.437c-7.837-3.444-12.46-5.413-14.64-6.3a34.146 34.146 0 0 1-4.82.204v8.002a41.86 41.86 0 0 0 3.563-.067c2.1.883 5.966 2.535 12.688 5.488.714.313 1.45.58 2.19.795a17.58 17.58 0 0 0 17.684-4.791 17.59 17.59 0 0 0 3.9-17.913l-2.004-5.827a42.153 42.153 0 0 0 4.01-11.108c4.27-20.346-7.262-41.01-26.82-48.062" fill="#FACBAE" opacity=".513"/><path d="M177.596 35.699c-.528 8.333-5.082 15.636-11.707 20.012a25.85 25.85 0 0 1-7.679 3.456 25.599 25.599 0 0 1-4.812.785c-4.842.317-9.423-.691-13.416-2.698-.394-.198-12.17 1.331-18.368 2.153-1.427.189-2.388-1.412-1.56-2.588l8.14-11.562c-1.908-3.969-2.837-8.496-2.478-13.27.966-12.804 11.401-23.11 24.215-23.932 10.107-.648 19.067 4.487 23.911 12.412a25.847 25.847 0 0 1 3.16 7.778c.538 2.378.757 4.878.594 7.454m2.992-19.563a34.372 34.372 0 0 0-4.147-5.399C170.036 3.913 160.998 0 151.645 0c-.738 0-1.487.024-2.227.072-16.795 1.076-30.414 14.538-31.679 31.313a34.255 34.255 0 0 0 1.447 12.77l-5.672 8.057a9.62 9.62 0 0 0-.68 10.003 9.608 9.608 0 0 0 9.831 5.123c8.486-1.126 13.474-1.73 15.816-1.974a34.206 34.206 0 0 0 15.44 2.57 33.678 33.678 0 0 0 13.601-3.861c10.166-5.386 17.292-15.779 18.057-27.868a34.119 34.119 0 0 0-1.614-12.814 33.453 33.453 0 0 0-3.377-7.255" fill="#F27E35"/><path d="M140.986 31.245a4 4 0 1 0 0 8 4 4 0 0 0 0-8M163.866 31.245a4 4 0 1 0 0 8 4 4 0 0 0 0-8" fill="#F27E35"/><path d="M94.664 100.784a4 4 0 0 0-4-4h-33.9a4 4 0 0 0 0 8h33.9a4 4 0 0 0 4-4M126.598 96.784h-9.979a4 4 0 1 0 0 8h9.98a4 4 0 0 0 0-8" fill="#FACBAE"/><path d="M157.344 100.784a4 4 0 1 0-7.999 0 4 4 0 0 0 8 0" fill="#F27E35"/><path d="M115.444 118.469a4 4 0 0 0 4 4h19.2a4 4 0 1 0 0-8h-19.2a4 4 0 0 0-4 4M67.807 122.469a4 4 0 0 0 0-8h-9.979a4 4 0 0 0 0 8h9.98z" fill="#FACBAE"/><path d="M93.554 122.469a4 4 0 1 0 0-8 4 4 0 0 0 0 8M94.664 134.784a4 4 0 0 0-4-4h-33.9a4 4 0 0 0 0 8h33.9a4 4 0 0 0 4-4" fill="#F27E35"/><path d="M126.598 130.784h-9.979a4 4 0 1 0 0 8h9.98a4 4 0 1 0 0-8" fill="#FACBAE"/><path d="M157.344 134.784a4 4 0 1 0-7.999-.001 4 4 0 0 0 8 0M115.444 153.469a4 4 0 0 0 4 4h19.2a4 4 0 1 0 0-8h-19.2a4 4 0 0 0-4 4" fill="#F27E35"/><path d="M67.807 157.469a4 4 0 0 0 0-8h-9.979a4 4 0 0 0 0 8h9.98z" fill="#FACBAE"/><path d="M93.554 157.469a4 4 0 1 0 0-8 4 4 0 0 0 0 8" fill="#F27E35"/><path d="M208.052 201.77a4 4 0 1 0 0 8 4 4 0 0 0 0-8zM213.042 121.118h-9.98a4 4 0 0 0 0 8h9.98a4 4 0 0 0 0-8M90.891 46.844a2 2 0 0 1-2 2h-54.35a2 2 0 0 1-2-2V20.866l29.54 14.92.001-.002 28.81-14.55v25.61zm-3.715-32.696L62.08 26.823 36.985 14.148h50.191zm7.715-8H9.764a4 4 0 1 0 0 8H24.54V21.5h-7.212a4 4 0 1 0 0 8h7.212v7.295a4.012 4.012 0 0 0-.74-.075 4 4 0 0 0 0 8c.253 0 .5-.029.74-.075v8.2a4 4 0 0 0 4 4h66.351a4 4 0 0 0 4-4V10.147a4 4 0 0 0-4-4z" fill="#FACBAE"/></g></svg>