<svg width="250" height="238" viewBox="0 0 250 238" xmlns="http://www.w3.org/2000/svg" xmlns:xlink="http://www.w3.org/1999/xlink"><title>Page 1</title><defs><path id="a" d="M0 237.667h249.284V0H0z"/></defs><g fill="none" fill-rule="evenodd"><path d="M27.726 51.334a4 4 0 1 0-8 0 4 4 0 0 0 8 0zM35.56 21.334a4 4 0 1 0 8 0 4 4 0 0 0-8 0zM50.562 21.334a4 4 0 1 0 8 0 4 4 0 0 0-8 0z" fill="#C8C7F2"/><mask id="b" fill="#fff"><use xlink:href="#a"/></mask><path d="M8 34.25h182.745V8H8v26.25zM8 128V42.25h182.746v16.763a46.958 46.958 0 0 1 8 2.946V4a4 4 0 0 0-4-4H4a4 4 0 0 0-4 4v128a4 4 0 0 0 4 4h94.156c.372-2.74.985-5.414 1.814-8H8z" fill="#C9C7F2" mask="url(#b)"/><path d="M209.982 104.718c0 2.156-.22 4.26-.633 6.292.213-.004.419-.032.633-.032 17.288 0 31.302 14.015 31.302 31.303s-14.014 31.302-31.302 31.302H145.03c-17.288 0-31.303-14.014-31.303-31.302 0-2.15.218-4.252.63-6.28a31.08 31.08 0 0 1 2.82-8c5.192-10.105 15.71-17.023 27.853-17.023 1.016 0 2.019.058 3.01.153a31.443 31.443 0 0 1-.663-6.413c0-17.288 14.015-31.302 31.303-31.302 4.277 0 8.352.86 12.066 2.413a31.28 31.28 0 0 1 8 4.87c6.866 5.741 11.236 14.37 11.236 24.02M190.746 67.32a39.154 39.154 0 0 0-12.066-1.904c-21.225 0-38.573 16.91-39.28 37.964-14.168 2.041-25.913 11.671-30.982 24.62a38.9 38.9 0 0 0-2.18 8 39.414 39.414 0 0 0-.511 6.281c0 21.671 17.63 39.302 39.303 39.302h47.03v7.782a4 4 0 0 0 8 0v-7.782h9.922c21.672 0 39.302-17.63 39.302-39.302 0-18.935-13.46-34.785-31.313-38.487-.323-13.96-7.962-26.144-19.225-32.859a39.1 39.1 0 0 0-8-3.615M60.294 119.207a4 4 0 0 0 5.657 0l5.657-5.657 5.656-5.657-5.656-5.657-5.657-5.656a4 4 0 1 0-5.657 5.656l1.657 1.657H29.394V74.936a4 4 0 1 0-8 0v36.957H61.95l-1.657 1.657a4 4 0 0 0 0 5.657" fill="#5E5AE3" mask="url(#b)"/><path d="M89.462 57.25a4 4 0 0 0-4-4h-33.9a4 4 0 1 0 0 8h33.9a4 4 0 0 0 4-4M121.397 53.25h-9.98a4 4 0 1 0 0 8h9.98a4 4 0 0 0 0-8M152.144 57.25a4 4 0 1 0-8 0 4 4 0 0 0 8 0M110.243 75.936a4 4 0 0 0 4 4h19.2a4 4 0 0 0 0-8h-19.2a4 4 0 0 0-4 4M62.606 79.936a4 4 0 0 0 0-8h-9.979a4 4 0 1 0 0 8h9.979zM88.353 79.936a4 4 0 1 0 0-8 4 4 0 0 0 0 8" fill="#C8C7F2" mask="url(#b)"/><path d="M195.477 121.081H186.8l5.254-5.254a4 4 0 0 0-5.657-5.657l-6.92 6.921-6.92-6.92a4 4 0 0 0-5.657 5.656l5.254 5.254h-8.677a4 4 0 0 0 0 8h12v8.167h-7a4 4 0 0 0 0 8h7v13.083a4 4 0 0 0 8 0v-13.083h7a4 4 0 0 0 0-8h-7v-8.167h12a4 4 0 0 0 0-8" fill="#5E5AE3" mask="url(#b)"/><path d="M23.726 17.334a4 4 0 1 0 0 8 4 4 0 0 0 0-8" fill="#C8C7F2" mask="url(#b)"/><path d="M196.06 196.667a4 4 0 1 0 0 8 4 4 0 0 0 0-8" fill="#5E5AE3" mask="url(#b)"/><path d="M196.06 226.016a4 4 0 0 0 4-4v-10.031a4 4 0 0 0-8 0v10.03a4 4 0 0 0 4 4M182.521 196.667H53.912a4 4 0 1 0 0 8h53.148v17.349a4 4 0 0 0 4 4h62.907a4 4 0 1 0 0-8H115.06v-13.35h67.461a4 4 0 0 0 0-8" fill="#C8C7F2" mask="url(#b)"/><path d="M40.894 196.667a4 4 0 1 0 0 8 4 4 0 0 0 0-8" fill="#5E5AE3" mask="url(#b)"/><path d="M228.14 196.667h-16.228a4 4 0 0 0 0 8h16.229a4 4 0 0 0 0-8" fill="#C8C7F2" mask="url(#b)"/><path d="M240.727 196.667a4 4 0 1 0 0 8 4 4 0 0 0 0-8" fill="#5E5AE3" mask="url(#b)"/><path d="M240.727 207.985a4 4 0 0 0-4 4v10.03a4 4 0 0 0 8 0v-10.03a4 4 0 0 0-4-4" fill="#C8C7F2" mask="url(#b)"/><path d="M196.06 229.667a4 4 0 1 0 0 8 4 4 0 0 0 0-8M240.727 229.667a4 4 0 1 0 0 8 4 4 0 0 0 0-8M40.894 225.667a4 4 0 1 0 0 8 4 4 0 0 0 0-8" fill="#5E5AE3" mask="url(#b)"/></g></svg>