<?xml version="1.0" encoding="UTF-8"?>
<svg width="152px" height="92px" viewBox="0 0 152 92" version="1.1" xmlns="http://www.w3.org/2000/svg" xmlns:xlink="http://www.w3.org/1999/xlink">
    <!-- Generator: Sketch 42 (36781) - http://www.bohemiancoding.com/sketch -->
    <title>Rectangle 7 Copy 3</title>
    <desc>Created with Sketch.</desc>
    <defs>
        <rect id="path-1" x="358" y="6893" width="150" height="90"></rect>
        <mask id="mask-2" maskContentUnits="userSpaceOnUse" maskUnits="objectBoundingBox" x="-1" y="-1" width="152" height="92">
            <rect x="357" y="6892" width="152" height="92" fill="white"></rect>
            <use xlink:href="#path-1" fill="black"></use>
        </mask>
        <linearGradient x1="50%" y1="0%" x2="50%" y2="100%" id="linearGradient-3">
            <stop stop-color="#F08869" offset="0%"></stop>
            <stop stop-color="#E03F33" offset="100%"></stop>
        </linearGradient>
    </defs>
    <g id="Page-1" stroke="none" stroke-width="1" fill="none" fill-rule="evenodd">
        <g id="用友云整体方案" transform="translate(-357.000000, -6892.000000)">
            <g id="Rectangle-7-Copy-3">
                <use fill="#FFFFFF" fill-rule="evenodd" xlink:href="#path-1"></use>
                <use stroke="#E9E9E9" mask="url(#mask-2)" stroke-width="2" xlink:href="#path-1"></use>
            </g>
            <text id="携程、滴滴等商旅服务" font-family="PingFangSC-Regular, PingFang SC" font-size="12" font-weight="normal" fill="#333333">
                <tspan x="373" y="6962">携程、滴滴等商旅服务</tspan>
            </text>
            <path d="M442.32592,6918.54933 L439.706675,6918.54933 L439.706675,6914.80755 C439.706675,6912.74957 438.022875,6911.06577 435.964896,6911.06577 L428.48134,6911.06577 C426.423362,6911.06577 424.739562,6912.74957 424.739562,6914.80755 L424.739562,6918.54933 L422.619245,6918.54933 C421.184872,6918.54933 420,6919.73424 420,6921.16857 L420,6937.19585 C420,6938.50547 420.997783,6939.56566 422.307406,6939.75275 L422.307406,6940.37636 C422.307406,6940.75054 422.55687,6941 422.931048,6941 L425.425579,6941 C425.799756,6941 426.049184,6940.75054 426.049184,6940.37636 L426.049184,6939.75275 L438.521803,6939.75275 L438.521803,6940.37636 C438.521803,6940.75054 438.77123,6941 439.145408,6941 L441.639939,6941 C442.014117,6941 442.263581,6940.75054 442.263581,6940.37636 L442.263581,6939.75275 L442.388295,6939.75275 C443.822631,6939.75275 445.00754,6938.56784 445.00754,6937.13351 L445.00754,6921.16857 C444.945164,6919.73424 443.760292,6918.54933 442.32592,6918.54933 L442.32592,6918.54933 Z M426.79754,6935.38733 L427.732984,6935.38733 L427.732984,6922.91475 L426.79754,6922.91475 L426.79754,6935.38733 Z M431.786602,6935.38733 L432.722046,6935.38733 L432.722046,6922.91475 L431.786602,6922.91475 L431.786602,6935.38733 Z M436.775627,6935.38733 L437.711072,6935.38733 L437.711072,6922.91475 L436.775627,6922.91475 L436.775627,6935.38733 Z M437.898161,6918.54933 L426.672826,6918.54933 L426.672826,6914.80755 C426.672826,6913.74739 427.483557,6912.93666 428.543715,6912.93666 L436.027272,6912.93666 C437.08743,6912.93666 437.898161,6913.74739 437.898161,6914.80755 L437.898161,6918.54933 L437.898161,6918.54933 Z" id="旅行箱glyph_01" fill="url(#linearGradient-3)"></path>
        </g>
    </g>
</svg>