<?xml version="1.0" encoding="UTF-8"?>
<svg width="152px" height="92px" viewBox="0 0 152 92" version="1.1" xmlns="http://www.w3.org/2000/svg" xmlns:xlink="http://www.w3.org/1999/xlink">
    <!-- Generator: Sketch 42 (36781) - http://www.bohemiancoding.com/sketch -->
    <title>Rectangle 7 Copy 3</title>
    <desc>Created with Sketch.</desc>
    <defs>
        <rect id="path-1" x="1413" y="7303" width="150" height="90"></rect>
        <mask id="mask-2" maskContentUnits="userSpaceOnUse" maskUnits="objectBoundingBox" x="-1" y="-1" width="152" height="92">
            <rect x="1412" y="7302" width="152" height="92" fill="white"></rect>
            <use xlink:href="#path-1" fill="black"></use>
        </mask>
        <linearGradient x1="50%" y1="0%" x2="50%" y2="100%" id="linearGradient-3">
            <stop stop-color="#F49574" offset="0%"></stop>
            <stop stop-color="#DF4137" offset="100%"></stop>
        </linearGradient>
    </defs>
    <g id="Page-1" stroke="none" stroke-width="1" fill="none" fill-rule="evenodd">
        <g id="用友云整体方案" transform="translate(-1412.000000, -7302.000000)">
            <rect id="Rectangle-7-Copy-3" fill="#FFFFFF" x="1413" y="7303" width="150" height="90"></rect>
            <g id="Rectangle-7-Copy-3">
                <use fill="#FFFFFF" fill-rule="evenodd" xlink:href="#path-1"></use>
                <use stroke="#E9E9E9" mask="url(#mask-2)" stroke-width="2" xlink:href="#path-1"></use>
            </g>
            <path d="M1486.95991,7347.1458 C1486.95991,7347.1458 1475,7342.99201 1475,7335.67369 L1475,7323.35256 L1486.95991,7319.10345 L1498.91982,7323.35256 L1498.91982,7335.67369 C1498.91982,7342.99201 1486.95991,7347.1458 1486.95991,7347.1458 L1486.95991,7347.1458 Z M1491.93453,7328.74792 L1485.96515,7334.6971 L1482.68882,7331.43227 L1480.69926,7333.41487 L1483.97486,7336.67971 L1485.96515,7338.66228 L1493.9241,7330.73121 L1491.93453,7328.74792 L1491.93453,7328.74792 Z" id="安全" fill="url(#linearGradient-3)"></path>
            <text id="安全服务平台" font-family="PingFangSC-Regular, PingFang SC" font-size="12" font-weight="normal" fill="#333333">
                <tspan x="1452.5" y="7372">安全服务平台</tspan>
            </text>
        </g>
    </g>
</svg>