<?xml version="1.0" encoding="UTF-8"?>
<svg width="152px" height="92px" viewBox="0 0 152 92" version="1.1" xmlns="http://www.w3.org/2000/svg" xmlns:xlink="http://www.w3.org/1999/xlink">
    <!-- Generator: Sketch 42 (36781) - http://www.bohemiancoding.com/sketch -->
    <title>Rectangle 7 Copy 3</title>
    <desc>Created with Sketch.</desc>
    <defs>
        <rect id="path-1" x="358" y="7303" width="150" height="90"></rect>
        <mask id="mask-2" maskContentUnits="userSpaceOnUse" maskUnits="objectBoundingBox" x="-1" y="-1" width="152" height="92">
            <rect x="357" y="7302" width="152" height="92" fill="white"></rect>
            <use xlink:href="#path-1" fill="black"></use>
        </mask>
        <linearGradient x1="50%" y1="0%" x2="50%" y2="100%" id="linearGradient-3">
            <stop stop-color="#F59776" offset="0%"></stop>
            <stop stop-color="#DD3730" offset="100%"></stop>
        </linearGradient>
    </defs>
    <g id="Page-1" stroke="none" stroke-width="1" fill="none" fill-rule="evenodd">
        <g id="用友云整体方案" transform="translate(-357.000000, -7302.000000)">
            <g id="Rectangle-7-Copy-3">
                <use fill="#FFFFFF" fill-rule="evenodd" xlink:href="#path-1"></use>
                <use stroke="#E9E9E9" mask="url(#mask-2)" stroke-width="2" xlink:href="#path-1"></use>
            </g>
            <text id="运营服务平台" font-family="PingFangSC-Regular, PingFang SC" font-size="12" font-weight="normal" fill="#333333">
                <tspan x="398" y="7372">运营服务平台</tspan>
            </text>
            <path d="M429.379115,7329.22195 C429.379115,7326.77522 427.340177,7324.73628 424.689558,7324.73628 C422.038938,7324.73628 420,7326.77522 420,7329.22195 C420,7330.44531 420.407788,7331.46478 421.223363,7332.48425 C421.223363,7333.29982 421.019469,7334.1154 421.019469,7335.13487 C421.019469,7339.41664 423.262301,7343.29062 426.932389,7345.32956 L427.951858,7341.65947 C425.91292,7340.02832 424.689558,7337.78549 424.689558,7335.13487 C424.689558,7334.72708 424.689558,7334.1154 424.893451,7333.70761 C427.340177,7333.70761 429.379115,7331.66867 429.379115,7329.22195 L429.379115,7329.22195 Z M433.456991,7326.57133 C435.088142,7326.57133 436.515398,7326.97912 437.942655,7327.79469 C437.534867,7328.20248 437.534867,7328.81416 437.534867,7329.42584 C437.534867,7331.87257 439.573805,7333.9115 442.224425,7333.9115 C444.875044,7333.9115 446.913982,7331.87257 446.913982,7329.42584 C446.913982,7326.97912 444.875044,7324.94018 442.224425,7324.94018 C441.612743,7324.94018 441.001062,7325.14407 440.593274,7325.34796 C438.554336,7323.92071 436.107611,7323.10513 433.456991,7323.10513 C431.621947,7323.10513 429.990796,7323.51292 428.56354,7324.1246 L430.602478,7327.18301 C431.418053,7326.77522 432.437522,7326.57133 433.456991,7326.57133 L433.456991,7326.57133 Z M442.020531,7335.54265 C441.816637,7338.60106 439.981593,7341.25168 437.330973,7342.67894 C436.515398,7341.25168 435.088142,7340.23221 433.253097,7340.23221 C430.602478,7340.23221 428.56354,7342.27115 428.56354,7344.71788 C428.56354,7347.1646 430.602478,7349.20354 433.253097,7349.20354 C435.088142,7349.20354 436.923186,7347.98018 437.534867,7346.34903 C442.224425,7344.71788 445.690619,7340.23221 445.690619,7334.93097 L445.690619,7334.1154 L442.020531,7335.54265 L442.020531,7335.54265 Z" id="运营" fill="url(#linearGradient-3)"></path>
        </g>
    </g>
</svg>