<?xml version="1.0" encoding="UTF-8"?>
<svg width="152px" height="92px" viewBox="0 0 152 92" version="1.1" xmlns="http://www.w3.org/2000/svg" xmlns:xlink="http://www.w3.org/1999/xlink">
    <!-- Generator: Sketch 42 (36781) - http://www.bohemiancoding.com/sketch -->
    <title>Rectangle 7 Copy 3</title>
    <desc>Created with Sketch.</desc>
    <defs>
        <rect id="path-1" x="1413" y="6893" width="150" height="90"></rect>
        <mask id="mask-2" maskContentUnits="userSpaceOnUse" maskUnits="objectBoundingBox" x="-1" y="-1" width="152" height="92">
            <rect x="1412" y="6892" width="152" height="92" fill="white"></rect>
            <use xlink:href="#path-1" fill="black"></use>
        </mask>
        <linearGradient x1="50%" y1="0%" x2="50%" y2="100%" id="linearGradient-3">
            <stop stop-color="#F0896A" offset="0%"></stop>
            <stop stop-color="#E03F32" offset="100%"></stop>
        </linearGradient>
    </defs>
    <g id="Page-1" stroke="none" stroke-width="1" fill="none" fill-rule="evenodd">
        <g id="用友云整体方案" transform="translate(-1412.000000, -6892.000000)">
            <g id="Rectangle-7-Copy-3">
                <use fill="#FFFFFF" fill-rule="evenodd" xlink:href="#path-1"></use>
                <use stroke="#E9E9E9" mask="url(#mask-2)" stroke-width="2" xlink:href="#path-1"></use>
            </g>
            <text id="天猫、京东等B2C电商" font-family="PingFangSC-Regular, PingFang SC" font-size="12" font-weight="normal" fill="#333333">
                <tspan x="1427.97" y="6960">天猫、京东等B2C电商</tspan>
            </text>
            <path d="M1502.94737,6911.66581 L1500.08191,6919.68813 C1499.7957,6920.76277 1499.17487,6921.40722 1498.36282,6921.40722 L1482.6463,6921.40722 L1482.88831,6923.74496 L1497.44966,6923.74496 C1498.13464,6923.74496 1498.68997,6924.30029 1498.68997,6924.98535 C1498.68997,6925.67036 1498.13468,6926.22557 1497.44966,6926.22557 L1481.81514,6926.22557 C1481.78175,6926.22557 1481.75045,6926.21841 1481.71781,6926.21581 C1481.66795,6926.21376 1481.61939,6926.20885 1481.57099,6926.20102 C1481.56718,6926.20031 1481.56353,6926.19951 1481.5598,6926.19872 C1481.02563,6926.10679 1480.59415,6925.67485 1480.53553,6925.10925 L1478.82193,6908.55109 L1474.24031,6908.55109 C1473.55534,6908.55109 1473,6907.9958 1473,6907.31082 C1473,6906.62585 1473.55529,6906.07052 1474.24031,6906.07052 L1479.89271,6906.07052 C1480.0976,6906.07052 1480.28807,6906.1249 1480.45844,6906.21302 C1480.84358,6906.39021 1481.13008,6906.75603 1481.17689,6907.20834 L1481.46034,6909.94676 L1501.22828,6909.94676 C1502.17772,6909.94676 1502.94737,6910.71641 1502.94737,6911.66581 L1502.94737,6911.66581 Z M1482.97441,6926.7383 C1482.00201,6926.7383 1481.21367,6927.52659 1481.21367,6928.49899 C1481.21367,6929.4714 1482.00201,6930.25978 1482.97441,6930.25978 C1483.94682,6930.25978 1484.73511,6929.4714 1484.73511,6928.49899 C1484.73511,6927.52659 1483.94682,6926.7383 1482.97441,6926.7383 L1482.97441,6926.7383 Z M1495.86792,6926.7383 C1494.89552,6926.7383 1494.10722,6927.52659 1494.10722,6928.49899 C1494.10722,6929.4714 1494.89552,6930.25978 1495.86792,6930.25978 C1496.84036,6930.25978 1497.62866,6929.4714 1497.62866,6928.49899 C1497.62866,6927.52659 1496.84036,6926.7383 1495.86792,6926.7383 L1495.86792,6926.7383 Z" id="电商购物" fill="url(#linearGradient-3)"></path>
        </g>
    </g>
</svg>