<?xml version="1.0" encoding="UTF-8"?>
<svg width="152px" height="92px" viewBox="0 0 152 92" version="1.1" xmlns="http://www.w3.org/2000/svg" xmlns:xlink="http://www.w3.org/1999/xlink">
    <!-- Generator: Sketch 42 (36781) - http://www.bohemiancoding.com/sketch -->
    <title>Rectangle 7 Copy 3</title>
    <desc>Created with Sketch.</desc>
    <defs>
        <rect id="path-1" x="358" y="7016" width="150" height="90"></rect>
        <mask id="mask-2" maskContentUnits="userSpaceOnUse" maskUnits="objectBoundingBox" x="-1" y="-1" width="152" height="92">
            <rect x="357" y="7015" width="152" height="92" fill="white"></rect>
            <use xlink:href="#path-1" fill="black"></use>
        </mask>
        <linearGradient x1="50%" y1="0%" x2="50%" y2="100%" id="linearGradient-3">
            <stop stop-color="#F08A6A" offset="0%"></stop>
            <stop stop-color="#E03F33" offset="100%"></stop>
        </linearGradient>
    </defs>
    <g id="Page-1" stroke="none" stroke-width="1" fill="none" fill-rule="evenodd">
        <g id="用友云整体方案" transform="translate(-357.000000, -7015.000000)">
            <g id="Rectangle-7-Copy-3">
                <use fill="#FFFFFF" fill-rule="evenodd" xlink:href="#path-1"></use>
                <use stroke="#E9E9E9" mask="url(#mask-2)" stroke-width="2" xlink:href="#path-1"></use>
            </g>
            <text id="前程无忧、猎聘" font-family="PingFangSC-Regular, PingFang SC" font-size="12" font-weight="normal" fill="#333333">
                <tspan x="391.5" y="7084">前程无忧、猎聘</tspan>
            </text>
            <g id="领带_tie3" transform="translate(425.000000, 7032.000000)" fill="url(#linearGradient-3)">
                <path d="M7.49934146,30 C8.29492683,30 14.9920244,26.2359512 14.9920244,25.350439 C14.9920244,24.4649634 9.77981707,6.522 9.77981707,6.522 L13.8163537,1.20903659 C13.8163537,1.20903659 14.7576951,0.0292682927 12.8750122,0.0292682927 L2.20404878,0.0292682927 C0.31997561,0.0292682927 0.948,1.20903659 0.948,1.20903659 L5.21882927,6.522 C5.21882927,6.522 0.00665853659,24.3600366 0.00665853659,25.350439 C0.00665853659,26.3408415 6.7037561,30 7.49934146,30" id="Fill-1"></path>
                <path d="M14.711378,19.1015488 L16.1377317,17.048561 C16.4060854,16.6616707 16.4278902,16.0172927 16.1840488,15.6126951 L10.9051098,6.84080488 L14.711378,19.1015488" id="Fill-2"></path>
            </g>
        </g>
    </g>
</svg>