<?xml version="1.0" encoding="UTF-8"?>
<svg width="152px" height="92px" viewBox="0 0 152 92" version="1.1" xmlns="http://www.w3.org/2000/svg" xmlns:xlink="http://www.w3.org/1999/xlink">
    <!-- Generator: Sketch 42 (36781) - http://www.bohemiancoding.com/sketch -->
    <title>Rectangle 7 Copy 3</title>
    <desc>Created with Sketch.</desc>
    <defs>
        <rect id="path-1" x="1413" y="7016" width="150" height="90"></rect>
        <mask id="mask-2" maskContentUnits="userSpaceOnUse" maskUnits="objectBoundingBox" x="-1" y="-1" width="152" height="92">
            <rect x="1412" y="7015" width="152" height="92" fill="white"></rect>
            <use xlink:href="#path-1" fill="black"></use>
        </mask>
        <linearGradient x1="50%" y1="0%" x2="50%" y2="100%" id="linearGradient-3">
            <stop stop-color="#F5A68E" offset="0%"></stop>
            <stop stop-color="#E14336" offset="100%"></stop>
        </linearGradient>
    </defs>
    <g id="Page-1" stroke="none" stroke-width="1" fill="none" fill-rule="evenodd">
        <g id="用友云整体方案" transform="translate(-1412.000000, -7015.000000)">
            <g id="Rectangle-7-Copy-3">
                <use fill="#FFFFFF" fill-rule="evenodd" xlink:href="#path-1"></use>
                <use stroke="#E9E9E9" mask="url(#mask-2)" stroke-width="2" xlink:href="#path-1"></use>
            </g>
            <text id="1688、慧聪、西域等行业电商平台" font-family="PingFangSC-Regular, PingFang SC" font-size="12" font-weight="normal" fill="#333333">
                <tspan x="1433.294" y="7072">1688、慧聪、西域等</tspan>
                <tspan x="1452.5" y="7089">行业电商平台</tspan>
            </text>
            <g id="电商快递" transform="translate(1473.000000, 7024.000000)" fill="url(#linearGradient-3)">
                <path d="M23.6509397,17.3114306 C22.0589201,17.3114306 20.7687097,18.6018934 20.7687097,20.1943338 C20.7687097,21.7867321 22.058878,23.077195 23.6509397,23.077195 C25.2429593,23.077195 26.5331697,21.7867321 26.5331697,20.1943338 C26.5331697,18.6018513 25.2429593,17.3113885 23.6509397,17.3114306" id="Fill-1"></path>
                <path d="M29.1092146,10.3699439 L26.5331697,5.7797756 C26.0062973,5.14464236 25.650547,4.62664797 24.8038149,4.62664797 L20.7686676,4.62664797 L20.7686676,1.1670547 C20.7686676,0.531921459 20.2507994,0.0139691445 19.6157924,0.0139691445 L1.16941094,0.0139691445 C0.534403927,0.0139691445 0.0165357644,0.531921459 0.0165357644,1.1670547 L0.0165357644,18.4645161 C0.0165357644,19.0996914 0.534403927,19.6176858 1.16941094,19.6176858 L3.46842917,19.6176858 C3.75113604,17.6310799 5.44670407,16.0929593 7.51035063,16.0929593 C9.57403927,16.0929593 11.2696494,17.6310799 11.5523142,19.6176858 L19.6090182,19.6165077 C19.8927349,17.6301122 21.5883029,16.0929593 23.6509818,16.0929593 C25.7147125,16.0929593 27.4102384,17.631122 27.6929453,19.6176858 L28.8390884,19.6176858 C29.4740533,19.6176858 29.9919215,19.0996914 29.9919215,18.4645161 L29.9919215,12.6987518 C29.9918373,11.6063394 29.1092146,10.3699439 29.1092146,10.3699439 L29.1092146,10.3699439 Z M21.9216269,12.6987518 L21.9216269,6.9329453 L24.7419215,6.9329453 C24.9276438,6.9329453 25.185568,7.20546985 25.185568,7.20546985 L27.6128752,11.7190603 C27.8278822,12.0354698 28.0609818,12.4104909 28.0609818,12.6987518 L21.9216269,12.6987518 L21.9216269,12.6987518 Z" id="Fill-2"></path>
                <path d="M7.51035063,17.3114306 C5.918331,17.3114306 4.62812062,18.6018934 4.62812062,20.1943338 C4.62812062,21.7867321 5.918331,23.077195 7.51035063,23.077195 C9.10237027,23.077195 10.3926227,21.7867321 10.3926227,20.1943338 C10.3926227,18.6018513 9.10237027,17.3113885 7.51035063,17.3114306" id="Fill-3"></path>
            </g>
        </g>
    </g>
</svg>