<?xml version="1.0" encoding="UTF-8"?>
<svg width="152px" height="92px" viewBox="0 0 152 92" version="1.1" xmlns="http://www.w3.org/2000/svg" xmlns:xlink="http://www.w3.org/1999/xlink">
    <!-- Generator: Sketch 42 (36781) - http://www.bohemiancoding.com/sketch -->
    <title>Rectangle 7 Copy 3</title>
    <desc>Created with Sketch.</desc>
    <defs>
        <rect id="path-1" x="358" y="7139" width="150" height="90"></rect>
        <mask id="mask-2" maskContentUnits="userSpaceOnUse" maskUnits="objectBoundingBox" x="-1" y="-1" width="152" height="92">
            <rect x="357" y="7138" width="152" height="92" fill="white"></rect>
            <use xlink:href="#path-1" fill="black"></use>
        </mask>
        <linearGradient x1="50%" y1="0%" x2="50%" y2="100%" id="linearGradient-3">
            <stop stop-color="#F18A6B" offset="0%"></stop>
            <stop stop-color="#E04033" offset="100%"></stop>
        </linearGradient>
    </defs>
    <g id="Page-1" stroke="none" stroke-width="1" fill="none" fill-rule="evenodd">
        <g id="用友云整体方案" transform="translate(-357.000000, -7138.000000)">
            <g id="Rectangle-7-Copy-3">
                <use fill="#FFFFFF" fill-rule="evenodd" xlink:href="#path-1"></use>
                <use stroke="#E9E9E9" mask="url(#mask-2)" stroke-width="2" xlink:href="#path-1"></use>
            </g>
            <text id="微信、钉钉等社交平台" font-family="PingFangSC-Regular, PingFang SC" font-size="12" font-weight="normal" fill="#333333">
                <tspan x="374" y="7204">微信、钉钉等社交平台</tspan>
            </text>
            <path d="M427.610619,7157.09151 C426.237704,7157.09151 425.111156,7158.21806 425.111156,7159.59102 L425.111156,7160.64713 L437.555701,7160.64713 C439.720745,7160.64713 441.480936,7162.40732 441.480936,7164.57232 L441.480936,7174.51741 C441.480936,7175.04546 441.375351,7175.53833 441.181712,7176.01357 L443.64598,7178.47784 C443.89239,7178.72429 444.332438,7178.54827 444.332438,7178.19623 L444.332438,7172.77483 L445.388553,7172.77483 C446.761511,7172.77483 447.888059,7171.64833 447.888059,7170.27537 L447.888059,7159.62621 C447.888059,7158.25325 446.761511,7157.12675 445.388553,7157.12675 L427.610619,7157.12675 L427.610619,7157.09151 L427.610619,7157.09151 Z M420.499463,7162.07286 C419.126505,7162.07286 418,7163.19941 418,7164.57232 L418,7174.51741 C418,7175.89036 419.126505,7177.01691 420.499463,7177.01691 L421.555578,7177.01691 L421.555578,7182.47351 C421.555578,7182.82554 421.978007,7183.00156 422.224459,7182.75511 L427.962658,7177.01691 L437.555701,7177.01691 C438.928659,7177.01691 440.055207,7175.89036 440.055207,7174.51741 L440.055207,7164.57232 C440.055207,7163.19941 438.928659,7162.07286 437.555701,7162.07286 L420.499463,7162.07286 L420.499463,7162.07286 Z M424.055041,7168.11033 C424.847127,7168.11033 425.480814,7168.74401 425.480814,7169.5361 C425.480814,7170.32818 424.847127,7170.96183 424.055041,7170.96183 C423.262955,7170.96183 422.629312,7170.32818 422.629312,7169.5361 C422.629312,7168.76159 423.262955,7168.11033 424.055041,7168.11033 L424.055041,7168.11033 Z M429.018773,7168.11033 C429.810859,7168.11033 430.444545,7168.74401 430.444545,7169.5361 C430.444545,7170.32818 429.810859,7170.96183 429.018773,7170.96183 C428.226686,7170.96183 427.593043,7170.32818 427.593043,7169.5361 C427.610619,7168.76159 428.244305,7168.11033 429.018773,7168.11033 L429.018773,7168.11033 Z M434.000123,7168.11033 C434.792209,7168.11033 435.425895,7168.74401 435.425895,7169.5361 C435.425895,7170.32818 434.792209,7170.96183 434.000123,7170.96183 C433.208037,7170.96183 432.574394,7170.32818 432.574394,7169.5361 C432.574394,7168.76159 433.225656,7168.11033 434.000123,7168.11033 L434.000123,7168.11033 Z" id="聊天" fill="url(#linearGradient-3)"></path>
        </g>
    </g>
</svg>