<?xml version="1.0" encoding="UTF-8"?>
<svg width="152px" height="92px" viewBox="0 0 152 92" version="1.1" xmlns="http://www.w3.org/2000/svg" xmlns:xlink="http://www.w3.org/1999/xlink">
    <!-- Generator: Sketch 42 (36781) - http://www.bohemiancoding.com/sketch -->
    <title>Rectangle 7 Copy 3</title>
    <desc>Created with Sketch.</desc>
    <defs>
        <rect id="path-1" x="1413" y="7139" width="150" height="90"></rect>
        <mask id="mask-2" maskContentUnits="userSpaceOnUse" maskUnits="objectBoundingBox" x="-1" y="-1" width="152" height="92">
            <rect x="1412" y="7138" width="152" height="92" fill="white"></rect>
            <use xlink:href="#path-1" fill="black"></use>
        </mask>
        <linearGradient x1="50%" y1="0%" x2="50%" y2="100%" id="linearGradient-3">
            <stop stop-color="#F18A6B" offset="0%"></stop>
            <stop stop-color="#E04033" offset="100%"></stop>
        </linearGradient>
    </defs>
    <g id="Page-1" stroke="none" stroke-width="1" fill="none" fill-rule="evenodd">
        <g id="用友云整体方案" transform="translate(-1412.000000, -7138.000000)">
            <g id="Rectangle-7-Copy-3">
                <use fill="#FFFFFF" fill-rule="evenodd" xlink:href="#path-1"></use>
                <use stroke="#E9E9E9" mask="url(#mask-2)" stroke-width="2" xlink:href="#path-1"></use>
            </g>
            <text id="产业链核心企业、政府公共服务" font-family="PingFangSC-Regular, PingFang SC" font-size="12" font-weight="normal" fill="#333333">
                <tspan x="1440.5" y="7199">产业链核心企业、</tspan>
                <tspan x="1452.5" y="7216">政府公共服务</tspan>
            </text>
            <path d="M1499.87686,7174.00572 L1498.05676,7174.00572 L1498.05676,7172.49557 L1477.93162,7172.49557 L1477.93162,7174.00572 L1476.16983,7174.00572 L1476.16983,7175.45803 L1474.82148,7175.45803 L1474.82148,7176.97 L1501.16848,7176.97 L1501.16848,7175.45803 L1499.87686,7175.45803 L1499.87686,7174.00572 L1499.87686,7174.00572 Z M1482.27388,7171.27387 L1482.27388,7163.7159 L1483.15387,7163.7159 L1483.15387,7162.72227 C1483.15387,7162.115 1482.65765,7161.62244 1482.04358,7161.62244 L1478.16,7161.62244 C1477.54687,7161.62244 1477.05065,7162.115 1477.05065,7162.72227 L1477.05065,7163.7159 L1477.98994,7163.7159 L1477.98994,7171.27387 L1482.27388,7171.27387 L1482.27388,7171.27387 Z M1498.05676,7171.27387 L1498.05676,7163.7159 L1498.9951,7163.7159 L1498.9951,7162.72408 C1498.9951,7162.11677 1498.49884,7161.62421 1497.88673,7161.62421 L1494.00489,7161.62421 C1493.3918,7161.62421 1492.89636,7162.11677 1492.89636,7162.72408 L1492.89636,7163.71672 L1493.83471,7163.71672 L1493.83471,7171.27387 L1498.05676,7171.27387 L1498.05676,7171.27387 Z M1490.13536,7171.27387 L1490.13536,7163.7159 L1491.07464,7163.7159 L1491.07464,7162.72227 C1491.07464,7162.115 1490.57838,7161.62244 1489.96612,7161.62244 L1486.08254,7161.62244 C1485.46941,7161.62244 1484.97319,7162.115 1484.97319,7162.72227 L1484.97319,7163.7159 L1485.85235,7163.7159 L1485.85235,7171.27387 L1490.13536,7171.27387 L1490.13536,7171.27387 Z M1500.59474,7157.7537 L1488.92122,7151.3576 C1488.28885,7151.0111 1487.52337,7151.0111 1486.89096,7151.3576 L1475.21925,7157.75448 C1474.46659,7158.16662 1474,7158.95103 1474,7159.803 L1474,7160.52021 L1501.813,7160.52021 L1501.813,7159.803 C1501.81316,7158.95103 1501.34641,7158.16579 1500.59474,7157.7537 L1500.59474,7157.7537 Z M1492.56949,7157.19298 C1492.54057,7157.30449 1492.4396,7157.38213 1492.32435,7157.38138 L1483.48007,7157.38138 C1483.3649,7157.38209 1483.26393,7157.30445 1483.23493,7157.19298 C1483.20625,7157.08241 1483.2559,7156.96574 1483.35794,7156.91046 L1486.88482,7154.97428 C1487.51849,7154.62777 1488.28499,7154.62777 1488.91866,7154.97428 L1492.44476,7156.91046 C1492.54663,7156.96574 1492.59802,7157.08147 1492.56949,7157.19298 L1492.56949,7157.19298 Z" id="政府" fill="url(#linearGradient-3)"></path>
        </g>
    </g>
</svg>