<?xml version="1.0" encoding="UTF-8"?>
<svg width="130px" height="32px" viewBox="0 0 130 32" version="1.1" xmlns="http://www.w3.org/2000/svg" xmlns:xlink="http://www.w3.org/1999/xlink">
    <!-- Generator: Sketch 42 (36781) - http://www.bohemiancoding.com/sketch -->
    <title>Page 1</title>
    <desc>Created with Sketch.</desc>
    <defs>
        <polygon id="path-1" points="0 31.3331386 129.515737 31.3331386 129.515737 -0.000154992549 0 -0.000154992549"></polygon>
    </defs>
    <g id="Page-1" stroke="none" stroke-width="1" fill="none" fill-rule="evenodd">
        <g id="用友云整体方案" transform="translate(-384.000000, -9274.000000)">
            <g id="Page-1" transform="translate(384.438344, 9274.174437)">
                <path d="M62.9141992,19.6917 C62.4843187,19.9779195 53.1253546,26.1528227 43.3422072,28.9209896 C36.4874263,30.8625296 32.7593785,30.9271098 31.3568287,29.541993 C29.375753,27.5859871 31.8245179,24.1735678 32.9064701,22.5301302 C33.7392988,21.2664242 39.3992191,15.0160914 40.9307331,13.1045166 C41.7770279,12.0474675 43.2489801,10.2629866 43.6938805,8.5363696 C45.0498167,6.29311078 43.452008,4.82016493 41.4212112,3.93825733 C40.1460717,3.38441729 36.1580239,2.03649876 35.7597371,1.91818778 C35.1781036,1.74717933 34.8005339,2.01996622 34.8005339,2.01996622 L33.1069084,3.12092996 L34.373761,4.29474019 C31.5702151,4.48538102 22.2008924,6.93271336 14.4651155,9.69881371 L15.4678247,12.4292658 L12.4358725,15.3565584 C12.1665498,15.3565584 10.9779044,14.7856692 10.9779044,14.7856692 L10.9281833,19.6798172 C9.65045418,20.0683318 4.6503745,22.9589429 5.2563506,25.6687293 C5.59300398,27.1737069 6.87850199,27.7709449 7.911251,28.0065335 C9.59141036,28.7081331 12.5472271,28.7365484 15.5626056,28.4513621 C19.2709721,28.1021123 24.3881036,26.8125743 25.1442789,26.6947799 C25.1442789,26.6947799 19.6003745,29.9945713 12.9890199,31.0397377 C8.18005578,31.7997178 4.40280478,30.9436423 3.03029482,30.0534685 C1.53296414,29.0832151 -0.558430279,27.560155 0.138183267,23.5200159 C0.651450199,20.5415758 2.28396016,17.6726637 5.32678884,14.4947998 C9.68981673,9.93801888 17.8430438,4.01420368 25.3276255,1.82054247 C30.0806534,0.427676105 39.8290996,-1.83986488 45.3191394,2.66215201 C50.1938805,6.65837655 45.365753,13.1716801 44.7701355,14.0566875 C44.6111315,14.2933095 37.7770677,22.6753065 37.5937211,22.9315609 C37.4103745,23.1872986 34.0883825,26.9479344 38.0779841,26.5914516 C40.9535219,26.3357139 45.2621673,25.6485802 48.2594183,24.8457188 C53.389498,23.4730015 60.1438008,21.2452419 62.9141992,19.6917 Z" id="Fill-1" fill="#EC6A00"></path>
                <path d="M43.6939841,8.53647293 C44.0715538,7.08264282 43.7178088,5.66962742 41.6440239,4.76705415 C38.3556972,3.33750621 35.9012351,2.74130154 35.9012351,2.74130154 C35.9012351,2.74130154 35.4185259,2.6049081 35.107251,2.83481371 C34.8172112,3.04663686 34.4686454,3.30805763 34.4686454,3.30805763 L36.3715139,4.91068058 C30.4971713,5.81273721 21.0522311,8.24612022 15.9371713,10.345236 L16.7606773,12.5957278 L13.6474104,15.690929 C13.6474104,15.690929 20.7518327,17.6355688 25.4748207,13.6186786 C25.4748207,13.6186786 25.3650199,12.924312 24.5953785,12.6690909 C24.5953785,12.6690909 27.0125498,12.2945256 27.2684064,15.690929 L26.3739442,15.7431098 C26.3739442,15.7431098 26.4490438,14.7449578 26.0973705,14.4943865 C26.0973705,14.4943865 22.6205179,17.12461 18.9390837,17.4046299 C16.0542231,17.6242027 12.8870916,17.0393641 11.8973307,16.6012519 L11.9216733,20.4295678 C10.6651793,20.8795628 3.37430279,24.2408346 7.05729084,27.4961947 C7.28258964,27.6961351 7.5710757,27.8655936 7.91135458,28.0066369 C6.87860558,27.7705315 5.59310757,27.1738102 5.25645418,25.6688326 C4.65047809,22.9590462 9.65055777,20.0679185 10.9282869,19.6794039 L10.978008,14.7857725 C10.978008,14.7857725 12.1666534,15.3566617 12.4354582,15.3566617 L15.4679283,12.4293691 L14.4647012,9.69891704 C22.2004781,6.93230005 31.5703187,4.48548435 34.3738645,4.29484352 L33.107012,3.12103328 L34.8006375,2.02006955 C34.8006375,2.02006955 35.1782072,1.74676602 35.7598406,1.91777447 C36.1581275,2.03660209 40.1461753,3.38452062 41.4207968,3.93836066 C43.4521116,4.82026826 45.0499203,6.29321411 43.6939841,8.53647293" id="Fill-3" fill="#251C1B"></path>
                <path d="M64.0248964,31.0391694 C61.8977649,31.0391694 60.1766892,29.3197854 60.1766892,27.2010373 C60.1766892,25.0802226 61.8977649,23.3634218 64.0248964,23.3634218 C66.1489203,23.3634218 67.8694781,25.0802226 67.8694781,27.2010373 C67.8694781,29.3197854 66.1489203,31.0391694 64.0248964,31.0391694 M64.0248964,23.0663527 C61.7361713,23.0663527 59.8793984,24.917997 59.8793984,27.2010373 C59.8793984,29.4851108 61.7361713,31.332622 64.0248964,31.332622 C66.3105139,31.332622 68.1667689,29.4851108 68.1667689,27.2010373 C68.1667689,24.917997 66.3105139,23.0663527 64.0248964,23.0663527" id="Fill-5" fill="#EC6A00"></path>
                <path d="M62.6544582,26.9418381 L63.9171673,26.9418381 C64.1859721,26.9418381 64.3952151,26.9129061 64.5474861,26.8576254 C64.6982032,26.8007948 64.8137012,26.7134824 64.8919084,26.5920715 C64.9711514,26.4691108 65.0110319,26.3368505 65.0110319,26.1942573 C65.0110319,25.9845007 64.9338606,25.8114257 64.7810717,25.6765822 C64.6293187,25.5417387 64.3884821,25.4750919 64.0590797,25.4750919 L62.6544582,25.4750919 L62.6544582,26.9418381 Z M62.0666096,29.4144858 L62.0666096,24.9858321 L64.0357729,24.9858321 C64.4309522,24.9858321 64.7323865,25.0256135 64.938004,25.1046597 C65.1436215,25.1847392 65.3088406,25.3242325 65.4321076,25.5257228 C65.5553745,25.7272131 65.6159721,25.9493691 65.6159721,26.1942573 C65.6159721,26.5083756 65.5139402,26.7734128 65.3109124,26.9888525 C65.1058127,27.2037755 64.7914303,27.3412022 64.3656932,27.3995827 C64.5210717,27.4739791 64.6391594,27.546309 64.7199562,27.6196721 C64.8913904,27.7767312 65.0540199,27.9720219 65.2073267,28.2081272 L65.9800757,29.4144858 L65.2404741,29.4144858 L64.6531434,28.4933135 C64.4811912,28.2267263 64.3403147,28.0242027 64.2294781,27.8826428 C64.1181235,27.7415996 64.0186813,27.642921 63.9306335,27.5871237 C63.8425857,27.5297765 63.7540199,27.4910283 63.6628645,27.4688127 C63.5965697,27.4548634 63.4872869,27.4476304 63.3355339,27.4476304 L62.6544582,27.4476304 L62.6544582,29.4144858 L62.0666096,29.4144858 Z" id="Fill-7" fill="#EC6A00"></path>
                <path d="M62.239494,7.33016592 C62.239494,7.76362842 61.6418048,8.45851167 61.6418048,8.45851167 L62.239494,8.45851167 L62.239494,13.2110999 L61.228498,13.2110999 L61.228498,3.70695678 L62.239494,3.70695678 L62.239494,7.33016592 Z M64.6064263,6.61616692 L64.6064263,1.69102037 L58.8325618,1.69102037 L58.8325618,18.2509409 L59.2847131,18.2509409 C60.0963068,18.2509409 61.3735179,17.1680596 61.3735179,16.6369518 L61.3735179,15.1402404 L62.7962669,15.1402404 C63.5866255,15.1402404 64.6064263,14.0764749 64.6064263,13.2110999 L64.6064263,9.03508395 C64.6064263,8.63210333 63.5954303,8.05501441 63.5954303,8.05501441 C63.5954303,8.05501441 64.6064263,7.15812419 64.6064263,6.61616692 L64.6064263,6.61616692 Z" id="Fill-9" fill="#EC6A00"></path>
                <path d="M75.4663984,1.6909687 L75.4663984,1.94308992 C75.4663984,2.86891207 74.5926534,3.70690512 74.5926534,3.70690512 L74.5926534,16.3088326 C74.5926534,17.3369498 73.1336494,18.2508892 72.4163187,18.2508892 L72.0138884,18.2508892 L72.0138884,3.70690512 L65.1135299,3.70690512 L65.1135299,1.6909687 L75.4663984,1.6909687 Z" id="Fill-11" fill="#EC6A00"></path>
                <mask id="mask-2" fill="white">
                    <use xlink:href="#path-1"></use>
                </mask>
                <g id="Clip-14"></g>
                <path d="M67.9982869,13.2108932 L69.1848606,13.2108932 L69.1848606,6.99052558 L67.9982869,6.99052558 L67.9982869,13.2108932 Z M65.6976494,4.96890611 L65.6976494,15.1885981 L68.43749,15.1885981 C69.7147012,15.1885981 71.5051793,13.858762 71.5051793,12.5826567 L71.5051793,4.96890611 L65.6976494,4.96890611 Z" id="Fill-13" fill="#EC6A00" mask="url(#mask-2)"></path>
                <path d="M86.4804542,7.71511575 L87.766988,7.71511575 C88.56149,7.71511575 89.6962709,5.7901083 89.6962709,5.7901083 L86.4804542,5.7901083 L86.4804542,3.63881172 L89.9236414,3.63881172 L89.9236414,9.67835469 L86.4804542,9.67835469 L86.4804542,7.71511575 Z M80.0477849,5.60153403 L83.2641195,5.60153403 L83.2641195,3.63881172 L80.0477849,3.63881172 L80.0477849,5.60153403 Z M80.0477849,9.67835469 L83.2641195,9.67835469 L83.2641195,7.71511575 L80.0477849,7.71511575 L80.0477849,9.67835469 Z M86.5560717,16.2076741 L86.5560717,14.7734764 L91.4463506,14.7734764 C92.1564303,14.7734764 93.3108924,12.848469 93.3108924,12.848469 L86.5560717,12.848469 L86.5560717,11.641077 L90.3001753,11.641077 C91.284239,11.641077 92.9882231,10.4512509 92.9882231,9.33840437 L92.9882231,1.69107203 L77.0961116,1.69107203 L77.0961116,11.6787919 L83.4153546,11.6787919 L83.4153546,12.9238987 L77.0961116,12.9238987 L77.0961116,14.8111913 L83.3019283,14.8111913 L83.3019283,16.3585335 L77.0961116,16.3585335 L77.0961116,18.2509925 L91.739498,18.2509925 C92.6572669,18.2509925 93.6226853,16.2076741 93.6226853,16.2076741 L86.5560717,16.2076741 Z" id="Fill-15" fill="#EC6A00" mask="url(#mask-2)"></path>
                <path d="M98.2375299,9.20226925 L101.600438,9.20226925 L101.600438,3.8534764 L98.2375299,3.8534764 L98.2375299,9.20226925 Z M104.732351,9.20226925 L107.892749,9.20226925 L107.892749,3.8534764 L104.732351,3.8534764 L104.732351,9.20226925 Z M98.2085259,16.086005 L98.2085259,11.4295122 L108.455219,11.4295122 C109.424263,11.4295122 110.933506,10.1322245 110.933506,9.05760954 L110.936096,1.69081371 L95.1366932,1.69081371 L95.1366932,16.3164272 C95.1366932,17.1270383 95.8612749,18.2507342 97.0203984,18.2507342 L109.340876,18.2507342 C110.471514,18.2507342 111.313147,16.086005 111.313147,16.086005 L98.2085259,16.086005 Z" id="Fill-16" fill="#EC6A00" mask="url(#mask-2)"></path>
                <path d="M116.324104,9.20226925 L119.68753,9.20226925 L119.68753,3.8534764 L116.324104,3.8534764 L116.324104,9.20226925 Z M122.818924,9.20226925 L125.979841,9.20226925 L125.979841,3.8534764 L122.818924,3.8534764 L122.818924,9.20226925 Z M116.295618,16.086005 L116.295618,11.4295122 L126.542311,11.4295122 C127.510837,11.4295122 129.02008,10.1322245 129.02008,9.05760954 L129.022669,1.69081371 L113.223267,1.69081371 L113.223267,16.3164272 C113.223267,17.1270383 113.947849,18.2507342 115.10749,18.2507342 L127.42745,18.2507342 C128.558088,18.2507342 129.399721,16.086005 129.399721,16.086005 L116.295618,16.086005 Z" id="Fill-17" fill="#EC6A00" mask="url(#mask-2)"></path>
                <polygon id="Fill-18" fill="#EC6A00" mask="url(#mask-2)" points="104.127928 31.2075946 105.077809 31.2075946 105.077809 30.2595569 104.127928 30.2595569"></polygon>
                <path d="M111.397155,29.4246637 L112.034725,30.2549071 C111.689785,30.6330889 110.899426,31.332622 109.642414,31.332622 C107.411179,31.332622 106.345801,29.5403915 106.345801,28.0121649 C106.345801,26.6828455 107.222135,24.5966458 109.64345,24.5966458 C110.571578,24.5966458 111.615721,25.0533572 111.930104,25.5875648 L111.636438,26.6585633 C111.431339,26.1806696 110.562773,25.695543 109.724247,25.695543 C108.07102,25.695543 107.429307,27.0791098 107.429307,28.0772618 C107.429307,29.210774 108.353809,30.3303368 109.658988,30.3303368 C110.443649,30.3303368 111.014924,30.0410174 111.397155,29.4246637" id="Fill-19" fill="#EC6A00" mask="url(#mask-2)"></path>
                <path d="M114.235661,28.0825832 C114.235661,28.8797615 114.43351,29.4754496 114.827653,29.8722305 C115.222833,30.2679781 115.719008,30.4663686 116.318251,30.4663686 C116.912315,30.4663686 117.406936,30.2674615 117.80108,29.868614 C118.196259,29.4713164 118.393072,28.863229 118.393072,28.0474516 C118.393072,27.2781719 118.195223,26.6959165 117.797972,26.3001689 C117.400721,25.903388 116.908171,25.7049975 116.318251,25.7049975 C115.719008,25.7049975 115.222833,25.9028713 114.827653,26.2965524 C114.43351,26.6912668 114.235661,27.2864382 114.235661,28.0825832 M113.005064,28.0825832 C113.005064,26.9309886 113.369167,26.0780129 114.096857,25.5236562 C114.704386,25.0628117 115.445024,24.8323895 116.318251,24.8323895 C117.289884,24.8323895 118.082833,25.1124093 118.699167,25.6729657 C119.315502,26.2330055 119.623669,27.0069349 119.623669,27.9952707 C119.623669,28.7950323 119.487972,29.4248187 119.215542,29.88308 C118.942076,30.3423746 118.545343,30.6988574 118.023789,30.9520119 C117.503789,31.2061997 116.934586,31.3327769 116.318251,31.3327769 C115.329008,31.3327769 114.529845,31.0537904 113.920243,30.4953005 C113.310641,29.9373274 113.005064,29.132916 113.005064,28.0825832" id="Fill-20" fill="#EC6A00" mask="url(#mask-2)"></path>
                <path d="M121.067343,31.1920437 L121.067343,24.9727094 L122.01308,24.9727094 L122.01308,25.8458341 C122.208339,25.541532 122.468339,25.2961272 122.793598,25.1106528 C123.118857,24.925695 123.489175,24.8321828 123.903518,24.8321828 C124.364992,24.8321828 124.743598,24.9287948 125.039335,25.1199523 C125.334036,25.3116264 125.543279,25.5787303 125.664474,25.9222971 C126.157542,25.195382 126.799255,24.8321828 127.590131,24.8321828 C128.20802,24.8321828 128.683996,25.0037079 129.017024,25.3457248 C129.349016,25.6867084 129.515789,26.2126498 129.515789,26.9230323 L129.515789,31.1920437 L128.464394,31.1920437 L128.464394,27.2748654 C128.464394,26.8532856 128.430211,26.5500169 128.361845,26.3640258 C128.29296,26.1790681 128.169693,26.0292419 127.988936,25.9160974 C127.809733,25.8029528 127.597382,25.7461222 127.354992,25.7461222 C126.917343,25.7461222 126.553239,25.8918152 126.263199,26.1832012 C125.973677,26.4730373 125.828657,26.9390482 125.828657,27.5791674 L125.828657,31.1920437 L124.771566,31.1920437 L124.771566,27.1519046 C124.771566,26.6827938 124.686108,26.331994 124.513637,26.0974386 C124.342203,25.8639165 124.058896,25.7461222 123.668378,25.7461222 C123.37057,25.7461222 123.096586,25.8246518 122.843837,25.980161 C122.591088,26.1367034 122.407741,26.3655758 122.294833,26.6657447 C122.181406,26.9664302 122.124952,27.3993761 122.124952,27.9650989 L122.124952,31.1920437 L121.067343,31.1920437 Z" id="Fill-21" fill="#EC6A00" mask="url(#mask-2)"></path>
                <path d="M84.8765857,31.2208207 L84.0639562,31.2208207 L84.0639562,26.0580189 C83.8692151,26.2440099 83.6123227,26.430001 83.2948327,26.6159921 C82.9773426,26.8019831 82.6919641,26.941993 82.440251,27.0344719 L82.440251,26.2517596 C82.8939562,26.0389031 83.2912072,25.7810989 83.6309681,25.4778301 C83.971247,25.1745614 84.2110478,24.8800755 84.3529602,24.5954059 L84.8765857,24.5954059 L84.8765857,31.2208207 Z" id="Fill-22" fill="#EC6A00" mask="url(#mask-2)"></path>
                <path d="M87.8541554,29.0825951 C87.8541554,29.3615817 87.9137171,29.6297188 88.0328406,29.8839066 C88.1514462,30.1391277 88.3177012,30.3328684 88.5310876,30.4671952 C88.744992,30.6004888 88.9687371,30.6671356 89.2038765,30.6671356 C89.546745,30.6671356 89.8409283,30.5291923 90.0874622,30.2533055 C90.3345139,29.9769021 90.4577809,29.6018202 90.4577809,29.127543 C90.4577809,28.6718649 90.3360677,28.3122822 90.0926414,28.0498281 C89.8481793,27.7868574 89.5420837,27.6556304 89.1717649,27.6556304 C88.8050717,27.6556304 88.4937968,27.7868574 88.2374223,28.0498281 C87.9826016,28.3122822 87.8541554,28.6563656 87.8541554,29.0825951 M91.1704502,26.2374486 L90.3635179,26.3009955 C90.291008,25.9827442 90.1889761,25.7523219 90.0558685,25.6076622 C89.8362669,25.3767233 89.5659084,25.2604789 89.2442749,25.2604789 C88.9853108,25.2604789 88.7584582,25.3328087 88.5626813,25.4774685 C88.3063068,25.6634595 88.1058685,25.9341798 87.958259,26.2922126 C87.8106494,26.6492121 87.7345139,27.157071 87.7282988,27.8178559 C87.9230398,27.5207869 88.1633586,27.3006975 88.4456295,27.1560378 C88.7279004,27.0118947 89.0241554,26.9400815 89.3338765,26.9400815 C89.8756295,26.9400815 90.3365857,27.1389886 90.7172629,27.5368028 C91.0974223,27.9341003 91.287502,28.4476423 91.287502,29.0779454 C91.287502,29.4917755 91.1984183,29.8771903 91.0197331,30.2326398 C90.8410478,30.5886061 90.5950319,30.8603597 90.2816853,31.0504839 C89.9688566,31.2380248 89.6140757,31.3325703 89.2168247,31.3325703 C88.5404104,31.3325703 87.9888167,31.0850989 87.5615259,30.5886061 C87.1337171,30.0915966 86.9198127,29.273236 86.9198127,28.1330075 C86.9198127,26.8574188 87.156506,25.9305633 87.6288566,25.3508912 C88.0406096,24.8476821 88.5963466,24.5950442 89.2934781,24.5950442 C89.8134781,24.5950442 90.240251,24.7407372 90.572761,25.0321232 C90.9057888,25.3229925 91.1046733,25.7249399 91.1704502,26.2374486" id="Fill-23" fill="#EC6A00" mask="url(#mask-2)"></path>
                <path d="M93.1836892,26.2697904 C93.1836892,26.581842 93.2836494,26.8365464 93.4856414,27.0344203 C93.6876335,27.2328107 93.9491873,27.3314893 94.2708207,27.3314893 C94.5831315,27.3314893 94.8405418,27.2333274 95.0404622,27.0364868 C95.2403825,26.8401629 95.3398247,26.5999245 95.3398247,26.3147382 C95.3398247,26.0176692 95.236757,25.7676145 95.0311394,25.5656076 C94.825004,25.3620507 94.5681116,25.2607889 94.2620159,25.2607889 C93.9517769,25.2607889 93.6943665,25.3605007 93.4903028,25.5583746 C93.2852032,25.756765 93.1836892,25.9939036 93.1836892,26.2697904 M92.9221355,29.3164272 C92.9221355,29.5478828 92.9765179,29.771072 93.0868367,29.9870283 C93.1956016,30.2029846 93.3592669,30.3703766 93.5762789,30.4897208 C93.792255,30.6075152 94.0253227,30.6674456 94.2749641,30.6674456 C94.6628924,30.6674456 94.984008,30.5429349 95.236239,30.2933969 C95.488988,30.0448922 95.6148446,29.7276741 95.6148446,29.3438092 C95.6148446,28.953228 95.4853625,28.6308435 95.2248446,28.3756225 C94.9648446,28.120918 94.6395857,27.9933075 94.2480319,27.9933075 C93.8652829,27.9933075 93.5493466,28.1193681 93.2986693,28.372006 C93.0474741,28.6241272 92.9221355,28.938762 92.9221355,29.3164272 M93.3452829,27.6425077 C93.0091474,27.5195469 92.759506,27.3433721 92.5968765,27.1160497 C92.434247,26.887694 92.3534502,26.6149071 92.3534502,26.2966557 C92.3534502,25.8161788 92.5259203,25.4121649 92.8718964,25.0856473 C93.2178725,24.758613 93.6783108,24.5953542 94.2526932,24.5953542 C94.8301833,24.5953542 95.2947649,24.7627462 95.6469562,25.0964968 C95.9996653,25.4317973 96.1747251,25.8389111 96.1747251,26.319388 C96.1747251,26.6247233 96.0944462,26.8913105 95.9338884,27.1181162 C95.7722948,27.344922 95.5278327,27.5195469 95.2010199,27.6425077 C95.6070757,27.7742514 95.915243,27.9871078 96.1275936,28.2821103 C96.3399442,28.5755628 96.4461195,28.9268793 96.4461195,29.3350263 C96.4461195,29.8986826 96.2451633,30.3724431 95.8458406,30.7573413 C95.4449641,31.1412062 94.9197849,31.3328803 94.2666773,31.3328803 C93.6135697,31.3328803 93.0873546,31.1406895 92.686996,30.7547581 C92.2876733,30.3698599 92.0867171,29.8883497 92.0867171,29.3122941 C92.0867171,28.8834814 92.1965179,28.5238987 92.4140478,28.2340626 C92.6320956,27.9447432 92.9423347,27.7468693 93.3452829,27.6425077" id="Fill-24" fill="#EC6A00" mask="url(#mask-2)"></path>
                <path d="M98.322988,26.2697904 C98.322988,26.581842 98.4239841,26.8365464 98.6249402,27.0344203 C98.8269323,27.2328107 99.089004,27.3314893 99.4101195,27.3314893 C99.7229482,27.3314893 99.9793227,27.2333274 100.179761,27.0364868 C100.379681,26.8401629 100.479641,26.5999245 100.479641,26.3147382 C100.479641,26.0176692 100.377092,25.7676145 100.170438,25.5656076 C99.9643028,25.3620507 99.7084462,25.2607889 99.4013147,25.2607889 C99.0910757,25.2607889 98.8347012,25.3605007 98.6296016,25.5583746 C98.4250199,25.756765 98.322988,25.9939036 98.322988,26.2697904 M98.0609163,29.3164272 C98.0609163,29.5478828 98.1163347,29.771072 98.2256175,29.9870283 C98.3354183,30.2029846 98.4985657,30.3703766 98.7150598,30.4897208 C98.9320717,30.6075152 99.1651394,30.6674456 99.4147809,30.6674456 C99.8027092,30.6674456 100.123825,30.5429349 100.376574,30.2933969 C100.628287,30.0448922 100.754661,29.7276741 100.754661,29.3438092 C100.754661,28.953228 100.624661,28.6308435 100.364143,28.3756225 C100.104143,28.120918 99.7783665,27.9933075 99.3878486,27.9933075 C99.0056175,27.9933075 98.6891633,28.1193681 98.4379681,28.372006 C98.186255,28.6241272 98.0609163,28.938762 98.0609163,29.3164272 M98.4856175,27.6425077 C98.1484462,27.5195469 97.8982869,27.3433721 97.7356574,27.1160497 C97.5735458,26.887694 97.4922311,26.6149071 97.4922311,26.2966557 C97.4922311,25.8161788 97.6652191,25.4121649 98.0111952,25.0856473 C98.3571713,24.758613 98.8176096,24.5953542 99.3930279,24.5953542 C99.97,24.5953542 100.434582,24.7627462 100.786255,25.0964968 C101.138446,25.4317973 101.314024,25.8389111 101.314024,26.319388 C101.314024,26.6247233 101.234263,26.8913105 101.072669,27.1181162 C100.912112,27.344922 100.667131,27.5195469 100.339801,27.6425077 C100.745857,27.7742514 101.054542,27.9871078 101.266892,28.2821103 C101.479243,28.5755628 101.5849,28.9268793 101.5849,29.3350263 C101.5849,29.8986826 101.38498,30.3724431 100.985139,30.7573413 C100.585299,31.1412062 100.058566,31.3328803 99.4054582,31.3328803 C98.7528685,31.3328803 98.2266534,31.1406895 97.8262948,30.7547581 C97.4264542,30.3698599 97.2265339,29.8883497 97.2265339,29.3122941 C97.2265339,28.8834814 97.3352988,28.5238987 97.5533466,28.2340626 C97.7719124,27.9447432 98.0821514,27.7468693 98.4856175,27.6425077" id="Fill-25" fill="#EC6A00" mask="url(#mask-2)"></path>
            </g>
        </g>
    </g>
</svg>