<?xml version="1.0" encoding="UTF-8"?>
<svg width="102px" height="102px" viewBox="0 0 102 102" version="1.1" xmlns="http://www.w3.org/2000/svg" xmlns:xlink="http://www.w3.org/1999/xlink">
    <!-- Generator: Sketch 42 (36781) - http://www.bohemiancoding.com/sketch -->
    <title>Group 81</title>
    <desc>Created with Sketch.</desc>
    <defs></defs>
    <g id="Page-1" stroke="none" stroke-width="1" fill="none" fill-rule="evenodd">
        <g id="用友云整体方案" transform="translate(-758.000000, -3479.000000)">
            <g id="Group-81" transform="translate(759.000000, 3480.000000)">
                <circle id="Oval-9" stroke="#DF413A" stroke-width="1.5" cx="50" cy="50" r="50"></circle>
                <g id="Group-66" transform="translate(32.500000, 29.000000)">
                    <rect id="Rectangle-12" fill="#DD3730" x="12.6666667" y="25.5185185" width="2.59259259" height="11.6666667" rx="1.2962963"></rect>
                    <rect id="Rectangle-12-Copy" fill="#DD3730" x="16.5555556" y="0" width="2.59259259" height="7.77777778" rx="1.2962963"></rect>
                    <rect id="Rectangle-12-Copy-2" fill="#DD3730" transform="translate(30.888702, 10.444257) rotate(45.000000) translate(-30.888702, -10.444257) " x="29.5924055" y="6.5553685" width="2.59259259" height="7.77777778" rx="1.2962963"></rect>
                    <rect id="Rectangle-12-Copy-3" fill="#DD3730" transform="translate(3.666480, 10.444257) scale(-1, 1) rotate(45.000000) translate(-3.666480, -10.444257) " x="2.37018331" y="6.5553685" width="2.59259259" height="7.77777778" rx="1.2962963"></rect>
                    <path d="M6.18518519,25.5254802 C6.18518519,19.0783133 11.4071131,13.8518519 17.8518519,13.8518519 L17.8518519,13.8518519 C24.2951739,13.8518519 29.5185185,19.0671629 29.5185185,25.5254802 L29.5185185,39.7777778 L6.18518519,39.7777778 L6.18518519,25.5254802 Z" id="Rectangle-10" stroke="#DD3730" stroke-width="2"></path>
                    <rect id="Rectangle-58" fill="#DD3730" x="1" y="38.4814815" width="33.7037037" height="2.59259259" rx="1.2962963"></rect>
                </g>
            </g>
        </g>
    </g>
</svg>