<?xml version="1.0" encoding="UTF-8"?>
<svg width="102px" height="102px" viewBox="0 0 102 102" version="1.1" xmlns="http://www.w3.org/2000/svg" xmlns:xlink="http://www.w3.org/1999/xlink">
    <!-- Generator: Sketch 42 (36781) - http://www.bohemiancoding.com/sketch -->
    <title>Oval 9</title>
    <desc>Created with Sketch.</desc>
    <defs></defs>
    <g id="Page-1" stroke="none" stroke-width="1" fill="none" fill-rule="evenodd">
        <g id="用友云整体方案" transform="translate(-1631.000000, -7537.000000)" stroke="#DF413A">
            <circle id="Oval-9" stroke-width="1.5" cx="1682" cy="7588" r="50"></circle>
            <g id="Group-100" transform="translate(1659.000000, 7567.613636)" stroke-width="2" stroke-linecap="round">
                <path d="M14.6327395,31.3636364 L10.4545455,31.3636364 C4.68065943,31.3636364 0,26.6829769 0,20.9090909 C0,15.1352049 4.68065943,10.4545455 10.4545455,10.4545455 C10.4545455,4.68065943 15.1352049,0 20.9090909,0 C26.6829769,0 31.3636364,4.68065943 31.3636364,10.4545455 C31.3636364,10.7530235 31.3511282,11.04858 31.3266073,11.3407195 C32.6169542,10.770954 34.0442538,10.4545455 35.5454545,10.4545455 C41.3193406,10.4545455 46,15.1352049 46,20.9090909 C46,26.6829769 41.3193406,31.3636364 35.5454545,31.3636364 L29.9118809,31.3636364" id="Combined-Shape" stroke-linejoin="round"></path>
                <polyline id="Path-19" points="12.5454545 24.0454545 19.4680756 24.0454545 19.4680756 40.4423856"></polyline>
                <polyline id="Path-19-Copy" transform="translate(28.552220, 30.153011) scale(-1, 1) translate(-28.552220, -30.153011) " points="25.0909091 19.8636364 32.0135301 19.8636364 32.0135301 40.4423856"></polyline>
            </g>
        </g>
    </g>
</svg>