<?xml version="1.0" encoding="UTF-8"?>
<svg width="102px" height="103px" viewBox="0 0 102 103" version="1.1" xmlns="http://www.w3.org/2000/svg" xmlns:xlink="http://www.w3.org/1999/xlink">
    <!-- Generator: Sketch 42 (36781) - http://www.bohemiancoding.com/sketch -->
    <title>Oval 9</title>
    <desc>Created with Sketch.</desc>
    <defs></defs>
    <g id="Page-1" stroke="none" stroke-width="1" fill="none" fill-rule="evenodd">
        <g id="用友云整体方案" transform="translate(-1061.000000, -7519.000000)">
            <circle id="Oval-9" stroke="#DF413A" stroke-width="1.5" cx="1112" cy="7570.36116" r="50"></circle>
            <g id="基础服务" transform="translate(1090.000000, 7549.408781)" fill="#DD3730">
                <path d="M40.728129,0 L3.26933333,0 C1.46683871,0 0,1.46464664 0,3.26556288 L0,30.3003233 C0,32.1017983 1.46683871,33.5675624 3.26933333,33.5675624 L18.7296344,33.5675624 L18.7296344,39.5099155 L13.6746667,39.5099155 C13.0184516,39.5099155 12.4865376,40.0419985 12.4865376,40.6966154 C12.4865376,41.353725 13.0184516,41.8849915 13.6746667,41.8849915 L30.3228387,41.8849915 C30.9790538,41.8849915 31.5109677,41.353725 31.5109677,40.6966154 C31.5109677,40.0419985 30.9790538,39.5099155 30.3228387,39.5099155 L25.267828,39.5099155 L25.267828,33.5675624 L40.728129,33.5675624 C42.5306667,33.5675624 43.9972043,32.1017983 43.9972043,30.3003233 L43.9972043,3.26556288 C43.9972043,1.46464664 42.5306667,0 40.728129,0 L40.728129,0 L40.728129,0 Z M3.26933333,2.37421636 L40.728086,2.37421636 C41.2204301,2.37421636 41.6209032,2.77465397 41.6209032,3.26556288 L41.6209032,24.9542212 L2.37651613,24.9542212 L2.37651613,3.26556288 C2.37651613,2.77469695 2.77698925,2.37421636 3.26933333,2.37421636 L3.26933333,2.37421636 L3.26933333,2.37421636 Z M22.891828,39.5099155 L21.1056344,39.5099155 L21.1056344,33.5675624 L22.891828,33.5675624 L22.891828,39.5099155 L22.891828,39.5099155 L22.891828,39.5099155 Z M40.728129,31.1922286 L3.26933333,31.1922286 C2.77698925,31.1922286 2.37651613,30.791791 2.37651613,30.3003233 L2.37651613,27.3287385 L41.6209462,27.3287385 L41.6209462,30.3003233 C41.6209462,30.791748 41.2204731,31.1922286 40.728129,31.1922286 L40.728129,31.1922286 L40.728129,31.1922286 Z" id="Shape"></path>
            </g>
        </g>
    </g>
</svg>