<?xml version="1.0" encoding="UTF-8"?>
<svg width="102px" height="103px" viewBox="0 0 102 103" version="1.1" xmlns="http://www.w3.org/2000/svg" xmlns:xlink="http://www.w3.org/1999/xlink">
    <!-- Generator: Sketch 42 (36781) - http://www.bohemiancoding.com/sketch -->
    <title>Oval 9</title>
    <desc>Created with Sketch.</desc>
    <defs></defs>
    <g id="Page-1" stroke="none" stroke-width="1" fill="none" fill-rule="evenodd">
        <g id="用友云整体方案" transform="translate(-460.000000, -7521.000000)">
            <circle id="Oval-9" stroke="#DF413A" stroke-width="1.5" cx="511" cy="7572.29946" r="50"></circle>
            <g id="服务(1)" transform="translate(487.000000, 7551.951629)">
                <g id="Group">
                    <path d="M46.7456929,11.9144972 L46.7265462,11.8938957 C46.4742291,11.6297274 45.894844,11.0103793 45.1297619,10.1928398 C42.7608138,7.66068403 38.7953438,3.42251759 36.9735199,1.62575616 C36.2393873,0.900532135 35.4074228,0.0785594167 33.7901804,0.0206666681 C33.4379331,0.00893165152 31.6100768,0.0031945323 28.2022222,0.0031945323 C22.4348619,0.0031945323 14.288849,0.0198843337 14.2909473,0.0198843337 C13.4560977,0.0198843337 12.3285393,0.201385924 11.0045302,1.6168897 C9.93651022,2.76118421 8.23376324,4.55898875 6.58714502,6.29759666 C4.4943819,8.50716989 2.33027757,10.7918472 1.31366523,11.8980681 C-0.373344717,13.6838769 -0.40796619,16.1857824 1.22291501,18.4282137 L1.31156696,18.5353935 C3.25823795,20.6077975 7.48599189,25.0517178 12.380996,30.197653 C15.0295387,32.9819813 17.9023341,36.0017922 20.7788015,39.0294265 C22.1361206,40.460577 23.1393564,40.657986 24.0211548,40.657986 C24.9013796,40.657986 25.9038286,40.4608378 27.2640328,39.0302088 C30.1633188,35.9780614 33.0214263,32.9738972 35.656068,30.2044332 C40.408652,25.2094886 44.5131325,20.8954357 46.7441192,18.5205292 C48.1851069,16.9305648 48.5955811,13.9527392 46.7456929,11.9144972 L46.7456929,11.9144972 Z M45.1009107,17.0213156 C42.8882838,19.376403 38.7861638,23.6878481 34.0359404,28.6804458 C31.2371643,31.6215329 28.4395567,34.5637191 25.6431184,37.5070037 C24.7555497,38.4403287 24.3482228,38.4403287 24.0211548,38.4403287 C23.710873,38.4403287 23.2859731,38.4403287 22.4010273,37.5072645 C19.5235108,34.4785871 16.6504531,31.4582546 14.0016482,28.6736655 C9.15044542,23.5741489 4.95521469,19.1643904 2.99149524,17.0745143 C2.0205203,15.7069937 2.00137358,14.4096225 2.9497921,13.4053658 C3.96561759,12.300188 6.12395168,10.0215086 8.21120683,7.81793325 C9.86071018,6.07645679 11.5663423,4.27578369 12.6390834,3.12627362 C13.4699987,2.23754169 13.9840751,2.23754169 14.2935701,2.23754169 C14.2935701,2.23754169 22.4369602,2.22085189 28.2024845,2.22085189 C32.3573235,2.22085189 33.4937996,2.22971835 33.7128067,2.23702014 C34.3971053,2.26153328 34.6861422,2.49206116 35.4021772,3.19955228 C37.1927892,4.96528111 41.1388503,9.18310685 43.4967824,11.7032669 C44.2584548,12.5174162 44.8381022,13.1370251 45.0980255,13.4095383 C46.0739839,14.4956793 45.8817298,16.1594438 45.1009107,17.0213156 L45.1009107,17.0213156 Z" id="Shape" fill="#DF413A"></path>
                    <path d="M32.2298536,12.6235529 L24.000959,22.3284117 L15.7720644,12.6235529 C15.3716717,12.1683698 14.6783416,12.115977 14.2133574,12.5057662 C13.7483732,12.8955554 13.683136,13.5838438 14.0666946,14.0531387 L23.1482741,24.7632972 C23.1632242,24.7807694 23.1815841,24.7932867 23.1975834,24.8097157 C23.2253855,24.8389229 23.2505648,24.8699555 23.2823011,24.8965549 C23.2914811,24.9041174 23.3014479,24.9090722 23.3106278,24.916374 C23.3318728,24.932803 23.3539046,24.946885 23.3759365,24.9617494 C23.4381828,25.0044723 23.5047225,25.0406537 23.5744854,25.0697115 C23.6230079,25.0897915 23.672055,25.1054381 23.7221512,25.1184771 C23.7431339,25.1239534 23.7633298,25.1304728 23.7845748,25.1349061 C23.8561783,25.1489881 23.9283063,25.1578546 24.000959,25.1578546 L24.0020081,25.1578546 C24.0743985,25.1578546 24.1467888,25.1489881 24.2183923,25.1349061 C24.239375,25.1304728 24.2595709,25.1239534 24.2805536,25.1184771 C24.3561681,25.0992742 24.4295001,25.0720856 24.4992984,25.037375 C24.5428375,25.0154697 24.5848029,24.9899134 24.6259815,24.9622709 C24.6485379,24.946885 24.6710943,24.9330638 24.6926016,24.9158524 C24.7015192,24.9088114 24.711486,24.9038566 24.7201414,24.8965549 C24.7513532,24.8702163 24.7760079,24.8397052 24.8032854,24.8112804 C24.8198093,24.7943298 24.8386937,24.7815517 24.8539062,24.7632972 L33.9354857,14.0531387 C34.1923311,13.750206 34.2671203,13.3340459 34.1316808,12.9614219 C33.9962413,12.5887978 33.6711496,12.3163203 33.2788647,12.246629 C32.8865798,12.1769376 32.486699,12.3206202 32.2298536,12.6235529 L32.2298536,12.6235529 Z" id="Shape" fill="#E25049"></path>
                </g>
            </g>
        </g>
    </g>
</svg>