<svg width="60" height="51" viewBox="0 0 60 51" xmlns="http://www.w3.org/2000/svg" xmlns:xlink="http://www.w3.org/1999/xlink"><title>Page 1</title><defs><path id="a" d="M59.66 51.438V1H0v50.44h59.66z"/></defs><g transform="translate(0 -1)" fill="none" fill-rule="evenodd"><mask id="b" fill="#fff"><use xlink:href="#a"/></mask><path d="M18.511 49h24V3h-24v46zm-2-46v46a2 2 0 0 0 2 2h24a2 2 0 0 0 2-2V3a2 2 0 0 0-2-2h-24a2 2 0 0 0-2 2z" fill="#DD3730" mask="url(#b)"/><path d="M34.386 7.323h-8a1 1 0 0 1 0-2h8a1 1 0 0 1 0 2M30.386 46.357a2 2 0 1 0 0-4 2 2 0 0 0 0 4" fill="#F07E3F" mask="url(#b)"/><path d="M3.26 9.323a2 2 0 1 0 0-4 2 2 0 0 0 0 4M56.073 48.357a2 2 0 1 0 0-4 2 2 0 0 0 0 4" fill="#DD3730" mask="url(#b)"/><path d="M59.07 17.975c-1.151-2.163-3.675-3.259-7.5-3.259-2.087 0-4.52.33-7.181.945v2.06c6.645-1.61 11.57-1.333 12.916 1.195 2.314 4.345-6.785 13.753-20.53 21.421a1 1 0 0 0-.514.87c0 .761.82 1.25 1.484.88 13.358-7.46 24.662-17.846 21.325-24.112M4.123 47.24C2.297 43.81 7.58 37.23 16.64 30.84v-2.429C6.683 35.188-.37 43.06 2.357 48.18c1.153 2.163 3.675 3.26 7.5 3.26.41 0 .834-.016 1.27-.042.53-.033.946-.469.946-.999a.991.991 0 0 0-1.037-.996c-3.527.207-6.014-.478-6.912-2.163" fill="#F07E3F" mask="url(#b)"/><path d="M22.089 11.58h16.844v24.53a1 1 0 1 0 2 0V9.58H20.089v32.53a1 1 0 1 0 2 0V11.58z" fill="#DD3730" mask="url(#b)"/><path fill="#F07E3F" mask="url(#b)" d="M56.516 7.038l-2.976 3.546-3.546-2.976 2.976-3.546zM6.522 27.85l-2.976 3.546L0 28.42l2.976-3.546z"/></g></svg>