<svg width="54" height="62" viewBox="0 0 54 62" xmlns="http://www.w3.org/2000/svg"><title>Page 1</title><g fill="none" fill-rule="evenodd"><path d="M30.998 20.457a1 1 0 1 0 1.234 1.574l2.47-1.936 16.8-13.168v50.36L20.38 32.896a1 1 0 0 1 0-1.574l2.125-1.666a1 1 0 1 0-1.234-1.574l-3.13 2.453a2 2 0 0 0 0 3.148L45.52 55.14l7.983 6.257V2.817l-22.504 17.64z" fill="#DD3730"/><path d="M21.27 42.184L2 57.288V6.927l19.888 15.588 8.105 6.353 3.13 2.453a1 1 0 0 1 0 1.574l-2.125 1.665a1 1 0 0 0 1.233 1.575l3.13-2.453a2 2 0 0 0 0-3.148l-3.746-2.937-8.106-6.353L-.001 2.818v58.579l22.506-17.64a1 1 0 1 0-1.234-1.573" fill="#DD3730"/><path d="M26.151 30.163a2 2 0 1 0 .935 3.888 2 2 0 0 0-.935-3.889M26.218 43.482a1 1 0 0 0-1 1v4.715a1 1 0 0 0 2 0v-4.715a1 1 0 0 0-1-1M26.218 51.282a1 1 0 0 0-1 1v3.289a1 1 0 0 0 2 0v-3.29a1 1 0 0 0-1-1M26.218 58.178a1 1 0 0 0-1 1v1.602a1 1 0 1 0 2 0v-1.602a1 1 0 0 0-1-1M12.91 52.566a1 1 0 0 0-1 1v4.383a1 1 0 1 0 2 0v-4.383a1 1 0 0 0-1-1M12.91 59.394a1 1 0 0 0-1 1v.441a1 1 0 1 0 2 0v-.441a1 1 0 0 0-1-1M40.572 55.452a1 1 0 0 0-1 1v4.383a1 1 0 1 0 2 0v-4.383a1 1 0 0 0-1-1M40.572 52.566a1 1 0 0 0-1 1v.44a1 1 0 1 0 2 0v-.44a1 1 0 0 0-1-1M25.694 11.639a1 1 0 0 0-1 1v4.715a1 1 0 0 0 2 0v-4.715a1 1 0 0 0-1-1M25.694 10.554a1 1 0 0 0 1-1v-3.29a1 1 0 0 0-2 0v3.29a1 1 0 0 0 1 1M25.694 3.657a1 1 0 0 0 1-1V1.055a1 1 0 1 0-2 0v1.602a1 1 0 0 0 1 1M12.387 9.27a1 1 0 0 0 1-1V3.887a1 1 0 1 0-2 0V8.27a1 1 0 0 0 1 1M12.387 2.441a1 1 0 0 0 1-1v-.44a1 1 0 1 0-2 0v.44a1 1 0 0 0 1 1M40.048 6.383a1 1 0 0 0 1-1V1a1 1 0 1 0-2 0v4.383a1 1 0 0 0 1 1M40.048 9.27a1 1 0 0 0 1-1v-.441a1 1 0 1 0-2 0v.44a1 1 0 0 0 1 1" fill="#F07E3F"/></g></svg>