<svg width="45" height="61" viewBox="0 0 45 61" xmlns="http://www.w3.org/2000/svg" xmlns:xlink="http://www.w3.org/1999/xlink"><title>Page 1</title><defs><path id="a" d="M22.219 61H0V.442h44.438V61z"/></defs><g fill="none" fill-rule="evenodd"><g transform="translate(0 -.442)"><mask id="b" fill="#fff"><use xlink:href="#a"/></mask><path d="M36.143 43v3.625H34.09a1 1 0 0 0 0 2h2.052V54h-2a1 1 0 0 0 0 2h2v3h-26v-3h2a1 1 0 0 0 0-2h-2v-5.375h1.948a1 1 0 0 0 0-2h-1.948V43h26zm8.295-18.951c0-5.84-4.227-10.743-9.783-11.79-.098-6.533-5.443-11.817-12-11.817-6.508 0-11.825 5.212-11.995 11.681-.105.012-.207.035-.312.05-.228.031-.455.064-.68.108-.148.03-.294.068-.441.102-.192.046-.384.092-.573.148-.181.052-.358.113-.536.174-.141.049-.283.097-.422.151-.215.083-.425.174-.633.269-.091.042-.182.083-.272.126-.243.118-.48.244-.714.378l-.138.08a11.463 11.463 0 0 0-.804.517 12.033 12.033 0 0 0-4.571 6.215c-.023.074-.052.144-.074.218-.055.186-.096.378-.142.567-.038.158-.081.314-.113.474-.041.207-.068.419-.1.63-.016.117-.041.232-.054.35l-.003.059C.03 23.17 0 23.605 0 24.049c0 .87.098 1.717.275 2.535.007.032.018.064.025.096.083.371.182.735.298 1.092.025.075.056.147.082.222.108.31.224.615.357.913.042.094.09.185.134.278.129.271.264.539.413.799.058.101.12.199.182.298.148.243.302.482.467.713.073.102.149.201.225.301a12.14 12.14 0 0 0 .785.93 11.661 11.661 0 0 0 1.48 1.342c.11.085.222.171.336.252.213.152.432.293.655.431.12.075.24.151.363.221.228.13.462.248.699.363.128.063.254.128.385.186.243.107.492.201.744.293.132.048.262.101.397.145.262.085.53.154.8.221.132.033.259.073.39.101.298.063.6.107.904.148.112.015.22.039.334.051.35.037.709.051 1.069.058v-2.001a10.22 10.22 0 0 1-.948-.059c-.036-.004-.071-.012-.106-.016a10.11 10.11 0 0 1-.926-.159c-.054-.012-.107-.028-.161-.041-.281-.068-.56-.145-.832-.236-.063-.021-.124-.046-.186-.068a9.924 9.924 0 0 1-.762-.306c-.067-.03-.131-.063-.197-.094a9.985 9.985 0 0 1-.702-.371c-.066-.038-.131-.079-.196-.119a9.723 9.723 0 0 1-1.431-1.063c-.06-.053-.118-.107-.177-.161a9.97 9.97 0 0 1-.54-.548c-.053-.057-.107-.115-.158-.174a9.572 9.572 0 0 1-.49-.608c-.044-.06-.09-.118-.133-.178-.155-.219-.3-.446-.438-.677-.034-.057-.071-.112-.103-.17a9.453 9.453 0 0 1-.39-.764c-.021-.045-.045-.089-.066-.135a10.226 10.226 0 0 1-.344-.893l-.02-.056a10.072 10.072 0 0 1-.423-4.237c.02-.183.053-.364.083-.544.035-.207.076-.411.124-.613.045-.192.09-.383.146-.57.046-.15.1-.297.152-.444.045-.129.09-.259.14-.386a10.004 10.004 0 0 1 .35-.773c.094-.183.19-.364.294-.541.03-.054.064-.106.096-.158a10.152 10.152 0 0 1 2.55-2.817c.062-.046.123-.093.186-.138a10.142 10.142 0 0 1 .79-.511c.134-.078.268-.155.405-.227.165-.086.333-.165.503-.242.094-.043.186-.088.28-.128a9.882 9.882 0 0 1 1.786-.552c.049-.01.1-.017.15-.026.24-.046.484-.083.73-.112.174-.019.344-.029.516-.04.169-.011.337-.024.509-.026.167-.002.33.005.496.011.149.008.3.011.448.023l-.001-.007a9.954 9.954 0 0 1 5.306 2.045.986.986 0 0 0 .602.211c.938 0 1.375-1.198.634-1.773a11.919 11.919 0 0 0-6.671-2.485c.192-5.355 4.58-9.64 9.982-9.64 5.523 0 10 4.478 10 10 0 .55-.056 1.086-.141 1.612 5.487.042 9.923 4.499 9.923 9.996 0 5.523-4.478 10-10 10H16.737v2h14.406V41h-16v-9.167a8 8 0 0 1 8-8v5.292a1 1 0 0 0 2 0v-11a1 1 0 0 0-2 0v3.708c-5.486 0-9.95 4.442-9.996 9.917h-.004V41h-3a2 2 0 0 0-2 2v16a2 2 0 0 0 2 2h26a2 2 0 0 0 2-2V43a2 2 0 0 0-2-2h-3v-4.987c6.288-.369 11.295-5.585 11.295-11.964z" fill="#DD3730" mask="url(#b)"/></g><path d="M18.268 55.238a1 1 0 0 0 1-1v-2.265c0-2.099 1.57-3.979 3.667-4.089a3.875 3.875 0 0 1 4.083 3.87v2.484a1 1 0 0 0 2 0v-2.484a5.883 5.883 0 0 0-6.65-5.826c-2.96.381-5.1 3.045-5.1 6.031v2.279a1 1 0 0 0 1 1" fill="#F07E3F"/></g></svg>