<svg width="59" height="58" viewBox="0 0 59 58" xmlns="http://www.w3.org/2000/svg"><title>Page 1</title><g fill="none" fill-rule="evenodd"><path d="M13.615 10.605C15.854 5.54 20.915 2 26.809 2c4.719 0 8.896 2.276 11.529 5.78a7.667 7.667 0 0 1 9.13 7.524c0 .051-.007.101-.008.153 4.968.581 8.824 4.798 8.824 9.921 0 5.521-4.475 9.996-9.995 9.996H33.871v-5.646h5v-15.54h-7.638v4.937h-4.549v-4.938h-7.813v15.541h5v5.646h-9.467C7.554 35.374 2 29.821 2 22.97c0-6.585 5.134-11.956 11.615-12.365zm18.256 24.75h-6v-7.626h-5V16.187h3.813v4.938h8.549v-4.938h3.638V27.73h-5v7.625zm-17.467 2.02h21.467v1.722a1 1 0 0 0 2 0v-1.723h8.417c6.614 0 11.996-5.38 11.996-11.995 0-5.513-3.74-10.235-8.935-11.597-.732-4.61-4.735-8.146-9.548-8.146a9.6 9.6 0 0 0-.609.02A16.266 16.266 0 0 0 26.81 0a16.437 16.437 0 0 0-14.508 8.734C5.314 9.758 0 15.796 0 22.97c0 7.942 6.462 14.404 14.404 14.404zM37.871 51.595v-4.202a1 1 0 0 0-2 0v4.202a1 1 0 0 0 2 0M31.89 42.174H7.35a1 1 0 1 0 0 2h11.27v7.53a1 1 0 0 0 1 1h10.537a1 1 0 0 0 0-2H20.62v-6.53H31.89a1 1 0 0 0 0-2" fill="#DD3730"/><path d="M36.871 41.174a2 2 0 1 0 0 4 2 2 0 0 0 0-4M2.705 41.174a2 2 0 1 0 0 4 2 2 0 0 0 0-4M36.871 53.674a2 2 0 1 0 0 4 2 2 0 0 0 0-4" fill="#F07E3F"/><path d="M49.177 42.174h-7.576a1 1 0 1 0 0 2h7.576a1 1 0 0 0 0-2" fill="#DD3730"/><path d="M53.871 53.674a2 2 0 1 0 0 4 2 2 0 0 0 0-4M53.871 41.174a2 2 0 1 0 0 4 2 2 0 0 0 0-4" fill="#F07E3F"/><path d="M54.871 51.595v-4.202a1 1 0 0 0-2 0v4.202a1 1 0 0 0 2 0" fill="#DD3730"/><path d="M2.705 53.674a2 2 0 1 0 0 4 2 2 0 0 0 0-4" fill="#F07E3F"/></g></svg>