<svg width="55" height="52" viewBox="0 0 55 52" xmlns="http://www.w3.org/2000/svg" xmlns:xlink="http://www.w3.org/1999/xlink"><title>Page 1</title><defs><path id="a" d="M54.084 52H0V.088h54.084z"/></defs><g fill="none" fill-rule="evenodd"><g transform="translate(0 -.088)"><mask id="b" fill="#fff"><use xlink:href="#a"/></mask><path d="M41.544 18.341H13.593c-6.4 0-11.59-2.71-11.593-6.054v-.007c.004-3.344 5.193-6.054 11.593-6.054.212 0 .419.011.629.017 1.568-2.415 5.933-4.155 11.085-4.155 4.173 0 7.827 1.143 9.902 2.86.374-.03.754-.05 1.144-.05 3.185 0 5.897 1.044 6.968 2.512 4.973.442 8.763 2.7 8.763 5.423 0 3.042-4.72 5.508-10.54 5.508zm10.54 5.25c-.004 3.04-4.721 5.504-10.54 5.504H13.593c-6.048 0-11.008-2.42-11.54-5.508H2v-6.992c2.347 2.281 6.562 3.746 11.593 3.746h27.95c4.53 0 8.347-1.298 10.54-3.335v6.585zm0 11c-.004 3.04-4.721 5.504-10.54 5.504H13.593c-6.048 0-11.008-2.42-11.54-5.508H2v-7.244c2.342 2.285 6.558 3.751 11.593 3.751h27.95c4.53 0 8.347-1.297 10.54-3.334v6.831zm0 5.747v4.158c0 .191-.02.38-.056.566C51.482 47.836 46.997 50 41.544 50H13.593c-5.67 0-10.381-2.128-11.387-4.938A3.314 3.314 0 0 1 2 43.946v-5.603c2.342 2.285 6.558 3.751 11.593 3.751h27.95c4.53 0 8.347-1.297 10.54-3.334v1.578zm2-27.505c0-3.646-3.983-6.594-9.785-7.329-1.686-1.626-4.622-2.606-7.946-2.606-.178 0-.353.003-.528.01-2.55-1.776-6.404-2.82-10.518-2.82-5.155 0-9.712 1.595-12.042 4.14C5.759 4.323.129 7.685.01 12.143H0v31.68h.007c-.001.04-.007.08-.007.12C0 48.536 5.844 52 13.593 52h27.95c7.04 0 12.365-3.132 12.526-7.315h.015V13.103h-.021c.005-.09.02-.178.02-.27z" fill="#DD3730" mask="url(#b)"/></g><path d="M12.178 22.253a2 2 0 1 0 0 4 2 2 0 0 0 0-4M12.178 33.253a2 2 0 1 0 0 4 2 2 0 0 0 0-4M12.178 43.69a2 2 0 1 0 0 4 2 2 0 0 0 0-4" fill="#F07E3F"/></g></svg>