<svg width="62" height="45" viewBox="0 0 62 45" xmlns="http://www.w3.org/2000/svg" xmlns:xlink="http://www.w3.org/1999/xlink"><title>Page 1</title><defs><path id="a" d="M0 44.367h61.52V0H0z"/></defs><g fill="none" fill-rule="evenodd"><path d="M6.819 7.246a2 2 0 1 0 0-4 2 2 0 0 0 0 4z" fill="#F07E3F"/><mask id="b" fill="#fff"><use xlink:href="#a"/></mask><path d="M21.314 42.368h38.205V21.481H21.314v20.887zM2 39.242V10.356h48.205v2.77h-30.89v26.116H2zM2 8.356h48.205V2H2v6.356zm19.315 11.125H59.52v-4.356H21.315v4.356zm30.89-6.356V0H0v41.242h19.315v3.125H61.52V13.125h-9.315z" fill="#DD3730" mask="url(#b)"/><path d="M12.402 7.246a2 2 0 1 0 0-4 2 2 0 0 0 0 4M17.986 7.246a2 2 0 1 0 0-4 2 2 0 0 0 0 4M29.168 30.871l4.95-4.95a1 1 0 0 0-1.415-1.414l-4.95 4.95-1.413 1.414 1.413 1.414 4.95 4.95a1 1 0 0 0 1.414-1.414l-4.95-4.95zM52.605 30.871l-4.95-4.95a1 1 0 0 1 1.414-1.414l4.95 4.95 1.414 1.414-1.414 1.414-4.95 4.95a1 1 0 0 1-1.414-1.414l4.95-4.95zM37.736 37.233a1 1 0 0 1-.41-1.353l5.654-10.584a.999.999 0 1 1 1.764.942L39.09 36.822a1 1 0 0 1-1.353.41M12.73 17.1H4.106a1 1 0 0 1 0-2h8.624a1 1 0 0 1 0 2M17.562 23.684H11.67a1 1 0 1 1 0-2h5.893a1 1 0 0 1 0 2M6.19 23.684H4.106a1 1 0 0 1 0-2H6.19a1 1 0 0 1 0 2M12.73 28.58H4.106a1 1 0 0 1 0-2h8.624a1 1 0 0 1 0 2M17.562 35.163H11.67a1 1 0 1 1 0-2h5.893a1 1 0 0 1 0 2M6.19 35.163H4.106a1 1 0 0 1 0-2H6.19a1 1 0 0 1 0 2" fill="#F07E3F" mask="url(#b)"/></g></svg>