<?xml version="1.0" encoding="UTF-8"?>
<svg width="181px" height="157px" viewBox="0 0 181 157" version="1.1" xmlns="http://www.w3.org/2000/svg" xmlns:xlink="http://www.w3.org/1999/xlink">
    <!-- Generator: Sketch 42 (36781) - http://www.bohemiancoding.com/sketch -->
    <title>Page 1</title>
    <desc>Created with Sketch.</desc>
    <defs>
        <polygon id="path-1" points="0.807990291 25.8754369 55.856534 25.8754369 55.856534 0.786442316 0.807990291 0.786442316 0.807990291 25.8754369"></polygon>
        <polygon id="path-3" points="0.152475728 27.6230097 55.2010194 27.6230097 55.2010194 0.169514709 0.152475728 0.169514709 0.152475728 27.6230097"></polygon>
        <polygon id="path-5" points="0.807815534 0.535631068 1.68160194 0.535631068 0.807815534 0.535106796"></polygon>
        <polygon id="path-7" points="0.807378641 64.3220388 84.6908738 64.3220388 84.6908738 0.306699029 0.807378641 0.306699029"></polygon>
        <polygon id="path-9" points="0.773475728 3.49514563 3.95231068 3.49514563 3.95231068 0.347941748 0.773475728 0.347941748"></polygon>
    </defs>
    <g id="0327new" stroke="none" stroke-width="1" fill="none" fill-rule="evenodd">
        <g id="人力云" transform="translate(-256.000000, -3406.000000)">
            <g id="Page-1" transform="translate(257.000000, 3407.000000)">
                <g id="Group-20">
                    <path d="M55.9843689,86.6968252 C54.3643689,82.0613883 49.9202913,78.7313883 44.6871845,78.7313883 C43.535534,78.7313883 42.4223301,78.8956602 41.3676699,79.1971165 C38.4597087,76.429835 34.5119417,74.7259515 30.1587379,74.7259515 C22.8739806,74.7259515 16.715534,79.4915825 14.6857282,86.0449806 C14.3895146,86.0257573 14.093301,86.0135243 13.7927184,86.0135243 C6.17504854,86.0135243 0,92.1274078 0,99.6681845 C0,107.209835 6.17504854,113.322845 13.7927184,113.322845 L51.6757282,113.322845 C59.2925243,113.322845 65.4684466,107.209835 65.4684466,99.6681845 C65.4684466,93.6172136 61.4909709,88.4889612 55.9843689,86.6968252 Z" id="Stroke-1" stroke="#DD3730" stroke-width="2"></path>
                    <path d="M159.574107,20.1226893 C156.852262,12.3311359 149.380515,6.73278641 140.584981,6.73278641 C138.647796,6.73278641 136.777019,7.0097767 135.004981,7.51569903 C130.116146,2.86453398 123.479738,0.000262135922 116.163524,0.000262135922 C103.919155,0.000262135922 93.5656602,8.01113592 90.1543981,19.0269612 C89.6572136,18.9955049 89.1574078,18.974534 88.6523592,18.974534 C75.8478932,18.974534 65.4681845,29.2502621 65.4681845,41.9271553 C65.4681845,54.6031748 75.8478932,64.8797767 88.6523592,64.8797767 L152.331291,64.8797767 C165.135757,64.8797767 175.515466,54.6031748 175.515466,41.9271553 C175.515466,31.7554078 168.830126,23.1346311 159.574107,20.1226893" id="Fill-3" fill-opacity="0.16443048" fill="#FDEEE5"></path>
                    <path d="M159.574107,20.1226893 C156.852262,12.3311359 149.380515,6.73278641 140.584981,6.73278641 C138.647796,6.73278641 136.777019,7.0097767 135.004981,7.51569903 C130.116146,2.86453398 123.479738,0.000262135922 116.163524,0.000262135922 C103.919155,0.000262135922 93.5656602,8.01113592 90.1543981,19.0269612 C89.6572136,18.9955049 89.1574078,18.974534 88.6523592,18.974534 C75.8478932,18.974534 65.4681845,29.2502621 65.4681845,41.9271553 C65.4681845,54.6031748 75.8478932,64.8797767 88.6523592,64.8797767 L152.331291,64.8797767 C165.135757,64.8797767 175.515466,54.6031748 175.515466,41.9271553 C175.515466,31.7554078 168.830126,23.1346311 159.574107,20.1226893 Z" id="Stroke-5" stroke="#DD3730" stroke-width="2"></path>
                    <path d="M146.619262,139.275087 L35.1415922,139.275087 C29.2496505,139.275087 24.4726602,134.498097 24.4726602,128.606155 L24.4726602,47.8665437 C24.4726602,41.9746019 29.2496505,37.1976117 35.1415922,37.1976117 L146.619262,37.1976117 C152.512078,37.1976117 157.288194,41.9746019 157.288194,47.8665437 L157.288194,128.606155 C157.288194,134.498097 152.512078,139.275087 146.619262,139.275087" id="Fill-7" fill="#FEF6F1"></path>
                    <path d="M146.619262,140.148874 L35.1415922,140.148874 C28.776932,140.148874 23.5988738,134.970816 23.5988738,128.606155 L23.5988738,47.8665437 C23.5988738,41.5018835 28.776932,36.3238252 35.1415922,36.3238252 L146.619262,36.3238252 C152.983922,36.3238252 158.161981,41.5018835 158.161981,47.8665437 L158.161981,128.606155 C158.161981,134.970816 152.983922,140.148874 146.619262,140.148874" id="Fill-9" fill="#FEF6F1"></path>
                    <path d="M146.619262,139.275087 L35.1415922,139.275087 C29.2496505,139.275087 24.4726602,134.498097 24.4726602,128.606155 L24.4726602,47.8665437 C24.4726602,41.9746019 29.2496505,37.1976117 35.1415922,37.1976117 L146.619262,37.1976117 C152.512078,37.1976117 157.288194,41.9746019 157.288194,47.8665437 L157.288194,128.606155 C157.288194,134.498097 152.512078,139.275087 146.619262,139.275087 Z" id="Stroke-11" stroke="#DD3730" stroke-width="2"></path>
                    <polygon id="Fill-13" fill="#FFFFFF" points="33.2108738 121.108544 148.55068 121.108544 148.55068 50.1736893 33.2108738 50.1736893"></polygon>
                    <polygon id="Stroke-15" stroke="#DD3730" stroke-width="2" points="33.2108738 121.108544 148.55068 121.108544 148.55068 50.1736893 33.2108738 50.1736893"></polygon>
                    <path d="M93.0648058,130.191641 C93.0648058,131.386107 92.0870388,132.355136 90.8803398,132.355136 C89.6736408,132.355136 88.6958738,131.386107 88.6958738,130.191641 C88.6958738,128.997175 89.6736408,128.029019 90.8803398,128.029019 C92.0870388,128.029019 93.0648058,128.997175 93.0648058,130.191641" id="Fill-16" fill="#DD3730"></path>
                    <path d="M98.7444175,139.275087 L98.7444175,152.250816" id="Stroke-17" stroke="#DD3730" stroke-width="2"></path>
                    <path d="M81.2686893,139.275087 L81.2686893,152.250816" id="Stroke-18" stroke="#DD3730" stroke-width="2"></path>
                    <path d="M48.0648058,152.250466 L133.695874,152.250466" id="Stroke-19" stroke="#DD3730" stroke-width="2"></path>
                </g>
                <g id="Group-39" transform="translate(32.330097, 55.922330)">
                    <g id="Group-23" transform="translate(13.980583, 38.446602)">
                        <mask id="mask-2" fill="white">
                            <use xlink:href="#path-1"></use>
                        </mask>
                        <g id="Clip-22"></g>
                        <path d="M47.547699,3.73150485 L37.5070194,1.65276699 C36.9233301,1.47975728 29.3711942,17.2262621 28.7691553,17.2236408 C28.1662427,17.2210194 20.6184757,0.61907767 20.0312913,0.787718447 L9.21643689,3.77694175 C4.26556311,5.20033981 0.807990291,9.75713592 0.807990291,14.8609223 L0.807990291,37.9856796 L9.32740777,37.9856796 L11.0749806,37.9856796 L55.856534,37.9856796 L55.856534,14.7866505 C55.856534,9.64966019 52.5169223,5.2073301 47.547699,3.73150485" id="Fill-21" fill="#DD3730" opacity="0.404947917" mask="url(#mask-2)"></path>
                    </g>
                    <g id="Group-26" transform="translate(14.854369, 36.699029)">
                        <mask id="mask-4" fill="white">
                            <use xlink:href="#path-3"></use>
                        </mask>
                        <g id="Clip-25"></g>
                        <path d="M1.90004854,38.0028932 L53.4534466,38.0028932 L53.4534466,16.534835 C53.4534466,12.1685243 50.6153883,8.39114563 46.3906311,7.13726214 L29.4033495,2.09114563 C28.5575243,1.83949515 27.6610194,1.836 26.8125728,2.08066019 L9.04849515,7.18619417 C4.83946602,8.39551456 1.90004854,12.2707573 1.90004854,16.6091068 L1.90004854,38.0028932 Z M55.2010194,39.7329903 L0.152475728,39.7329903 L0.152475728,16.6091068 C0.152475728,11.5053204 3.61004854,6.94765049 8.56092233,5.52425243 L26.325,0.41784466 C27.4984951,0.0814368932 28.7366505,0.0866796117 29.9049029,0.434446602 L46.8921845,5.47881553 C51.8622816,6.95551456 55.2010194,11.3978447 55.2010194,16.534835 L55.2010194,39.7329903 Z" id="Fill-24" fill="#DD3730" mask="url(#mask-4)"></path>
                    </g>
                    <path d="M53.7205631,30.7515146 L46.6839612,37.7182136 C44.8367767,39.5470485 41.8746408,39.6519029 39.9007573,37.9576311 L31.5272621,30.7733592 C30.7469709,30.1040388 30.2978447,29.1315146 30.2978447,28.1091845 L30.2978447,13.1919029 C30.2978447,9.89772816 32.9952233,7.22743689 36.3234757,7.22743689 L48.7391068,7.22743689 C52.0664854,7.22743689 54.7638641,9.89772816 54.7638641,13.1919029 L54.7638641,28.2577282 C54.7638641,29.1935534 54.3890097,30.0900583 53.7205631,30.7515146" id="Fill-27" fill="#FFFFFF"></path>
                    <path d="M36.323301,8.09187379 C33.4826214,8.09187379 31.1714563,10.3794466 31.1714563,13.192165 L31.1714563,28.1085728 C31.1714563,28.881 31.5096117,29.613233 32.0994175,30.1200291 L40.4729126,37.3034272 C42.0929126,38.6953689 44.5508738,38.6071165 46.0660194,37.1059515 L53.1026214,30.1392524 C53.603301,29.6446893 53.8899029,28.958767 53.8899029,28.2579903 L53.8899029,13.192165 C53.8899029,10.3794466 51.5796117,8.09187379 48.738932,8.09187379 L36.323301,8.09187379 Z M43.158932,40.0191553 C41.7940777,40.0191553 40.4257282,39.5534272 39.3273786,38.6106117 L30.9538835,31.4272136 C29.9813592,30.5918738 29.4238835,29.3816796 29.4238835,28.1085728 L29.4238835,13.192165 C29.4238835,9.42614563 32.518835,6.36265049 36.323301,6.36265049 L48.738932,6.36265049 C52.5425243,6.36265049 55.6374757,9.42614563 55.6374757,13.192165 L55.6374757,28.2579903 C55.6374757,29.4314854 55.1761165,30.5342039 54.3381553,31.3634272 L47.3015534,38.3283786 C46.1682524,39.452068 44.6653398,40.0191553 43.158932,40.0191553 L43.158932,40.0191553 Z" id="Fill-29" fill="#DD3730"></path>
                    <g id="Group-33" transform="translate(60.291262, 63.786408)">
                        <mask id="mask-6" fill="white">
                            <use xlink:href="#path-5"></use>
                        </mask>
                        <g id="Clip-32"></g>
                        <path d="M0.807815534,11.7807379 L0.807815534,0.535106796" id="Fill-31" fill="#FFFFFF" mask="url(#mask-6)"></path>
                    </g>
                    <mask id="mask-8" fill="white">
                        <use xlink:href="#path-7"></use>
                    </mask>
                    <g id="Clip-35"></g>
                    <polygon id="Fill-34" fill="#DD3730" mask="url(#mask-8)" points="60.2257282 75.5667961 61.973301 75.5667961 61.973301 64.321165 60.2257282 64.321165"></polygon>
                    <path d="M24.4000485,76.4324563 L24.4000485,65.1859515" id="Fill-36" fill="#FFFFFF" mask="url(#mask-8)"></path>
                    <polygon id="Fill-37" fill="#DD3730" mask="url(#mask-8)" points="23.526699 76.4327184 25.2742718 76.4327184 25.2742718 65.1862136 23.526699 65.1862136"></polygon>
                    <path d="M42.84,56.622932 C42.8216505,56.622932 42.8024272,56.622932 42.7832039,56.6220583 C41.7049515,56.6010874 40.7621359,55.9833204 40.3217476,55.0081748 L33.6827184,40.296233 L35.2782524,39.5910874 L41.9172816,54.3030291 C42.0806796,54.6639029 42.4179612,54.8849709 42.8181553,54.892835 C43.2235922,54.905068 43.5626214,54.6936117 43.74,54.3388544 L51.0439806,39.7509903 L52.608932,40.5190485 L45.3058252,55.1069126 C44.8366019,56.046233 43.8946602,56.622932 42.84,56.622932" id="Fill-38" fill="#DD3730" mask="url(#mask-8)"></path>
                </g>
                <g id="Group-83" transform="translate(3.495146, 52.427184)">
                    <g id="Group-42" transform="translate(142.427184, 99.611650)">
                        <mask id="mask-10" fill="white">
                            <use xlink:href="#path-9"></use>
                        </mask>
                        <g id="Clip-41"></g>
                        <path d="M3.95231068,1.92163107 C3.95231068,2.79017476 3.24104854,3.49532039 2.36376699,3.49532039 C1.48561165,3.49532039 0.773475728,2.79017476 0.773475728,1.92163107 C0.773475728,1.05221359 1.48561165,0.347941748 2.36376699,0.347941748 C3.24104854,0.347941748 3.95231068,1.05221359 3.95231068,1.92163107" id="Fill-40" fill="#F07E3F" mask="url(#mask-10)"></path>
                    </g>
                    <path d="M25.6928155,95.5114951 C25.6928155,96.3800388 24.9806796,97.0851845 24.1033981,97.0851845 C23.2252427,97.0851845 22.5131068,96.3800388 22.5131068,95.5114951 C22.5131068,94.6420777 23.2252427,93.9378058 24.1033981,93.9378058 C24.9806796,93.9378058 25.6928155,94.6420777 25.6928155,95.5114951" id="Fill-43" fill="#F07E3F"></path>
                    <path d="M167.116544,58.7843301 C167.116544,59.819767 166.268971,60.6586019 165.223922,60.6586019 C164.178874,60.6586019 163.331301,59.819767 163.331301,58.7843301 C163.331301,57.749767 164.178874,56.9100583 165.223922,56.9100583 C166.268971,56.9100583 167.116544,57.749767 167.116544,58.7843301" id="Fill-45" fill="#F07E3F"></path>
                    <path d="M6.05053398,67.9189806 C6.05053398,69.2733495 4.94082524,70.371699 3.57334951,70.371699 C2.20587379,70.371699 1.09616505,69.2733495 1.09616505,67.9189806 C1.09616505,66.5646117 2.20587379,65.4662621 3.57334951,65.4662621 C4.94082524,65.4662621 6.05053398,66.5646117 6.05053398,67.9189806" id="Fill-47" fill="#F07E3F"></path>
                    <path d="M6.46182524,3.43878641 C6.46182524,5.00461165 5.17823301,6.27509709 3.59667961,6.27509709 C2.01425243,6.27509709 0.731533981,5.00461165 0.731533981,3.43878641 C0.731533981,1.87208738 2.01425243,0.602475728 3.59667961,0.602475728 C5.17823301,0.602475728 6.46182524,1.87208738 6.46182524,3.43878641" id="Fill-49" fill="#F07E3F"></path>
                    <path d="M176.438883,16.0157184 C176.438883,17.3700874 175.329175,18.4684369 173.961699,18.4684369 C172.594223,18.4684369 171.484515,17.3700874 171.484515,16.0157184 C171.484515,14.6613495 172.594223,13.563 173.961699,13.563 C175.329175,13.563 176.438883,14.6613495 176.438883,16.0157184" id="Fill-51" fill="#F07E3F"></path>
                    <path d="M171.581068,79.052068 C171.581068,80.7952718 170.153301,82.2081845 168.393495,82.2081845 C166.631942,82.2081845 165.205049,80.7952718 165.205049,79.052068 C165.205049,77.3088641 166.631942,75.8950777 168.393495,75.8950777 C170.153301,75.8950777 171.581068,77.3088641 171.581068,79.052068" id="Fill-53" fill="#F07E3F"></path>
                    <path d="M100.201019,23.0495243 L116.802961,23.0495243" id="Fill-55" fill="#FFFFFF"></path>
                    <path d="M115.929175,23.9147476 L101.074806,23.9147476 C100.591602,23.9147476 100.201019,23.5276602 100.201019,23.049699 C100.201019,22.5717379 100.591602,22.1846505 101.074806,22.1846505 L115.929175,22.1846505 C116.412379,22.1846505 116.802961,22.5717379 116.802961,23.049699 C116.802961,23.5276602 116.412379,23.9147476 115.929175,23.9147476" id="Fill-57" fill="#DD3730"></path>
                    <path d="M108.50199,14.831301 L108.50199,31.2680971" id="Fill-59" fill="#FFFFFF"></path>
                    <path d="M108.50199,31.2677476 L108.50199,31.2677476 C108.018786,31.2677476 107.628204,30.8806602 107.628204,30.402699 L107.628204,15.6968738 C107.628204,15.2189126 108.018786,14.8309515 108.50199,14.8309515 C108.985194,14.8309515 109.375777,15.2189126 109.375777,15.6968738 L109.375777,30.402699 C109.375777,30.8806602 108.985194,31.2677476 108.50199,31.2677476" id="Fill-61" fill="#DD3730"></path>
                    <path d="M122.264126,22.8328252 L138.866068,22.8328252" id="Fill-63" fill="#FFFFFF"></path>
                    <path d="M137.992282,23.6980485 L123.137913,23.6980485 C122.654709,23.6980485 122.264126,23.3109612 122.264126,22.8338738 L122.264126,22.833 C122.264126,22.3550388 122.654709,21.9688252 123.137913,21.9688252 L137.992282,21.9688252 C138.475485,21.9688252 138.866068,22.3550388 138.866068,22.833 L138.866068,22.8338738 C138.866068,23.3109612 138.475485,23.6980485 137.992282,23.6980485" id="Fill-65" fill="#DD3730"></path>
                    <path d="M102.632155,38.8647087 L114.37235,50.4869417" id="Fill-67" fill="#FFFFFF"></path>
                    <path d="M113.136291,50.4876408 L102.632505,40.087835 C102.290854,39.7505534 102.290854,39.2026893 102.632505,38.864534 C102.973282,38.5272524 103.526388,38.5272524 103.868039,38.864534 L114.371825,49.2643398 C114.713476,49.6016214 114.713476,50.1494854 114.371825,50.4876408 C114.030175,50.8249223 113.477942,50.8249223 113.136291,50.4876408" id="Fill-69" fill="#DD3730"></path>
                    <path d="M114.371913,38.8647087 L102.631718,50.4869417" id="Fill-71" fill="#FFFFFF"></path>
                    <path d="M102.632155,50.4876408 L102.632155,50.4876408 C102.290505,50.1494854 102.290505,49.6016214 102.632155,49.2643398 L113.135942,38.864534 C113.477592,38.5272524 114.030699,38.5272524 114.37235,38.864534 C114.713126,39.2026893 114.713126,39.7505534 114.37235,40.087835 L103.867689,50.4876408 C103.526039,50.8249223 102.973806,50.8249223 102.632155,50.4876408" id="Fill-73" fill="#DD3730"></path>
                    <path d="M122.264126,40.1344078 L138.866068,40.1344078" id="Fill-75" fill="#FFFFFF"></path>
                    <path d="M137.992282,40.9997184 L123.137913,40.9997184 C122.654709,40.9997184 122.264126,40.6126311 122.264126,40.1346699 C122.264126,39.6567087 122.654709,39.2696214 123.137913,39.2696214 L137.992282,39.2696214 C138.475485,39.2696214 138.866068,39.6567087 138.866068,40.1346699 C138.866068,40.6126311 138.475485,40.9997184 137.992282,40.9997184" id="Fill-77" fill="#DD3730"></path>
                    <path d="M122.264126,47.9200194 L138.866068,47.9200194" id="Fill-79" fill="#FFFFFF"></path>
                    <path d="M137.992282,48.7852427 L123.137913,48.7852427 C122.654709,48.7852427 122.264126,48.3981553 122.264126,47.9201942 C122.264126,47.442233 122.654709,47.0551456 123.137913,47.0551456 L137.992282,47.0551456 C138.475485,47.0551456 138.866068,47.442233 138.866068,47.9201942 C138.866068,48.3981553 138.475485,48.7852427 137.992282,48.7852427" id="Fill-81" fill="#DD3730"></path>
                </g>
            </g>
            <g id="Group-55-Copy" transform="translate(0.000000, 3505.728919) scale(-1, 1) rotate(9.000000) translate(-0.000000, -3505.728919) translate(-228.500000, 3260.728919)"></g>
        </g>
    </g>
</svg>