<?xml version="1.0" encoding="UTF-8"?>
<svg width="180px" height="196px" viewBox="0 0 180 196" version="1.1" xmlns="http://www.w3.org/2000/svg" xmlns:xlink="http://www.w3.org/1999/xlink">
    <!-- Generator: Sketch 42 (36781) - http://www.bohemiancoding.com/sketch -->
    <title>Page 1</title>
    <desc>Created with Sketch.</desc>
    <defs>
        <polygon id="path-1" points="5.85914439 6.21154011 5.85914439 0.754748663 0.401486631 0.754748663 0.401486631 6.21154011 5.85914439 6.21154011"></polygon>
        <path d="M112.942877,74.1278503 L112.942877,81.8341604 L108.647904,81.8341604 L108.647904,74.1278503 L101.53646,61.2814332 L106.598599,61.2814332 L110.865658,70.2333048 L114.950791,61.2814332 L119.817529,61.2814332 L112.942877,74.1278503 Z M99.0963529,73.9141604 C99.0963529,76.0982246 98.7575294,77.8000428 98.0808449,79.0176898 C96.8179572,81.2479572 94.409615,82.3635722 90.8558182,82.3635722 C87.3010588,82.3635722 84.8879037,81.2479572 83.6173155,79.0176898 C82.9396684,77.8000428 82.6018075,76.0982246 82.6018075,73.9141604 L82.6018075,61.2814332 L86.9660856,61.2814332 L86.9660856,73.9045348 C86.9660856,75.3156578 87.1326096,76.3465668 87.4656578,76.9962995 C87.9844813,78.148492 89.1145348,78.724107 90.8558182,78.724107 C92.5884385,78.724107 93.7127166,78.148492 94.2325027,76.9962995 C94.5645882,76.3465668 94.7320749,75.3156578 94.7320749,73.9045348 L94.7320749,61.2814332 L99.0963529,61.2814332 L99.0963529,73.9141604 Z M77.9911123,78.9060321 C77.6031979,79.5471016 77.1180642,80.086139 76.5366738,80.5231444 C75.8802032,81.0256043 75.1053369,81.3692406 74.214,81.555016 C73.3217005,81.741754 72.3543209,81.8341604 71.3099358,81.8341604 L62.0490802,81.8341604 L62.0490802,61.2814332 L71.9808449,61.2814332 C74.487369,61.3189733 76.2633048,62.0485989 77.3076898,63.4703102 C77.9372086,64.3443209 78.2510053,65.3896684 78.2510053,66.6082781 C78.2510053,67.8625027 77.9343209,68.8712727 77.2999893,69.6336257 C76.9457647,70.0610053 76.4230909,70.4518075 75.7319679,70.8050695 C76.7811658,71.186246 77.5723957,71.7897754 78.1066203,72.6175829 C78.6398824,73.4453904 78.9074759,74.448385 78.9074759,75.6294545 C78.9074759,76.8471016 78.6013797,77.9386524 77.9911123,78.9060321 L77.9911123,78.9060321 Z M46.1667273,70.5211123 C46.1667273,94.3109519 65.451754,113.595979 89.2415936,113.595979 C113.031433,113.595979 132.31646,94.3109519 132.31646,70.5211123 C132.31646,46.7322353 113.031433,27.446246 89.2415936,27.446246 C65.451754,27.446246 46.1667273,46.7322353 46.1667273,70.5211123 Z" id="path-3"></path>
        <mask id="mask-4" maskContentUnits="userSpaceOnUse" maskUnits="objectBoundingBox" x="0" y="0" width="86.1497326" height="86.1497326" fill="white">
            <use xlink:href="#path-3"></use>
        </mask>
    </defs>
    <g id="0327new" stroke="none" stroke-width="1" fill="none" fill-rule="evenodd">
        <g id="人力云" transform="translate(-1433.000000, -3280.000000)">
            <g id="Page-1" transform="translate(1433.000000, 3281.000000)">
                <path d="M34.3503529,137.517209 C34.3503529,138.484588 33.5668235,139.268118 32.5994439,139.268118 C31.6320642,139.268118 30.8485348,138.484588 30.8485348,137.517209 C30.8485348,136.550791 31.6320642,135.766299 32.5994439,135.766299 C33.5668235,135.766299 34.3503529,136.550791 34.3503529,137.517209" id="Fill-1" fill="#F07E3F"></path>
                <path d="M132.416567,135.629615 C132.416567,136.596032 131.633037,137.380524 130.665658,137.380524 C129.698278,137.380524 128.914749,136.596032 128.914749,135.629615 C128.914749,134.662235 129.698278,133.878706 130.665658,133.878706 C131.633037,133.878706 132.416567,134.662235 132.416567,135.629615" id="Fill-3" fill="#F07E3F"></path>
                <path d="M153.450578,140.966567 C153.450578,142.117797 152.516888,143.051487 151.365658,143.051487 C150.214428,143.051487 149.280738,142.117797 149.280738,140.966567 C149.280738,139.815337 150.214428,138.881647 151.365658,138.881647 C152.516888,138.881647 153.450578,139.815337 153.450578,140.966567" id="Fill-5" fill="#F07E3F"></path>
                <path d="M11.6346417,130.916888 C11.6346417,132.423305 10.4131444,133.644802 8.90576471,133.644802 C7.39934759,133.644802 6.1768877,132.423305 6.1768877,130.916888 C6.1768877,129.409508 7.39934759,128.188011 8.90576471,128.188011 C10.4131444,128.188011 11.6346417,129.409508 11.6346417,130.916888" id="Fill-7" fill="#F07E3F"></path>
                <path d="M6.31183957,80.3445882 C6.31183957,82.0877968 4.89879144,83.5008449 3.15654545,83.5008449 C1.4133369,83.5008449 0.000288770053,82.0877968 0.000288770053,80.3445882 C0.000288770053,78.6013797 1.4133369,77.1883316 3.15654545,77.1883316 C4.89879144,77.1883316 6.31183957,78.6013797 6.31183957,80.3445882" id="Fill-9" fill="#F07E3F"></path>
                <path d="M30.8545027,31.3547487 C35.9224171,23.8544278 42.3995294,17.3840535 49.9075508,12.3257647 L50.1676867,13.0087525" id="Stroke-11" stroke="#DD3730" stroke-width="2.778"></path>
                <path d="M39.4348235,120.328267 C26.7193155,107.612759 18.8541818,90.0459144 18.8541818,70.6415294 C18.8541818,62.0438824 20.398139,53.8071979 23.2242353,46.1923316" id="Stroke-13" stroke="#DD3730" stroke-width="2.778"></path>
                <path d="M65.9552727,4.28255615 C73.2091765,1.75100535 81.0040428,0.374534759 89.121369,0.374534759 C127.929176,0.374534759 159.388749,31.834107 159.388749,70.6419144 C159.388749,90.9482246 150.774738,109.24277 137.002332,122.070898" id="Stroke-15" stroke="#DD3730" stroke-width="2.778"></path>
                <g id="Group-19" transform="translate(173.262032, 49.465348)">
                    <mask id="mask-2" fill="white">
                        <use xlink:href="#path-1"></use>
                    </mask>
                    <g id="Clip-18"></g>
                    <path d="M5.85924064,3.48362567 C5.85924064,4.99004278 4.63678075,6.21154011 3.13036364,6.21154011 C1.62394652,6.21154011 0.401486631,4.99004278 0.401486631,3.48362567 C0.401486631,1.97624599 1.62394652,0.754748663 3.13036364,0.754748663 C4.63678075,0.754748663 5.85924064,1.97624599 5.85924064,3.48362567" id="Fill-17" fill="#F07E3F" mask="url(#mask-2)"></path>
                </g>
                <path d="M73.2614439,73.1333262 C72.7734225,72.9100107 72.0890374,72.7935401 71.2073262,72.784877 L66.1480749,72.784877 L66.1480749,78.2647701 L71.1380214,78.2647701 C72.0293583,78.2647701 72.723369,78.1444492 73.2190909,77.9018824 C74.1200535,77.4562139 74.5695722,76.600492 74.5695722,75.3366417 C74.5695722,74.2672299 74.1335294,73.533754 73.2614439,73.1333262" id="Fill-24" stroke-opacity="0.624009284" stroke="#DD3730" stroke-width="2"></path>
                <path d="M74.1515294,67.0679037 C74.1515294,66.1101497 73.7838289,65.4787059 73.0484278,65.1716471 C72.4140963,64.9579572 71.603615,64.8511123 70.6189091,64.8511123 L66.1487487,64.8511123 L66.1487487,69.382877 L71.143508,69.382877 C72.0367701,69.382877 72.7606203,69.2134652 73.316984,68.8736791 C73.8733476,68.533893 74.1515294,67.9322888 74.1515294,67.0679037 Z" id="Fill-28" stroke-opacity="0.624009284" stroke="#DD3730" stroke-width="2"></path>
                <use id="Fill-32" stroke-opacity="0.624009284" stroke="#DD3730" mask="url(#mask-4)" stroke-width="4" xlink:href="#path-3"></use>
                <path d="M89.1212727,22.0321925 C62.3176364,22.0321925 40.5116471,43.8381818 40.5116471,70.6418182 C40.5116471,97.4454545 62.3176364,119.251444 89.1212727,119.251444 C115.924909,119.251444 137.730898,97.4454545 137.730898,70.6418182 C137.730898,43.8381818 115.924909,22.0321925 89.1212727,22.0321925 M89.1212727,124.064278 C59.6638396,124.064278 35.6988128,100.099251 35.6988128,70.6418182 C35.6988128,41.184385 59.6638396,17.2193583 89.1212727,17.2193583 C118.578706,17.2193583 142.543733,41.184385 142.543733,70.6418182 C142.543733,100.099251 118.578706,124.064278 89.1212727,124.064278" id="Fill-34" fill="#F07E3F" opacity="0.14453125"></path>
                <g id="Group-35" transform="translate(54.866310, 83.743316)">
                    <path d="M59.762984,111.069626 L61.6881176,111.069626 L61.6881176,85.0803209 L61.6746417,85.0803209 L61.585123,78.7957219 L64.8684385,74.4208556 C66.5413797,72.1905882 67.4635187,69.4270588 67.4635187,66.6394652 L67.4635187,38.3958289 C67.4635187,34.4146524 64.2254439,31.1765775 60.2442674,31.1765775 C58.1516471,31.1765775 56.2698289,32.0775401 54.9501497,33.5040642 L54.9501497,31.657861 C54.9501497,27.6766845 51.7120749,24.4386096 47.7308984,24.4386096 C45.6382781,24.4386096 43.7564599,25.3395722 42.4367807,26.7660963 L42.4367807,25.8824599 C42.4367807,21.9012834 39.1987059,18.6632086 35.2175294,18.6632086 C33.1249091,18.6632086 31.2430909,19.5641711 29.9234118,20.9906952 L29.9234118,9.03754011 C29.9234118,4.26128342 26.0375294,0.374438503 21.2603102,0.374438503 C16.4830909,0.374438503 12.5972086,4.26128342 12.5972086,9.03754011 L12.5972086,45 C11.2948556,43.6062032 9.44672727,42.7273797 7.39260963,42.7273797 C5.44918717,42.7273797 3.63282353,43.4945455 2.27849198,44.8883422 C0.925122995,46.282139 0.209935829,48.1187166 0.264802139,50.0611765 L0.912609626,72.7238503 C1.00597861,75.9927273 2.11678075,79.0864171 4.12565775,81.668984 L7.78437433,86.3730481 L7.78437433,111.069626 L9.70950802,111.069626" id="Fill-36" fill="#FFFFFF"></path>
                    <rect id="Rectangle" fill="#FEF5F1" x="8.6631016" y="86.631016" width="51.14864" height="24.0641711"></rect>
                    <path d="M65.4494456,66.2650267 C65.4494456,68.6387166 64.6628754,70.9921925 63.2335374,72.8913369 L59.8575589,77.3768984 L59.5496866,78.0824599 L59.6442681,84.7058824 L8.97949697,84.7058824 L5.39698344,80.1134759 C3.63757553,77.8562567 2.66377269,75.1514439 2.58270287,72.2945455 L1.93317927,49.6318717 C1.89264437,48.2140107 2.41573767,46.8731551 3.40691261,45.8557219 C4.39808756,44.8382888 5.72705338,44.2780749 7.14963553,44.2780749 C10.0266487,44.2780749 12.368022,46.613262 12.368022,49.4826738 L12.368022,54.8663102 L12.368022,60.6417112 L14.2982556,60.6417112 L14.2982556,54.8663102 L14.2982556,49.4826738 L14.2982556,8.6631016 C14.2982556,4.94759358 17.3296875,1.92513369 21.0540731,1.92513369 C24.7784588,1.92513369 27.8098907,4.94759358 27.8098907,8.6631016 L27.8098907,25.5080214 L27.8098907,54.8663102 L27.8098907,55.828877 L29.7401243,55.828877 L29.7401243,54.8663102 L29.7401243,25.5080214 C29.7401243,22.5885561 32.1220325,20.2139037 35.0482666,20.2139037 C37.9745007,20.2139037 40.356409,22.5885561 40.356409,25.5080214 L40.356409,31.2834225 L40.356409,55.828877 L42.2866426,55.828877 L42.2866426,31.2834225 C42.2866426,28.3639572 44.6685508,25.9893048 47.5947849,25.9893048 C50.521019,25.9893048 52.9029273,28.3639572 52.9029273,31.2834225 L52.9029273,38.0213904 L52.9029273,55.828877 L54.8331609,55.828877 L54.8331609,38.0213904 C54.8331609,35.1019251 57.2150691,32.7272727 60.1413032,32.7272727 C63.0675373,32.7272727 65.4494456,35.1019251 65.4494456,38.0213904 L65.4494456,66.2650267 Z M60.1413032,30.802139 C58.0431393,30.802139 56.156336,31.7031016 54.8331609,33.1296257 L54.8331609,31.2834225 C54.8331609,27.302246 51.586508,24.0641711 47.5947849,24.0641711 C45.496621,24.0641711 43.6098177,24.9651337 42.2866426,26.3916578 L42.2866426,25.5080214 C42.2866426,21.5268449 39.0399897,18.2887701 35.0482666,18.2887701 C32.9501027,18.2887701 31.0632994,19.1897326 29.7401243,20.6162567 L29.7401243,8.6631016 C29.7401243,3.88684492 25.8439478,0 21.0540731,0 C16.2641985,0 12.368022,3.88684492 12.368022,8.6631016 L12.368022,44.6265241 C11.062219,43.2317647 9.20919477,42.3529412 7.14963553,42.3529412 C5.20106473,42.3529412 3.37988934,43.1210695 2.02197002,44.5139037 C0.66501581,45.9077005 -0.052065966,47.7442781 0.00294569107,49.686738 L0.652469292,72.3494118 C0.746085621,75.6182888 1.8598304,78.7119786 3.87402914,81.2945455 L7.54243807,85.9986096 L7.54243807,110.695187 L9.47267165,110.695187 L9.47267165,86.631016 L59.6587448,86.631016 L59.6587448,110.695187 L61.5889784,110.695187 L61.5889784,84.7058824 L61.5754668,84.7058824 L61.4857109,78.4212834 L64.7777243,74.0464171 C66.4550973,71.8171123 67.3796791,69.0526203 67.3796791,66.2650267 L67.3796791,38.0213904 C67.3796791,34.0402139 64.1330263,30.802139 60.1413032,30.802139 L60.1413032,30.802139 Z" id="Fill-38" fill="#DD3730"></path>
                </g>
            </g>
        </g>
    </g>
</svg>