<?xml version="1.0" encoding="UTF-8"?>
<svg width="200px" height="109px" viewBox="0 0 200 109" version="1.1" xmlns="http://www.w3.org/2000/svg" xmlns:xlink="http://www.w3.org/1999/xlink">
    <!-- Generator: Sketch 42 (36781) - http://www.bohemiancoding.com/sketch -->
    <title>助理</title>
    <desc>Created with Sketch.</desc>
    <defs>
        <polygon id="path-1" points="3.55708333 0.63 0.525416667 0.63 0.525416667 3.66141667 3.55708333 3.66141667 3.55708333 0.63"></polygon>
        <polygon id="path-3" points="0 0.735666667 0 5.45983333 4.72491667 5.45983333 4.72491667 0.735666667 1.12937726e-20 0.735666667"></polygon>
    </defs>
    <g id="0327new" stroke="none" stroke-width="1" fill="none" fill-rule="evenodd">
        <g id="人力云" transform="translate(-257.000000, -3246.000000)">
            <g id="助理" transform="translate(257.000000, 3246.000000)">
                <g id="Group-5" transform="translate(43.333333, 25.203333)" fill="#F39866">
                    <path d="M112.145167,35.6375833 L101.511,25.00425 C95.4551667,10.6400833 77.4576667,0.220916667 56.1926667,0.220916667 C34.9293333,0.220916667 16.931,10.6400833 10.8751667,25.00425 L0.241833333,35.6375833 L10.8751667,46.2709167 C16.931,60.6350833 34.9293333,71.05425 56.1926667,71.05425 C77.4576667,71.05425 95.4551667,60.6350833 101.511,46.2709167 L112.145167,35.6375833 Z" id="Fill-1"></path>
                </g>
                <path d="M191.800917,49.3716667 L182.225083,47.3691667 C181.668417,47.2016667 174.465917,62.3716667 173.89175,62.3691667 C173.31675,62.3666667 166.118417,46.3733333 165.558417,46.5358333 L155.24425,49.415 C150.522583,50.7858333 147.225083,55.1766667 147.225083,60.0925 L147.225083,82.3691667 L155.350083,82.3691667 L157.01675,82.3691667 L199.725083,82.3691667 L199.725083,60.0216667 C199.725083,55.0733333 196.540083,50.7933333 191.800917,49.3716667" id="Fill-6" fill="#FDEEE5"></path>
                <path d="M53.2665833,80.7021667 L47.2249167,80.7021667 L47.2249167,70.7021667 L45.55825,70.7021667 L45.55825,80.7021667 L12.2249167,80.7021667 L12.2249167,71.5355 L10.55825,71.5355 L10.55825,80.7021667 L4.09991667,80.7021667 L4.09991667,60.093 C4.09991667,55.888 6.87741667,52.1888333 10.91575,51.0163333 L22.8190833,47.5596667 L24.7249167,47.3688333 L27.2249167,51.5355 L23.8915833,71.5355 L26.8315833,76.8655 C27.43825,77.3196667 28.1649167,77.5471667 28.8915833,77.5471667 C29.61825,77.5471667 30.3449167,77.3196667 30.9515833,76.8655 L33.8915833,71.5355 L31.3915833,51.5355 L33.8915833,47.3688333 L46.53075,50.968 C50.5599167,52.1771667 53.2665833,55.8146667 53.2665833,60.0213333 L53.2665833,80.7021667 Z M47.0090833,49.3713333 L30.80825,44.5113333 C29.6940833,44.1763333 28.51325,44.1713333 27.3940833,44.4963333 L10.4524167,49.4155 C5.73075,50.7855 2.43325,55.1763333 2.43325,60.093 L2.43325,82.3688333 L10.55825,82.3688333 L12.2249167,82.3688333 L54.93325,82.3688333 L54.93325,60.0213333 C54.93325,55.073 51.7490833,50.793 47.0090833,49.3713333 L47.0090833,49.3713333 Z" id="Fill-8" fill="#DD3730"></path>
                <g id="Group-12" transform="translate(79.166667, 0.203333)">
                    <mask id="mask-2" fill="white">
                        <use xlink:href="#path-1"></use>
                    </mask>
                    <g id="Clip-11"></g>
                    <path d="M3.55708333,2.14558333 C3.55708333,2.98308333 2.87875,3.66141667 2.04208333,3.66141667 C1.20458333,3.66141667 0.525416667,2.98308333 0.525416667,2.14558333 C0.525416667,1.30891667 1.20458333,0.62975 2.04208333,0.62975 C2.87875,0.62975 3.55708333,1.30891667 3.55708333,2.14558333" id="Fill-10" fill="#F07E3F" mask="url(#mask-2)"></path>
                </g>
                <path d="M105.1245,7.3815 C105.1245,8.21816667 104.445333,8.89733333 103.608667,8.89733333 C102.771167,8.89733333 102.092,8.21816667 102.092,7.3815 C102.092,6.544 102.771167,5.86566667 103.608667,5.86566667 C104.445333,5.86566667 105.1245,6.544 105.1245,7.3815" id="Fill-13" fill="#F07E3F"></path>
                <path d="M54.1674167,100.335167 C54.1674167,101.331833 53.3590833,102.140167 52.3624167,102.140167 C51.36575,102.140167 50.5574167,101.331833 50.5574167,100.335167 C50.5574167,99.3385 51.36575,98.5301667 52.3624167,98.5301667 C53.3590833,98.5301667 54.1674167,99.3385 54.1674167,100.335167" id="Fill-15" fill="#F07E3F"></path>
                <g id="Group-19" transform="translate(0.000000, 41.036667)">
                    <mask id="mask-4" fill="white">
                        <use xlink:href="#path-3"></use>
                    </mask>
                    <g id="Clip-18"></g>
                    <path d="M4.72491667,3.09816667 C4.72491667,4.40233333 3.66658333,5.45983333 2.36241667,5.45983333 C1.05825,5.45983333 -8.33333333e-05,4.40233333 -8.33333333e-05,3.09816667 C-8.33333333e-05,1.79316667 1.05825,0.735666667 2.36241667,0.735666667 C3.66658333,0.735666667 4.72491667,1.79316667 4.72491667,3.09816667" id="Fill-17" fill="#F07E3F" mask="url(#mask-4)"></path>
                </g>
                <path d="M147.617167,31.1855833 C147.617167,32.69475 146.393,33.9180833 144.884667,33.9180833 C143.3755,33.9180833 142.152167,32.69475 142.152167,31.1855833 C142.152167,29.6764167 143.3755,28.4530833 144.884667,28.4530833 C146.393,28.4530833 147.617167,29.6764167 147.617167,31.1855833" id="Fill-20" fill="#F07E3F" opacity="0.362601902"></path>
                <path d="M149.724917,96.6348333 C149.724917,97.939 148.666583,98.9965 147.362417,98.9965 C146.05825,98.9965 144.999917,97.939 144.999917,96.6348333 C144.999917,95.3298333 146.05825,94.2723333 147.362417,94.2723333 C148.666583,94.2723333 149.724917,95.3298333 149.724917,96.6348333" id="Fill-22" fill="#F07E3F"></path>
                <path d="M39.3545833,38.36375 L32.64375,45.0745833 C30.8820833,46.83625 28.0570833,46.9379167 26.1745833,45.3054167 L18.18875,38.3845833 C17.4445833,37.7395833 17.01625,36.8029167 17.01625,35.8179167 L17.01625,21.44875 C17.01625,18.2754167 19.58875,15.7020833 22.7629167,15.7020833 L34.60375,15.7020833 C37.7770833,15.7020833 40.3495833,18.2754167 40.3495833,21.44875 L40.3495833,35.9620833 C40.3495833,36.8629167 39.9920833,37.7270833 39.3545833,38.36375" id="Fill-24" fill="#FFFFFF"></path>
                <path d="M22.7628333,16.5355 C20.0536667,16.5355 17.8495,18.7396667 17.8495,21.4488333 L17.8495,35.818 C17.8495,36.5613333 18.172,37.2671667 18.7345,37.7555 L26.7203333,44.6755 C28.2653333,46.0163333 30.6103333,45.9313333 32.0545,44.4855 L38.7653333,37.7738333 C39.2428333,37.2971667 39.5161667,36.6371667 39.5161667,35.9621667 L39.5161667,21.4488333 C39.5161667,18.7396667 37.3128333,16.5355 34.6036667,16.5355 L22.7628333,16.5355 Z M29.282,47.2921667 C27.9803333,47.2921667 26.6753333,46.843 25.6278333,45.9346667 L17.642,39.0146667 C16.7145,38.2096667 16.1828333,37.0446667 16.1828333,35.818 L16.1828333,21.4488333 C16.1828333,17.8205 19.1345,14.8688333 22.7628333,14.8688333 L34.6036667,14.8688333 C38.2311667,14.8688333 41.1828333,17.8205 41.1828333,21.4488333 L41.1828333,35.9621667 C41.1828333,37.0913333 40.7428333,38.1538333 39.9436667,38.953 L33.2328333,45.6638333 C32.152,46.7446667 30.7186667,47.2921667 29.282,47.2921667 L29.282,47.2921667 Z" id="Fill-26" fill="#DD3730"></path>
                <path d="M149.099917,80.7021667 L198.266583,80.7021667 L198.266583,60.0213333 C198.266583,55.8146667 195.559917,52.1771667 191.53075,50.968 L175.329917,46.108 C174.52325,45.8655 173.66825,45.8621667 172.859083,46.0971667 L155.917417,51.0155 C151.90325,52.1805 149.099917,55.913 149.099917,60.093 L149.099917,80.7021667 Z M199.93325,82.3688333 L147.43325,82.3688333 L147.43325,60.093 C147.43325,55.1763333 150.73075,50.7855 155.452417,49.4155 L172.394083,44.4963333 C173.51325,44.1713333 174.694083,44.1763333 175.80825,44.5113333 L192.009083,49.3713333 C196.749083,50.793 199.93325,55.073 199.93325,60.0213333 L199.93325,82.3688333 Z" id="Fill-28" fill="#DD3730"></path>
                <path d="M155.4785,60.8409167 L144.844333,50.2075833 C138.7885,35.8434167 120.791,25.42425 99.526,25.42425 C78.2626667,25.42425 60.2643333,35.8434167 54.2085,50.2075833 L43.5751667,60.8409167 L54.2085,71.47425 C60.2643333,85.8384167 78.2626667,96.2575833 99.526,96.2575833 C120.791,96.2575833 138.7885,85.8384167 144.844333,71.47425 L155.4785,60.8409167 Z" id="Fill-30" fill="#FEF6F0"></path>
                <path d="M50.2892984,55.8942016 C47.5573031,58.6261969 47.5570358,63.0553691 50.2892984,65.7876318 L55.2650833,70.7634167 L55.3600833,70.9884167 C61.4175833,85.3550833 79.16675,95.0075833 99.52675,95.0075833 C119.885917,95.0075833 137.635083,85.3550833 143.693417,70.9884167 L143.787583,70.7634167 L148.763786,65.7876318 C151.496011,63.0556365 151.496278,58.6264642 148.763786,55.8942016 L143.787583,50.9184167 L143.693417,50.6934167 C137.635083,36.32675 119.885917,26.67425 99.52675,26.67425 C79.16675,26.67425 61.4175833,36.32675 55.3600833,50.6934167 L55.2650833,50.9184167 L50.2892984,55.8942016 Z M53.1534167,72.1875833 L47.4638801,66.4976289 C44.3399937,63.373513 44.339688,58.308812 47.4638801,55.1846199 L53.1534167,49.4950833 C59.68425,34.33925 78.27925,24.17425 99.52675,24.17425 C120.773417,24.17425 139.368417,34.33925 145.89925,49.4950833 L151.589204,55.1846199 C154.71332,58.3085063 154.713626,63.3732073 151.589204,66.4976289 L145.89925,72.1875833 C139.368417,87.3434167 120.773417,97.5075833 99.52675,97.5075833 C78.27925,97.5075833 59.68425,87.3434167 53.1534167,72.1875833 Z" id="Fill-32" fill="#DD3730"></path>
                <path d="M131.337,25.067 C121.561167,20.0861667 110.101167,17.4536667 98.197,17.4536667 C87.3936667,17.4536667 76.8353333,19.6528333 67.6653333,23.8136667 L66.632,21.5361667 C76.1245,17.2303333 87.0403333,14.9536667 98.197,14.9536667 C110.493667,14.9536667 122.345333,17.6803333 132.471167,22.8395 L131.337,25.067 Z" id="Fill-34" fill="#F07E3F" opacity="0.453747736"></path>
                <path d="M100.85525,108.536667 C88.5585833,108.536667 76.7069167,105.81 66.5810833,100.650833 L67.71525,98.4233333 C77.4919167,103.404167 88.9519167,106.036667 100.85525,106.036667 C111.66025,106.036667 122.21775,103.8375 131.38775,99.6775 L132.421083,101.955 C122.928583,106.260833 112.013583,108.536667 100.85525,108.536667" id="Fill-36" fill="#F07E3F" opacity="0.453747736"></path>
                <path d="M103.891583,60.7021667 C103.891583,63.463 101.652417,65.7021667 98.8915833,65.7021667 C96.13075,65.7021667 93.8915833,63.463 93.8915833,60.7021667 C93.8915833,57.9413333 96.13075,55.7021667 98.8915833,55.7021667 C101.652417,55.7021667 103.891583,57.9413333 103.891583,60.7021667" id="Fill-38" fill="#DD3730"></path>
                <path d="M81.3915833,60.7021667 C81.3915833,63.463 79.1524167,65.7021667 76.3915833,65.7021667 C73.63075,65.7021667 71.3915833,63.463 71.3915833,60.7021667 C71.3915833,57.9413333 73.63075,55.7021667 76.3915833,55.7021667 C79.1524167,55.7021667 81.3915833,57.9413333 81.3915833,60.7021667" id="Fill-40" fill="#DD3730"></path>
                <path d="M126.391583,60.7021667 C126.391583,63.463 124.152417,65.7021667 121.391583,65.7021667 C118.63075,65.7021667 116.391583,63.463 116.391583,60.7021667 C116.391583,57.9413333 118.63075,55.7021667 121.391583,55.7021667 C124.152417,55.7021667 126.391583,57.9413333 126.391583,60.7021667" id="Fill-42" fill="#DD3730"></path>
                <path d="M184.354583,38.36375 L177.64375,45.0745833 C175.882083,46.83625 173.057083,46.9379167 171.174583,45.3054167 L163.18875,38.3845833 C162.444583,37.7395833 162.01625,36.8029167 162.01625,35.8179167 L162.01625,21.44875 C162.01625,18.2754167 164.58875,15.7020833 167.762917,15.7020833 L179.60375,15.7020833 C182.777083,15.7020833 185.349583,18.2754167 185.349583,21.44875 L185.349583,35.9620833 C185.349583,36.8629167 184.992083,37.7270833 184.354583,38.36375" id="Fill-44" fill="#FFFFFF"></path>
                <path d="M167.762833,16.5355 C165.053667,16.5355 162.8495,18.7396667 162.8495,21.4488333 L162.8495,35.818 C162.8495,36.5613333 163.172,37.2671667 163.7345,37.7555 L171.720333,44.6755 C173.265333,46.0163333 175.6095,45.9313333 177.0545,44.4855 L183.765333,37.7738333 C184.242833,37.2971667 184.516167,36.6371667 184.516167,35.9621667 L184.516167,21.4488333 C184.516167,18.7396667 182.312833,16.5355 179.603667,16.5355 L167.762833,16.5355 Z M174.282,47.2921667 C172.980333,47.2921667 171.675333,46.843 170.627833,45.9346667 L162.642,39.0146667 C161.7145,38.2096667 161.182833,37.0446667 161.182833,35.818 L161.182833,21.4488333 C161.182833,17.8205 164.1345,14.8688333 167.762833,14.8688333 L179.603667,14.8688333 C183.231167,14.8688333 186.182833,17.8205 186.182833,21.4488333 L186.182833,35.9621667 C186.182833,37.0913333 185.742833,38.1538333 184.943667,38.953 L178.232833,45.6638333 C177.152,46.7446667 175.718667,47.2921667 174.282,47.2921667 L174.282,47.2921667 Z" id="Fill-46" fill="#DD3730"></path>
                <path d="M191.391583,81.5355 L191.391583,70.7021667" id="Fill-48" fill="#FFFFFF"></path>
                <polygon id="Fill-50" fill="#DD3730" points="190.558333 81.5358333 192.225 81.5358333 192.225 70.7025 190.558333 70.7025"></polygon>
                <path d="M156.391583,82.3688333 L156.391583,71.5355" id="Fill-52" fill="#FFFFFF"></path>
                <polygon id="Fill-53" fill="#DD3730" points="155.558333 82.3691667 157.225 82.3691667 157.225 71.5358333 155.558333 71.5358333"></polygon>
                <path d="M173.977833,63.2864167 C173.960333,63.2864167 173.942,63.2864167 173.923667,63.2855833 C172.895333,63.2655833 171.996167,62.66975 171.576167,61.7305833 L165.2445,47.5580833 L166.766167,46.8789167 L173.097833,61.0505833 C173.253667,61.3989167 173.575333,61.6114167 173.957,61.61975 C174.343667,61.63225 174.667,61.4280833 174.836167,61.0855833 L181.802,47.0339167 L183.2945,47.7730833 L176.3295,61.8255833 C175.882,62.7305833 174.983667,63.2864167 173.977833,63.2864167" id="Fill-54" fill="#DD3730"></path>
            </g>
            <g id="Group-55-Copy" transform="translate(0.000000, 3505.728919) scale(-1, 1) rotate(9.000000) translate(-0.000000, -3505.728919) translate(-228.500000, 3260.728919)"></g>
        </g>
    </g>
</svg>