<?xml version="1.0" encoding="UTF-8"?>
<svg width="48px" height="48px" viewBox="0 0 48 48" version="1.1" xmlns="http://www.w3.org/2000/svg" xmlns:xlink="http://www.w3.org/1999/xlink">
    <!-- Generator: Sketch 41.2 (35397) - http://www.bohemiancoding.com/sketch -->
    <title>Artboard 2</title>
    <desc>Created with Sketch.</desc>
    <defs>
        <path d="M0,2.00113884 C0,0.895940378 0.899897516,0 1.99124431,0 L26.0087557,0 C27.1084896,0 28,0.887845874 28,2.00113884 L28,36.9988612 C28,38.1040596 27.1001025,39 26.0087557,39 L1.99124431,39 C0.891510444,39 0,38.1121541 0,36.9988612 L0,2.00113884 Z" id="path-1"></path>
        <mask id="mask-2" maskContentUnits="userSpaceOnUse" maskUnits="objectBoundingBox" x="0" y="0" width="28" height="39" fill="white">
            <use xlink:href="#path-1"></use>
        </mask>
        <rect id="path-3" x="4" y="6" width="20" height="25"></rect>
        <mask id="mask-4" maskContentUnits="userSpaceOnUse" maskUnits="objectBoundingBox" x="0" y="0" width="20" height="25" fill="white">
            <use xlink:href="#path-3"></use>
        </mask>
        <rect id="path-5" x="11" y="33" width="7" height="2"></rect>
        <mask id="mask-6" maskContentUnits="userSpaceOnUse" maskUnits="objectBoundingBox" x="0" y="0" width="7" height="2" fill="white">
            <use xlink:href="#path-5"></use>
        </mask>
        <rect id="path-7" x="10" y="3" width="5" height="2"></rect>
        <mask id="mask-8" maskContentUnits="userSpaceOnUse" maskUnits="objectBoundingBox" x="0" y="0" width="5" height="2" fill="white">
            <use xlink:href="#path-7"></use>
        </mask>
        <rect id="path-9" x="17" y="3" width="2" height="2"></rect>
        <mask id="mask-10" maskContentUnits="userSpaceOnUse" maskUnits="objectBoundingBox" x="0" y="0" width="2" height="2" fill="white">
            <use xlink:href="#path-9"></use>
        </mask>
    </defs>
    <g id="解决方案页面" stroke="none" stroke-width="1" fill="none" fill-rule="evenodd">
        <g id="Artboard-2">
            <g id="Group-25" transform="translate(10.000000, 4.000000)">
                <g id="Group-24">
                    <use id="Rectangle-42" stroke="#40465B" mask="url(#mask-2)" stroke-width="4" xlink:href="#path-1"></use>
                    <rect id="Rectangle-19" fill="#40465B" x="7" y="17" width="5" height="2"></rect>
                    <rect id="Rectangle-19" fill="#40465B" x="15" y="14" width="5" height="2"></rect>
                    <rect id="Rectangle-19" fill="#40465B" x="15" y="18" width="5" height="2"></rect>
                    <use id="Rectangle-43" stroke="#40465B" mask="url(#mask-4)" stroke-width="4" xlink:href="#path-3"></use>
                    <use id="Rectangle-15" stroke="#40465B" mask="url(#mask-6)" stroke-width="4" xlink:href="#path-5"></use>
                    <use id="Rectangle-14" stroke="#40465B" mask="url(#mask-8)" stroke-width="2" fill="#D8D8D8" xlink:href="#path-7"></use>
                    <use id="Rectangle-14" stroke="#40465B" mask="url(#mask-10)" stroke-width="2" fill="#D8D8D8" xlink:href="#path-9"></use>
                    <rect id="Rectangle-45" fill="#40465B" x="7" y="14" width="2" height="9"></rect>
                    <rect id="Rectangle-45" fill="#40465B" x="11" y="14" width="2" height="9"></rect>
                    <rect id="Rectangle-45" fill="#40465B" x="14" y="14" width="2" height="9"></rect>
                    <rect id="Rectangle-21" fill="#40465B" x="17" y="20" width="2" height="2"></rect>
                    <rect id="Rectangle-21" fill="#40465B" x="18" y="21" width="2" height="2"></rect>
                    <rect id="Rectangle-45" fill="#40465B" x="18" y="14" width="2" height="5"></rect>
                </g>
            </g>
        </g>
    </g>
</svg>