<?xml version="1.0" encoding="UTF-8" standalone="no"?>
<svg width="600px" height="950px" viewBox="0 0 600 950" version="1.1" xmlns="http://www.w3.org/2000/svg" xmlns:xlink="http://www.w3.org/1999/xlink">
    <!-- Generator: Sketch 42 (36781) - http://www.bohemiancoding.com/sketch -->
    <title>Group 91</title>
    <desc>Created with Sketch.</desc>
    <defs></defs>
    <g id="0327new" stroke="none" stroke-width="1" fill="none" fill-rule="evenodd">
        <g id="云平台简介" transform="translate(-656.000000, -5742.000000)">
            <g id="Group-38" transform="translate(-267.000000, 5538.000000)">
                <g id="Group-91" transform="translate(923.000000, 205.000000)">
                    <g id="Page-1" transform="translate(223.000000, 0.000000)">
                        <g id="Group-37" transform="translate(62.000000, 165.000183)" fill="#D7332F">
                            <path d="M5,783.203977 C7.76,783.203977 10,780.978651 10,778.236733 C10,775.494814 7.76,773.269489 5,773.269489 C2.24,773.269489 0,775.494814 0,778.236733 C0,780.978651 2.24,783.203977 5,783.203977" id="Fill-1"></path>
                            <path d="M5,10 C7.7613855,10 10,7.7613855 10,5 C10,2.2386145 7.7613855,0 5,0 C2.2386145,0 0,2.2386145 0,5 C0,7.7613855 2.2386145,10 5,10" id="Fill-3"></path>
                            <path d="M5,86 C7.7613855,86 10,83.7613855 10,81 C10,78.2386145 7.7613855,76 5,76 C2.2386145,76 0,78.2386145 0,81 C0,83.7613855 2.2386145,86 5,86" id="Fill-5"></path>
                            <path d="M5,171 C7.7613855,171 10,168.761386 10,166 C10,163.238614 7.7613855,161 5,161 C2.2386145,161 0,163.238614 0,166 C0,168.761386 2.2386145,171 5,171" id="Fill-7"></path>
                            <path d="M5,257 C7.7613855,257 10,254.761386 10,252 C10,249.238614 7.7613855,247 5,247 C2.2386145,247 0,249.238614 0,252 C0,254.761386 2.2386145,257 5,257" id="Fill-9"></path>
                            <path d="M5,335 C7.7613855,335 10,332.761386 10,330 C10,327.238614 7.7613855,325 5,325 C2.2386145,325 0,327.238614 0,330 C0,332.761386 2.2386145,335 5,335" id="Fill-11"></path>
                            <path d="M5,423 C7.7613855,423 10,420.761386 10,418 C10,415.238614 7.7613855,413 5,413 C2.2386145,413 0,415.238614 0,418 C0,420.761386 2.2386145,423 5,423" id="Fill-13"></path>
                            <path d="M5,522 C7.7613855,522 10,519.761386 10,517 C10,514.238614 7.7613855,512 5,512 C2.2386145,512 0,514.238614 0,517 C0,519.761386 2.2386145,522 5,522" id="Fill-15"></path>
                            <path d="M5,608 C7.7613855,608 10,605.761386 10,603 C10,600.238614 7.7613855,598 5,598 C2.2386145,598 0,600.238614 0,603 C0,605.761386 2.2386145,608 5,608" id="Fill-17"></path>
                            <path d="M5,693 C7.7613855,693 10,690.761386 10,688 C10,685.238614 7.7613855,683 5,683 C2.2386145,683 0,685.238614 0,688 C0,690.761386 2.2386145,693 5,693" id="Fill-19"></path>
                        </g>
                        <path d="M67.2531084,133.348965 C104.068996,133.348965 133.917171,103.650217 133.917171,67.0118882 C133.917171,30.3765818 104.068996,0.67481159 67.2531084,0.67481159 C30.4372208,0.67481159 0.589045917,30.3765818 0.589045917,67.0118882 C0.589045917,103.650217 30.4372208,133.348965 67.2531084,133.348965 L67.2531084,133.348965 Z" id="Stroke-21" stroke="#D7332F" stroke-width="2"></path>
                        <path d="M81.5191518,112.099985 L75.0677909,112.099985 C72.5528536,105.087864 72.890001,98.0757439 76.0822705,91.1875446 L76.5864729,91.1875446 C77.4399721,91.1875446 78.1021175,90.3352093 78.1021175,89.4042899 L78.1021175,85.5476237 C78.1021175,84.6136818 77.4399721,84.0545257 76.5864729,84.0545257 L75.7937209,84.0545257 C73.6766783,80.3640951 72.9689725,76.6585521 73.6645288,73.0043912 L67.0035898,69.5164658 L60.5340048,72.9137172 C61.2629721,76.5981028 60.561341,80.3640951 58.4260742,84.0545257 L57.873274,84.0545257 C57.0228121,84.0545257 56.2300601,84.6136818 56.2300601,85.5476237 L56.2300601,89.4042899 C56.2300601,90.3352093 57.0228121,91.1875446 57.873274,91.1875446 L58.1375247,91.1875446 C61.3297941,98.0757439 61.6699789,105.087864 59.1520042,112.099985 L52.4606916,112.099985 C51.2548581,112.099985 50.3011258,113.599128 50.3011258,115.663472 L50.3011258,120.587068 L83.7850253,120.587068 L83.7850253,115.663472 C83.7850253,113.599128 82.7219479,112.099985 81.5191518,112.099985 L81.5191518,112.099985 Z" id="Stroke-23" stroke="#D7332F" stroke-width="2"></path>
                        <path d="M100.926439,35.9228441 C100.51032,34.6503861 99.4077572,33.7255116 98.0773918,33.5320738 L78.5562541,30.7090909 L69.8238329,13.1092732 C69.231547,11.9093544 68.004452,11.1507155 66.6619371,11.1507155 C65.3163849,11.1507155 64.0892899,11.9093544 63.497004,13.1092732 L54.7645828,30.7090909 L35.2434451,33.5320738 C33.9130798,33.7255116 32.8105167,34.6503861 32.3974352,35.9228441 C31.9813163,37.1922797 32.3275758,38.5886589 33.2904202,39.5226008 L47.4141622,53.2204152 L44.0791367,72.567218 C43.8543717,73.885013 44.3980599,75.2148979 45.4854361,76.000739 C46.5697751,76.7865801 48.0125229,76.883299 49.2001322,76.2636935 L66.6619371,67.1207348 L84.1207047,76.1911543 C84.6370566,76.4601538 85.2020063,76.5115357 85.7639186,76.5115357 L85.7791054,76.5115357 C87.7230183,76.5115357 89.2963728,75.0184376 89.2963728,73.0810371 C89.2963728,72.8211051 89.2659992,72.6216224 89.214364,72.3798251 L85.9097121,53.2113478 L100.033454,39.5165558 C100.993261,38.5826139 101.342558,37.1953022 100.926439,35.9228441 L100.926439,35.9228441 Z M79.6497051,49.4816252 C78.8205048,50.2886235 78.4408343,51.4522728 78.6382629,52.5917423 L81.0772661,66.7429266 L68.3021136,60.060255 C67.2754846,59.5252786 66.0453523,59.5252786 65.0187233,60.060255 L52.2466081,66.7429266 L54.6856113,52.5917423 C54.8800026,51.4522728 54.5033695,50.2886235 53.6680944,49.4816252 L43.3349825,39.459129 L57.6166675,37.3947849 C58.764791,37.2285493 59.758009,36.5092025 60.2743609,35.4724968 L66.6619371,22.596793 L73.046476,35.4724968 C73.5628279,36.5092025 74.5560459,37.2285493 75.7041694,37.3947849 L89.9858544,39.459129 L79.6497051,49.4816252 L79.6497051,49.4816252 Z" id="Stroke-25" stroke="#D7332F" stroke-width="2"></path>
                        <polyline stroke="#D7332F" stroke-width="2" points="67 71.0000787 67 73.7703039 67 944.007355"></polyline>
                    </g>
                    <text id="2016" font-family=".SFNSText-Regular, .SF NS Text" font-size="17" font-weight="normal" fill="#D7332F">
                        <tspan x="214.824707" y="177">2016</tspan>
                    </text>
                    <text id="世界互联网科技创新成果50强-——世界互" font-family="MicrosoftYaHei, Microsoft YaHei" font-size="14" font-weight="normal" fill="#666666">
                        <tspan x="68.5800781" y="205">世界互联网科技创新成果50强</tspan>
                        <tspan x="91.9179688" y="229.9">——世界互联网大会2016</tspan>
                    </text>
                    <text id="2015" font-family=".AppleSystemUIFont" font-size="17" font-weight="normal" fill="#D7332F">
                        <tspan x="215.140137" y="329">2015</tspan>
                    </text>
                    <text id="开发工具及服务年度大奖---最佳技术创新" font-family="MicrosoftYaHei, Microsoft YaHei" font-size="14" font-weight="normal" fill="#666666">
                        <tspan x="0.658203125" y="357">开发工具及服务年度大奖 - 最佳技术创新</tspan>
                        <tspan x="183.266602" y="381.9">——CSDN</tspan>
                    </text>
                    <text id="中国互联网行业最佳产品奖-——赛迪顾问" font-family="MicrosoftYaHei, Microsoft YaHei" font-size="14" font-weight="normal" fill="#666666">
                        <tspan x="85" y="516">中国互联网行业最佳产品奖</tspan>
                        <tspan x="166.757812" y="540.9">——赛迪顾问</tspan>
                    </text>
                    <text id="2015" font-family=".AppleSystemUIFont" font-size="17" font-weight="normal" fill="#D7332F">
                        <tspan x="215.140137" y="488">2015</tspan>
                    </text>
                    <text id="2014-2015" font-family=".AppleSystemUIFont" font-size="17" font-weight="normal" fill="#D7332F">
                        <tspan x="169.228516" y="682">2014-2015</tspan>
                    </text>
                    <text id="中国企业互联网-开放平台年度创新奖-——" font-family="MicrosoftYaHei, Microsoft YaHei" font-size="14" font-weight="normal" fill="#666666">
                        <tspan x="24.8574219" y="710">中国企业互联网 开放平台年度创新奖</tspan>
                        <tspan x="166.757812" y="734.9">——赛迪顾问</tspan>
                    </text>
                    <text id="2014" font-family=".SFNSText-Regular, .SF NS Text" font-size="17" font-weight="normal" fill="#D7332F">
                        <tspan x="214.716797" y="855">2014</tspan>
                    </text>
                    <text id="3C-创新力量—移动互联创新奖-——南方" font-family=".SFNSText-Regular, .SF NS Text" font-size="14" font-weight="normal" fill="#666666">
                        <tspan x="62.8515625" y="882">3C </tspan>
                        <tspan x="85.1503906" y="882" font-family=".PingFangSC-Regular, .PingFang SC">创新力量</tspan>
                        <tspan x="141.150391" y="882">—</tspan>
                        <tspan x="155" y="882" font-family=".PingFangSC-Regular, .PingFang SC">移动互联创新奖</tspan>
                        <tspan x="253" y="882"></tspan>
                        <tspan x="155.300781" y="905.9">——</tspan>
                        <tspan x="183" y="905.9" font-family=".PingFangSC-Regular, .PingFang SC">南方都市报</tspan>
                    </text>
                    <text id="2016" font-family=".SFNSText-Regular, .SF NS Text" font-size="17" font-weight="normal" fill="#D7332F">
                        <tspan x="333.824707" y="248">2016</tspan>
                    </text>
                    <text id="企业互联网开放平台技术创新奖-——中国软" font-family="MicrosoftYaHei, Microsoft YaHei" font-size="14" font-weight="normal" fill="#666666">
                        <tspan x="328" y="276">企业互联网开放平台技术创新奖</tspan>
                        <tspan x="328" y="300.9">——中国软件网</tspan>
                    </text>
                    <text id="2015" font-family=".AppleSystemUIFont" font-size="17" font-weight="normal" fill="#D7332F">
                        <tspan x="334.140137" y="412">2015</tspan>
                    </text>
                    <text id="企业互联网优秀产品奖-——上海市计算机用" font-family="MicrosoftYaHei, Microsoft YaHei" font-size="14" font-weight="normal" fill="#666666">
                        <tspan x="334" y="440">企业互联网优秀产品奖</tspan>
                        <tspan x="334" y="464.9">——上海市计算机用户协会</tspan>
                    </text>
                    <text id="2015" font-family=".AppleSystemUIFont" font-size="17" font-weight="normal" fill="#D7332F">
                        <tspan x="334.140137" y="582">2015</tspan>
                    </text>
                    <text id="中国企业互联网开放平台最佳渠道满意度奖" font-family="MicrosoftYaHei, Microsoft YaHei" font-size="14" font-weight="normal" fill="#666666">
                        <tspan x="334" y="610">中国企业互联网开放平台最佳渠道满意度奖</tspan>
                        <tspan x="334" y="634.9">——中国软件网</tspan>
                    </text>
                    <text id="2014" font-family=".AppleSystemUIFont" font-size="17" font-weight="normal" fill="#D7332F">
                        <tspan x="334" y="770">2014</tspan>
                    </text>
                    <text id="商业分析产品创新奖-——中国软件行业协会" font-family="MicrosoftYaHei, Microsoft YaHei" font-size="14" font-weight="normal" fill="#666666">
                        <tspan x="334" y="798">商业分析产品创新奖</tspan>
                        <tspan x="460" y="798" font-family=".AppleSystemUIFont"></tspan>
                        <tspan x="334" y="822.9">——中国软件行业协会   中国计算机报</tspan>
                    </text>
                </g>
            </g>
        </g>
    </g>
</svg>