<?xml version="1.0" encoding="UTF-8"?>
<svg width="42px" height="42px" viewBox="0 0 42 42" version="1.1" xmlns="http://www.w3.org/2000/svg" xmlns:xlink="http://www.w3.org/1999/xlink">
    <!-- Generator: Sketch 39.1 (31720) - http://www.bohemiancoding.com/sketch -->
    <title>Group 5</title>
    <desc>Created with Sketch.</desc>
    <defs></defs>
    <g id="0327new" stroke="none" stroke-width="1" fill="none" fill-rule="evenodd">
        <g id="云平台简介" transform="translate(-392.000000, -384.000000)" fill="#FFFFFF">
            <g id="Group-67" transform="translate(-6.000000, 367.000000)">
                <g id="Group-5" transform="translate(398.000000, 17.000000)">
                    <path d="M7.12881216,27.907863 C6.9466901,27.7168355 6.68858334,27.592137 6.40394224,27.592137 C5.84358524,27.592137 5.39008925,28.0547516 5.39008925,28.6239749 C5.39008925,28.9351182 5.89689514,29.6512301 5.9769806,29.7802701 C5.98590579,29.8065605 6.00809814,29.8244091 6.02160653,29.8511819 C6.11495916,30.0026532 6.37716668,30.2380608 6.37716668,30.2380608 C6.53757883,30.340328 6.7107757,30.4158225 6.91533133,30.4158225 C7.47568834,30.4158225 7.92942555,29.9534491 7.92942555,29.384467 C7.92942555,29.2732754 7.89806678,29.1664255 7.86719046,29.0641582 L7.12881216,27.907863 Z M32.3405355,14.7276893 L27.2840553,14.7276893 L27.2840553,9.67607332 L30.9708811,5.98986975 L30.9708811,11.0455861 L36.0271202,11.0455861 L32.3405355,14.7276893 Z M42,8.83116257 L33.8747028,8.13748191 L33.1809504,1.27897692e-13 L30.2768876,2.93029426 L30.2768876,2.93921852 L24.3932596,8.13748191 L24.3797512,8.13748191 L24.3797512,15.3859141 L16.2636204,22.7986011 L17.8202212,25.0441389 L26.6257624,16.9377713 L33.8747028,16.9377713 L33.8747028,16.9288471 L33.883628,16.9377713 L39.7761811,11.0501688 L39.7672559,11.0412446 L39.7761811,11.0412446 L42,8.83116257 Z M18.2336745,17.6493005 C18.2872256,17.6538833 18.3359523,17.6669079 18.3938454,17.6669079 C19.1944588,17.6669079 19.8435852,17.0178485 19.8435852,16.2175591 C19.8435852,15.4302943 19.2166512,14.7942595 18.4338881,14.7723107 L18.4338881,14.7320309 C13.5462628,14.7320309 9.58372101,18.694163 9.58372101,23.5767004 C9.58372101,28.4638205 13.5462628,32.4216112 18.4338881,32.4216112 C23.2947379,32.4216112 27.2350874,28.5038591 27.2794721,23.6570188 C27.2840553,23.6078148 27.2929805,23.5636758 27.2929805,23.5101302 C27.2929805,22.7095996 26.6436128,22.0602991 25.8429994,22.0602991 C25.042386,22.0602991 24.3932596,22.7095996 24.3932596,23.5101302 C24.3932596,23.5323203 24.3976016,23.5547516 24.3976016,23.5769416 L24.3754092,23.5769416 C24.3754092,27.2409551 22.0985217,29.5176073 18.4338881,29.5176073 C14.7692546,29.5176073 12.4923671,27.2409551 12.4923671,23.5769416 C12.4923671,19.9792571 14.6937524,17.7337192 18.2336745,17.6493005 L18.2336745,17.6493005 Z M14.3734105,36.5171249 C14.3869189,36.5260492 14.4047693,36.5260492 14.4180365,36.5349735 C14.4667632,36.552822 14.5736242,36.5658466 14.5736242,36.5658466 C14.6447845,36.5791124 14.7070195,36.6104679 14.782763,36.6104679 C15.34312,36.6104679 15.7032634,36.1391703 15.796616,35.57863 C15.8899686,34.9963821 15.2451842,34.6403763 15.2451842,34.6403763 C13.1062752,33.9780511 11.2025569,32.7863 9.65946449,31.2209358 C9.65946449,31.2209358 9.10369069,30.6960926 8.70784658,30.6960926 C8.14724835,30.6960926 7.69351115,31.1587072 7.69351115,31.7279305 C7.69351115,32.0615051 7.85826527,32.341534 8.09852166,32.5328027 L8.08959647,32.5371442 C9.81963541,34.3381573 11.9677108,35.721177 14.3734105,36.5171249 L14.3734105,36.5171249 Z M36.5209001,20.0414858 C36.5209001,19.2411963 35.8715324,18.5918958 35.0709191,18.5918958 C34.2705469,18.5918958 33.6214204,19.2411963 33.6214204,20.0414858 C33.6214204,20.250603 33.6658052,20.4507959 33.7458906,20.6285576 C33.8392433,21.1710082 33.9637134,22.1316932 33.9637134,23.5769416 C33.9637134,32.5328027 27.3952583,39.1008201 18.4338881,39.1008201 C9.47251801,39.1008201 2.90382163,32.5328027 2.90382163,23.5769416 C2.90382163,14.6208394 9.47251801,8.05306319 18.4338881,8.05306319 C19.8657776,8.05306319 20.061408,7.98625181 21.3111754,8.24867342 L21.3157586,8.21755909 C21.3558014,8.22214182 21.3958441,8.23082489 21.4358868,8.23082489 C22.2007995,8.23082489 22.8233916,7.60829715 22.8233916,6.84346358 C22.8233916,6.18547998 22.3653124,5.6384467 21.7516455,5.49614086 L21.7649126,5.41148095 C20.1904614,5.131452 20.1195424,5.14930053 18.4341294,5.14930053 C8.25410938,5.14930053 0,13.397974 0,23.5723589 C0,33.7510854 8.25410938,42 18.4341294,42 C28.6136669,42 36.8677763,33.7510854 36.8677763,23.5723589 C36.8677763,21.9758804 36.7387229,21.2245538 36.5165581,20.0861071 C36.5163169,20.0728413 36.5209001,20.0549928 36.5209001,20.0414858 L36.5209001,20.0414858 Z" id="Page-1"></path>
                </g>
            </g>
        </g>
    </g>
</svg>