<?xml version="1.0" encoding="UTF-8"?>
<svg width="35px" height="35px" viewBox="0 0 35 35" version="1.1" xmlns="http://www.w3.org/2000/svg" xmlns:xlink="http://www.w3.org/1999/xlink">
    <!-- Generator: Sketch 39.1 (31720) - http://www.bohemiancoding.com/sketch -->
    <title>Page 1</title>
    <desc>Created with Sketch.</desc>
    <defs></defs>
    <g id="0327new" stroke="none" stroke-width="1" fill="none" fill-rule="evenodd">
        <g id="云平台简介" transform="translate(-1006.000000, -391.000000)" fill="#FFFFFF">
            <g id="Group-67" transform="translate(-6.000000, 367.000000)">
                <g id="Group-18" transform="translate(974.000000, 8.000000)">
                    <g id="Group-16" transform="translate(38.000000, 13.000000)">
                        <g id="Page-1" transform="translate(0.000000, 3.000000)">
                            <path d="M10.3446525,26.62471 C10.2464775,27.06256 9.8100275,27.983585 7.9804025,29.241485 C6.7993275,30.05261 5.2332525,30.871435 3.3178775,31.68046 C4.2175525,29.55036 5.1282525,27.856535 6.0300275,26.636435 C6.9668025,25.370135 7.8733025,24.659285 8.5899275,24.624285 L8.6420775,24.624285 C9.0160525,24.624285 9.3907275,24.816435 9.7867525,25.21106 C10.2732525,25.69756 10.4503525,26.147835 10.3446525,26.62471 M11.4846025,23.51391 C10.6260525,22.65676 9.6700275,22.222235 8.6420775,22.222235 C5.6506275,22.222235 2.7668025,25.97966 0.0732025,33.387235 C-0.0874475,33.822285 0.0210525,34.316485 0.3518025,34.647935 C0.4953025,34.790735 0.6682025,34.892935 0.8568525,34.948585 L0.8568525,35.000035 L1.2000275,35.000035 C1.3393275,35.000035 1.4772275,34.97606 1.6118025,34.927235 C8.3620775,32.47321 12.0885275,29.855035 12.6889525,27.14621 C12.8893275,26.23831 12.8427775,24.87191 11.4846025,23.51391" id="Fill-1"></path>
                            <path d="M26.1035775,18.37843 L26.1021775,18.37703 L25.9292775,18.530155 C22.4417025,21.607355 18.8736275,22.30263 18.3871275,22.303855 C18.3829275,22.303855 18.0597025,22.257305 17.2568025,21.691705 C16.6110525,21.237405 15.8582025,20.590255 15.1368525,19.86908 C14.4135775,19.14493 13.7664275,18.39348 13.3142275,17.74983 C12.7664775,16.971605 12.7047025,16.64348 12.7020775,16.64278 C12.7033025,16.127405 13.4006775,12.563005 16.4757775,9.076655 C20.1075525,4.961005 25.6718525,2.66623 32.5799775,2.426655 C32.3460025,9.24133 30.1100275,14.745255 26.1035775,18.37843 L26.1035775,18.37843 Z M19.1056775,27.87848 C19.5785275,26.65488 19.8693775,25.39768 19.9731525,24.126655 C20.7046525,23.969505 22.1032525,23.586605 23.8457275,22.70058 C22.8692275,24.705905 20.9167525,26.51558 19.1056775,27.87848 L19.1056775,27.87848 Z M10.9636275,15.05623 C9.6906775,15.15983 8.4320775,15.450855 7.2049775,15.92563 C8.5692775,14.11123 10.3817525,12.155255 12.3911025,11.180155 C11.5038525,12.923155 11.1200775,14.323855 10.9636275,15.05623 L10.9636275,15.05623 Z M33.0857275,0.00203 L33.0911525,0.008155 C28.8782025,0.085155 25.1064275,0.84623 21.8706775,2.27493 C19.0425025,3.52408 16.6206775,5.276705 14.6729275,7.484505 C14.3572275,7.84203 14.0485275,8.219505 13.7547025,8.608005 C12.2621275,8.740305 10.7427775,9.34493 9.2363775,10.407355 C7.9350775,11.32278 6.6271275,12.58978 5.3492775,14.173005 C3.2939025,16.71908 1.9920775,19.25063 1.8471775,19.53623 C1.5843275,20.064555 1.7400775,20.699455 2.2164275,21.043855 C2.6796525,21.381605 3.3577775,21.33208 3.7721775,20.921705 C3.7797025,20.91348 4.5743775,20.135955 5.9229275,19.37348 C6.9703025,18.78128 8.6200275,18.053105 10.6136275,17.880205 C11.2340025,19.245905 12.6306775,20.75773 13.4370775,21.56343 C14.2427775,22.36983 15.7546025,23.76633 17.1203025,24.386705 C16.9472275,26.381005 16.2206275,28.030205 15.6282525,29.076705 C14.8603525,30.43348 14.0882525,31.21993 14.0800275,31.228155 C13.6628275,31.64623 13.6092775,32.299505 13.9550775,32.78058 C14.1803025,33.09278 14.5446525,33.280905 14.9296525,33.280905 C15.1197025,33.280905 15.3017025,33.23698 15.4739025,33.14983 C15.9336275,32.915155 18.3514275,31.650955 20.8282025,29.65123 C22.4114275,28.37408 23.6775525,27.066655 24.5943775,25.76553 C25.6547025,24.25773 26.2593275,22.73908 26.3918025,21.24773 C26.7768025,20.958105 27.1528775,20.648705 27.5179275,20.329505 C29.7257275,18.37913 31.4778275,15.958705 32.7254025,13.13193 C34.2360025,9.71558 34.9997025,5.701605 34.9997025,1.200955 L34.9997025,-7.00000001e-05 L33.0857275,0.00203 Z" id="Fill-4"></path>
                            <path d="M23.736615,12.8669625 C22.507415,12.8669625 21.50764,11.8670125 21.50764,10.6365875 C21.50764,9.4066875 22.507415,8.4062125 23.736615,8.4062125 C24.965815,8.4062125 25.96699,9.4066875 25.96699,10.6365875 C25.96699,11.8670125 24.965815,12.8669625 23.736615,12.8669625 M23.736615,6.0048625 C21.183015,6.0048625 19.10559,8.0829875 19.10559,10.6365875 C19.10559,13.1908875 21.183015,15.2688375 23.736615,15.2688375 C26.290215,15.2688375 28.36904,13.1915875 28.36904,10.6365875 C28.36904,8.0822875 26.290215,6.0048625 23.736615,6.0048625" id="Fill-7"></path>
                        </g>
                    </g>
                </g>
            </g>
        </g>
    </g>
</svg>