<?xml version="1.0" encoding="UTF-8"?>
<svg width="35px" height="36px" viewBox="0 0 35 36" version="1.1" xmlns="http://www.w3.org/2000/svg" xmlns:xlink="http://www.w3.org/1999/xlink">
    <!-- Generator: Sketch 39.1 (31720) - http://www.bohemiancoding.com/sketch -->
    <title>Page 1</title>
    <desc>Created with Sketch.</desc>
    <defs></defs>
    <g id="0327new" stroke="none" stroke-width="1" fill="none" fill-rule="evenodd">
        <g id="云平台简介" transform="translate(-1304.000000, -389.000000)" fill="#FFFFFF">
            <g id="Group-67" transform="translate(-6.000000, 367.000000)">
                <g id="Group-18" transform="translate(974.000000, 8.000000)">
                    <g id="Group-16" transform="translate(38.000000, 13.000000)">
                        <g id="Page-1" transform="translate(298.000000, 1.000000)">
                            <g id="Group-3" transform="translate(0.000000, 0.165010)">
                                <path d="M12.1422179,0.42784724 C13.6556538,0.241943167 15.1726795,0.0662182805 16.6977821,0.0147866063 C19.6953974,-0.00789333333 22.7089872,0.285338643 25.6111154,1.05645659 C26.8034487,1.35701044 27.9518077,1.80150154 29.1200897,2.18045297 C30.3542436,2.56011873 31.5304231,3.09604392 32.7030128,3.62964754 C33.1043462,3.85019656 33.5457051,4.01717092 33.8836795,4.33665448 C34.3704487,4.78185991 34.6915513,5.39457544 34.8322692,6.03264965 C34.8453718,8.88871481 34.8322692,11.7456729 34.8389103,14.602631 C34.8541667,14.9249718 34.8098333,15.2596349 34.6360897,15.5384017 C34.366141,16.0146804 33.8093718,16.2971975 33.2633718,16.2607667 C32.5045,16.260231 31.8129359,15.5855474 31.8333974,14.8233586 C31.839141,11.9831872 31.8260385,9.14301587 31.839859,6.30284452 C31.2552692,5.98121798 30.6182692,5.76852658 30.019141,5.47583035 C27.3507051,4.48773502 24.6449359,3.51910516 21.8092179,3.13658208 C19.9981923,2.88460259 18.1631154,2.75548766 16.3345,2.84031421 C15.4063718,2.88603125 14.4839872,3.00228827 13.5616026,3.11211632 C12.9238846,3.16569098 12.2983718,3.308021 11.6732179,3.43660018 C9.38834615,3.92591541 7.10814103,4.51166504 4.9650641,5.45404332 C4.37473077,5.75691873 3.75585897,5.99782612 3.15098718,6.26944965 C3.08960256,9.38695916 3.13196154,12.5060759 3.20196154,15.6234068 C3.27052564,17.1936801 3.29403846,18.7702038 3.50098718,20.3308337 C3.54639744,20.776932 3.74203846,21.1848138 3.89514103,21.6009103 C4.49732051,23.2227938 5.63114103,24.5710895 6.76137179,25.8559884 C8.61565385,27.8336077 10.8543974,29.4163818 13.198141,30.7668204 C14.4166795,31.4834708 15.6870897,32.1077941 16.9715,32.6974726 C17.2086026,32.7642623 17.4647308,32.7264029 17.7084744,32.7240813 C20.2304487,31.7433079 22.5740128,30.3632246 24.8003718,28.8406328 C25.3023974,28.5016837 25.8089103,28.1575558 26.2335769,27.7219938 C26.8070385,27.3080403 27.2543205,26.7517567 27.7994231,26.3017296 C29.3281154,24.7655655 30.586141,22.9229543 31.2523974,20.8524723 C31.482141,20.1277857 32.3286026,19.7166895 33.0524744,19.9186659 C33.6203718,20.0536741 34.0757308,20.5576331 34.1398077,21.1353465 C34.2133974,21.5957314 33.9924487,22.0270074 33.8415,22.4473899 C33.0146026,24.6051987 31.6741923,26.5421012 30.0652692,28.1961296 C29.5025769,28.7027673 28.9580128,29.229049 28.4071667,29.7481875 C28.0950385,29.9589145 27.835141,30.2325024 27.5388077,30.4626949 C26.8501154,30.9707613 26.1612436,31.4791848 25.4380897,31.9393911 C24.6449359,32.4679944 23.8027821,32.9196288 23.0024487,33.4378744 C21.7399359,34.1109507 20.4835256,34.8042068 19.1519103,35.3349531 C18.7547051,35.4787118 18.3754487,35.7139046 17.9412692,35.7160475 C17.5018846,35.7169405 17.0619615,35.7160475 16.6225769,35.7160475 C16.1286282,35.7219408 15.7003718,35.4469242 15.2617051,35.2586985 C12.6035,34.0384463 10.0486795,32.576751 7.71965385,30.8075371 C6.54473077,29.90784 5.41737179,28.9386744 4.41637179,27.8489658 C3.19765385,26.4390593 1.99508974,24.9718279 1.2340641,23.2576174 C0.904884615,22.4807848 0.531371795,21.7039522 0.447371795,20.8531866 C0.0936025641,18.1312367 0.0943205128,15.3796421 0.0228846154,12.641084 C0.00673076923,11.9905091 0.0367051282,11.3385055 0.00583333333,10.6879305 C-0.0131923077,9.13730124 0.0198333333,7.58702914 0.0205512821,6.03711421 C0.0591410256,5.37636006 0.340217949,4.71346293 0.867730769,4.29397333 C1.09173077,4.12557032 1.29670513,3.92162944 1.56396154,3.81912326 C2.2995,3.45106534 3.06267949,3.14390395 3.80988462,2.80049038 C6.47239744,1.65988585 9.30739744,0.98823819 12.1422179,0.42784724" id="Fill-1"></path>
                            </g>
                            <path d="M27.2572821,9.80241279 C27.9082821,9.16148127 29.106359,9.29506075 29.6295641,10.0333196 C30.0287436,10.5792454 29.9337949,11.3909015 29.4624615,11.8650372 C25.4227436,15.8036677 21.3898462,19.7494414 17.3486923,23.6875362 C16.8933333,24.1738155 16.1125641,24.2820363 15.5200769,23.9970191 C15.1932308,23.843617 14.9852051,23.5357413 14.7145385,23.3100134 C12.6369744,21.2756049 10.5624615,19.2370891 8.48005128,17.2071452 C8.16917949,16.9399862 7.93046154,16.5617491 7.93692308,16.1404737 C7.88289744,15.4427531 8.41723077,14.7523543 9.10753846,14.6210963 C9.58748718,14.5078752 10.1180513,14.6682421 10.4734359,15.0050481 C12.3786923,16.8803398 14.2801795,18.7584888 16.1877692,20.6318161 C19.8850256,17.0292773 23.562,13.4062016 27.2572821,9.80241279" id="Fill-4"></path>
                        </g>
                    </g>
                </g>
            </g>
        </g>
    </g>
</svg>