<?xml version="1.0" encoding="UTF-8"?>
<svg width="37px" height="36px" viewBox="0 0 37 36" version="1.1" xmlns="http://www.w3.org/2000/svg" xmlns:xlink="http://www.w3.org/1999/xlink">
    <!-- Generator: Sketch 39.1 (31720) - http://www.bohemiancoding.com/sketch -->
    <title>Page 1</title>
    <desc>Created with Sketch.</desc>
    <defs></defs>
    <g id="0327new" stroke="none" stroke-width="1" fill="none" fill-rule="evenodd">
        <g id="云平台简介" transform="translate(-701.000000, -390.000000)" fill="#FFFFFF">
            <g id="Group-67" transform="translate(-6.000000, 367.000000)">
                <g id="Page-1" transform="translate(707.000000, 23.000000)">
                    <path d="M2.65451137,17.393683 C2.65451137,16.8039573 3.14652011,16.3241023 3.75142762,16.3241023 L7.37345731,16.3241023 L7.37345731,33.3852236 L3.75142762,33.3852236 C3.14652011,33.3852236 2.65451137,32.9048156 2.65451137,32.3145368 L2.65451137,17.393683 L2.65451137,17.393683 Z M36.2112131,15.4001557 C35.0584963,13.4488437 32.9269528,12.2837713 30.509362,12.2837713 C28.8983763,12.2837713 27.1583635,12.3134512 25.8321274,12.3427623 C26.1875083,10.2377051 26.6848931,6.95540853 26.6848931,5.07230495 C26.6848931,3.39622294 26.1066809,2.03500543 25.0131016,1.13539256 C24.1230737,0.40316667 22.9190056,0 21.6229871,0 C19.0107432,0 16.9646616,2.35871858 16.9646616,5.36984085 C16.9646616,7.45351386 16.9646616,7.62366605 16.2031048,8.66891297 C13.6742837,12.1445894 11.6510043,13.7080355 11.0219969,13.7080355 L3.75142762,13.7080355 C1.6829146,13.7080355 0,15.3614428 0,17.393683 L0,32.3121403 C0,34.3449335 1.6829146,35.9988939 3.75142762,35.9988939 L8.70006415,35.9988939 C9.43177422,35.9988939 10.0268564,35.411749 10.0268564,34.6902153 L10.0268564,16.3228119 L11.0206992,16.3228119 C13.3949102,16.3228119 16.3219358,12.9888982 18.359119,10.1921714 C19.6178753,8.46373487 19.6178753,7.62090084 19.6178753,5.36855042 C19.6178753,4.61162205 19.8410775,3.9039143 20.2466974,3.37612912 C20.6237681,2.88502898 21.1129961,2.61477643 21.6242848,2.61477643 C22.7224987,2.61477643 24.0314941,3.04080211 24.0314941,5.07101452 C24.0314941,7.5998853 22.9545993,13.3916962 22.9440324,13.4466316 L22.9427347,13.4532681 C22.870435,13.8474017 22.980553,14.2452223 23.2432419,14.5423895 C23.501667,14.8388194 23.8453687,14.9956986 24.2372701,14.9956986 C24.2554378,14.9956986 24.2736054,14.9953299 24.2919584,14.9945925 C24.3095698,14.9942238 24.3401582,14.9934864 24.3827965,14.9923803 C25.699578,14.9569857 28.2465667,14.8974417 30.5091766,14.8974417 C31.9701867,14.8974417 33.2445153,15.577313 33.9183856,16.7163925 C34.4524765,17.6185863 34.4838064,18.6505602 34.0021791,19.4766187 C33.8935442,19.662809 33.7804601,19.8501055 33.6449445,20.0681879 C33.009634,21.106614 32.5077999,21.9269577 32.6156933,23.7554946 C32.6388663,24.1627169 32.6942961,24.5721513 32.7480574,24.9683128 L32.7504674,24.9867475 C32.9158298,26.1888736 33.0465254,27.1384445 32.3131469,28.0128019 C31.0397452,29.5294238 30.8452775,30.5011163 30.7284857,31.0845743 L30.7225534,31.1151758 C30.7166211,31.1474366 30.7116158,31.1739825 30.7066104,31.1903894 C30.1930971,32.1961861 29.1121239,33.3837488 26.8732431,33.3837488 L15.1673652,33.3837488 C14.4358405,33.3837488 13.8407584,33.9703406 13.8407584,34.6913214 C13.8407584,35.4130395 14.4358405,36 15.1673652,36 L26.8732431,36 C29.6888531,36 31.9032632,34.6870814 33.1091851,32.3023699 C33.2398807,32.0428094 33.2906759,31.7915446 33.3314604,31.588763 C33.4093216,31.2066119 33.5159173,30.6830667 34.3579308,29.6789291 C35.8308055,27.9237623 35.5708973,26.0240675 35.381435,24.6388849 L35.365492,24.5188751 C35.3230391,24.2008767 35.2829962,23.9003912 35.2651993,23.6050675 C35.2049496,22.5858135 35.3560374,22.3393417 35.9190482,21.4205567 C36.0336154,21.2328916 36.1637548,21.0201553 36.3037197,20.780873 C37.2638226,19.1331804 37.2291558,17.121587 36.2112131,15.4001557 L36.2112131,15.4001557 Z" id="Fill-1"></path>
                </g>
            </g>
        </g>
    </g>
</svg>