<?xml version="1.0" encoding="UTF-8"?>
<svg width="193px" height="187px" viewBox="0 0 193 187" version="1.1" xmlns="http://www.w3.org/2000/svg" xmlns:xlink="http://www.w3.org/1999/xlink">
    <!-- Generator: Sketch 39.1 (31720) - http://www.bohemiancoding.com/sketch -->
    <title>Group 43</title>
    <desc>Created with Sketch.</desc>
    <defs></defs>
    <g id="0327new" stroke="none" stroke-width="1" fill="none" fill-rule="evenodd">
        <g id="云平台简介" transform="translate(-1267.000000, -4765.000000)">
            <g id="云审批" transform="translate(361.000000, 4649.000000)">
                <g id="Group-82" transform="translate(807.000000, 0.000000)">
                    <g id="Group-43" transform="translate(99.000000, 116.000000)">
                        <text id="云表单" font-family="PingFangSC-Regular, PingFang SC" font-size="24" font-weight="normal" line-spacing="30" fill="#DD3730">
                            <tspan x="36.1142857" y="116">云表单</tspan>
                        </text>
                        <g id="Page-1">
                            <path d="M72.0953414,151.076571 C32.3420195,151.076571 0.0011589214,117.190714 0.0011589214,75.5382857 C0.0011589214,33.8858571 32.3420195,0 72.0953414,0 C111.459266,0 143.556753,33.2325714 144.180252,74.324 L158.824383,74.324 L158.824383,48.4281429 L192.324165,77.4884286 L161.763408,100.632714 L160.405152,98.6631429 L188.539128,77.3572857 L161.142226,53.5912857 L161.142226,76.7525714 L141.871681,76.7525714 L141.871681,75.5382857 C141.871681,35.224 110.571532,2.42857143 72.0953414,2.42857143 C33.6191509,2.42857143 2.31900172,35.224 2.31900172,75.5382857 C2.31900172,115.852571 33.6191509,148.648 72.0953414,148.648 C103.221652,148.648 130.843385,126.747143 139.266426,95.3918571 L141.498508,96.0475714 C132.792691,128.449571 104.25541,151.076571 72.0953414,151.076571 M72.0953414,173.961 C69.4228686,173.961 67.2487321,176.239 67.2487321,179.039143 C67.2487321,181.839286 69.4228686,184.117286 72.0953414,184.117286 C74.7678141,184.117286 76.9419507,181.839286 76.9419507,179.039143 C76.9419507,176.239 74.7678141,173.961 72.0953414,173.961 M72.0953414,186.545857 C68.1457372,186.545857 64.9308893,183.177429 64.9308893,179.039143 C64.9308893,175.313714 67.5338267,172.212429 70.93642,171.629571 L70.93642,159.627571 L72.0953414,159.627571 C107.896741,159.627571 139.667413,134.438429 149.355995,98.3741429 L151.588078,99.0298571 C141.723339,135.749857 109.614263,161.509714 73.2542628,162.048857 L73.2542628,171.629571 C76.656856,172.212429 79.2597935,175.313714 79.2597935,179.039143 C79.2597935,183.177429 76.0449455,186.545857 72.0953414,186.545857" id="Fill-1" fill="#DD3730"></path>
                            <path d="M133.400413,70.514 C130.656087,37.7258571 104.420425,12 72.4156512,12 C40.40856,12 14.1728973,37.7258571 11.4285714,70.514 L133.400413,70.514 Z" id="Fill-3" stroke="#DD3730" stroke-width="2" fill="#FDF5F1"></path>
                            <g transform="translate(40.952381, 20.000000)" stroke="#DD3730" stroke-width="2" fill="#DD3730" fill-opacity="0.25">
                                <path d="M50.1748225,41.3636758 L49.7077229,41.3506758 L49.8011429,36.9377667 L50.3188918,36.9424939 C51.7832208,36.9424939 54.9549957,36.5158576 56.4767273,34.9003121 C57.1509264,34.1829485 57.4627013,33.2634939 57.4300606,32.0875848 C57.289368,27.0648576 48.9322251,25.4847667 48.8478095,25.469403 C47.9811429,25.313403 47.2911861,24.5995848 47.1313593,23.6919485 C46.9704069,22.7831303 47.3710996,21.8577667 48.1274632,21.387403 C48.5304069,21.1250394 49.8214026,20.1169485 49.1562078,18.3867667 C48.7622684,17.3656758 47.8393247,16.8480394 46.411013,16.8480394 C45.6197576,16.8480394 44.9714459,17.019403 44.9444329,17.0264939 C44.7722251,17.0749485 44.5887619,17.1009485 44.4041732,17.1009485 C43.9438268,17.1009485 43.4879827,16.9390394 43.1221818,16.6435848 C42.6055584,16.2287667 42.2982857,15.5728576 42.2982857,14.8897667 C42.2971602,14.8259485 42.1924848,8.18531212 37.9244329,5.79567576 C36.4015758,4.94240303 34.7312727,4.50985758 32.9607965,4.50985758 C28.7681558,4.50985758 24.8062511,6.93140303 23.2068571,9.20994848 C20.6890216,12.7955848 20.8477229,18.0121303 20.849974,18.0641303 L20.8510996,18.1527667 L20.8510996,36.9342212 L47.2585455,36.9342212 L47.2585455,41.355403 L18.7452121,41.355403 C17.5847792,41.355403 16.6393247,40.3638576 16.6393247,39.145403 L16.6393247,18.1823121 C16.6190649,17.5027667 16.5323983,11.2639485 19.8167273,6.58631212 C22.0104069,3.46158485 27.0663377,0.098130303 32.9821818,0.098130303 C35.4504935,0.098130303 37.7803636,0.702039394 39.9065108,1.89331212 C44.3884156,4.40349394 45.8291082,9.39431212 46.2928312,12.4256758 L46.3491082,12.4256758 C48.2366407,12.4256758 51.6188918,12.9846758 53.06071,16.7298576 C53.9206234,18.9634939 53.5458182,20.8035848 52.965039,22.076403 C56.3607965,23.3385848 61.4775065,26.1938576 61.64071,31.956403 C61.7082424,34.3791303 60.9755152,36.4189485 59.4605368,38.0203121 C56.4519654,41.2029485 51.3172468,41.3648576 50.3188918,41.3648576 L50.1748225,41.3636758 Z" id="Fill-1"></path>
                                <path d="M13.7608658,41.0591212 C9.00095238,41.0106667 0,38.4839394 0,29.2645758 C0,26.1599394 0.981471861,23.5646667 2.9174026,21.5543939 C6.75887446,17.5610303 13.0765368,17.4463939 13.7833766,17.4463939 L14.258355,17.4463939 L14.2684848,17.9451212 L14.2504762,19.7261212 L14.2335931,21.859303 L13.7766234,21.8687576 C13.5526407,21.8699394 8.52484848,21.9396667 5.87194805,24.7051212 C4.75541126,25.8703939 4.21177489,27.3618485 4.21177489,29.2645758 C4.21177489,36.4299394 13.4141991,36.6320303 13.8058874,36.6367576 L14.2752381,36.6426667 L14.2302165,41.0638485 L13.7608658,41.0591212 Z" id="Fill-4"></path>
                                <polygon id="Fill-6" points="24.2775469 19.9016212 35.2166811 19.9016212 35.2166811 15.4792576 24.2775469 15.4792576"></polygon>
                                <polygon id="Fill-8" points="24.2775469 26.7171667 40.6766811 26.7171667 40.6766811 22.294803 24.2775469 22.294803"></polygon>
                                <polygon id="Fill-9" points="24.2775469 33.5327121 45.1777201 33.5327121 45.1777201 29.1103485 24.2775469 29.1103485"></polygon>
                            </g>
                        </g>
                    </g>
                </g>
            </g>
        </g>
    </g>
</svg>