<?xml version="1.0" encoding="UTF-8"?>
<svg width="203px" height="187px" viewBox="0 0 203 187" version="1.1" xmlns="http://www.w3.org/2000/svg" xmlns:xlink="http://www.w3.org/1999/xlink">
    <!-- Generator: Sketch 39.1 (31720) - http://www.bohemiancoding.com/sketch -->
    <title>Page 1</title>
    <desc>Created with Sketch.</desc>
    <defs>
        <polygon id="path-1" points="100.970187 186.889911 0 186.889911 0 0 100.970187 0 201.940373 0 201.940373 186.889911 100.970187 186.889911"></polygon>
    </defs>
    <g id="0327new" stroke="none" stroke-width="1" fill="none" fill-rule="evenodd">
        <g id="云平台简介" transform="translate(-858.000000, -4764.000000)">
            <g id="云审批" transform="translate(361.000000, 4649.000000)">
                <g id="Group-83" transform="translate(403.500000, 0.000000)">
                    <g id="Page-1" transform="translate(94.000000, 115.000000)">
                        <g id="Group-3" transform="translate(0.000000, 0.054802)">
                            <mask id="mask-2" fill="white">
                                <use xlink:href="#path-1"></use>
                            </mask>
                            <g id="Clip-2"></g>
                            <path d="M75.6988916,151.355208 C33.9603373,151.355208 0,117.406854 0,75.6776039 C0,33.9483541 33.9603373,0 75.6988916,0 C117.031012,0 150.735807,33.2938636 151.390482,74.4610786 L166.764386,74.4610786 L166.764386,48.5174608 L201.94159,77.6313435 L169.852795,100.818315 L168.426627,98.8451111 L197.967301,77.4999588 L169.19812,53.6901262 L169.19812,76.8941292 L148.964048,76.8941292 L148.964048,75.6776039 C148.964048,35.288965 116.098892,2.43305054 75.6988916,2.43305054 C35.2988916,2.43305054 2.43373494,35.288965 2.43373494,75.6776039 C2.43373494,116.066243 35.2988916,148.922157 75.6988916,148.922157 C108.381518,148.922157 137.384337,126.980908 146.22853,95.5677921 L148.572217,96.2247157 C139.431108,128.686476 109.466964,151.355208 75.6988916,151.355208 M75.6988916,174.281843 C72.8927952,174.281843 70.6099518,176.564044 70.6099518,179.369352 C70.6099518,182.174659 72.8927952,184.45686 75.6988916,184.45686 C78.504988,184.45686 80.7878313,182.174659 80.7878313,179.369352 C80.7878313,176.564044 78.504988,174.281843 75.6988916,174.281843 M75.6988916,186.889911 C71.5518072,186.889911 68.1762169,183.51527 68.1762169,179.369352 C68.1762169,175.637052 70.9093012,172.530047 74.4820241,171.946115 L74.4820241,159.921979 L75.6988916,159.921979 C113.290361,159.921979 146.649566,134.686379 156.825012,98.5555781 C157.28012,96.9254343 157.691422,95.278259 158.054048,93.6140525 L160.429373,94.1298592 C160.059446,95.8427268 159.63841,97.5361299 159.168699,99.2125018 C148.808289,136.000226 115.093759,161.807593 76.915759,162.34773 L76.915759,171.946115 C80.4884819,172.530047 83.2215663,175.637052 83.2215663,179.369352 C83.2215663,183.51527 79.8459759,186.889911 75.6988916,186.889911" id="Fill-1" fill="#DD3730" mask="url(#mask-2)"></path>
                        </g>
                        <path d="M140.070434,71.6219196 C137.188892,38.7733043 109.641446,13 76.0364337,13 C42.428988,13 14.8815422,38.7733043 12,71.6219196 L140.070434,71.6219196 Z" id="Fill-4" stroke="#DD3730" stroke-width="2" fill="#FCF5F1"></path>
                        <path d="M65.9999082,23 C63.3340983,23 61.1650985,25.1688911 61.1650985,27.8345672 L61.1650985,27.8345672 L61.1650985,46.3334785 L56.8326066,46.3334785 C54.1667967,46.3334785 52,48.5001665 52,51.1658427 L52,51.1658427 L52,56.1667392 C52,58.8324154 54.1667967,61.0002049 56.8326066,61.0002049 L56.8326066,61.0002049 L59.5006196,61.0002049 L59.5006196,61.1676358 C59.5006196,63.833312 61.6685179,66 64.3332262,66 L64.3332262,66 L87.6667738,66 C90.3325837,66 92.4993804,63.833312 92.4993804,61.1676358 L92.4993804,61.1676358 L92.4993804,61.0002049 L95.1673934,61.0002049 C97.8321017,61.0002049 100,58.8324154 100,56.1667392 L100,56.1667392 L100,51.1658427 C100,48.5001665 97.8321017,46.3334785 95.1673934,46.3334785 L95.1673934,46.3334785 L90.8338,46.3334785 L90.8338,27.8345672 C90.8338,25.1688911 88.6659017,23 86.0000918,23 L86.0000918,23 L65.9999082,23 Z M65.0811952,28.5516561 C65.0811952,27.5790148 65.8390783,26.7870226 66.7732134,26.7870226 L66.7732134,26.7870226 L85.2267866,26.7870226 C86.1598201,26.7870226 86.9188048,27.5790148 86.9188048,28.5516561 L86.9188048,28.5516561 L86.9188048,46.3334785 L65.0811952,46.3334785 L65.0811952,28.5516561 Z M56.1011612,55.0641187 L56.1011612,52.2673617 C56.1011612,51.2572687 56.9240373,50.4355355 57.9341809,50.4355355 L57.9341809,50.4355355 L94.0658191,50.4355355 C95.0748612,50.4355355 95.8988388,51.2572687 95.8988388,52.2673617 L95.8988388,52.2673617 L95.8988388,55.0641187 C95.8988388,56.0753132 95.0748612,56.8970464 94.0658191,56.8970464 L94.0658191,56.8970464 L92.4057465,56.8970464 C91.9684215,54.678587 90.0120255,52.9987704 87.6667738,52.9987704 L87.6667738,52.9987704 L64.3332262,52.9987704 C61.9890761,52.9987704 60.0315785,54.678587 59.5942535,56.8970464 L59.5942535,56.8970464 L57.9341809,56.8970464 C56.9240373,56.8970464 56.1011612,56.0753132 56.1011612,55.0641187 L56.1011612,55.0641187 Z M63.0774315,60.9627533 L63.0774315,58.0371186 C63.0774315,57.1503958 63.8584477,56.4289008 64.8201221,56.4289008 L64.8201221,56.4289008 L86.995915,56.4289008 C87.9564878,56.4289008 88.7386056,57.1503958 88.7386056,58.0371186 L88.7386056,58.0371186 L88.7386056,60.9627533 C88.7386056,61.8494761 87.9564878,62.5698696 86.995915,62.5698696 L86.995915,62.5698696 L64.8201221,62.5698696 C63.8584477,62.5698696 63.0774315,61.8494761 63.0774315,60.9627533 L63.0774315,60.9627533 Z" stroke="#DD3730" stroke-width="2" fill-opacity="0.25" fill="#DD3730"></path>
                        <text id="云打印" font-family="PingFangSC-Regular, PingFang SC" font-size="30" font-weight="normal" line-spacing="30" fill="#DD3730">
                            <tspan x="31" y="123">云打印</tspan>
                        </text>
                    </g>
                </g>
            </g>
        </g>
    </g>
</svg>