<?xml version="1.0" encoding="UTF-8"?>
<svg width="202px" height="187px" viewBox="0 0 202 187" version="1.1" xmlns="http://www.w3.org/2000/svg" xmlns:xlink="http://www.w3.org/1999/xlink">
    <!-- Generator: Sketch 42 (36781) - http://www.bohemiancoding.com/sketch -->
    <title>Group 43 Copy 2</title>
    <desc>Created with Sketch.</desc>
    <defs></defs>
    <g id="0327new" stroke="none" stroke-width="1" fill="none" fill-rule="evenodd">
        <g id="云平台简介" transform="translate(-1437.000000, -5300.000000)">
            <g id="Group-43-Copy-2" transform="translate(1437.000000, 5300.000000)">
                <text id="云表单" font-family="PingFangSC-Regular, PingFang SC" font-size="24" font-weight="normal" line-spacing="30" fill="#DD3730">
                    <tspan x="39" y="116">云表单</tspan>
                </text>
                <g id="Page-1">
                    <path d="M75.7001084,151.076571 C33.9591205,151.076571 0.00121686747,117.190714 0.00121686747,75.5382857 C0.00121686747,33.8858571 33.9591205,0 75.7001084,0 C117.032229,0 150.73459,33.2325714 151.389265,74.324 L166.765602,74.324 L166.765602,48.4281429 L201.940373,77.4884286 L169.851578,100.632714 L168.42541,98.6631429 L197.966084,77.3572857 L169.199337,53.5912857 L169.199337,76.7525714 L148.965265,76.7525714 L148.965265,75.5382857 C148.965265,35.224 116.100108,2.42857143 75.7001084,2.42857143 C35.3001084,2.42857143 2.43495181,35.224 2.43495181,75.5382857 C2.43495181,115.852571 35.3001084,148.648 75.7001084,148.648 C108.382735,148.648 137.385554,126.747143 146.229747,95.3918571 L148.573434,96.0475714 C139.432325,128.449571 109.468181,151.076571 75.7001084,151.076571 M75.7001084,173.961 C72.894012,173.961 70.6111687,176.239 70.6111687,179.039143 C70.6111687,181.839286 72.894012,184.117286 75.7001084,184.117286 C78.5062048,184.117286 80.7890482,181.839286 80.7890482,179.039143 C80.7890482,176.239 78.5062048,173.961 75.7001084,173.961 M75.7001084,186.545857 C71.5530241,186.545857 68.1774337,183.177429 68.1774337,179.039143 C68.1774337,175.313714 70.9105181,172.212429 74.483241,171.629571 L74.483241,159.627571 L75.7001084,159.627571 C113.291578,159.627571 146.650783,134.438429 156.823795,98.3741429 L159.167482,99.0298571 C148.809506,135.749857 115.094976,161.509714 76.9169759,162.048857 L76.9169759,171.629571 C80.4896988,172.212429 83.2227831,175.313714 83.2227831,179.039143 C83.2227831,183.177429 79.8471928,186.545857 75.7001084,186.545857" id="Fill-1" fill="#DD3730"></path>
                    <path d="M140.070434,70.514 C137.188892,37.7258571 109.641446,12 76.0364337,12 C42.428988,12 14.8815422,37.7258571 12,70.514 L140.070434,70.514 Z" id="Fill-3" stroke="#DD3730" stroke-width="2" fill="#FDF5F1"></path>
                    <g transform="translate(43.000000, 20.000000)" stroke="#DD3730" stroke-width="2" fill="#DD3730" fill-opacity="0.25">
                        <path d="M52.6835636,41.3636758 L52.1931091,41.3506758 L52.2912,36.9377667 L52.8348364,36.9424939 C54.3723818,36.9424939 57.7027455,36.5158576 59.3005636,34.9003121 C60.0084727,34.1829485 60.3358364,33.2634939 60.3015636,32.0875848 C60.1538364,27.0648576 51.3788364,25.4847667 51.2902,25.469403 C50.3802,25.313403 49.6557455,24.5995848 49.4879273,23.6919485 C49.3189273,22.7831303 49.7396545,21.8577667 50.5338364,21.387403 C50.9569273,21.1250394 52.3124727,20.1169485 51.6140182,18.3867667 C51.2003818,17.3656758 50.2312909,16.8480394 48.7315636,16.8480394 C47.9007455,16.8480394 47.2200182,17.019403 47.1916545,17.0264939 C47.0108364,17.0749485 46.8182,17.1009485 46.6243818,17.1009485 C46.1410182,17.1009485 45.6623818,16.9390394 45.2782909,16.6435848 C44.7358364,16.2287667 44.4132,15.5728576 44.4132,14.8897667 C44.4120182,14.8259485 44.3021091,8.18531212 39.8206545,5.79567576 C38.2216545,4.94240303 36.4678364,4.50985758 34.6088364,4.50985758 C30.2065636,4.50985758 26.0465636,6.93140303 24.3672,9.20994848 C21.7234727,12.7955848 21.8901091,18.0121303 21.8924727,18.0641303 L21.8936545,18.1527667 L21.8936545,36.9342212 L49.6214727,36.9342212 L49.6214727,41.355403 L19.6824727,41.355403 C18.4640182,41.355403 17.4712909,40.3638576 17.4712909,39.145403 L17.4712909,18.1823121 C17.4500182,17.5027667 17.3590182,11.2639485 20.8075636,6.58631212 C23.1109273,3.46158485 28.4196545,0.098130303 34.6312909,0.098130303 C37.2230182,0.098130303 39.6693818,0.702039394 41.9018364,1.89331212 C46.6078364,4.40349394 48.1205636,9.39431212 48.6074727,12.4256758 L48.6665636,12.4256758 C50.6484727,12.4256758 54.1998364,12.9846758 55.7137455,16.7298576 C56.6166545,18.9634939 56.2231091,20.8035848 55.6132909,22.076403 C59.1788364,23.3385848 64.5513818,26.1938576 64.7227455,31.956403 C64.7936545,34.3791303 64.0242909,36.4189485 62.4335636,38.0203121 C59.2745636,41.2029485 53.8831091,41.3648576 52.8348364,41.3648576 L52.6835636,41.3636758 Z" id="Fill-1"></path>
                        <path d="M14.4489091,41.0591212 C9.451,41.0106667 0,38.4839394 0,29.2645758 C0,26.1599394 1.03054545,23.5646667 3.06327273,21.5543939 C7.09681818,17.5610303 13.7303636,17.4463939 14.4725455,17.4463939 L14.9712727,17.4463939 L14.9819091,17.9451212 L14.963,19.7261212 L14.9452727,21.859303 L14.4654545,21.8687576 C14.2302727,21.8699394 8.95109091,21.9396667 6.16554545,24.7051212 C4.99318182,25.8703939 4.42236364,27.3618485 4.42236364,29.2645758 C4.42236364,36.4299394 14.0849091,36.6320303 14.4961818,36.6367576 L14.989,36.6426667 L14.9417273,41.0638485 L14.4489091,41.0591212 Z" id="Fill-4"></path>
                        <polygon id="Fill-6" points="25.4914242 19.9016212 36.9775152 19.9016212 36.9775152 15.4792576 25.4914242 15.4792576"></polygon>
                        <polygon id="Fill-8" points="25.4914242 26.7171667 42.7105152 26.7171667 42.7105152 22.294803 25.4914242 22.294803"></polygon>
                        <polygon id="Fill-9" points="25.4914242 33.5327121 47.4366061 33.5327121 47.4366061 29.1103485 25.4914242 29.1103485"></polygon>
                    </g>
                </g>
            </g>
            <g id="Group-38" transform="translate(-267.000000, 5350.000000)"></g>
        </g>
    </g>
</svg>