<?xml version="1.0" encoding="UTF-8"?>
<svg width="202px" height="188px" viewBox="0 0 202 188" version="1.1" xmlns="http://www.w3.org/2000/svg" xmlns:xlink="http://www.w3.org/1999/xlink">
    <!-- Generator: Sketch 42 (36781) - http://www.bohemiancoding.com/sketch -->
    <title>Page 1 Copy</title>
    <desc>Created with Sketch.</desc>
    <defs>
        <polygon id="path-1" points="100.970187 187.344891 0 187.344891 0 0.45498045 100.970187 0.45498045 201.940373 0.45498045 201.940373 187.344891 100.970187 187.344891"></polygon>
    </defs>
    <g id="0327new" stroke="none" stroke-width="1" fill="none" fill-rule="evenodd">
        <g id="云平台简介" transform="translate(-1562.000000, -5422.000000)">
            <g id="云审批" transform="translate(361.000000, 4467.000000)">
                <g id="Page-1-Copy" transform="translate(1201.000000, 955.000000)">
                    <g id="Group-3" transform="translate(0.000000, 0.054802)">
                        <mask id="mask-2" fill="white">
                            <use xlink:href="#path-1"></use>
                        </mask>
                        <g id="Clip-2"></g>
                        <path d="M75.6976747,151.810188 C33.9591205,151.810188 -0.00121686747,117.861834 -0.00121686747,76.1325844 C-0.00121686747,34.4033346 33.9591205,0.45498045 75.6976747,0.45498045 C117.029795,0.45498045 150.73459,33.748844 151.389265,74.9160591 L166.763169,74.9160591 L166.763169,48.9724412 L201.940373,78.0863239 L169.851578,101.273296 L168.42541,99.3000916 L197.966084,77.9549392 L169.196904,54.1451067 L169.196904,77.3491096 L148.962831,77.3491096 L148.962831,76.1325844 C148.962831,35.7439454 116.097675,2.88803099 75.6976747,2.88803099 C35.2976747,2.88803099 2.43251807,35.7439454 2.43251807,76.1325844 C2.43251807,116.521223 35.2976747,149.377138 75.6976747,149.377138 C108.380301,149.377138 137.38312,127.435888 146.227313,96.0227725 L148.571,96.6796962 C139.429892,129.141456 109.465747,151.810188 75.6976747,151.810188 M75.6976747,174.736823 C72.8915783,174.736823 70.6087349,177.019025 70.6087349,179.824332 C70.6087349,182.629639 72.8915783,184.911841 75.6976747,184.911841 C78.5037711,184.911841 80.7866145,182.629639 80.7866145,179.824332 C80.7866145,177.019025 78.5037711,174.736823 75.6976747,174.736823 M75.6976747,187.344891 C71.5505904,187.344891 68.175,183.97025 68.175,179.824332 C68.175,176.092033 70.9080843,172.985027 74.4808072,172.401095 L74.4808072,160.376959 L75.6976747,160.376959 C113.289145,160.376959 146.648349,135.141359 156.823795,99.0105586 C157.278904,97.3804147 157.690205,95.7332395 158.052831,94.0690329 L160.428157,94.5848396 C160.058229,96.2977072 159.637193,97.9911104 159.167482,99.6674822 C148.807072,136.455206 115.092542,162.262573 76.9145422,162.802711 L76.9145422,172.401095 C80.4872651,172.985027 83.2203494,176.092033 83.2203494,179.824332 C83.2203494,183.97025 79.844759,187.344891 75.6976747,187.344891" id="Fill-1" fill="#DD3730" mask="url(#mask-2)"></path>
                    </g>
                    <path d="M139.613291,71.123165 C136.731749,38.2745497 109.184303,12.5012454 75.5792909,12.5012454 C41.9718451,12.5012454 14.4243993,38.2745497 11.5428571,71.123165 L139.613291,71.123165 Z" id="Fill-4" stroke="#DD3730" stroke-width="2" fill="#FCF5F1"></path>
                    <path d="M65.9999082,23 C63.3340983,23 61.1650985,25.1688911 61.1650985,27.8345672 L61.1650985,27.8345672 L61.1650985,46.3334785 L56.8326066,46.3334785 C54.1667967,46.3334785 52,48.5001665 52,51.1658427 L52,51.1658427 L52,56.1667392 C52,58.8324154 54.1667967,61.0002049 56.8326066,61.0002049 L56.8326066,61.0002049 L59.5006196,61.0002049 L59.5006196,61.1676358 C59.5006196,63.833312 61.6685179,66 64.3332262,66 L64.3332262,66 L87.6667738,66 C90.3325837,66 92.4993804,63.833312 92.4993804,61.1676358 L92.4993804,61.1676358 L92.4993804,61.0002049 L95.1673934,61.0002049 C97.8321017,61.0002049 100,58.8324154 100,56.1667392 L100,56.1667392 L100,51.1658427 C100,48.5001665 97.8321017,46.3334785 95.1673934,46.3334785 L95.1673934,46.3334785 L90.8338,46.3334785 L90.8338,27.8345672 C90.8338,25.1688911 88.6659017,23 86.0000918,23 L86.0000918,23 L65.9999082,23 Z M65.0811952,28.5516561 C65.0811952,27.5790148 65.8390783,26.7870226 66.7732134,26.7870226 L66.7732134,26.7870226 L85.2267866,26.7870226 C86.1598201,26.7870226 86.9188048,27.5790148 86.9188048,28.5516561 L86.9188048,28.5516561 L86.9188048,46.3334785 L65.0811952,46.3334785 L65.0811952,28.5516561 Z M56.1011612,55.0641187 L56.1011612,52.2673617 C56.1011612,51.2572687 56.9240373,50.4355355 57.9341809,50.4355355 L57.9341809,50.4355355 L94.0658191,50.4355355 C95.0748612,50.4355355 95.8988388,51.2572687 95.8988388,52.2673617 L95.8988388,52.2673617 L95.8988388,55.0641187 C95.8988388,56.0753132 95.0748612,56.8970464 94.0658191,56.8970464 L94.0658191,56.8970464 L92.4057465,56.8970464 C91.9684215,54.678587 90.0120255,52.9987704 87.6667738,52.9987704 L87.6667738,52.9987704 L64.3332262,52.9987704 C61.9890761,52.9987704 60.0315785,54.678587 59.5942535,56.8970464 L59.5942535,56.8970464 L57.9341809,56.8970464 C56.9240373,56.8970464 56.1011612,56.0753132 56.1011612,55.0641187 L56.1011612,55.0641187 Z M63.0774315,60.9627533 L63.0774315,58.0371186 C63.0774315,57.1503958 63.8584477,56.4289008 64.8201221,56.4289008 L64.8201221,56.4289008 L86.995915,56.4289008 C87.9564878,56.4289008 88.7386056,57.1503958 88.7386056,58.0371186 L88.7386056,58.0371186 L88.7386056,60.9627533 C88.7386056,61.8494761 87.9564878,62.5698696 86.995915,62.5698696 L86.995915,62.5698696 L64.8201221,62.5698696 C63.8584477,62.5698696 63.0774315,61.8494761 63.0774315,60.9627533 L63.0774315,60.9627533 Z" id="Page-1" stroke="#DD3730" stroke-width="2" fill-opacity="0.25" fill="#DD3730"></path>
                    <text id="云打印" font-family="PingFangSC-Regular, PingFang SC" font-size="24" font-weight="normal" line-spacing="30" fill="#DD3730">
                        <tspan x="42.0180276" y="113.273076">云打印</tspan>
                    </text>
                </g>
            </g>
            <g id="Group-38" transform="translate(-267.000000, 5350.000000)"></g>
        </g>
    </g>
</svg>