<?xml version="1.0" encoding="UTF-8"?>
<svg width="202px" height="187px" viewBox="0 0 202 187" version="1.1" xmlns="http://www.w3.org/2000/svg" xmlns:xlink="http://www.w3.org/1999/xlink">
    <!-- Generator: Sketch 42 (36781) - http://www.bohemiancoding.com/sketch -->
    <title>Group 43 Copy</title>
    <desc>Created with Sketch.</desc>
    <defs></defs>
    <g id="0327new" stroke="none" stroke-width="1" fill="none" fill-rule="evenodd">
        <g id="云平台简介" transform="translate(-320.000000, -5393.000000)">
            <g id="Group-43-Copy" transform="translate(320.000000, 5393.000000)">
                <text id="云审批" font-family="PingFangSC-Regular, PingFang SC" font-size="24" font-weight="normal" line-spacing="30" fill="#DD3730">
                    <tspan x="39" y="116">云审批</tspan>
                </text>
                <g id="Page-1">
                    <path d="M75.7001084,151.076571 C33.9591205,151.076571 0.00121686747,117.190714 0.00121686747,75.5382857 C0.00121686747,33.8858571 33.9591205,0 75.7001084,0 C117.032229,0 150.73459,33.2325714 151.389265,74.324 L166.765602,74.324 L166.765602,48.4281429 L201.940373,77.4884286 L169.851578,100.632714 L168.42541,98.6631429 L197.966084,77.3572857 L169.199337,53.5912857 L169.199337,76.7525714 L148.965265,76.7525714 L148.965265,75.5382857 C148.965265,35.224 116.100108,2.42857143 75.7001084,2.42857143 C35.3001084,2.42857143 2.43495181,35.224 2.43495181,75.5382857 C2.43495181,115.852571 35.3001084,148.648 75.7001084,148.648 C108.382735,148.648 137.385554,126.747143 146.229747,95.3918571 L148.573434,96.0475714 C139.432325,128.449571 109.468181,151.076571 75.7001084,151.076571 M75.7001084,173.961 C72.894012,173.961 70.6111687,176.239 70.6111687,179.039143 C70.6111687,181.839286 72.894012,184.117286 75.7001084,184.117286 C78.5062048,184.117286 80.7890482,181.839286 80.7890482,179.039143 C80.7890482,176.239 78.5062048,173.961 75.7001084,173.961 M75.7001084,186.545857 C71.5530241,186.545857 68.1774337,183.177429 68.1774337,179.039143 C68.1774337,175.313714 70.9105181,172.212429 74.483241,171.629571 L74.483241,159.627571 L75.7001084,159.627571 C113.291578,159.627571 146.650783,134.438429 156.823795,98.3741429 L159.167482,99.0298571 C148.809506,135.749857 115.094976,161.509714 76.9169759,162.048857 L76.9169759,171.629571 C80.4896988,172.212429 83.2227831,175.313714 83.2227831,179.039143 C83.2227831,183.177429 79.8471928,186.545857 75.7001084,186.545857" id="Fill-1" fill="#DD3730"></path>
                    <path d="M140.070434,70.514 C137.188892,37.7258571 109.641446,12 76.0364337,12 C42.428988,12 14.8815422,37.7258571 12,70.514 L140.070434,70.514 Z" id="Fill-3" stroke="#DD3730" stroke-width="2" fill="#FDF5F1"></path>
                    <g transform="translate(45.000000, 23.000000)" stroke="#DD3730" stroke-width="2" fill-opacity="0.25" fill="#DD3730">
                        <path d="M12.5864218,10.0483612 C13.0322915,10.0787052 13.4781613,10.0969115 13.921621,10.1406069 C14.8145656,10.2267838 15.3339436,9.94519165 15.7014849,9.00088698 C17.9067328,3.32899017 23.0908727,0.013 29.2426706,0.233904177 C34.5678017,0.424464373 39.5699786,4.40073956 41.3233314,9.8335258 C42.1331273,12.3423661 41.089551,14.2176241 39.0011934,13.9906511 C37.7310671,13.8534963 37.120105,12.983231 36.7971506,11.8592899 C35.835518,8.50567322 33.6411156,6.435 30.3621652,5.41544226 C26.480688,4.20653808 21.3652362,7.0273145 20.2879184,10.9805283 C20.009551,11.9988722 20.2095899,12.7416929 20.9398523,13.5488428 C21.9653528,14.6812801 22.9064995,15.9290246 23.6644781,17.2544496 C24.2404937,18.260656 24.4646336,19.6030737 23.4222624,20.4235749 C22.7884043,20.9236437 21.6652945,21.1882432 20.8964704,21.0001106 C20.2228455,20.8362531 19.6010379,19.974484 19.1925248,19.2802138 C18.115207,17.4425823 16.7089096,16.1207985 14.6530884,15.4398796 C10.8041477,14.1642187 6.71058115,16.0892408 5.17172789,19.9162236 C4.89818076,20.5959287 4.31252478,21.6385479 3.8461691,21.6518993 C2.65557629,21.6870983 1.4360622,21.2841302 0.26716035,20.9284988 C0.0791720117,20.8702383 -0.0642293489,20.1104251 0.0297648202,19.742656 C1.50113508,14.00643 6.80216521,9.7740516 12.5864218,10.0483612" id="Fill-1"></path>
                        <path d="M12.591724,37.4388976 C6.94002332,37.3041704 2.28008163,33.9372023 0.237516035,28.5116986 C-0.227634597,27.2736642 0.215825073,26.5806077 1.58356074,26.6206618 C3.45380369,26.6752809 4.92878912,27.53705 6.27362877,28.8733989 C7.37504762,29.9694234 8.6620447,30.9938362 10.0538814,31.6492662 C13.1858154,33.1251974 16.0044354,31.947851 18.4434636,29.9245144 C22.9130068,26.2152662 27.2849407,22.3846421 31.6749504,18.5782932 C34.2152031,16.376534 36.3240466,15.9614284 38.5304995,17.3839542 C39.3668066,17.9228632 39.9548727,18.6256298 38.8956307,19.5056053 C32.4847464,24.8315807 26.1027833,30.1963964 19.6208008,35.4325537 C17.6324626,37.0383571 15.1151059,37.4049124 12.591724,37.4388976" id="Fill-7"></path>
                        <path d="M26.9586395,38.4602496 C25.9222935,38.155596 24.8859475,37.8497287 23.8483965,37.5450751 C24.5485326,36.7500628 25.1751603,35.8713012 25.9596501,35.1733896 C31.3486492,30.3923921 36.8473081,25.7315567 42.1615938,20.8680235 C47.3023518,16.1634928 54.5965403,17.2473798 57.9068222,22.7991144 C60.2590865,26.7450456 59.5095432,31.8306967 56.0510398,35.1114879 C52.7612439,38.2332766 47.6831487,38.715139 44.1186006,36.2439252 C42.617104,35.2025198 42.1085714,33.8685985 42.7785811,32.7325198 C43.6052478,31.3306279 44.9524976,31.0587459 46.6468027,31.9520727 C50.1812245,33.8139793 53.9747328,32.0042643 54.2639456,28.2828786 C54.4181924,26.2874584 53.6963654,24.6355321 51.9478328,23.5941267 C49.9365986,22.3949326 47.9193392,22.5235911 46.1467055,24.0407901 C41.4265112,28.078967 36.709932,32.1256402 32.1042177,36.2961169 C30.5906706,37.666451 29.0735083,38.4990899 26.9586395,38.4602496" id="Fill-1"></path>
                    </g>
                </g>
            </g>
            <g id="Group-38" transform="translate(-267.000000, 5350.000000)"></g>
        </g>
    </g>
</svg>