<?xml version="1.0" encoding="UTF-8"?>
<svg width="68px" height="58px" viewBox="0 0 68 58" version="1.1" xmlns="http://www.w3.org/2000/svg" xmlns:xlink="http://www.w3.org/1999/xlink">
    <!-- Generator: Sketch 39.1 (31720) - http://www.bohemiancoding.com/sketch -->
    <title>Page 1</title>
    <desc>Created with Sketch.</desc>
    <defs></defs>
    <g id="0327new" stroke="none" stroke-width="1" fill="none" fill-rule="evenodd">
        <g id="云平台简介" transform="translate(-483.000000, -2401.000000)" stroke="#DD3730">
            <g id="Group-21" transform="translate(455.000000, 2402.000000)">
                <g id="Page-1" transform="translate(29.000000, 0.000000)">
                    <path d="M21.4803471,27.3407876 C21.0092882,29.5608241 18.8397,30.9762684 16.6338765,30.5044536 C14.4280529,30.0303596 13.0216706,27.8490712 13.4927294,25.6267554 C13.9637882,23.4089982 16.1311118,21.9912747 18.3369353,22.4653687 C20.5450235,22.9371834 21.9491412,25.1207512 21.4803471,27.3407876 L21.4803471,27.3407876 Z M25.5183176,26.189742 C25.4911412,25.3897084 25.3439353,24.6079091 25.0925529,23.8694164 L26.3902294,22.6796227 C25.9576706,21.6539385 25.3484647,20.694354 24.5694059,19.8532929 L22.9592,20.5598754 C22.3930235,20.0287989 21.7453176,19.5729392 21.0296706,19.2219273 L21.1112,17.4577505 C20.0513176,17.0246838 18.9438765,16.7944747 17.8387,16.7557266 L17.1955235,18.3991006 C16.4006118,18.4287315 15.6238176,18.5746066 14.8900529,18.8276087 L13.7078765,17.5238501 C12.6887588,17.9569168 11.7353176,18.570048 10.8996412,19.3564059 L11.6017,20.9747076 C11.0740235,21.5468115 10.6210824,22.1986908 10.2723176,22.9189491 L8.51717059,22.8368943 C8.08914118,23.9013266 7.86040588,25.0181827 7.81964118,26.1304803 L9.45475882,26.7755217 C9.48193529,27.5755554 9.62914118,28.3573547 9.88052353,29.0981266 L8.58511176,30.285641 C9.01314118,31.3136045 9.62461176,32.2709098 10.4036706,33.1142501 L12.0116118,32.4053884 C12.5823176,32.9387441 13.2277588,33.3923245 13.9456706,33.7433364 L13.8641412,35.5097926 C14.9217588,35.9405799 16.0292,36.1707891 17.1366412,36.2118164 L17.7752882,34.5684424 C18.5724647,34.5388115 19.3492588,34.3906571 20.0830235,34.137655 L21.2652,35.4436929 C22.2865824,35.0106262 23.2377588,34.3952157 24.0734353,33.6111371 L23.3713765,31.9905561 C23.9013176,31.4207315 24.3519941,30.7688522 24.7007588,30.048594 L26.4559059,30.1306487 C26.8839353,29.0639371 27.1149353,27.9493603 27.1534353,26.8370627 L25.5183176,26.189742 L25.5183176,26.189742 Z" id="Stroke-1"></path>
                    <path d="M60.35856,41 L55.6829208,41 C55.9669871,40.3302108 56.2006545,39.6323185 56.3747597,38.911007 L59.2039681,38.4262295 C59.5246881,36.5480094 59.5086521,34.6580796 59.1902229,32.8360656 L56.3610145,32.3653396 C56.0425854,31.0749415 55.5385969,29.8618267 54.8857026,28.7517564 L56.5511557,26.3629977 C55.5088157,24.8501171 54.2076089,23.5081967 52.6750256,22.4192037 L50.3475148,24.1334895 C49.2593577,23.4683841 48.0681121,22.9601874 46.8058499,22.6416862 L46.3316425,19.7494145 C44.4943751,19.4215457 42.6456535,19.4379391 40.8633667,19.763466 L40.4029045,22.6557377 C39.1406423,22.9812646 37.9516875,23.4964871 36.8658212,24.1639344 L34.5314379,22.4613583 C33.0515443,23.5245902 31.7388832,24.8571429 30.6736347,26.4238876 L32.350542,28.8032787 C31.6999386,29.9156909 31.2051135,31.1334895 30.8912661,32.4262295 L28.0620577,32.9086651 C27.7413377,34.7868852 27.7573737,36.676815 28.073512,38.498829 L30.9050112,38.969555 C31.0791164,39.6697892 31.3059112,40.3489461 31.5831049,41 L5.64143997,41 C5.28864799,41 5,40.704918 5,40.3442623 C5,27.3466042 5.00229086,18.6533958 5.00229086,5.6557377 C5.00229086,5.29508197 5.28864799,5 5.64143997,5 L29.1570873,5 L29.3403559,5.7704918 C28.7264062,6.24355972 28.1949274,6.80093677 27.752792,7.41451991 L26.1056658,7.03512881 C25.5375332,7.95550351 25.1228881,8.98594848 24.8915116,10.0843091 C24.8915116,10.0843091 25.5912882,10.5233149 25.9411766,10.7428179 L26.3324606,10.9882904 C26.2293721,11.7423888 26.2293721,12.5199063 26.3462058,13.29274 L24.9190018,14.2177986 C25.1641235,15.3114754 25.5925138,16.3348946 26.1698098,17.2505855 L27.8123543,16.8477752 C28.2728165,17.4730679 28.8180405,18.0163934 29.4205359,18.4683841 L29.0471262,20.0538642 C29.9497239,20.6346604 30.9554101,21.058548 32.029822,21.295082 L32.7743506,19.3629977 C33.5142974,19.470726 34.2748619,19.4683841 35.0308448,19.3489461 L35.8830436,20.7798595 C36.9551647,20.5316159 37.9562692,20.0913349 38.8497034,19.501171 L38.35946,18.0140515 C38.9734097,17.5456674 39.5048885,16.9906323 39.9447331,16.3723653 L41.4612804,17.117096 C42.029413,16.1943794 42.8632849,15.1943794 43.0923706,14.0960187 L41.6537124,13.1920375 C41.756801,12.4355972 41.756801,11.6580796 41.6376764,10.882904 L43.0671712,9.96252927 C42.8220495,8.86651054 42.3936592,7.84309133 41.8140724,6.92974239 L40.1715279,7.33255269 C39.7110657,6.70491803 39.1681325,6.16159251 38.5656371,5.71194379 L38.7237063,5 L60.35856,5 C60.711352,5 61,5.29508197 61,5.6557377 L61,40.3442623 C61,40.704918 60.711352,41 60.35856,41 Z" id="Stroke-3"></path>
                    <path d="M47.9509088,40.8137196 L39.7300265,40.8137196 C38.2194676,39.6011329 37.2501735,37.7366669 37.2456441,35.6397126 C37.2365853,31.9723217 40.1829676,28.9955582 43.8246147,28.9887203 C47.4685265,28.9796031 50.4262324,31.9426908 50.4352912,35.6078024 C50.4398206,37.7161533 49.4682618,39.594295 47.9509088,40.8137196" id="Stroke-5"></path>
                    <path d="M31.7618853,8.69453249 C33.7389735,7.85347144 36.0172676,8.78798372 36.8529441,10.7755318 C37.6863559,12.7653592 36.7600912,15.0606125 34.7807382,15.8993942 C32.8059147,16.738176 30.5276206,15.805943 29.6942088,13.8161156 C28.8585324,11.8262883 29.7847971,9.53331425 31.7618853,8.69453249" id="Stroke-7"></path>
                    <path d="M63.0028235,0.157192982 L2.90205882,0.157192982 C1.39376471,0.157192982 0.161764706,1.39941053 0.161764706,2.91742316 L0.161764706,42.725367 C0.161764706,44.2433796 1.39376471,45.4855972 2.90205882,45.4855972 L63.0028235,45.4855972 C64.5088529,45.4855972 65.7431176,44.2411004 65.7431176,42.725367 L65.7431176,2.91742316 C65.7431176,1.40168982 64.5088529,0.157192982 63.0028235,0.157192982" id="Stroke-9"></path>
                    <path d="M40.6902618,47.6538936 L25.9674088,47.6538936 C25.0637912,48.5975231 24.3843794,50.5554403 24.0084382,52.4016719 L18.7248794,52.4016719 L18.7248794,55.7385645 L47.9350559,55.7385645 L47.9350559,52.4016719 L42.6514971,52.4016719 C42.2755559,50.5554403 41.5961441,48.5975231 40.6902618,47.6538936" id="Fill-11"></path>
                    <path d="M6.20467941,40.8077934 C5.62717941,40.8077934 5.16065,40.3359787 5.16065,39.7570369 L5.16065,6.50435481 C5.16065,5.92313375 5.62717941,5.45131902 6.20467941,5.45131902 L59.3663853,5.45131902 C59.9438853,5.45131902 60.4104147,5.92313375 60.4104147,6.50435481 L60.4104147,39.7570369 C60.4104147,40.3359787 59.9438853,40.8077934 59.3663853,40.8077934 L6.20467941,40.8077934 Z" id="Stroke-13"></path>
                </g>
            </g>
        </g>
    </g>
</svg>