<?xml version="1.0" encoding="UTF-8"?>
<svg width="85px" height="54px" viewBox="0 0 85 54" version="1.1" xmlns="http://www.w3.org/2000/svg" xmlns:xlink="http://www.w3.org/1999/xlink">
    <!-- Generator: Sketch 39.1 (31720) - http://www.bohemiancoding.com/sketch -->
    <title>Page 1</title>
    <desc>Created with Sketch.</desc>
    <defs></defs>
    <g id="0327new" stroke="none" stroke-width="1" fill="none" fill-rule="evenodd">
        <g id="云平台简介" transform="translate(-708.000000, -2403.000000)">
            <g id="Group-22" transform="translate(675.250000, 2403.000000)">
                <g id="Page-1" transform="translate(34.000000, 0.000000)">
                    <polygon id="Stroke-1" stroke="#DD3730" points="20.0043936 9.51690318 17.1563501 3.89406381 0.0943935927 3.89406381 0.0943935927 40.1088027 42.2506979 40.1088027 42.2506979 9.51690318"></polygon>
                    <polygon id="Fill-3" fill="#DD3730" points="57 9.35509265 51.6284001 9.35509265 51.6284001 41.6449074 57 41.6449074 57 44 49.5080317 44 49.5080317 26.0772141 46 26.0772141 46 23.7221215 49.5080317 23.7221215 49.5080317 7 57 7"></polygon>
                    <g id="Group-8" transform="translate(60.000000, 0.000000)" stroke="#DD3730">
                        <polygon id="Stroke-4" points="10.7643936 36.5543106 9.26026316 33.5871563 0.259393593 33.5871563 0.259393593 52.6921641 22.498524 52.6921641 22.498524 36.5543106"></polygon>
                        <polygon id="Stroke-6" points="10.7643936 3.52686218 9.26026316 0.559707876 0.259393593 0.559707876 0.259393593 19.6647156 22.498524 19.6647156 22.498524 3.52686218"></polygon>
                    </g>
                </g>
            </g>
        </g>
    </g>
</svg>