<?xml version="1.0" encoding="UTF-8"?>
<svg width="59px" height="60px" viewBox="0 0 59 60" version="1.1" xmlns="http://www.w3.org/2000/svg" xmlns:xlink="http://www.w3.org/1999/xlink">
    <!-- Generator: Sketch 39.1 (31720) - http://www.bohemiancoding.com/sketch -->
    <title>Page 1</title>
    <desc>Created with Sketch.</desc>
    <defs></defs>
    <g id="0327new" stroke="none" stroke-width="1" fill="none" fill-rule="evenodd">
        <g id="云平台简介" transform="translate(-940.000000, -2400.000000)">
            <g id="Group-28" transform="translate(931.500000, 2400.000000)">
                <g id="Page-1" transform="translate(9.000000, 0.000000)">
                    <path d="M47.2413,29.1652226 L48.3584935,47.3695774 L10.113171,47.3695774 L11.5520097,24.3843194 L15.0406226,24.3843194 L15.0349129,21.8263839 L9.99897742,21.8263839 C9.44513871,21.8263839 9.03213871,22.2793516 8.99407419,22.8293839 L7.15175161,49.7409968 L1.03859032,55.5020613 C0.966267742,55.5705774 0.951041935,55.6295774 0.951041935,55.7342548 L0.951041935,58.1170935 C0.951041935,58.4197065 1.19846129,58.6652226 1.50107419,58.6652226 L56.9705903,58.6652226 C57.2732032,58.6652226 57.5206226,58.4197065 57.5206226,58.1170935 L57.5206226,55.7323516 C57.5320419,55.6505129 57.5073,55.5705774 57.4330742,55.5020613 L51.329429,49.8818355 L49.8982032,28.6837065 L47.2413,29.1652226 L47.2413,29.1652226 Z" id="Stroke-1" stroke="#DD3730"></path>
                    <path d="M49.8683226,28.5350645 C51.3490323,28.278129 52.8392581,28.0364194 54.3332903,27.8023226 C52.8754194,23.4553548 51.4232581,19.1045806 49.9691935,14.7538065 C49.2117097,14.9041613 48.4732581,15.0602258 47.7500323,15.222 C48.9338387,18.9751613 50.1214516,22.7283226 51.3071613,26.4814839 C41.2181613,28.3428387 33.2912258,30.4649355 23.9996774,34.8080968 C31.6925161,32.8059032 39.4043871,30.4934839 47.2114194,29.0165806 L49.8683226,28.5350645 Z" id="Fill-3" fill="#DD3730"></path>
                    <polygon id="Fill-5" fill="#DD3730" points="24.1671613 55.678871 25.1435161 53.672871 33.3292903 53.672871 34.3056452 55.678871"></polygon>
                    <path d="M6.96770968,52.8069032 C7.78419355,52.020871 8.67870968,51.0901935 9.48187097,50.4126452 L48.9338387,50.4164516 L51.5050968,52.8069032 L6.96770968,52.8069032 Z" id="Fill-7" fill="#DD3730"></path>
                    <path d="M17.5955129,34.8080968 L17.5802871,21.8261935 C20.8995129,19.706 24.9838355,17.2165806 28.3049645,15.4941613 L28.0879968,13.9506452 C24.1901903,16.0327742 20.3551903,18.4974516 16.4459645,21.1867097 C16.4611903,25.7392258 16.4554806,30.2689032 16.4554806,34.8080968 L17.5955129,34.8080968 Z" id="Fill-9" fill="#DD3730"></path>
                    <path d="M30.149,8.78529032 C35.2496452,4.57535484 41.2961935,2.98996774 47.7424194,1.73003226 L51.2576774,11.6858065 C43.9816452,12.9305161 38.1159032,14.7823548 31.5021935,18.0692258 L30.149,8.78529032 Z M48.7473226,0 C41.3152258,1.25803226 34.3646452,3.21264516 28.538871,8.24858065 L30.2917419,20.3949677 C38.5250968,16.1031935 44.149129,14.3255806 53.2998387,12.8943548 L48.7473226,0 Z" id="Fill-11" fill="#DD3730"></path>
                    <path d="M29.9929355,30.7180645 C30.7047419,30.444 31.4165484,30.1680323 32.1340645,29.8977742 C31.7914839,27.6824194 31.4374839,25.4689677 31.0949032,23.2536129 C30.4249677,23.5371935 29.7588387,23.8226774 29.0927097,24.1119677 C29.3934194,26.314 29.6922258,28.5160323 29.9929355,30.7180645" id="Fill-13" fill="#DD3730"></path>
                    <path d="M32.5586742,34.9032581 L35.8988355,43.6904516 L37.7088032,41.8804839 L40.8186742,44.9903548 L42.6438677,43.1651613 L39.5339968,40.0552903 C40.1373194,39.4519677 40.7406419,38.8486452 41.3439645,38.2453226 L32.5586742,34.9032581 L32.5586742,34.9032581 Z" id="Stroke-15" stroke="#DD3730"></path>
                    <path d="M21.9672226,34.3227742 C22.679029,33.9630645 23.3965452,33.6147742 24.1083516,33.276 C23.7543516,28.7710645 23.3984484,24.266129 23.0444484,19.7611935 C22.4259,20.1247097 21.8111581,20.4939355 21.1926097,20.8764839 C21.4381258,25.3604839 21.6969645,29.8425806 21.9672226,34.3227742" id="Fill-17" fill="#DD3730"></path>
                    <path d="M25.9828387,32.4100323 C26.6908387,32.0921935 27.4045484,31.7762581 28.1220645,31.4812581 C27.5777419,26.9363548 27.0486452,22.3895484 26.5119355,17.8427419 C25.8914839,18.1643871 25.2748387,18.5031613 24.6639032,18.8419355 C25.092129,23.3659032 25.5393871,27.8879677 25.9828387,32.4100323" id="Fill-19" fill="#DD3730"></path>
                </g>
            </g>
        </g>
    </g>
</svg>