<?xml version="1.0" encoding="UTF-8"?>
<svg width="50px" height="51px" viewBox="0 0 50 51" version="1.1" xmlns="http://www.w3.org/2000/svg" xmlns:xlink="http://www.w3.org/1999/xlink">
    <!-- Generator: Sketch 39.1 (31720) - http://www.bohemiancoding.com/sketch -->
    <title>Page 1</title>
    <desc>Created with Sketch.</desc>
    <defs></defs>
    <g id="0327new" stroke="none" stroke-width="1" fill="none" fill-rule="evenodd">
        <g id="云平台简介" transform="translate(-1162.000000, -2405.000000)">
            <g id="Group-30" transform="translate(1129.750000, 2405.000000)">
                <g id="Page-1" transform="translate(32.000000, 0.000000)">
                    <path d="M37.6810093,4.2566382 C49.3306599,11.0676242 53.2534084,26.0324534 46.4424224,37.6802795 C39.6314363,49.3317547 24.6666071,53.2545031 13.0169565,46.4435171 C1.36913043,39.6325311 -2.55361801,24.6677019 4.25554348,13.0180512 C11.0665295,1.36840062 26.0313587,-2.55434783 37.6810093,4.2566382 L37.6810093,4.2566382 Z M34.9569798,8.91467391 C25.8817469,3.60892857 14.2211491,6.66502329 8.91357919,15.7402562 C3.60783385,24.8191382 6.66392857,36.4779115 15.740986,41.7854814 C24.8180435,47.0912267 36.4768168,44.035132 41.7843866,34.9580745 C47.090132,25.8828416 44.0340373,14.2222438 34.9569798,8.91467391 L34.9569798,8.91467391 Z M27.4836879,21.8360248 C26.2758463,21.1208075 24.7286413,21.0569488 23.4240994,21.8013587 C21.4864441,22.9052019 20.8113665,25.3701475 21.9152096,27.3078028 C23.0190528,29.2436335 25.485823,29.9187112 27.4216537,28.814868 C28.7280202,28.0704581 29.4596584,26.7075311 29.4596584,25.3044643 L39.3030202,18.5792314 L38.2831056,16.7893634 L27.4836879,21.8360248 L27.4836879,21.8360248 Z" id="Stroke-1" stroke="#D71A19"></path>
                    <path d="M33.1669293,11.9780668 C25.7812151,7.65939441 16.2936374,10.1462345 11.9767896,17.5319488 C9.83296196,21.1992624 9.36770575,25.3847438 10.3456561,29.1980202 C10.0446079,26.3973602 10.6029154,23.4799301 12.131875,20.8635481 C15.9323797,14.3627329 24.285097,12.1732919 30.7859123,15.9756211 C31.6507415,16.4810171 32.4389402,17.0666925 33.1468595,17.7180512 L37.4691809,15.7001165 C36.3106017,14.2441382 34.8692197,12.9724379 33.1669293,11.9780668" id="Fill-3" fill="#DD3730"></path>
                </g>
            </g>
        </g>
    </g>
</svg>