<?xml version="1.0" encoding="UTF-8"?>
<svg width="54px" height="40px" viewBox="0 0 54 40" version="1.1" xmlns="http://www.w3.org/2000/svg" xmlns:xlink="http://www.w3.org/1999/xlink">
    <!-- Generator: Sketch 39.1 (31720) - http://www.bohemiancoding.com/sketch -->
    <title>Page 1</title>
    <desc>Created with Sketch.</desc>
    <defs></defs>
    <g id="0327new" stroke="none" stroke-width="1" fill="none" fill-rule="evenodd">
        <g id="云平台简介" transform="translate(-1366.000000, -2410.000000)" stroke="#DD3730">
            <g id="Group-33" transform="translate(1337.000000, 2397.000000)">
                <path d="M30.6334092,24.4493894 L44.885117,24.4493894 C45.233492,24.4493894 45.5185262,24.7344235 45.5185262,25.0827986 L45.5185262,30.5711033 C45.5185262,30.9194784 45.233492,31.2045125 44.885117,31.2045125 L41.3324363,31.2045125 L41.3324363,49.7093769 C41.3324363,50.8700062 40.3823225,51.8201201 39.2216932,51.8201201 L36.296833,51.8201201 C35.1362037,51.8201201 34.1860898,50.8700062 34.1860898,49.7093769 L34.1860898,31.2045125 L30.6334092,31.2045125 C30.2850342,31.2045125 30,30.9194784 30,30.5711033 L30,25.0827986 C30,24.7344235 30.2850342,24.4493894 30.6334092,24.4493894 L30.6334092,24.4493894 Z M41.3324363,16.1107431 C41.3324363,14.9501138 40.3823225,14 39.2216932,14 L36.296833,14 C35.1362037,14 34.1860898,14.9501138 34.1860898,16.1107431 L34.1860898,22.0349824 L41.3324363,22.0349824 L41.3324363,16.1107431 L41.3324363,16.1107431 Z M70.8045953,16.1107431 C70.8045953,14.9501138 71.7547092,14 72.9153384,14 L75.8401987,14 C77.000828,14 77.9509418,14.9501138 77.9509418,16.1107431 L77.9509418,27.7990064 L70.8045953,27.7990064 L70.8045953,16.1107431 L70.8045953,16.1107431 Z M52.4953426,16.1107431 C52.4953426,14.9501138 53.4454564,14 54.6060857,14 L57.530946,14 C58.6915752,14 59.6416891,14.9501138 59.6416891,16.1107431 L59.6416891,37.5535086 L52.4953426,37.5535086 L52.4953426,16.1107431 L52.4953426,16.1107431 Z M77.9509418,36.9685365 L77.9509418,49.7093769 C77.9509418,50.8700062 77.000828,51.8201201 75.8401987,51.8201201 L72.9153384,51.8201201 C71.7547092,51.8201201 70.8045953,50.8700062 70.8045953,49.7093769 L70.8045953,36.9685365 L67.2519147,36.9685365 C66.9035396,36.9685365 66.6185055,36.6835024 66.6185055,36.3351273 L66.6185055,30.8468226 C66.6185055,30.4984475 66.9035396,30.2134134 67.2519147,30.2134134 L81.5036224,30.2134134 C81.8519975,30.2134134 82.1370317,30.4984475 82.1370317,30.8468226 L82.1370317,36.3351273 C82.1370317,36.6835024 81.8519975,36.9685365 81.5036224,36.9685365 L77.9509418,36.9685365 L77.9509418,36.9685365 Z M59.6416891,46.7211757 L59.6416891,49.7093769 C59.6416891,50.8700062 58.6915752,51.8201201 57.530946,51.8201201 L54.6060857,51.8201201 C53.4454564,51.8201201 52.4953426,50.8700062 52.4953426,49.7093769 L52.4953426,46.7211757 L48.942662,46.7211757 C48.5942869,46.7211757 48.3092527,46.4361416 48.3092527,46.0877665 L48.3092527,40.5994618 C48.3092527,40.2510867 48.5942869,39.9679155 48.942662,39.9679155 L63.1943697,39.9679155 C63.5427448,39.9679155 63.8277789,40.2510867 63.8277789,40.5994618 L63.8277789,46.0877665 C63.8277789,46.4361416 63.5427448,46.7211757 63.1943697,46.7211757 L59.6416891,46.7211757 L59.6416891,46.7211757 Z" id="Page-1"></path>
            </g>
        </g>
    </g>
</svg>