<?xml version="1.0" encoding="UTF-8"?>
<svg width="90px" height="90px" viewBox="0 0 90 90" version="1.1" xmlns="http://www.w3.org/2000/svg" xmlns:xlink="http://www.w3.org/1999/xlink">
    <!-- Generator: Sketch 39.1 (31720) - http://www.bohemiancoding.com/sketch -->
    <title>Group 84</title>
    <desc>Created with Sketch.</desc>
    <defs>
        <polygon id="path-1" points="0 0.000204503956 0 47.220168 44.8127527 47.220168 44.8127527 0.000204503956 0 0.000204503956"></polygon>
    </defs>
    <g id="0327new" stroke="none" stroke-width="1" fill="none" fill-rule="evenodd">
        <g id="云平台简介" transform="translate(-420.000000, -1461.000000)">
            <g id="云平台生态" transform="translate(-210.000000, 1411.000000)">
                <g id="Group-84" transform="translate(630.000000, 50.000000)">
                    <circle id="Oval-15" fill="#DD3730" cx="45" cy="45" r="45"></circle>
                    <g id="Group-7" transform="translate(23.000000, 23.000000)">
                        <g id="Page-1">
                            <mask id="mask-2" fill="white">
                                <use xlink:href="#path-1"></use>
                            </mask>
                            <g id="Clip-2"></g>
                            <path d="M39.0999774,17.5694315 C36.3843,17.5244407 34.8792677,15.6862422 34.8656226,13.4299793 C34.8569129,12.3151406 35.0935258,11.2680803 35.8707194,10.4769422 C36.6479129,9.68580402 37.6840742,9.24553621 38.8186548,9.23647961 C41.0875258,9.23647961 43.0393645,11.0927912 43.0573645,13.3759318 C43.0707194,15.650308 41.3511387,17.5200584 39.0999774,17.5694315 M9.67462258,32.0150067 L9.61655806,32.9454997 L9.61655806,32.0150067 C4.94904194,32.0150067 1.87162258,28.5226634 1.8449129,24.2304175 C1.83155806,22.1360049 2.63981613,20.1672161 4.10042903,18.6752136 C5.56104194,17.1873013 7.51288065,16.360521 9.64326774,16.34679 C13.9089774,16.34679 17.3928484,19.8391333 17.4195581,24.1316713 C17.4419129,28.4507949 13.9670419,31.988129 9.67462258,32.0150067 M29.7695903,33.6644772 C32.8780742,33.6644772 35.4732677,36.2085064 35.4956226,39.3412149 C35.5133323,42.4829799 33.0479129,45.058269 29.9257839,45.0898211 C26.2276548,45.0717079 24.2087516,42.532353 24.1907516,39.4130834 C24.1817516,37.8895289 24.6642677,36.4512818 25.7271387,35.3636129 C26.7946548,34.2803262 28.2195581,33.6735338 29.7695903,33.6644772 M14.6147516,3.30352769 C15.4857194,2.41364334 16.6513645,1.91932806 17.9287839,1.91027145 C20.4792677,1.91027145 22.5605903,3.99562751 22.5783,6.56215216 C22.5873,7.81167133 22.109429,8.9937042 21.2341065,9.88358856 C20.3631387,10.7734729 19.1882032,11.2680803 17.9464935,11.2771369 L17.906429,12.2073378 L17.906429,11.2771369 C15.1283323,11.2771369 13.2792677,9.19148874 13.2656226,6.62496409 C13.2522677,5.37106269 13.7391387,4.19341205 14.6147516,3.30352769 M38.7783,7.34423372 C37.1748484,7.35329032 35.674171,7.96884723 34.5485903,9.11523798 C33.4230097,10.2613366 32.8110097,11.7308436 32.8200097,13.3399976 C32.8246548,14.0096019 32.9361387,14.6479464 33.1416871,15.2413001 L18.518429,20.5808984 C17.7545903,18.7470822 16.4548161,17.1785368 14.8156548,16.0996324 L16.2492677,12.5354206 C16.7852032,12.6703932 17.3481387,12.7422617 17.924429,12.7422617 L17.9688484,12.7422617 C19.706429,12.7422617 21.3365903,12.225451 22.5559452,10.9803141 C23.7753,9.73546926 24.4410097,8.27472672 24.4320097,6.52621789 C24.4096548,2.93951065 21.4930742,0.000204503956 17.8840742,0.000204503956 C16.1464935,0.00896895922 14.5163323,0.651695679 13.2969774,1.89683262 C12.0776226,3.14167742 11.4122032,4.6924017 11.4212032,6.44091053 C11.4345581,8.7780986 12.6806226,10.7465953 14.5343323,11.8342642 L13.1674935,15.2278612 C12.0552677,14.7738624 10.8449129,14.5220304 9.57649355,14.5220304 C7.00365484,14.5401436 4.5873,15.6009349 2.7783,17.4435155 C0.969590323,19.2863883 -0.0175064516,21.8032477 0.000203225806,24.3922678 C0.0359129032,29.7046963 4.35939677,34.1769057 9.6389129,34.1769057 L9.70133226,34.1769057 C12.5197839,34.1769057 15.0479129,32.9005088 16.7988484,30.9048424 L23.315429,35.5613974 C22.6096548,36.7612514 22.2345581,38.1501254 22.2432677,39.5614948 C22.2702677,43.7143859 25.6470097,47.220168 29.7695903,47.220168 L29.8186548,47.220168 C33.9679452,47.220168 37.3223323,43.6606306 37.2999774,39.4805697 C37.2732677,35.3320609 33.8965258,31.8397176 29.7248806,31.8397176 C27.7326871,31.8531564 25.8612677,32.6711722 24.4543645,34.0869239 L17.888429,29.3947267 C18.7773968,27.8933755 19.2866226,26.1361023 19.2732677,24.284465 C19.2686226,23.6280073 19.1972032,22.9808984 19.0677194,22.3562848 L34.0393645,16.8998271 C35.1382355,18.3246354 36.871171,19.2370152 38.8186548,19.2370152 L38.8587194,19.2370152 C40.4578161,19.2370152 41.9584935,18.6839781 43.0840742,17.5334973 C44.2096548,16.3873987 44.8216548,14.9625904 44.8126548,13.3490542 C44.7903,10.0454388 42.1013323,7.34423372 38.7783,7.34423372" id="Fill-1" stroke="#FFFFFF" fill="#FFFFFF" mask="url(#mask-2)"></path>
                        </g>
                    </g>
                </g>
            </g>
        </g>
    </g>
</svg>