<?xml version="1.0" encoding="UTF-8"?>
<svg width="70px" height="70px" viewBox="0 0 70 70" version="1.1" xmlns="http://www.w3.org/2000/svg" xmlns:xlink="http://www.w3.org/1999/xlink">
    <!-- Generator: Sketch 39.1 (31720) - http://www.bohemiancoding.com/sketch -->
    <title>Group 85</title>
    <desc>Created with Sketch.</desc>
    <defs></defs>
    <g id="0327new" stroke="none" stroke-width="1" fill="none" fill-rule="evenodd">
        <g id="云平台简介" transform="translate(-750.000000, -1530.000000)">
            <g id="云平台生态" transform="translate(-210.000000, 1411.000000)">
                <g id="Group-85" transform="translate(960.000000, 119.000000)">
                    <path d="M35,70 C54.3299662,70 70,54.3299662 70,35 C70,15.6700338 54.3299662,0 35,0 C15.6700338,0 0,15.6700338 0,35 C0,54.3299662 15.6700338,70 35,70 Z" id="Oval-15" fill="#DD3730"></path>
                    <g id="Page-1" transform="translate(14.000000, 18.000000)" fill="#FFFFFF">
                        <path d="M20.0871864,-4.52380953e-05 L0.983909605,11.2667286 L19.2218757,23.1014667 L39.2790508,11.3189786 L20.0871864,-4.52380953e-05 Z M5.67633898,11.366931 L20.0871864,2.86759762 L34.4094463,11.3149071 L19.2865085,20.1989905 L5.67633898,11.366931 Z" id="Fill-1"></path>
                        <polygon id="Fill-2" points="18.8766102 26.4394048 1.36293785 14.8340238 0 16.8943929 18.5855367 29.2100119 18.6112994 29.1713333 18.7374011 29.3864405 39.9584181 16.9120357 38.7080226 14.782"></polygon>
                        <polygon id="Fill-3" points="0.349016949 23.303794 18.5643842 35.9283893 18.5973785 35.8804369 18.7377175 36.119294 39.9585085 23.6451155 38.708113 21.5144012 18.9022373 33.1571036 1.75421469 21.2723774"></polygon>
                    </g>
                </g>
            </g>
        </g>
    </g>
</svg>