<?xml version="1.0" encoding="UTF-8"?>
<svg width="90px" height="90px" viewBox="0 0 90 90" version="1.1" xmlns="http://www.w3.org/2000/svg" xmlns:xlink="http://www.w3.org/1999/xlink">
    <!-- Generator: Sketch 39.1 (31720) - http://www.bohemiancoding.com/sketch -->
    <title>Group 86</title>
    <desc>Created with Sketch.</desc>
    <defs></defs>
    <g id="0327new" stroke="none" stroke-width="1" fill="none" fill-rule="evenodd">
        <g id="云平台简介" transform="translate(-1072.000000, -1489.000000)">
            <g id="云平台生态" transform="translate(-210.000000, 1411.000000)">
                <g id="Group-86" transform="translate(1282.000000, 78.000000)">
                    <circle id="Oval-15" fill="#DD3730" cx="45" cy="45" r="45"></circle>
                    <g id="Page-1" transform="translate(23.000000, 26.000000)" fill="#FFFFFF">
                        <g id="Group-3" transform="translate(0.000000, 0.236389)">
                            <path d="M11.785384,2.81172338 C10.657464,2.81172338 9.18336114,3.53286921 8.63083543,4.35597106 L3.10689257,12.4461678 C2.59405829,13.2123021 2.62612686,14.6005544 3.18075543,15.348853 L22.4108583,41.308772 C22.7544126,41.7732975 23.1660469,41.7802187 23.5093383,41.3183553 L42.7399669,15.3557743 C43.2966983,14.6032164 43.3274526,13.2626146 42.8056811,12.485566 L37.2946183,4.35756829 C36.7392011,3.53153819 35.2653611,2.81172338 34.1348126,2.81172338 L11.785384,2.81172338 Z M22.9662754,44.4560984 C21.9132697,44.4560984 20.9088926,43.9181007 20.212584,42.9781354 L0.983795429,17.0182164 C-0.270821714,15.3243623 -0.333381714,12.6253229 0.841589714,10.8731701 L6.36553257,2.78297338 C7.41617257,1.21689699 9.74876686,0.0298946759 11.785384,0.0298946759 L34.1345497,0.0298946759 C36.1719554,0.0298946759 38.5056011,1.21556597 39.5625497,2.78856366 L45.0722983,10.9154965 C46.2646183,12.6878808 46.204424,15.3121169 44.9369269,17.0251377 L25.7062983,42.9863877 C25.0155097,43.9207627 24.0163897,44.4560984 22.9662754,44.4560984 L22.9662754,44.4560984 Z" id="Fill-1"></path>
                        </g>
                        <path d="M44.7625737,14.8707512 L2.87365943,14.8707512 C2.49461943,14.8707512 2.18681371,14.559559 2.18681371,14.1754271 C2.18681371,13.7910289 2.49461943,13.4798368 2.87365943,13.4798368 L44.7625737,13.4798368 C45.1421394,13.4798368 45.4491566,13.7910289 45.4491566,14.1754271 C45.4491566,14.559559 45.1421394,14.8707512 44.7625737,14.8707512" id="Fill-4"></path>
                        <path d="M21.8717909,14.6059051 C21.7067166,14.6059051 21.5419051,14.5462755 21.4091623,14.4238218 L8.72078514,2.69355556 C8.44110514,2.43560417 8.42086514,1.99530324 8.67636229,1.71153009 C8.93185943,1.42775694 9.36636229,1.40725926 9.64683086,1.66680787 L22.3357337,13.3970741 C22.6162023,13.6563565 22.6348651,14.0966574 22.3801566,14.3790995 C22.2445223,14.5297708 22.0581566,14.6059051 21.8717909,14.6059051" id="Fill-6"></path>
                        <path d="M23.604624,14.6059051 C23.4182583,14.6059051 23.2332069,14.5297708 23.0978354,14.3790995 C22.8415497,14.0966574 22.8617897,13.6563565 23.1419954,13.3970741 L29.8898011,7.15965509 C30.1700069,6.90037269 30.6045097,6.92060417 30.8594811,7.20437731 C31.115504,7.48841667 31.095264,7.92845139 30.8150583,8.18666898 L24.0675154,14.4238218 C23.9360869,14.5462755 23.7696983,14.6059051 23.604624,14.6059051" id="Fill-8"></path>
                        <path d="M32.1174366,6.73726968 C31.9310709,6.73726968 31.7460194,6.66113542 31.6103851,6.51179514 C31.3543623,6.22802199 31.3743394,5.78772106 31.654808,5.52843866 L32.1321566,5.08680671 C32.4126251,4.82885532 32.847128,4.84775579 33.1018366,5.13046412 C33.3581223,5.41423727 33.3378823,5.85427199 33.0589909,6.1138206 L32.580328,6.55518634 C32.4486366,6.67737384 32.2838251,6.73726968 32.1174366,6.73726968" id="Fill-10"></path>
                        <path d="M34.2473417,4.76768171 C34.060976,4.76768171 33.8759246,4.69154745 33.7402903,4.54087616 C33.4842674,4.25843403 33.5042446,3.8181331 33.7847131,3.55885069 L35.8300046,1.66667477 C36.1117874,1.40739236 36.544976,1.42762384 36.8009989,1.71166319 C37.0559703,1.99543634 37.0370446,2.43547106 36.7568389,2.69368866 L34.7099703,4.58559838 C34.5785417,4.70805208 34.412416,4.76768171 34.2473417,4.76768171" id="Fill-12"></path>
                        <path d="M12.9419029,16.9639375 C12.6672171,16.9639375 12.4085657,16.7967616 12.3023714,16.5225718 L11.477,14.429412 C11.3387371,14.0721667 11.5130114,13.6686019 11.8660286,13.5275139 C12.2206229,13.3874907 12.6183257,13.565581 12.7555371,13.9228264 L13.5816971,16.0157199 C13.7196971,16.3732315 13.5454229,16.7765301 13.1926686,16.916287 C13.1096057,16.9490301 13.0249657,16.9639375 12.9419029,16.9639375" id="Fill-14"></path>
                        <path d="M13.8512571,19.3164861 C13.5763086,19.3164861 13.3173943,19.1493102 13.2114629,18.8751204 L12.9698971,18.2530023 C12.8318971,17.8957569 13.0061714,17.4921921 13.3589257,17.3524352 C13.7129943,17.211081 14.1114857,17.3889051 14.2494857,17.7448194 L14.4897371,18.3669375 C14.6290514,18.7255139 14.4547771,19.1290787 14.1007086,19.2688356 C14.01896,19.3015787 13.93432,19.3164861 13.8512571,19.3164861" id="Fill-16"></path>
                        <path d="M22.9595463,42.8871204 C22.685912,42.8871204 22.4256834,42.7202106 22.319752,42.4457546 L14.1370091,21.2711134 C13.9987463,20.9138681 14.1730206,20.5105694 14.5257749,20.3705463 C14.8785291,20.2294583 15.2783349,20.4072824 15.4163349,20.7645278 L23.5993406,41.939169 C23.7373406,42.2964144 23.5630663,42.699713 23.210312,42.8397361 C23.1272491,42.872213 23.0426091,42.8871204 22.9595463,42.8871204" id="Fill-18"></path>
                        <path d="M22.9595463,42.8871204 C22.8777977,42.8871204 22.7931577,42.872213 22.7114091,42.8410671 C22.3586549,42.702375 22.1828034,42.2990764 22.319752,41.9405 L32.9263006,14.2297593 C33.0629863,13.8711829 33.4614777,13.6930926 33.814232,13.8317847 C34.1680377,13.9702106 34.3438891,14.3737755 34.2069406,14.7323519 L23.6006549,42.4430926 C23.4947234,42.7188796 23.2344949,42.8871204 22.9595463,42.8871204" id="Fill-20"></path>
                    </g>
                </g>
            </g>
        </g>
    </g>
</svg>