<?xml version="1.0" encoding="UTF-8"?>
<svg width="80px" height="80px" viewBox="0 0 80 80" version="1.1" xmlns="http://www.w3.org/2000/svg" xmlns:xlink="http://www.w3.org/1999/xlink">
    <!-- Generator: Sketch 39.1 (31720) - http://www.bohemiancoding.com/sketch -->
    <title>Group 88</title>
    <desc>Created with Sketch.</desc>
    <defs>
        <polygon id="path-1" points="41.8667588 0 0 0 0 39.99912 41.8667588 39.99912 41.8667588 0"></polygon>
    </defs>
    <g id="0327new" stroke="none" stroke-width="1" fill="none" fill-rule="evenodd">
        <g id="云平台简介" transform="translate(-1398.000000, -1561.000000)">
            <g id="云平台生态" transform="translate(-210.000000, 1411.000000)">
                <g id="Group-88" transform="translate(1608.000000, 150.000000)">
                    <circle id="Oval-15" fill="#DD3730" cx="40" cy="40" r="40"></circle>
                    <g id="Page-1" transform="translate(20.000000, 24.000000)">
                        <mask id="mask-2" fill="white">
                            <use xlink:href="#path-1"></use>
                        </mask>
                        <g id="Clip-2"></g>
                        <path d="M40.42018,12.50292 C40.29298,14.84592 39.37718,16.74552 38.63198,17.66012 C38.08778,18.32792 36.63318,19.89592 35.85038,20.73292 L27.03278,11.54252 L22.55358,15.69792 L22.54338,15.70772 C20.60278,17.58052 18.02718,17.70252 18.00338,17.70332 L17.97218,17.70532 C17.86958,17.71312 17.76378,17.71712 17.65838,17.71712 C15.54918,17.71712 13.48018,16.14552 12.55478,15.33652 C14.53198,13.28792 21.78158,5.81012 24.57618,3.38332 C25.61258,2.48332 27.72758,1.43232 30.27718,1.43232 C32.93558,1.43232 35.33198,2.55132 37.39978,4.75812 C40.08798,7.62732 40.52618,10.55352 40.42018,12.50292 M36.23838,26.01172 C35.45418,26.78592 34.29238,26.88792 33.64418,26.23732 L33.63658,26.22992 L27.76678,20.67892 L27.19678,21.28192 L26.75958,21.71852 L32.44878,27.41532 C33.09918,28.06792 32.99378,29.23112 32.21398,30.00792 C31.82418,30.39632 31.33018,30.62772 30.82298,30.65872 C30.35038,30.68792 29.92318,30.53692 29.62018,30.23272 L23.80598,24.40272 L22.79178,25.41412 L22.83758,25.45992 L28.51738,31.34272 L28.52498,31.35072 C28.82778,31.65452 28.97758,32.08212 28.94658,32.55492 C28.91298,33.06212 28.68018,33.55492 28.29038,33.94352 C27.90058,34.33172 27.40658,34.56292 26.89938,34.59412 C26.42658,34.62352 25.99938,34.47232 25.69638,34.16812 L25.07598,33.54612 C26.23678,32.32852 26.21578,30.39412 25.01658,29.20352 C24.43138,28.62232 23.65478,28.30252 22.83018,28.30252 C22.62818,28.30252 22.42898,28.32212 22.23518,28.35932 C22.33738,27.44872 22.03938,26.50172 21.33998,25.80752 C20.75498,25.22652 19.97838,24.90632 19.15358,24.90632 C18.95618,24.90632 18.76198,24.92532 18.57238,24.96112 C18.58438,24.84692 18.59118,24.73132 18.59058,24.61492 C18.58758,23.78592 18.26218,23.00772 17.67378,22.42372 C17.08858,21.84252 16.31198,21.52252 15.48718,21.52252 C15.24958,21.52252 15.01638,21.55012 14.79018,21.60152 C14.80918,21.45992 14.81898,21.31632 14.81858,21.17112 C14.81558,20.34212 14.49018,19.56392 13.90178,18.97992 C13.31638,18.39872 12.53998,18.07872 11.71518,18.07872 C10.88218,18.07872 10.09998,18.40432 9.51278,18.99572 L6.73698,21.79172 L6.94258,21.55452 C6.16158,20.87632 3.99238,18.87132 3.34118,17.75232 C3.31478,17.70692 3.27998,17.64932 3.23778,17.58012 C0.44478,12.97612 0.89738,8.56232 4.54758,4.81612 C7.15898,2.13572 10.14838,1.73552 12.19598,1.87192 C14.90878,2.05252 17.09318,3.20392 18.13938,4.13512 C18.48818,4.44552 19.08378,5.01372 19.91238,5.82592 C16.05558,9.62492 11.29238,14.58132 11.01758,14.86732 L10.54098,15.36352 L11.01758,15.85972 C11.14658,15.99392 14.21718,19.14932 17.65838,19.14932 C17.79578,19.14932 17.93398,19.14432 18.06918,19.13432 C18.34798,19.12192 21.25238,18.94012 23.53298,16.74312 L26.97418,13.55052 L31.85418,18.63672 L31.84718,18.64352 L36.33258,23.38952 L36.34578,23.40292 C36.97698,24.03652 36.92478,25.27712 36.23838,26.01172 M24.35098,37.93352 C23.58518,38.69652 22.43278,38.78632 21.78218,38.13332 L21.15158,37.50092 L23.91498,34.71772 L24.56098,35.36532 C25.21138,36.01832 25.11718,37.17032 24.35098,37.93352 M18.45678,37.48152 C18.01278,37.48152 17.59458,37.30932 17.27938,36.99632 C16.96278,36.68192 16.78738,36.26312 16.78578,35.81652 C16.78418,35.37032 16.95638,34.94992 17.27098,34.63332 L21.64418,30.22852 C21.96038,29.91032 22.38138,29.73492 22.83018,29.73492 C23.27418,29.73492 23.69218,29.90712 24.00738,30.21992 C24.66138,30.86932 24.66498,31.92952 24.01598,32.58332 L19.64258,36.98792 C19.32658,37.30632 18.90538,37.48152 18.45678,37.48152 M13.60298,33.60052 C13.28618,33.28572 13.11078,32.86692 13.10918,32.42052 C13.10758,31.97412 13.27998,31.55412 13.59458,31.23712 L17.96738,26.83252 C18.28378,26.51412 18.70498,26.33872 19.15358,26.33872 C19.59758,26.33872 20.01578,26.51132 20.33098,26.82392 C20.98478,27.47332 20.98858,28.53332 20.33938,29.18732 L15.96638,33.59192 C15.65018,33.91032 15.22918,34.08552 14.78038,34.08552 C14.33638,34.08552 13.91838,33.91332 13.60298,33.60052 M9.93678,30.21672 C9.62018,29.90192 9.44478,29.48312 9.44318,29.03692 C9.44158,28.59052 9.61378,28.17012 9.92838,27.85352 L14.30138,23.44892 C14.61738,23.13032 15.03858,22.95512 15.48738,22.95512 C15.93138,22.95512 16.34958,23.12732 16.66458,23.44032 C16.98158,23.75472 17.15678,24.17372 17.15818,24.62012 C17.15998,25.06652 16.98758,25.48672 16.67318,25.80352 L12.29998,30.20812 C11.98398,30.52652 11.56278,30.70192 11.11418,30.70192 C10.66998,30.70192 10.25178,30.52952 9.93678,30.21672 M6.16478,26.77292 C5.84798,26.45832 5.67278,26.03932 5.67118,25.59312 C5.66958,25.14652 5.84178,24.72652 6.15618,24.40952 L10.52938,20.00512 C10.84538,19.68652 11.26658,19.51132 11.71518,19.51132 C12.15918,19.51132 12.57758,19.68352 12.89258,19.99652 C13.20958,20.31092 13.38478,20.72992 13.38618,21.17632 C13.38798,21.62272 13.21578,22.04292 12.90118,22.35972 L8.52798,26.76452 C8.21198,27.08272 7.79078,27.25812 7.34218,27.25812 C6.89798,27.25792 6.47978,27.08572 6.16478,26.77292 M38.44498,3.77892 C35.51858,0.65552 32.38798,-8e-05 30.27718,-8e-05 C27.33258,-8e-05 24.85978,1.23992 23.63698,2.30172 C22.94478,2.90312 21.99998,3.79192 20.93678,4.82392 C20.07978,3.98372 19.45998,3.39312 19.09198,3.06532 C16.32058,0.59892 8.90898,-1.71288 3.52158,3.81652 C2.07038,5.30612 1.05418,6.92132 0.50078,8.61752 C0.04058,10.02852 -0.10342,11.50492 0.07278,13.00532 C0.38178,15.63392 1.56698,17.58772 2.01318,18.32312 C2.04978,18.38332 2.08018,18.43332 2.10318,18.47272 C2.94878,19.92652 5.52078,22.21292 5.94718,22.58712 L5.13978,23.40052 C4.55578,23.98872 4.23558,24.76932 4.23858,25.59812 C4.24178,26.42712 4.56738,27.20532 5.15558,27.78912 C5.74078,28.37052 6.51718,28.69052 7.34198,28.69052 C7.57978,28.69052 7.81318,28.66292 8.03918,28.61152 C8.02018,28.75292 8.01018,28.89672 8.01058,29.04172 C8.01378,29.87072 8.33938,30.64912 8.92758,31.23292 C9.51278,31.81412 10.28918,32.13432 11.11418,32.13432 C11.31118,32.13432 11.50558,32.11532 11.69538,32.07952 C11.68298,32.19372 11.67638,32.30912 11.67698,32.42552 C11.67998,33.25472 12.00538,34.03292 12.59378,34.61672 C13.17898,35.19792 13.95558,35.51812 14.78038,35.51812 C14.98158,35.51812 15.18018,35.49852 15.37358,35.46132 C15.36038,35.58032 15.35298,35.70032 15.35358,35.82172 C15.35638,36.65052 15.68198,37.42872 16.27018,38.01292 C16.85558,38.59392 17.63218,38.91392 18.45678,38.91392 C19.03958,38.91392 19.59738,38.75412 20.08078,38.45592 L20.76758,39.14452 C21.33758,39.71672 22.09758,39.99912 22.88078,39.99912 C23.75678,39.99892 24.66198,39.64532 25.36198,38.94812 C26.18678,38.12632 26.53538,37.01792 26.38998,36.00592 C26.51798,36.02152 26.64838,36.03052 26.78098,36.03012 C26.84938,36.03012 26.91838,36.02812 26.98758,36.02372 C27.84278,35.97092 28.66438,35.59252 29.30118,34.95812 C29.93798,34.32392 30.31958,33.50372 30.37558,32.64872 C30.38838,32.45392 30.38298,32.26272 30.36238,32.07612 C30.47478,32.08832 30.58878,32.09512 30.70458,32.09512 C30.77298,32.09512 30.84178,32.09272 30.91138,32.08852 C31.76638,32.03572 32.58818,31.65712 33.22478,31.02272 C34.05778,30.19312 34.41398,29.07792 34.27338,28.06152 C34.42338,28.08292 34.57558,28.09432 34.72878,28.09432 C35.61798,28.09432 36.54138,27.73192 37.25698,27.01892 L37.27198,27.00352 C38.50518,25.69892 38.54798,23.59292 37.36738,22.39972 L36.80738,21.80712 C37.57378,20.98852 39.14298,19.30032 39.74218,18.56512 C40.62338,17.48372 41.70438,15.26752 41.85038,12.58072 C41.97138,10.35252 41.47878,7.01712 38.44498,3.77892" id="Fill-1" stroke="#FFFFFF" fill="#FFFFFF" mask="url(#mask-2)"></path>
                    </g>
                </g>
            </g>
        </g>
    </g>
</svg>