<?xml version="1.0" encoding="UTF-8"?>
<svg width="48px" height="48px" viewBox="0 0 48 48" version="1.1" xmlns="http://www.w3.org/2000/svg" xmlns:xlink="http://www.w3.org/1999/xlink">
    <!-- Generator: Sketch 41.2 (35397) - http://www.bohemiancoding.com/sketch -->
    <title>统一入口</title>
    <desc>Created with Sketch.</desc>
    <defs>
        <rect id="path-1" x="0" y="0" width="49" height="33"></rect>
        <polygon id="path-3" points="0.888888889 0 24 0 24 25 0 25"></polygon>
        <rect id="path-5" x="2.64772727" y="4.64772727" width="33.7045455" height="25" rx="4"></rect>
        <mask id="mask-6" maskContentUnits="userSpaceOnUse" maskUnits="objectBoundingBox" x="0" y="0" width="33.7045455" height="25" fill="white">
            <use xlink:href="#path-5"></use>
        </mask>
    </defs>
    <g id="解决方案页面" stroke="none" stroke-width="1" fill="none" fill-rule="evenodd">
        <g id="统一入口">
            <g id="Group-29" transform="translate(4.000000, 4.000000)">
                <g id="Group-28">
                    <g id="Group-21">
                        <g id="Group-19">
                            <g id="Group-8">
                                <g id="Group-12" transform="translate(0.000000, 10.000000)">
                                    <g id="Group-11">
                                        <g id="Group-13">
                                            <mask id="mask-2" fill="white">
                                                <use xlink:href="#path-1"></use>
                                            </mask>
                                            <g id="Mask"></g>
                                            <g mask="url(#mask-2)">
                                                <g transform="translate(5.000000, 1.000000)">
                                                    <mask id="mask-4" fill="white">
                                                        <use xlink:href="#path-3"></use>
                                                    </mask>
                                                    <g id="Mask" stroke="none" fill="none"></g>
                                                </g>
                                            </g>
                                        </g>
                                    </g>
                                </g>
                                <use id="Rectangle-29" stroke="#40465B" mask="url(#mask-6)" stroke-width="4" transform="translate(19.500000, 17.147727) rotate(-270.000000) translate(-19.500000, -17.147727) " xlink:href="#path-5"></use>
                            </g>
                        </g>
                    </g>
                    <polyline id="Path-8" stroke="#40465B" stroke-width="2" points="12 1 17 6 17 32"></polyline>
                    <ellipse id="Oval-12" fill="#40465B" cx="13.5" cy="19" rx="1.5" ry="2"></ellipse>
                </g>
                <polyline id="Path-9" stroke="#40465B" stroke-width="2" points="25 12 27 16 20 16"></polyline>
                <polyline id="Path-9" stroke="#40465B" stroke-width="2" transform="translate(25.500000, 22.000000) rotate(-180.000000) translate(-25.500000, -22.000000) " points="27 20 29 24 22 24"></polyline>
                <path d="M10,37 C10,36.4477153 10.4509254,36 10.9947712,36 L28.0052288,36 C28.5546258,36 29,36.4438648 29,37 L29,37 C29,37.5522847 28.5490746,38 28.0052288,38 L10.9947712,38 C10.4453742,38 10,37.5561352 10,37 L10,37 Z" id="Rectangle-6" fill="#40465B"></path>
            </g>
        </g>
    </g>
</svg>