<?xml version="1.0" encoding="UTF-8"?>
<svg width="48px" height="48px" viewBox="0 0 48 48" version="1.1" xmlns="http://www.w3.org/2000/svg" xmlns:xlink="http://www.w3.org/1999/xlink">
    <!-- Generator: Sketch 41.2 (35397) - http://www.bohemiancoding.com/sketch -->
    <title>协同</title>
    <desc>Created with Sketch.</desc>
    <defs></defs>
    <g id="解决方案页面" stroke="none" stroke-width="1" fill="none" fill-rule="evenodd">
        <g id="协同">
            <g id="Group-22" transform="translate(5.000000, 6.000000)">
                <path d="M30,11.089075 L30,1.99124431 C30,0.899897516 29.1083227,0 28.008383,0 L1.99161703,0 C0.89784041,0 0,0.891510444 0,1.99124431 L0,26.0087557 C0,27.1001025 0.894580447,28 1.99810135,28 L8,28 L13.6833535,34.4952612 C14.4152239,35.3316845 15,35.1054196 15,34.0018986 L15,28 L16.8344886,28 C16.5863978,27.3572922 16.3898914,26.6889337 16.2500453,26 L14.007484,26 C13.4510659,26 13,26.4437166 13,26.9998075 L13,31 L9.625,26.78125 C9.27982203,26.3497775 8.56211865,26 7.99707067,26 L3.00292933,26 C2.44902676,26 2,25.5525308 2,24.9993054 L2,3.00069463 C2,2.44802625 2.45127869,2 3.00329963,2 L26.9967004,2 C27.5508075,2 28,2.44746922 28,3.00069463 L28,11.0098172 C28.1658568,11.0032928 28.3325438,11 28.5,11 C29.0076361,11 29.5082046,11.0302601 30,11.089075 Z" id="Combined-Shape" fill="#40465B"></path>
                <path d="M28,32 C32.9705627,32 37,27.9705627 37,23 C37,18.0294373 32.9705627,14 28,14 C23.0294373,14 19,18.0294373 19,23 C19,27.9705627 23.0294373,32 28,32 Z M28,30 C31.8659932,30 35,26.8659932 35,23 C35,19.1340068 31.8659932,16 28,16 C24.1340068,16 21,19.1340068 21,23 C21,26.8659932 24.1340068,30 28,30 Z" id="Combined-Shape" fill="#40465B"></path>
                <path d="M29,21.996582 L29,18 L27,18 L27,23 L27.0150146,23 L27.0150146,23.996582 L33.0150146,23.996582 L33.0150146,21.996582 L29,21.996582 Z" id="Combined-Shape" fill="#40465B"></path>
                <path d="M16.3333333,5 L21,11 L7,11" id="Path-7" stroke="#40465B" stroke-width="2"></path>
                <path d="M13.3333333,17 L18,23 L9,23" id="Path-7" stroke="#40465B" stroke-width="2" transform="translate(13.500000, 20.000000) rotate(-180.000000) translate(-13.500000, -20.000000) "></path>
            </g>
        </g>
    </g>
</svg>