<?xml version="1.0" encoding="UTF-8"?>
<svg width="48px" height="48px" viewBox="0 0 48 48" version="1.1" xmlns="http://www.w3.org/2000/svg" xmlns:xlink="http://www.w3.org/1999/xlink">
    <!-- Generator: Sketch 41.2 (35397) - http://www.bohemiancoding.com/sketch -->
    <title>社交</title>
    <desc>Created with Sketch.</desc>
    <defs></defs>
    <g id="解决方案页面" stroke="none" stroke-width="1" fill="none" fill-rule="evenodd">
        <g id="社交" fill="#40465B">
            <g id="Group-26" transform="translate(3.000000, 5.000000)">
                <g id="Group-22" transform="translate(8.000000, 0.000000)">
                    <path d="M29,23 L31.0020869,23 C32.1017394,23 33,22.1041826 33,20.9991358 L33,2.00086422 C33,0.901627257 32.1035463,0 30.9977147,0 L2.00228533,0 C0.899784928,0 0,0.895817426 0,2.00086422 L0,4 L2,4 L2,2.5082041 C2,2.22753073 2.21675479,2 2.5033493,2 L30.4966507,2 C30.7746428,2 31,2.22661515 31,2.5082041 L31,20.4917959 C31,20.7724693 30.7721195,21 30.5089948,21 L29,21 L29,23 Z" id="Combined-Shape"></path>
                </g>
                <g id="Group-22" transform="translate(0.000000, 6.000000)">
                    <path d="M0,2.00494659 C0,0.897645164 0.889892578,0 1.99970728,0 L34.0002927,0 C35.1047006,0 36,0.897026226 36,2.00494659 L36,21.9950534 C36,23.1023548 35.1041422,24 34.0026083,24 L27,24 L27,30.0018986 C27,31.1054196 26.4152239,31.3316845 25.6833535,30.4952612 L20,24 L1.99079514,24 C0.891309342,24 0,23.1029738 0,21.9950534 L0,2.00494659 Z M2,2.49438477 C2,2.2213436 2.22143126,2 2.50264359,2 L33.4973564,2 C33.7749588,2 34,2.22460938 34,2.49438477 L34,21.5056152 C34,21.7786564 33.7775269,22 33.4903342,22 L25.9975446,22 C25.446616,22 25,22.4437166 25,22.9998075 L25,27 L21.625,22.78125 C21.279822,22.3497775 20.5490746,22 20.0052288,22 L2.5082041,22 C2.22753073,22 2,21.7753906 2,21.5056152 L2,2.49438477 Z" id="Combined-Shape"></path>
                </g>
                <rect id="Rectangle-54" x="14" y="20" width="6" height="2"></rect>
                <rect id="Rectangle-55" x="10" y="14.0390625" width="2" height="3.9609375"></rect>
                <rect id="Rectangle-55" x="22" y="14.0390625" width="2" height="3.9609375"></rect>
            </g>
        </g>
    </g>
</svg>